<svg width="14" height="15" viewBox="0 0 14 15" fill="none" xmlns="http://www.w3.org/2000/svg">
<g id="Calendar">
<path id="Fill 1" fillRule="evenodd" clipRule="evenodd" d="M12.7777 6.60254H0.89502C0.61902 6.60254 0.39502 6.37854 0.39502 6.10254C0.39502 5.82654 0.61902 5.60254 0.89502 5.60254H12.7777C13.0537 5.60254 13.2777 5.82654 13.2777 6.10254C13.2777 6.37854 13.0537 6.60254 12.7777 6.60254Z" fill="#8C8E9C"/>
<path id="Fill 3" fillRule="evenodd" clipRule="evenodd" d="M9.80076 9.20605C9.52476 9.20605 9.2981 8.98205 9.2981 8.70605C9.2981 8.43005 9.51876 8.20605 9.79476 8.20605H9.80076C10.0768 8.20605 10.3008 8.43005 10.3008 8.70605C10.3008 8.98205 10.0768 9.20605 9.80076 9.20605Z" fill="#8C8E9C"/>
<path id="Fill 5" fillRule="evenodd" clipRule="evenodd" d="M6.84227 9.20605C6.56627 9.20605 6.3396 8.98205 6.3396 8.70605C6.3396 8.43005 6.56027 8.20605 6.83627 8.20605H6.84227C7.11827 8.20605 7.34227 8.43005 7.34227 8.70605C7.34227 8.98205 7.11827 9.20605 6.84227 9.20605Z" fill="#8C8E9C"/>
<path id="Fill 7" fillRule="evenodd" clipRule="evenodd" d="M3.87785 9.20605C3.60185 9.20605 3.37451 8.98205 3.37451 8.70605C3.37451 8.43005 3.59585 8.20605 3.87185 8.20605H3.87785C4.15385 8.20605 4.37785 8.43005 4.37785 8.70605C4.37785 8.98205 4.15385 9.20605 3.87785 9.20605Z" fill="#8C8E9C"/>
<path id="Fill 9" fillRule="evenodd" clipRule="evenodd" d="M9.80076 11.7974C9.52476 11.7974 9.2981 11.5734 9.2981 11.2974C9.2981 11.0214 9.51876 10.7974 9.79476 10.7974H9.80076C10.0768 10.7974 10.3008 11.0214 10.3008 11.2974C10.3008 11.5734 10.0768 11.7974 9.80076 11.7974Z" fill="#8C8E9C"/>
<path id="Fill 11" fillRule="evenodd" clipRule="evenodd" d="M6.84227 11.7974C6.56627 11.7974 6.3396 11.5734 6.3396 11.2974C6.3396 11.0214 6.56027 10.7974 6.83627 10.7974H6.84227C7.11827 10.7974 7.34227 11.0214 7.34227 11.2974C7.34227 11.5734 7.11827 11.7974 6.84227 11.7974Z" fill="#8C8E9C"/>
<path id="Fill 13" fillRule="evenodd" clipRule="evenodd" d="M3.87785 11.7974C3.60185 11.7974 3.37451 11.5734 3.37451 11.2974C3.37451 11.0214 3.59585 10.7974 3.87185 10.7974H3.87785C4.15385 10.7974 4.37785 11.0214 4.37785 11.2974C4.37785 11.5734 4.15385 11.7974 3.87785 11.7974Z" fill="#8C8E9C"/>
<path id="Fill 15" fillRule="evenodd" clipRule="evenodd" d="M9.52881 3.8605C9.25281 3.8605 9.02881 3.6365 9.02881 3.3605V1.1665C9.02881 0.890504 9.25281 0.666504 9.52881 0.666504C9.80481 0.666504 10.0288 0.890504 10.0288 1.1665V3.3605C10.0288 3.6365 9.80481 3.8605 9.52881 3.8605Z" fill="#8C8E9C"/>
<path id="Fill 17" fillRule="evenodd" clipRule="evenodd" d="M4.14355 3.8605C3.86755 3.8605 3.64355 3.6365 3.64355 3.3605V1.1665C3.64355 0.890504 3.86755 0.666504 4.14355 0.666504C4.41955 0.666504 4.64355 0.890504 4.64355 1.1665V3.3605C4.64355 3.6365 4.41955 3.8605 4.14355 3.8605Z" fill="#8C8E9C"/>
<g id="Group 21">
<mask id="mask0_13770_706" style="mask-type:luminance" maskUnits="userSpaceOnUse" x="0" y="1" width="14" height="14">
<path id="Clip 20" fillRule="evenodd" clipRule="evenodd" d="M0.333252 1.71924H13.3333V14.9998H0.333252V1.71924Z" fill="white"/>
</mask>
<g mask="url(#mask0_13770_706)">
<path id="Fill 19" fillRule="evenodd" clipRule="evenodd" d="M4.01392 2.71924C2.28525 2.71924 1.33325 3.64124 1.33325 5.31524V11.3479C1.33325 13.0586 2.28525 13.9999 4.01392 13.9999H9.65259C11.3813 13.9999 12.3333 13.0759 12.3333 11.3986V5.31524C12.3359 4.4919 12.1146 3.8519 11.6753 3.4119C11.2233 2.95857 10.5266 2.71924 9.65859 2.71924H4.01392ZM9.65259 14.9999H4.01392C1.74392 14.9999 0.333252 13.6006 0.333252 11.3479V5.31524C0.333252 3.09657 1.74392 1.71924 4.01392 1.71924H9.65859C10.7979 1.71924 11.7399 2.06057 12.3833 2.70524C13.0079 3.33257 13.3366 4.23457 13.3333 5.31657V11.3986C13.3333 13.6199 11.9226 14.9999 9.65259 14.9999Z" fill="#8C8E9C"/>
</g>
</g>
</g>
</svg>
