<svg width="42" height="42" viewBox="0 0 42 42" fill="none" xmlns="http://www.w3.org/2000/svg">
<g id="multipurpose/02">
<g id="Subtract">
<path d="M31.5 7.57784C31.5 6.64002 30.9997 5.77344 30.1875 5.30453L21.9844 0.56845C21.3753 0.216767 20.6248 0.216767 20.0156 0.56845L18.375 1.51567V34.7814L15.75 33.1407V12.5402L11.7338 15.0504C10.9663 15.53 10.5 16.3713 10.5 17.2764V34.4224C10.5 35.3602 11.0003 36.2268 11.8125 36.6957L20.0156 41.4318C20.6248 41.7835 21.3753 41.7835 21.9844 41.4318L23.625 40.4846V7.21887L26.25 8.8595V29.46L30.2663 26.9499C31.0338 26.4702 31.5 25.629 31.5 24.7239V7.57784Z" fill="#5263FF"/>
<path d="M34.125 7.57784V27.6337L27.4838 31.7845C26.7163 32.2642 26.25 33.1054 26.25 34.0105V38.969L38.2022 32.0685C38.8113 31.7168 39.1865 31.0668 39.1865 30.3635V11.6368C39.1865 10.9334 38.8113 10.2835 38.2022 9.93179L34.125 7.57784Z" fill="#5263FF"/>
<path d="M7.87501 34.4224V14.3665L14.5163 10.2158C15.2838 9.73608 15.75 8.89485 15.75 7.98977V3.03121L3.79785 9.93179C3.18872 10.2835 2.81348 10.9334 2.81348 11.6368V30.3635C2.81348 31.0668 3.18872 31.7168 3.79785 32.0685L7.87501 34.4224Z" fill="#5263FF"/>
</g>
</g>
</svg>
