<svg width="261" height="189" viewBox="0 0 261 189" fill="none" xmlns="http://www.w3.org/2000/svg">
<path d="M129.799 187.837C177.799 187.837 216.71 148.793 216.71 100.631C216.71 52.4676 177.799 13.4238 129.799 13.4238C81.7999 13.4238 42.8887 52.4676 42.8887 100.631C42.8887 148.793 81.7999 187.837 129.799 187.837Z" fill="#EAEEF9"/>
<path d="M229.229 57.8161C231.938 55.3319 232.128 51.1144 229.652 48.396C227.176 45.6776 222.973 45.4877 220.264 47.9719C217.555 50.4561 217.365 54.6737 219.841 57.3921C222.317 60.1105 226.52 60.3004 229.229 57.8161Z" fill="#EAEEF9"/>
<path d="M79.5716 20.908C81.8677 20.1592 83.1241 17.6844 82.3778 15.3804C81.6315 13.0764 79.1651 11.8158 76.869 12.5646C74.5728 13.3135 73.3164 15.7883 74.0627 18.0922C74.809 20.3962 77.2754 21.6569 79.5716 20.908Z" fill="#EAEEF9"/>
<path d="M89.1142 6.5955C90.6755 6.08628 91.5299 4.40342 91.0224 2.83672C90.5149 1.27003 88.8377 0.412764 87.2764 0.921979C85.715 1.43119 84.8606 3.11406 85.3681 4.68075C85.8756 6.24745 87.5528 7.10471 89.1142 6.5955Z" fill="#EAEEF9"/>
<path d="M229.731 27.9235C230.872 26.8775 230.952 25.1017 229.909 23.9571C228.867 22.8125 227.097 22.7326 225.957 23.7785C224.816 24.8245 224.736 26.6004 225.779 27.745C226.821 28.8896 228.591 28.9695 229.731 27.9235Z" fill="#EAEEF9"/>
<path d="M160.703 6.99401C161.487 6.27489 161.542 5.054 160.825 4.26707C160.108 3.48015 158.892 3.42519 158.107 4.14432C157.323 4.86345 157.268 6.08434 157.985 6.87126C158.702 7.65818 159.918 7.71314 160.703 6.99401Z" fill="#EAEEF9"/>
<path d="M0.394531 172.221H254.831" stroke="#D6DCE8" stroke-width="2" strokeMiterlimit="10"/>
<path d="M178.805 170.602H22.063L50.7036 37.7845H207.619L178.805 170.602Z" fill="white"/>
<path d="M178.805 170.602H22.063L50.7036 37.7845H207.619L178.805 170.602Z" fill="#D5DAE8"/>
<path d="M88.3706 170.602H55.9113C50.0096 170.602 45.1494 165.527 45.4965 159.577L50.7039 37.7845H58.515L88.3706 170.602Z" fill="url(#paint0_linear_16238_20532)"/>
<path d="M241.988 170.602H85.2454L58.6878 68.5828L58.5142 67.8828L50.7031 37.7845H207.619L214.389 63.858L215.43 67.8828L215.604 68.5828L241.988 170.602Z" fill="white"/>
<path d="M215.43 67.8828H58.5142L50.7031 37.7845H207.619L214.389 63.858L215.43 67.8828Z" fill="#EFF3FB"/>
<path opacity="0.3" d="M92.0155 59.3081C95.0832 59.3081 97.57 56.8011 97.57 53.7084C97.57 50.6158 95.0832 48.1088 92.0155 48.1088C88.9478 48.1088 86.4609 50.6158 86.4609 53.7084C86.4609 56.8011 88.9478 59.3081 92.0155 59.3081Z" fill="#ADB6C8"/>
<path opacity="0.3" d="M183.665 59.3081C186.733 59.3081 189.219 56.8011 189.219 53.7084C189.219 50.6158 186.733 48.1088 183.665 48.1088C180.597 48.1088 178.11 50.6158 178.11 53.7084C178.11 56.8011 180.597 59.3081 183.665 59.3081Z" fill="#ADB6C8"/>
<path d="M90.6262 55.9836C89.5847 55.9836 88.7168 55.1086 88.7168 54.0587C88.7168 53.0087 89.5847 52.1338 90.6262 52.1338C94.4449 52.1338 98.4372 46.7091 98.4372 38.4846C98.4372 38.3096 98.4372 37.9596 98.4372 37.7846C98.2636 29.7351 94.2713 24.8354 90.6262 24.8354C87.1546 24.8354 83.3358 29.5601 82.8151 36.9097H78.8228C79.3435 27.8102 84.3773 20.9856 90.4526 20.9856C96.875 20.9856 101.909 28.5102 102.256 38.1346C102.256 38.3096 102.256 38.4846 102.256 38.6596C102.43 48.284 97.2222 55.9836 90.6262 55.9836Z" fill="#ADB6C8"/>
<path d="M181.756 55.9836C180.715 55.9836 179.847 55.1086 179.847 54.0587C179.847 53.0087 180.715 52.1338 181.756 52.1338C185.575 52.1338 189.567 46.7091 189.567 38.4846C189.567 38.3096 189.567 37.9596 189.567 37.7846C189.394 29.7351 185.401 24.8354 181.756 24.8354C178.284 24.8354 174.466 29.5601 173.945 36.9097H169.953C170.473 27.8102 175.507 20.9856 181.582 20.9856C188.005 20.9856 193.039 28.5102 193.386 38.1346C193.386 38.3096 193.386 38.4846 193.386 38.6596C193.559 48.284 188.352 55.9836 181.756 55.9836Z" fill="#ADB6C8"/>
<path d="M2.10107 170.427H254.659" stroke="#D5DAE8" stroke-width="2" strokeMiterlimit="10" stroke-linecap="round" stroke-linejoin="round"/>
<path opacity="0.3" d="M184.533 107.256C183.491 107.256 182.797 106.381 182.797 105.506C182.797 104.456 183.491 103.756 184.533 103.756H189.914C190.955 103.756 191.649 104.631 191.649 105.506C191.649 106.556 190.782 107.256 189.914 107.256H184.533Z" fill="#D5DAE8"/>
<path d="M110.588 156.603C109.894 156.603 109.2 156.078 108.852 155.378L106.075 145.053H92.3624C91.3209 145.053 90.6266 144.178 90.6266 143.303C90.6266 142.253 91.4945 141.553 92.3624 141.553H105.034L100.694 126.154H87.5022C86.4607 126.154 85.7664 125.279 85.7664 124.404C85.7664 123.354 86.4607 122.655 87.5022 122.655H99.6527L95.3132 107.255H82.8155C81.774 107.255 81.0797 106.38 81.0797 105.506C81.0797 104.456 81.774 103.756 82.8155 103.756H94.4453L90.1058 88.3565H78.1289C77.0874 88.3565 76.3931 87.4816 76.3931 86.6066C76.3931 85.5567 77.0874 84.8567 78.1289 84.8567H89.0644L87.3286 78.5571C87.155 77.6821 87.6757 76.6322 88.5436 76.4572C88.7172 76.4572 88.8908 76.4572 89.0644 76.4572C89.7587 76.4572 90.453 76.9822 90.8002 77.6821L92.8831 84.8567H106.769C107.811 84.8567 108.505 85.5567 108.505 86.6066C108.505 87.6566 107.811 88.3565 106.769 88.3565H93.9246L98.2641 103.756H120.135L113.192 78.5571C113.018 77.6821 113.539 76.6322 114.407 76.4572C114.581 76.4572 114.754 76.4572 114.928 76.4572C115.622 76.4572 116.316 76.9822 116.663 77.6821L118.746 84.8567H126.21C127.252 84.8567 127.946 85.5567 127.946 86.6066C127.946 87.6566 127.078 88.3565 126.21 88.3565H119.788L124.127 103.756H138.882C139.923 103.756 140.617 104.631 140.617 105.506C140.617 106.555 139.923 107.255 138.882 107.255H125.169L129.508 122.655H151.553L142.006 88.3565H137.319C136.278 88.3565 135.584 87.4816 135.584 86.6066C135.584 85.5567 136.452 84.8567 137.319 84.8567H140.965L139.229 78.5571C139.055 78.0321 139.229 77.6821 139.402 77.1572C139.576 76.8072 139.923 76.4572 140.444 76.2822C140.617 76.2822 140.791 76.2822 140.965 76.2822C141.659 76.2822 142.353 76.8072 142.7 77.5072L144.783 84.6817H148.429C149.47 84.6817 150.164 85.3817 150.164 86.4316C150.164 87.4816 149.47 88.1815 148.429 88.1815H145.825L150.164 103.581H172.209L167.869 88.1815H156.587C155.545 88.1815 154.851 87.3066 154.851 86.4316C154.851 85.3817 155.719 84.6817 156.587 84.6817H166.307L164.571 78.3821C164.398 77.5072 164.919 76.4572 165.786 76.2822C165.96 76.2822 166.134 76.2822 166.307 76.2822C167.002 76.2822 167.696 76.8072 168.043 77.5072L170.126 84.6817H192.171L190.435 78.3821C190.261 77.5072 190.782 76.4572 191.65 76.2822C191.823 76.2822 191.997 76.2822 192.171 76.2822C192.865 76.2822 193.559 76.8072 193.906 77.5072L195.989 84.6817H209.529C210.57 84.6817 211.264 85.3817 211.264 86.4316C211.264 87.4816 210.57 88.1815 209.529 88.1815H196.51L200.85 103.581H213.868C214.909 103.581 215.604 104.456 215.604 105.331C215.604 106.38 214.909 107.08 213.868 107.08H201.891L206.23 122.48H218.728C219.77 122.48 220.464 123.354 220.464 124.229C220.464 125.279 219.77 125.979 218.728 125.979H207.272L211.611 141.378H223.415C224.456 141.378 225.151 142.253 225.151 143.128C225.151 144.178 224.283 144.878 223.415 144.878H212.479L215.083 154.153C215.257 155.028 214.736 156.078 213.868 156.253C213.694 156.253 213.521 156.253 213.347 156.253C212.653 156.253 211.959 155.728 211.611 155.028L208.834 144.878H186.79L189.393 153.978C189.567 154.503 189.393 154.853 189.22 155.378C189.046 155.728 188.699 156.078 188.178 156.253C188.005 156.253 187.831 156.253 187.658 156.253C186.963 156.253 186.269 155.728 185.922 155.028L183.144 145.053H161.1L163.704 154.153C163.877 155.028 163.356 156.078 162.488 156.253C162.315 156.253 162.141 156.253 161.968 156.253C161.273 156.253 160.579 155.728 160.232 155.028L157.455 145.053H135.41L138.014 154.153C138.187 155.028 137.667 156.078 136.799 156.253C136.625 156.253 136.452 156.253 136.278 156.253C135.584 156.253 134.889 155.728 134.542 155.028L131.765 145.053H109.72L112.324 154.328C112.498 154.853 112.324 155.203 112.15 155.728C111.977 156.078 111.63 156.428 111.109 156.603C110.935 156.603 110.762 156.603 110.588 156.603ZM160.058 141.553H207.793L203.453 126.154H181.409L182.971 131.754C183.144 132.279 182.971 132.629 182.797 133.154C182.624 133.504 182.277 133.854 181.756 134.029C181.582 134.029 181.409 134.029 181.235 134.029C180.541 134.029 179.846 133.504 179.499 132.804L177.763 126.329H171.167C170.126 126.329 169.432 125.454 169.432 124.579C169.432 123.529 170.126 122.83 171.167 122.83H176.722L172.382 107.43H150.511L154.851 122.83H160.232C161.273 122.83 161.968 123.704 161.968 124.579C161.968 125.629 161.273 126.329 160.232 126.329H155.719L160.058 141.553ZM134.369 141.553H156.413L152.074 126.154H130.029L134.369 141.553ZM108.679 141.553H130.723L126.384 126.154H119.962C118.92 126.154 118.226 125.279 118.226 124.404C118.226 123.354 119.094 122.655 119.962 122.655H125.516L121.177 107.255H99.132L103.471 122.655H109.2C110.241 122.655 110.935 123.529 110.935 124.404C110.935 125.454 110.067 126.154 109.2 126.154H104.513L108.679 141.553ZM180.541 122.655H202.585L193.038 88.3565H170.82L180.541 122.655Z" fill="#D5DAE8"/>
<path d="M259.811 160.073C259.086 163.154 257.998 166.417 256.729 169.135C253.286 175.841 247.848 181.098 241.142 184.541C234.255 187.985 226.099 189.435 217.943 187.622C198.731 183.635 186.406 164.785 190.393 145.573C194.381 126.361 213.049 113.855 232.261 118.024C239.148 119.474 245.13 122.918 250.204 127.63C258.723 136.149 262.348 148.473 259.811 160.073Z" fill="#5263FF"/>
<path d="M236.429 149.742H228.273V141.586C228.273 139.955 227.004 138.505 225.192 138.505C223.561 138.505 222.111 139.773 222.111 141.586V149.742H213.955C212.324 149.742 210.874 151.011 210.874 152.823C210.874 154.636 212.142 155.904 213.955 155.904H222.111V164.06C222.111 165.692 223.38 167.142 225.192 167.142C226.823 167.142 228.273 165.873 228.273 164.06V155.904H236.429C238.06 155.904 239.51 154.636 239.51 152.823C239.51 151.011 238.06 149.742 236.429 149.742Z" fill="white"/>
<defs>
<linearGradient id="paint0_linear_16238_20532" x1="45.4648" y1="104.173" x2="88.4347" y2="104.173" gradientUnits="userSpaceOnUse">
<stop stop-color="#D5DAE8"/>
<stop offset="1" stop-color="#9AA3BA"/>
</linearGradient>
</defs>
</svg>
