<svg width="152" height="126" viewBox="0 0 152 126" fill="none" xmlns="http://www.w3.org/2000/svg">
<path d="M76.0826 118.12C108.635 118.12 135.026 91.7292 135.026 59.0601C135.026 26.391 108.635 0 76.0826 0C43.5297 0 17.1387 26.391 17.1387 59.0601C17.1387 91.7292 43.5297 118.12 76.0826 118.12Z" fill="#EAEEF9"/>
<path d="M141.769 34.7623C144.401 34.7623 146.535 32.6282 146.535 29.9957C146.535 27.3631 144.401 25.229 141.769 25.229C139.136 25.229 137.002 27.3631 137.002 29.9957C137.002 32.6282 139.136 34.7623 141.769 34.7623Z" fill="#EAEEF9"/>
<path d="M148.746 16.0443C150.543 16.0443 152.001 14.5868 152.001 12.789C152.001 10.9911 150.543 9.53369 148.746 9.53369C146.948 9.53369 145.49 10.9911 145.49 12.789C145.49 14.5868 146.948 16.0443 148.746 16.0443Z" fill="#EAEEF9"/>
<path d="M13.0697 38.1336C14.8676 38.1336 16.325 36.6762 16.325 34.8783C16.325 33.0805 14.8676 31.623 13.0697 31.623C11.2719 31.623 9.81445 33.0805 9.81445 34.8783C9.81445 36.6762 11.2719 38.1336 13.0697 38.1336Z" fill="#EAEEF9"/>
<path d="M19.1149 108.936C22.4537 108.936 25.1604 106.229 25.1604 102.89C25.1604 99.5514 22.4537 96.8447 19.1149 96.8447C15.776 96.8447 13.0693 99.5514 13.0693 102.89C13.0693 106.229 15.776 108.936 19.1149 108.936Z" fill="#EAEEF9"/>
<g filter="url(#filter0_d_20023_14770)">
<path d="M130.724 35.4597H29.9265C27.7175 35.4597 25.9736 33.7158 25.9736 31.5069V8.83615C25.9736 6.6272 27.7175 4.8833 29.9265 4.8833H130.608C132.817 4.8833 134.561 6.6272 134.561 8.83615V31.5069C134.677 33.7158 132.817 35.4597 130.724 35.4597Z" fill="white"/>
</g>
<path d="M50.3882 20.1136C50.3882 22.6713 49.2256 24.9965 47.4817 26.6241C45.9704 28.0192 43.8777 28.8331 41.6687 28.8331C39.4598 28.8331 37.3671 28.0192 35.8557 26.6241C33.9956 24.9965 32.9492 22.6713 32.9492 20.1136C32.9492 15.3469 36.9021 11.394 41.6687 11.394C46.4354 11.394 50.3882 15.3469 50.3882 20.1136Z" fill="#DCE1EE"/>
<path d="M78.9884 17.5557H56.6664C56.0851 17.5557 55.7363 17.0907 55.7363 16.6256V13.7191C55.7363 13.1378 56.2014 12.7891 56.6664 12.7891H78.9884C79.5697 12.7891 79.9184 13.2541 79.9184 13.7191V16.6256C79.9184 17.2069 79.5697 17.5557 78.9884 17.5557Z" fill="#CED6E2"/>
<path d="M105.496 27.4381H56.6664C56.0851 27.4381 55.7363 26.973 55.7363 26.508V23.6015C55.7363 23.0202 56.2014 22.6714 56.6664 22.6714H105.496C106.077 22.6714 106.426 23.1364 106.426 23.6015V26.508C106.426 27.0893 105.961 27.4381 105.496 27.4381Z" fill="#CED6E2"/>
<g filter="url(#filter1_d_20023_14770)">
<path d="M130.724 111.726H29.9265C27.7175 111.726 25.9736 109.982 25.9736 107.773V85.1023C25.9736 82.8933 27.7175 81.1494 29.9265 81.1494H130.608C132.817 81.1494 134.561 82.8933 134.561 85.1023V107.773C134.677 109.982 132.817 111.726 130.724 111.726Z" fill="white"/>
</g>
<path d="M50.3882 96.3797C50.3882 98.9374 49.2256 101.263 47.4817 102.89C45.9704 104.285 43.8777 105.099 41.6687 105.099C39.4598 105.099 37.3671 104.285 35.8557 102.89C33.9956 101.263 32.9492 98.9374 32.9492 96.3797C32.9492 91.613 36.9021 87.6602 41.6687 87.6602C46.4354 87.6602 50.3882 91.613 50.3882 96.3797Z" fill="#DCE1EE"/>
<path d="M78.9884 93.9381H56.6664C56.0851 93.9381 55.7363 93.473 55.7363 93.008V90.1015C55.7363 89.5202 56.2014 89.1714 56.6664 89.1714H78.9884C79.5697 89.1714 79.9184 89.6364 79.9184 90.1015V93.008C79.9184 93.473 79.5697 93.9381 78.9884 93.9381Z" fill="#CED6E2"/>
<path d="M105.496 103.82H56.6664C56.0851 103.82 55.7363 103.355 55.7363 102.89V99.9838C55.7363 99.4025 56.2014 99.0537 56.6664 99.0537H105.496C106.077 99.0537 106.426 99.5188 106.426 99.9838V102.89C106.426 103.355 105.961 103.82 105.496 103.82Z" fill="#CED6E2"/>
<g filter="url(#filter2_d_20023_14770)">
<path d="M113.634 73.593H12.9528C10.7439 73.593 9 71.8491 9 69.6402V46.9694C9 44.7605 10.7439 43.0166 12.9528 43.0166H113.634C115.843 43.0166 117.587 44.7605 117.587 46.9694V69.6402C117.703 71.8491 115.843 73.593 113.634 73.593Z" fill="white"/>
</g>
<path d="M62.0147 55.689H39.6928C39.1115 55.689 38.7627 55.224 38.7627 54.7589V51.8524C38.7627 51.2711 39.2277 50.9224 39.6928 50.9224H62.0147C62.596 50.9224 62.9448 51.3874 62.9448 51.8524V54.7589C62.9448 55.3402 62.596 55.689 62.0147 55.689Z" fill="#CED6E2"/>
<path d="M88.522 65.6876H39.6928C39.1115 65.6876 38.7627 65.2225 38.7627 64.7575V61.851C38.7627 61.2697 39.2277 60.9209 39.6928 60.9209H88.4058C88.9871 60.9209 89.3358 61.3859 89.3358 61.851V64.7575C89.4521 65.2225 88.9871 65.6876 88.522 65.6876Z" fill="#CED6E2"/>
<path d="M33.5309 58.2469C33.5309 60.6883 32.4845 62.8973 30.8569 64.5249C30.7406 64.6412 30.7406 64.6412 30.6244 64.7574C29.113 66.1525 27.0203 66.9664 24.8114 66.9664C22.6024 66.9664 20.626 66.1525 19.1146 64.8737C19.1146 64.8737 19.1146 64.8737 18.9983 64.8737C17.1382 63.246 15.9756 60.9208 15.9756 58.2469C15.9756 53.4802 19.9284 49.5273 24.6951 49.5273C29.578 49.5273 33.5309 53.4802 33.5309 58.2469Z" fill="#DCE1EE"/>
<path d="M22.3701 59.9907C22.4864 60.107 22.6026 60.2232 22.7189 60.3395C22.6026 60.2232 22.4864 60.107 22.3701 59.9907Z" fill="#3973F4"/>
<defs>
<filter id="filter0_d_20023_14770" x="16.9736" y="0.883301" width="126.592" height="48.5762" filterUnits="userSpaceOnUse" color-interpolation-filters="sRGB">
<feFlood flood-opacity="0" result="BackgroundImageFix"/>
<feColorMatrix in="SourceAlpha" type="matrix" values="0 0 0 0 0 0 0 0 0 0 0 0 0 0 0 0 0 0 127 0" result="hardAlpha"/>
<feOffset dy="5"/>
<feGaussianBlur stdDeviation="4.5"/>
<feColorMatrix type="matrix" values="0 0 0 0 0.397708 0 0 0 0 0.47749 0 0 0 0 0.575 0 0 0 0.17 0"/>
<feBlend mode="normal" in2="BackgroundImageFix" result="effect1_dropShadow_20023_14770"/>
<feBlend mode="normal" in="SourceGraphic" in2="effect1_dropShadow_20023_14770" result="shape"/>
</filter>
<filter id="filter1_d_20023_14770" x="16.9736" y="77.1494" width="126.592" height="48.5762" filterUnits="userSpaceOnUse" color-interpolation-filters="sRGB">
<feFlood flood-opacity="0" result="BackgroundImageFix"/>
<feColorMatrix in="SourceAlpha" type="matrix" values="0 0 0 0 0 0 0 0 0 0 0 0 0 0 0 0 0 0 127 0" result="hardAlpha"/>
<feOffset dy="5"/>
<feGaussianBlur stdDeviation="4.5"/>
<feColorMatrix type="matrix" values="0 0 0 0 0.397708 0 0 0 0 0.47749 0 0 0 0 0.575 0 0 0 0.17 0"/>
<feBlend mode="normal" in2="BackgroundImageFix" result="effect1_dropShadow_20023_14770"/>
<feBlend mode="normal" in="SourceGraphic" in2="effect1_dropShadow_20023_14770" result="shape"/>
</filter>
<filter id="filter2_d_20023_14770" x="0" y="39.0166" width="126.592" height="48.5762" filterUnits="userSpaceOnUse" color-interpolation-filters="sRGB">
<feFlood flood-opacity="0" result="BackgroundImageFix"/>
<feColorMatrix in="SourceAlpha" type="matrix" values="0 0 0 0 0 0 0 0 0 0 0 0 0 0 0 0 0 0 127 0" result="hardAlpha"/>
<feOffset dy="5"/>
<feGaussianBlur stdDeviation="4.5"/>
<feColorMatrix type="matrix" values="0 0 0 0 0.397708 0 0 0 0 0.47749 0 0 0 0 0.575 0 0 0 0.17 0"/>
<feBlend mode="normal" in2="BackgroundImageFix" result="effect1_dropShadow_20023_14770"/>
<feBlend mode="normal" in="SourceGraphic" in2="effect1_dropShadow_20023_14770" result="shape"/>
</filter>
</defs>
</svg>
