<svg width="44" height="51" viewBox="0 0 44 51" fill="none" xmlns="http://www.w3.org/2000/svg">
<path d="M43.6997 21.8498C43.6997 27.1915 41.796 32.0502 38.6137 35.8576C34.6074 40.6595 28.5838 43.6997 21.8214 43.6997C15.3432 43.6997 9.54688 40.8868 5.5406 36.4259C2.10259 32.5617 0 27.4473 0 21.8498C0 9.77418 9.77418 0 21.8498 0C33.9255 0 43.6997 9.77418 43.6997 21.8498Z" fill="#DBDFFF"/>
<path d="M38.6419 35.8583C34.6357 40.6601 28.612 43.7003 21.8497 43.7003C15.3714 43.7003 9.57513 40.8874 5.56885 36.4265C6.25077 35.8867 7.10317 35.4036 8.15446 34.9774L8.95003 34.6649C10.4559 34.0682 12.4165 33.3295 15.0589 32.2214C15.6556 31.9656 16.1386 31.511 16.3943 30.9143C16.5364 30.6018 16.6216 30.2324 16.6216 29.863V24.9475C16.5364 24.8339 16.4511 24.7486 16.3943 24.635C15.9681 24.0099 15.684 23.2712 15.5987 22.4756L15.1725 22.2767C13.894 22.5892 13.9792 21.2254 13.6666 18.6114C13.5246 17.5317 13.6951 17.3044 14.1781 17.1339L14.5759 16.594C12.1323 11.0534 13.3541 7.58701 15.7692 6.36523C14.9737 4.60361 14.9168 3.97852 14.9168 3.97852C14.9168 3.97852 20.0596 4.83092 21.8497 4.48996C24.0943 4.03534 27.5608 4.5752 28.8394 7.55859C30.9704 8.41099 31.8228 9.74642 31.9932 11.2239C32.3058 13.5538 30.9704 16.111 30.7146 17.1055C30.743 17.1623 30.7715 17.1907 30.7715 17.2191C31.1124 17.3896 31.2261 17.6737 31.1124 18.6114C30.7999 21.0833 30.8851 22.6177 29.6065 22.2767L28.47 24.2656C28.4132 24.4929 28.4132 24.5782 28.3847 24.7486C28.3279 25.118 28.3563 25.8568 28.3563 29.9199C28.3563 30.4029 28.4984 30.8575 28.7541 31.2837C29.0382 31.7099 29.436 32.0793 29.9475 32.2782C29.9475 32.2782 29.9759 32.2782 30.0043 32.3066C32.9309 33.5284 35.0335 34.3239 36.5678 34.9206C37.3633 35.1763 38.0453 35.5173 38.6419 35.8583Z" fill="white"/>
<path d="M30.7711 17.0771C30.8848 16.452 30.6006 15.6848 30.3733 15.1449C30.3449 15.0597 30.2881 14.9745 30.2597 14.8608C29.2652 12.8719 27.0774 12.0763 24.9748 11.9627C19.6047 11.6785 19.1217 12.7014 17.4453 11.1671C17.9567 11.9627 18.0135 13.1844 17.218 14.7188C16.6497 15.7985 15.57 16.2815 14.6324 16.594C12.1888 11.0534 13.4106 7.58701 15.8257 6.36523C15.0301 4.60361 14.9733 3.97852 14.9733 3.97852C14.9733 3.97852 20.1161 4.83092 21.8778 4.48996C24.1224 4.03534 27.5888 4.5752 28.8674 7.55859C30.9984 8.41099 31.8224 9.74642 32.0213 11.2239C32.3339 13.5254 31.0268 16.0542 30.7711 17.0771Z" fill="url(#paint0_linear_13727_6481)"/>
<path d="M28.8109 31.2276V32.1936H16.3943V30.9435C16.5364 30.6309 16.6216 30.2615 16.6216 29.8922V24.9482C16.5364 24.8346 16.4511 24.7493 16.3943 24.6357V24.3516C16.65 24.8062 16.991 25.2324 17.4172 25.5733L21.3098 28.2726C22.219 29.0398 23.526 29.0682 24.4637 28.3294L28.1006 25.0619C28.2142 24.9482 28.3563 24.8346 28.4699 24.7209C28.4131 25.0903 28.4415 25.8291 28.4415 29.8922C28.4131 30.3752 28.5552 30.8582 28.8109 31.2276Z" fill="url(#paint1_linear_13727_6481)"/>
<path d="M30.5369 44.2388C30.372 44.9398 30.1246 45.682 29.836 46.3005C29.0525 47.8261 27.8155 49.0219 26.2899 49.8053C24.7231 50.5887 22.8676 50.9186 21.0121 50.5062C16.6414 49.5991 13.8375 45.3109 14.7447 40.9402C15.6518 36.5695 19.8988 33.7244 24.2695 34.6727C25.8364 35.0026 27.1971 35.786 28.3516 36.8581C30.2895 38.7961 31.1142 41.5999 30.5369 44.2388Z" fill="#5263FF"/>
<path d="M25.2179 41.8885H23.3624V40.033C23.3624 39.6619 23.0738 39.332 22.6615 39.332C22.2904 39.332 21.9605 39.6207 21.9605 40.033V41.8885H20.105C19.7339 41.8885 19.4041 42.1771 19.4041 42.5894C19.4041 43.0018 19.6927 43.2904 20.105 43.2904H21.9605V45.1459C21.9605 45.517 22.2491 45.8469 22.6615 45.8469C23.0326 45.8469 23.3624 45.5582 23.3624 45.1459V43.2904H25.2179C25.589 43.2904 25.9189 43.0018 25.9189 42.5894C25.9189 42.1771 25.589 41.8885 25.2179 41.8885Z" fill="white"/>
<defs>
<linearGradient id="paint0_linear_13727_6481" x1="13.2902" y1="10.5292" x2="32.0727" y2="10.5292" gradientUnits="userSpaceOnUse">
<stop stop-color="#B0BACC"/>
<stop offset="1" stop-color="#969EAE"/>
</linearGradient>
<linearGradient id="paint1_linear_13727_6481" x1="22.6064" y1="32.2414" x2="22.6064" y2="27.9212" gradientUnits="userSpaceOnUse">
<stop stop-color="white"/>
<stop offset="1" stop-color="#E2E5EC"/>
</linearGradient>
</defs>
</svg>
