<svg width="89" height="85" viewBox="0 0 89 85" fill="none" xmlns="http://www.w3.org/2000/svg">
<path d="M43.6335 55.3328C56.9536 55.3328 67.7523 44.534 67.7523 31.1664C67.7523 17.7988 56.906 7 43.6335 7C30.3134 7 19.5146 17.7988 19.5146 31.1664C19.5146 44.534 30.3134 55.3328 43.6335 55.3328Z" fill="#DBDFFF"/>
<path d="M70.8142 23.5095C71.8914 23.5095 72.7646 22.6363 72.7646 21.5591C72.7646 20.4819 71.8914 19.6086 70.8142 19.6086C69.737 19.6086 68.8638 20.4819 68.8638 21.5591C68.8638 22.6363 69.737 23.5095 70.8142 23.5095Z" fill="#DBDFFF"/>
<path d="M73.6679 15.8981C74.4036 15.8981 75 15.3018 75 14.5661C75 13.8305 74.4036 13.2341 73.6679 13.2341C72.9323 13.2341 72.3359 13.8305 72.3359 14.5661C72.3359 15.3018 72.9323 15.8981 73.6679 15.8981Z" fill="#DBDFFF"/>
<path d="M20.6089 15.3251C21.3445 15.3251 21.9409 14.7288 21.9409 13.9931C21.9409 13.2575 21.3445 12.6611 20.6089 12.6611C19.8732 12.6611 19.2769 13.2575 19.2769 13.9931C19.2769 14.7288 19.8732 15.3251 20.6089 15.3251Z" fill="#EAEEF9"/>
<path d="M12.4737 41.0139C13.8399 41.0139 14.9475 39.9063 14.9475 38.5401C14.9475 37.1739 13.8399 36.0664 12.4737 36.0664C11.1075 36.0664 10 37.1739 10 38.5401C10 39.9063 11.1075 41.0139 12.4737 41.0139Z" fill="#DBDFFF"/>
<g filter="url(#filter0_d_13874_11642)">
<path d="M57.7358 49.1205H64.6422C65.5097 49.1205 66.2532 48.3774 66.2532 47.5103V15.3065C66.2532 14.4395 65.5097 13.6963 64.6422 13.6963H57.9503" fill="url(#paint0_linear_13874_11642)"/>
</g>
<g filter="url(#filter1_d_13874_11642)">
<path d="M30.3152 49.1205H23.6232C22.7558 49.1205 22.0122 48.3774 22.0122 47.5103V15.3065C22.0122 14.4395 22.7558 13.6963 23.6232 13.6963H30.1773" fill="url(#paint1_linear_13874_11642)"/>
</g>
<path d="M26.6675 20.1375H30.0135" stroke="#DBDFFF" stroke-width="2" strokeMiterlimit="10" stroke-linecap="round"/>
<path d="M26.6675 24.4724H30.0135" stroke="#DBDFFF" stroke-width="2" strokeMiterlimit="10" stroke-linecap="round"/>
<path d="M26.6675 28.9313H30.0135" stroke="#DBDFFF" stroke-width="2" strokeMiterlimit="10" stroke-linecap="round"/>
<path d="M26.6675 33.3905H30.0135" stroke="#DBDFFF" stroke-width="2" strokeMiterlimit="10" stroke-linecap="round"/>
<path d="M26.6675 42.0605H30.0135" stroke="#DBDFFF" stroke-width="2" strokeMiterlimit="10" stroke-linecap="round"/>
<path d="M61.1722 20.1375H57.9502" stroke="#DBDFFF" stroke-width="2" strokeMiterlimit="10"/>
<path d="M61.1722 24.4724H57.9502" stroke="#DBDFFF" stroke-width="2" strokeMiterlimit="10" stroke-linecap="round"/>
<path d="M61.1722 28.9313H57.9502" stroke="#DBDFFF" stroke-width="2" strokeMiterlimit="10" stroke-linecap="round"/>
<path d="M61.1722 33.3905H57.9502" stroke="#DBDFFF" stroke-width="2" strokeMiterlimit="10" stroke-linecap="round"/>
<path d="M61.1722 42.0605H57.9502" stroke="#DBDFFF" stroke-width="2" strokeMiterlimit="10" stroke-linecap="round"/>
<g filter="url(#filter2_d_13874_11642)">
<path d="M56.3391 51.8456H31.8019C30.9345 51.8456 30.1909 51.1025 30.1909 50.2354V12.8294C30.1909 11.9624 30.9345 11.2192 31.8019 11.2192H56.3391C57.2065 11.2192 57.9501 11.9624 57.9501 12.8294V50.2354C57.9501 51.1025 57.2065 51.8456 56.3391 51.8456Z" fill="url(#paint2_linear_13874_11642)"/>
</g>
<path d="M53.3653 23.3378H36.2637C35.8919 23.3378 35.644 23.1133 35.644 22.7766V21.3175C35.644 20.9808 35.8919 20.7563 36.2637 20.7563H53.3653C53.7371 20.7563 53.9849 20.9808 53.9849 21.3175V22.7766C53.9849 23.0011 53.7371 23.3378 53.3653 23.3378Z" fill="#DBDFFF"/>
<path d="M53.3653 30.0264H36.2637C35.8919 30.0264 35.644 29.8019 35.644 29.4652V28.0061C35.644 27.6694 35.8919 27.4449 36.2637 27.4449H53.3653C53.7371 27.4449 53.9849 27.6694 53.9849 28.0061V29.4652C53.9849 29.8019 53.7371 30.0264 53.3653 30.0264Z" fill="#DBDFFF"/>
<path d="M53.3653 36.8388H36.2637C35.8919 36.8388 35.644 36.6143 35.644 36.2776V34.8185C35.644 34.4818 35.8919 34.2573 36.2637 34.2573H53.3653C53.7371 34.2573 53.9849 34.4818 53.9849 34.8185V36.2776C53.9849 36.6143 53.7371 36.8388 53.3653 36.8388Z" fill="#DBDFFF"/>
<path d="M53.3647 43.7749H46.5488C46.177 43.7749 45.9292 43.5505 45.9292 43.2138V41.7547C45.9292 41.418 46.177 41.1935 46.5488 41.1935H53.3647C53.7365 41.1935 53.9843 41.418 53.9843 41.7547V43.2138C53.9843 43.5505 53.7365 43.7749 53.3647 43.7749Z" fill="#DBDFFF"/>
<path d="M51.606 56.1038C51.4513 56.7614 51.2192 57.4576 50.9484 58.0378C50.2135 59.469 49.0531 60.5908 47.6219 61.3257C46.152 62.0607 44.4114 62.3701 42.6707 61.9833C38.5706 61.1323 35.9403 57.1095 36.7912 53.0093C37.6422 48.9092 41.6264 46.2402 45.7265 47.1298C47.1964 47.4393 48.4729 48.1742 49.5559 49.1799C51.3739 50.9979 52.1476 53.6282 51.606 56.1038Z" fill="#5263FF"/>
<path d="M46.6161 53.8991H44.8755V52.1584C44.8755 51.8103 44.6047 51.5009 44.2179 51.5009C43.8698 51.5009 43.5603 51.7716 43.5603 52.1584V53.8991H41.8197C41.4716 53.8991 41.1621 54.1698 41.1621 54.5566C41.1621 54.9435 41.4329 55.2142 41.8197 55.2142H43.5603V56.9549C43.5603 57.303 43.8311 57.6124 44.2179 57.6124C44.566 57.6124 44.8755 57.3417 44.8755 56.9549V55.2142H46.6161C46.9642 55.2142 47.2737 54.9435 47.2737 54.5566C47.2737 54.1698 46.9642 53.8991 46.6161 53.8991Z" fill="white"/>
<defs>
<filter id="filter0_d_13874_11642" x="35.7358" y="2.69629" width="52.5176" height="79.4242" filterUnits="userSpaceOnUse" color-interpolation-filters="sRGB">
<feFlood flood-opacity="0" result="BackgroundImageFix"/>
<feColorMatrix in="SourceAlpha" type="matrix" values="0 0 0 0 0 0 0 0 0 0 0 0 0 0 0 0 0 0 127 0" result="hardAlpha"/>
<feOffset dy="11"/>
<feGaussianBlur stdDeviation="11"/>
<feColorMatrix type="matrix" values="0 0 0 0 0.397708 0 0 0 0 0.47749 0 0 0 0 0.575 0 0 0 0.27 0"/>
<feBlend mode="normal" in2="BackgroundImageFix" result="effect1_dropShadow_13874_11642"/>
<feBlend mode="normal" in="SourceGraphic" in2="effect1_dropShadow_13874_11642" result="shape"/>
</filter>
<filter id="filter1_d_13874_11642" x="0.012207" y="2.69629" width="52.3027" height="79.4242" filterUnits="userSpaceOnUse" color-interpolation-filters="sRGB">
<feFlood flood-opacity="0" result="BackgroundImageFix"/>
<feColorMatrix in="SourceAlpha" type="matrix" values="0 0 0 0 0 0 0 0 0 0 0 0 0 0 0 0 0 0 127 0" result="hardAlpha"/>
<feOffset dy="11"/>
<feGaussianBlur stdDeviation="11"/>
<feColorMatrix type="matrix" values="0 0 0 0 0.397708 0 0 0 0 0.47749 0 0 0 0 0.575 0 0 0 0.27 0"/>
<feBlend mode="normal" in2="BackgroundImageFix" result="effect1_dropShadow_13874_11642"/>
<feBlend mode="normal" in="SourceGraphic" in2="effect1_dropShadow_13874_11642" result="shape"/>
</filter>
<filter id="filter2_d_13874_11642" x="8.19092" y="0.219238" width="71.7593" height="84.6263" filterUnits="userSpaceOnUse" color-interpolation-filters="sRGB">
<feFlood flood-opacity="0" result="BackgroundImageFix"/>
<feColorMatrix in="SourceAlpha" type="matrix" values="0 0 0 0 0 0 0 0 0 0 0 0 0 0 0 0 0 0 127 0" result="hardAlpha"/>
<feOffset dy="11"/>
<feGaussianBlur stdDeviation="11"/>
<feColorMatrix type="matrix" values="0 0 0 0 0.397708 0 0 0 0 0.47749 0 0 0 0 0.575 0 0 0 0.27 0"/>
<feBlend mode="normal" in2="BackgroundImageFix" result="effect1_dropShadow_13874_11642"/>
<feBlend mode="normal" in="SourceGraphic" in2="effect1_dropShadow_13874_11642" result="shape"/>
</filter>
<linearGradient id="paint0_linear_13874_11642" x1="61.9918" y1="12.8769" x2="61.9918" y2="49.5024" gradientUnits="userSpaceOnUse">
<stop stop-color="#FDFEFF"/>
<stop offset="0.9964" stop-color="#ECF0F5"/>
</linearGradient>
<linearGradient id="paint1_linear_13874_11642" x1="26.161" y1="12.8769" x2="26.161" y2="49.5024" gradientUnits="userSpaceOnUse">
<stop stop-color="#FDFEFF"/>
<stop offset="0.9964" stop-color="#ECF0F5"/>
</linearGradient>
<linearGradient id="paint2_linear_13874_11642" x1="44.0615" y1="10.2795" x2="44.0615" y2="52.2836" gradientUnits="userSpaceOnUse">
<stop stop-color="#FDFEFF"/>
<stop offset="0.9964" stop-color="#ECF0F5"/>
</linearGradient>
</defs>
</svg>
