<svg width="44" height="45" viewBox="0 0 44 45" fill="none" xmlns="http://www.w3.org/2000/svg">
<circle cx="22" cy="22.5" r="22" fill="#F0F1FF"/>
<path d="M25 15.5H27C28.1046 15.5 29 16.3954 29 17.5V25.6707C30.1652 26.0825 31 27.1938 31 28.5C31 30.1569 29.6569 31.5 28 31.5C26.3431 31.5 25 30.1569 25 28.5C25 27.1938 25.8348 26.0825 27 25.6707V17.5H25V20.5L20.5 16.5L25 12.5V15.5ZM15 19.3293C13.8348 18.9175 13 17.8062 13 16.5C13 14.8432 14.3432 13.5 16 13.5C17.6568 13.5 19 14.8432 19 16.5C19 17.8062 18.1652 18.9175 17 19.3293V25.6707C18.1652 26.0825 19 27.1938 19 28.5C19 30.1569 17.6568 31.5 16 31.5C14.3432 31.5 13 30.1569 13 28.5C13 27.1938 13.8348 26.0825 15 25.6707V19.3293Z" fill="#5263FF"/>
</svg>
