<svg width="72" height="72" viewBox="0 0 72 72" fill="none" xmlns="http://www.w3.org/2000/svg">
<path d="M61.8682 54.434C60.8987 56.7399 59.7511 58.8624 58.4215 60.8138C56.6091 63.4741 55.1252 65.3156 53.9815 66.3381C52.2087 68.0166 50.3092 68.8762 48.2752 68.9251C46.815 68.9251 45.0541 68.4973 43.0042 67.6296C40.9477 66.7659 39.0577 66.3381 37.3296 66.3381C35.5172 66.3381 33.5734 66.7659 31.4943 67.6296C29.412 68.4973 27.7346 68.9495 26.4521 68.9943C24.5016 69.0799 22.5574 68.1958 20.6168 66.3381C19.3782 65.2259 17.8289 63.3193 15.973 60.6183C13.9817 57.7339 12.3446 54.3892 11.0621 50.576C9.68855 46.4572 9 42.4688 9 38.6076C9 34.1845 9.92836 30.3696 11.7878 27.1728C13.2492 24.605 15.1934 22.5794 17.6267 21.0924C20.06 19.6054 22.6892 18.8477 25.5205 18.7992C27.0698 18.7992 29.1014 19.2926 31.6261 20.2622C34.1437 21.235 35.7602 21.7284 36.4689 21.7284C36.9988 21.7284 38.7946 21.1515 41.8389 20.0014C44.7177 18.9349 47.1474 18.4932 49.1379 18.6672C54.5316 19.1153 58.5838 21.3043 61.2786 25.2479C56.4548 28.2569 54.0686 32.4714 54.1161 37.8779C54.1596 42.0891 55.6436 45.5936 58.56 48.3761C59.8817 49.6675 61.3578 50.6656 63 51.3745C62.6439 52.4378 62.2679 53.4563 61.8682 54.434ZM49.498 4.32038C49.498 7.62113 48.3267 10.703 45.9919 13.5556C43.1744 16.9468 39.7665 18.9063 36.0708 18.5971C36.0237 18.2011 35.9964 17.7844 35.9964 17.3464C35.9964 14.1777 37.3363 10.7865 39.7158 8.01382C40.9038 6.60994 42.4146 5.44263 44.2468 4.51144C46.075 3.59415 47.8043 3.08687 49.4307 3C49.4782 3.44126 49.498 3.88255 49.498 4.32033V4.32038Z" fill="#04071E"/>
</svg>
