<svg width="955" height="1080" viewBox="0 0 955 1080" fill="none" xmlns="http://www.w3.org/2000/svg">
<g clip-path="url(#clip0_20326_42700)">
<rect width="955" height="1080" fill="white"/>
<rect x="-5" width="960" height="1097" fill="#000424"/>
<g opacity="0.3" filter="url(#filter0_f_20326_42700)">
<path d="M656.975 402.112C656.975 531.098 518.281 703.207 389.403 703.207C260.525 703.207 163.027 620.047 163.027 491.061C163.027 362.075 238.987 208.042 367.865 208.042C496.743 208.042 656.975 273.126 656.975 402.112Z" fill="url(#paint0_linear_20326_42700)"/>
</g>
<g filter="url(#filter1_f_20326_42700)">
<path d="M862.584 428.916C862.584 595.933 682.896 818.786 515.926 818.786C348.957 818.786 222.642 711.108 222.642 544.091C222.642 377.074 321.053 177.626 488.023 177.626C654.993 177.626 862.584 261.9 862.584 428.916Z" fill="url(#paint1_linear_20326_42700)"/>
</g>
<path opacity="0.2" d="M696.515 754.305L698.219 772.119L716.589 773.771L698.219 775.422L696.515 793.237L694.812 775.422L676.441 773.771L694.812 772.119L696.515 754.305Z" fill="#B2CEFA"/>
<path opacity="0.2" d="M510.372 288.339L512.076 306.153L530.447 307.805L512.076 309.457L510.372 327.271L508.669 309.457L490.298 307.805L508.669 306.153L510.372 288.339Z" fill="#B2CEFA"/>
<path opacity="0.2" d="M778.029 364.986L779.732 382.801L798.103 384.452L779.732 386.104L778.029 403.918L776.325 386.104L757.955 384.452L776.325 382.801L778.029 364.986Z" fill="#B2CEFA"/>
<path opacity="0.2" d="M126.938 799.2L128.641 817.014L147.012 818.666L128.641 820.318L126.938 838.132L125.234 820.318L106.863 818.666L125.234 817.014L126.938 799.2Z" fill="#B2CEFA"/>
<path opacity="0.2" d="M676.441 116.795L678.093 134.61L695.907 136.261L678.093 137.913L676.441 155.727L674.789 137.913L656.975 136.261L674.789 134.61L676.441 116.795Z" fill="#B2CEFA"/>
<g filter="url(#filter2_dd_20326_42700)">
<rect x="197.811" y="351.284" width="900.299" height="445.283" rx="9.73296" fill="white"/>
<line x1="535.423" y1="468.08" x2="535.422" y2="736.953" stroke="#5263FF" stroke-width="1.21662" stroke-dasharray="6.08 6.08"/>
<path d="M223.698 395.616V381.459H228.744C229.841 381.459 230.751 381.648 231.475 382.026C232.203 382.404 232.747 382.927 233.106 383.595C233.466 384.259 233.645 385.026 233.645 385.897C233.645 386.763 233.463 387.526 233.099 388.185C232.74 388.84 232.196 389.349 231.468 389.713C230.744 390.077 229.834 390.259 228.737 390.259H224.915V388.42H228.544C229.235 388.42 229.797 388.321 230.231 388.123C230.668 387.925 230.989 387.637 231.191 387.259C231.394 386.881 231.496 386.427 231.496 385.897C231.496 385.362 231.392 384.899 231.185 384.508C230.982 384.116 230.661 383.816 230.224 383.609C229.79 383.397 229.221 383.291 228.516 383.291H225.834V395.616H223.698ZM230.687 389.229L234.185 395.616H231.751L228.323 389.229H230.687ZM240.327 395.831C239.281 395.831 238.38 395.607 237.624 395.16C236.873 394.708 236.292 394.075 235.882 393.259C235.477 392.439 235.274 391.478 235.274 390.376C235.274 389.289 235.477 388.33 235.882 387.501C236.292 386.671 236.864 386.024 237.597 385.558C238.334 385.093 239.196 384.86 240.182 384.86C240.781 384.86 241.362 384.959 241.924 385.157C242.486 385.356 242.991 385.667 243.438 386.091C243.885 386.515 244.237 387.065 244.495 387.743C244.753 388.416 244.882 389.234 244.882 390.197V390.929H236.442V389.381H242.857C242.857 388.837 242.746 388.356 242.525 387.936C242.304 387.512 241.993 387.178 241.592 386.934C241.196 386.69 240.73 386.568 240.196 386.568C239.615 386.568 239.108 386.71 238.675 386.996C238.246 387.277 237.915 387.646 237.68 388.102C237.449 388.554 237.334 389.045 237.334 389.575V390.784C237.334 391.494 237.458 392.098 237.707 392.595C237.961 393.093 238.313 393.473 238.765 393.736C239.216 393.994 239.744 394.123 240.348 394.123C240.74 394.123 241.097 394.068 241.419 393.957C241.742 393.842 242.021 393.671 242.256 393.446C242.491 393.22 242.67 392.941 242.795 392.609L244.751 392.962C244.594 393.538 244.313 394.042 243.908 394.476C243.507 394.904 243.002 395.238 242.394 395.478C241.79 395.713 241.101 395.831 240.327 395.831ZM255.76 384.998L251.91 395.616H249.698L245.841 384.998H248.059L250.748 393.169H250.859L253.541 384.998H255.76ZM261.723 395.831C260.677 395.831 259.776 395.607 259.02 395.16C258.269 394.708 257.688 394.075 257.278 393.259C256.873 392.439 256.67 391.478 256.67 390.376C256.67 389.289 256.873 388.33 257.278 387.501C257.688 386.671 258.26 386.024 258.992 385.558C259.73 385.093 260.592 384.86 261.578 384.86C262.177 384.86 262.757 384.959 263.32 385.157C263.882 385.356 264.387 385.667 264.834 386.091C265.281 386.515 265.633 387.065 265.891 387.743C266.149 388.416 266.278 389.234 266.278 390.197V390.929H257.838V389.381H264.253C264.253 388.837 264.142 388.356 263.921 387.936C263.7 387.512 263.389 387.178 262.988 386.934C262.592 386.69 262.126 386.568 261.592 386.568C261.011 386.568 260.504 386.71 260.071 386.996C259.642 387.277 259.31 387.646 259.075 388.102C258.845 388.554 258.73 389.045 258.73 389.575V390.784C258.73 391.494 258.854 392.098 259.103 392.595C259.356 393.093 259.709 393.473 260.161 393.736C260.612 393.994 261.14 394.123 261.744 394.123C262.135 394.123 262.492 394.068 262.815 393.957C263.138 393.842 263.416 393.671 263.651 393.446C263.887 393.22 264.066 392.941 264.191 392.609L266.147 392.962C265.99 393.538 265.709 394.042 265.304 394.476C264.903 394.904 264.398 395.238 263.79 395.478C263.186 395.713 262.497 395.831 261.723 395.831ZM270.444 389.312V395.616H268.377V384.998H270.361V386.727H270.492C270.736 386.164 271.119 385.713 271.64 385.372C272.165 385.031 272.826 384.86 273.624 384.86C274.347 384.86 274.981 385.012 275.525 385.316C276.068 385.616 276.49 386.063 276.79 386.657C277.089 387.252 277.239 387.987 277.239 388.863V395.616H275.172V389.111C275.172 388.342 274.972 387.74 274.571 387.307C274.17 386.869 273.619 386.651 272.918 386.651C272.439 386.651 272.013 386.754 271.64 386.962C271.271 387.169 270.978 387.473 270.762 387.874C270.55 388.27 270.444 388.75 270.444 389.312ZM286.542 391.213V384.998H288.616V395.616H286.584V393.777H286.473C286.229 394.344 285.837 394.817 285.298 395.195C284.763 395.568 284.097 395.754 283.3 395.754C282.618 395.754 282.014 395.605 281.489 395.305C280.968 395.001 280.558 394.552 280.259 393.957C279.964 393.363 279.816 392.628 279.816 391.752V384.998H281.883V391.503C281.883 392.227 282.083 392.803 282.484 393.231C282.885 393.66 283.406 393.874 284.047 393.874C284.434 393.874 284.819 393.777 285.201 393.584C285.588 393.39 285.908 393.098 286.162 392.706C286.42 392.314 286.547 391.817 286.542 391.213ZM295.775 395.831C294.728 395.831 293.828 395.607 293.072 395.16C292.321 394.708 291.74 394.075 291.33 393.259C290.924 392.439 290.721 391.478 290.721 390.376C290.721 389.289 290.924 388.33 291.33 387.501C291.74 386.671 292.311 386.024 293.044 385.558C293.781 385.093 294.643 384.86 295.629 384.86C296.228 384.86 296.809 384.959 297.371 385.157C297.934 385.356 298.438 385.667 298.885 386.091C299.332 386.515 299.685 387.065 299.943 387.743C300.201 388.416 300.33 389.234 300.33 390.197V390.929H291.89V389.381H298.305C298.305 388.837 298.194 388.356 297.973 387.936C297.752 387.512 297.44 387.178 297.04 386.934C296.643 386.69 296.178 386.568 295.643 386.568C295.063 386.568 294.556 386.71 294.122 386.996C293.694 387.277 293.362 387.646 293.127 388.102C292.897 388.554 292.781 389.045 292.781 389.575V390.784C292.781 391.494 292.906 392.098 293.155 392.595C293.408 393.093 293.761 393.473 294.212 393.736C294.664 393.994 295.192 394.123 295.795 394.123C296.187 394.123 296.544 394.068 296.867 393.957C297.189 393.842 297.468 393.671 297.703 393.446C297.938 393.22 298.118 392.941 298.242 392.609L300.199 392.962C300.042 393.538 299.761 394.042 299.355 394.476C298.954 394.904 298.45 395.238 297.841 395.478C297.238 395.713 296.549 395.831 295.775 395.831Z" fill="#030712"/>
<path d="M270.808 739.387V465.647" stroke="#E6E6E9" stroke-width="1.21662" stroke-dasharray="3.65 3.65"/>
<path d="M382.737 739.387V465.647" stroke="#E6E6E9" stroke-width="1.21662" stroke-dasharray="3.65 3.65"/>
<path d="M494.666 739.387V465.647" stroke="#E6E6E9" stroke-width="1.21662" stroke-dasharray="3.65 3.65"/>
<path d="M606.595 739.387V465.647" stroke="#E6E6E9" stroke-width="1.21662" stroke-dasharray="3.65 3.65"/>
<path d="M718.524 739.387V465.647" stroke="#E6E6E9" stroke-width="1.21662" stroke-dasharray="3.65 3.65"/>
<path d="M830.453 739.387V465.647" stroke="#E6E6E9" stroke-width="1.21662" stroke-dasharray="3.65 3.65"/>
<path d="M942.382 739.387V465.647" stroke="#E6E6E9" stroke-width="1.21662" stroke-dasharray="3.65 3.65"/>
<path d="M272.024 466.254H1054.31" stroke="#E6E6E9" stroke-width="1.21662"/>
<path d="M230.439 471.697V470.608L234.528 466.132C235.008 465.608 235.403 465.152 235.713 464.765C236.024 464.374 236.254 464.007 236.403 463.664C236.556 463.318 236.633 462.955 236.633 462.576C236.633 462.14 236.528 461.763 236.318 461.445C236.113 461.126 235.83 460.88 235.471 460.707C235.113 460.533 234.709 460.446 234.262 460.446C233.786 460.446 233.371 460.545 233.016 460.743C232.665 460.936 232.393 461.209 232.199 461.559C232.01 461.91 231.915 462.322 231.915 462.793H230.487C230.487 462.068 230.655 461.43 230.989 460.882C231.324 460.334 231.78 459.906 232.356 459.6C232.937 459.293 233.588 459.14 234.31 459.14C235.036 459.14 235.679 459.293 236.24 459.6C236.8 459.906 237.24 460.319 237.558 460.84C237.877 461.36 238.036 461.938 238.036 462.576C238.036 463.031 237.953 463.477 237.788 463.912C237.627 464.344 237.344 464.826 236.941 465.358C236.542 465.886 235.988 466.531 235.278 467.293L232.496 470.269V470.366H238.254V471.697H230.439ZM244.792 471.866C243.881 471.866 243.105 471.618 242.464 471.122C241.822 470.622 241.332 469.898 240.994 468.951C240.655 467.999 240.486 466.85 240.486 465.503C240.486 464.164 240.655 463.021 240.994 462.074C241.336 461.122 241.828 460.396 242.47 459.896C243.115 459.392 243.889 459.14 244.792 459.14C245.695 459.14 246.468 459.392 247.109 459.896C247.754 460.396 248.246 461.122 248.585 462.074C248.927 463.021 249.099 464.164 249.099 465.503C249.099 466.85 248.929 467.999 248.591 468.951C248.252 469.898 247.762 470.622 247.121 471.122C246.48 471.618 245.704 471.866 244.792 471.866ZM244.792 470.535C245.695 470.535 246.397 470.1 246.897 469.229C247.397 468.358 247.647 467.116 247.647 465.503C247.647 464.43 247.532 463.517 247.302 462.763C247.077 462.009 246.75 461.434 246.322 461.039C245.899 460.644 245.389 460.446 244.792 460.446C243.897 460.446 243.197 460.888 242.693 461.771C242.189 462.65 241.937 463.894 241.937 465.503C241.937 466.576 242.05 467.487 242.276 468.237C242.502 468.987 242.826 469.558 243.25 469.949C243.677 470.34 244.191 470.535 244.792 470.535ZM251.615 471.697V459.309H253.115V465.455H253.26L258.825 459.309H260.785L255.583 464.898L260.785 471.697H258.97L254.663 465.939L253.115 467.681V471.697H251.615Z" fill="#8C9198"/>
<path d="M272.024 521.002H1054.31" stroke="#E6E6E9" stroke-width="1.21662"/>
<path d="M230.439 526.445V525.356L234.528 520.88C235.008 520.356 235.403 519.9 235.713 519.513C236.024 519.122 236.254 518.755 236.403 518.412C236.556 518.066 236.633 517.703 236.633 517.324C236.633 516.888 236.528 516.511 236.318 516.193C236.113 515.874 235.83 515.628 235.471 515.455C235.113 515.281 234.709 515.195 234.262 515.195C233.786 515.195 233.371 515.293 233.016 515.491C232.665 515.684 232.393 515.957 232.199 516.307C232.01 516.658 231.915 517.07 231.915 517.541H230.487C230.487 516.816 230.655 516.178 230.989 515.63C231.324 515.082 231.78 514.654 232.356 514.348C232.937 514.041 233.588 513.888 234.31 513.888C235.036 513.888 235.679 514.041 236.24 514.348C236.8 514.654 237.24 515.068 237.558 515.588C237.877 516.108 238.036 516.687 238.036 517.324C238.036 517.779 237.953 518.225 237.788 518.66C237.627 519.092 237.344 519.574 236.941 520.106C236.542 520.634 235.988 521.279 235.278 522.041L232.496 525.017V525.114H238.254V526.445H230.439ZM244.792 526.614C243.881 526.614 243.105 526.366 242.464 525.87C241.822 525.37 241.332 524.646 240.994 523.699C240.655 522.747 240.486 521.598 240.486 520.251C240.486 518.912 240.655 517.769 240.994 516.822C241.336 515.87 241.828 515.144 242.47 514.644C243.115 514.14 243.889 513.888 244.792 513.888C245.695 513.888 246.468 514.14 247.109 514.644C247.754 515.144 248.246 515.87 248.585 516.822C248.927 517.769 249.099 518.912 249.099 520.251C249.099 521.598 248.929 522.747 248.591 523.699C248.252 524.646 247.762 525.37 247.121 525.87C246.48 526.366 245.704 526.614 244.792 526.614ZM244.792 525.284C245.695 525.284 246.397 524.848 246.897 523.977C247.397 523.106 247.647 521.864 247.647 520.251C247.647 519.179 247.532 518.265 247.302 517.511C247.077 516.757 246.75 516.182 246.322 515.787C245.899 515.392 245.389 515.195 244.792 515.195C243.897 515.195 243.197 515.636 242.693 516.519C242.189 517.398 241.937 518.642 241.937 520.251C241.937 521.324 242.05 522.235 242.276 522.985C242.502 523.735 242.826 524.306 243.25 524.697C243.677 525.088 244.191 525.284 244.792 525.284ZM251.615 526.445V514.057H253.115V520.203H253.26L258.825 514.057H260.785L255.583 519.646L260.785 526.445H258.97L254.663 520.687L253.115 522.429V526.445H251.615Z" fill="#8C9198"/>
<path d="M272.024 575.75H1054.31" stroke="#E6E6E9" stroke-width="1.21662"/>
<path d="M236.623 568.805V581.192H235.122V570.378H235.05L232.026 572.386V570.861L235.122 568.805H236.623ZM244.226 581.362C243.314 581.362 242.538 581.114 241.897 580.618C241.256 580.118 240.766 579.394 240.427 578.446C240.088 577.495 239.919 576.345 239.919 574.999C239.919 573.66 240.088 572.517 240.427 571.569C240.77 570.618 241.262 569.892 241.903 569.392C242.548 568.888 243.322 568.636 244.226 568.636C245.129 568.636 245.901 568.888 246.542 569.392C247.187 569.892 247.679 570.618 248.018 571.569C248.361 572.517 248.532 573.66 248.532 574.999C248.532 576.345 248.363 577.495 248.024 578.446C247.685 579.394 247.195 580.118 246.554 580.618C245.913 581.114 245.137 581.362 244.226 581.362ZM244.226 580.031C245.129 580.031 245.83 579.596 246.33 578.725C246.83 577.854 247.08 576.612 247.08 574.999C247.08 573.926 246.966 573.013 246.736 572.259C246.51 571.505 246.183 570.93 245.756 570.535C245.332 570.14 244.822 569.942 244.226 569.942C243.33 569.942 242.631 570.384 242.127 571.267C241.623 572.146 241.371 573.39 241.371 574.999C241.371 576.071 241.484 576.983 241.709 577.733C241.935 578.483 242.26 579.053 242.683 579.444C243.111 579.835 243.625 580.031 244.226 580.031ZM251.048 581.192V568.805H252.548V574.95H252.693L258.258 568.805H260.218L255.016 574.394L260.218 581.192H258.403L254.097 575.434L252.548 577.176V581.192H251.048Z" fill="#8C9198"/>
<path d="M272.024 630.499H1054.31" stroke="#E6E6E9" stroke-width="1.21662"/>
<path d="M244.855 636.11C244.145 636.11 243.506 635.969 242.938 635.686C242.369 635.404 241.913 635.017 241.571 634.525C241.228 634.033 241.04 633.473 241.008 632.844H242.46C242.516 633.404 242.77 633.868 243.222 634.235C243.678 634.598 244.222 634.779 244.855 634.779C245.363 634.779 245.815 634.66 246.21 634.422C246.609 634.184 246.922 633.858 247.147 633.442C247.377 633.023 247.492 632.549 247.492 632.021C247.492 631.481 247.373 630.999 247.135 630.575C246.901 630.148 246.579 629.811 246.168 629.565C245.756 629.319 245.287 629.194 244.758 629.19C244.379 629.186 243.99 629.245 243.591 629.366C243.192 629.483 242.863 629.634 242.605 629.819L241.202 629.65L241.952 623.553H248.387V624.884H243.21L242.774 628.537H242.847C243.101 628.335 243.42 628.168 243.803 628.035C244.186 627.902 244.585 627.835 245 627.835C245.758 627.835 246.434 628.017 247.026 628.38C247.623 628.739 248.091 629.231 248.43 629.856C248.773 630.481 248.944 631.194 248.944 631.997C248.944 632.787 248.766 633.493 248.412 634.114C248.061 634.731 247.577 635.219 246.96 635.578C246.343 635.932 245.641 636.11 244.855 636.11ZM251.564 635.94V623.553H253.064V629.698H253.21L258.774 623.553H260.734L255.532 629.142L260.734 635.94H258.919L254.613 630.182L253.064 631.924V635.94H251.564Z" fill="#8C9198"/>
<path d="M272.024 685.246H1054.31" stroke="#E6E6E9" stroke-width="1.21662"/>
<path d="M248.217 678.301V690.688H246.717V679.874H246.645L243.62 681.882V680.358L246.717 678.301H248.217ZM251.998 690.688V678.301H253.498V684.446H253.643L259.207 678.301H261.167L255.965 683.89L261.167 690.688H259.353L255.046 684.93L253.498 686.672V690.688H251.998Z" fill="#8C9198"/>
<path d="M272.024 739.994H1054.31" stroke="#E6E6E9" stroke-width="1.21662"/>
<path d="M255.803 745.606C254.891 745.606 254.115 745.358 253.474 744.862C252.833 744.362 252.343 743.638 252.004 742.69C251.665 741.739 251.496 740.59 251.496 739.243C251.496 737.904 251.665 736.761 252.004 735.813C252.347 734.862 252.839 734.136 253.48 733.636C254.125 733.132 254.899 732.88 255.803 732.88C256.706 732.88 257.478 733.132 258.119 733.636C258.764 734.136 259.256 734.862 259.595 735.813C259.938 736.761 260.109 737.904 260.109 739.243C260.109 740.59 259.94 741.739 259.601 742.69C259.262 743.638 258.772 744.362 258.131 744.862C257.49 745.358 256.714 745.606 255.803 745.606ZM255.803 744.275C256.706 744.275 257.407 743.84 257.907 742.969C258.407 742.098 258.657 740.856 258.657 739.243C258.657 738.17 258.543 737.257 258.313 736.503C258.087 735.749 257.76 735.174 257.333 734.779C256.909 734.384 256.399 734.186 255.803 734.186C254.907 734.186 254.208 734.628 253.704 735.511C253.2 736.39 252.948 737.634 252.948 739.243C252.948 740.315 253.061 741.227 253.286 741.977C253.512 742.727 253.837 743.297 254.26 743.688C254.688 744.08 255.202 744.275 255.803 744.275Z" fill="#8C9198"/>
<path d="M273.772 626.653L311.479 593.926C312.518 593.024 313.736 592.353 315.053 591.956L346.908 582.367C348.524 581.88 350.238 581.823 351.884 582.199L381.491 588.971C383.267 589.378 385.122 589.277 386.845 588.681L420.47 577.041C421.968 576.523 423.57 576.378 425.137 576.62L456.174 581.407C457.111 581.551 458.064 581.558 459.002 581.427L493.337 576.641C495.161 576.387 496.875 575.62 498.28 574.431L530.312 547.327C533.003 545.05 536.715 544.406 540.016 545.644L565.38 555.156C568.422 556.296 571.832 555.844 574.471 553.951L598.186 536.938C601.806 534.341 606.728 534.533 610.134 537.405L636.619 559.735C639.899 562.501 644.603 562.792 648.199 560.453L674.663 543.24C677.485 541.404 681.056 541.158 684.104 542.588L708.1 553.847C712.049 555.7 716.749 554.699 719.601 551.398L746.808 519.893C747.388 519.222 748.058 518.632 748.798 518.142L785.672 493.706C787.744 492.334 790.262 491.805 792.71 492.229L820.086 496.971C821.981 497.299 823.931 497.059 825.689 496.28L856.606 482.586C860.267 480.964 864.548 481.75 867.394 484.567L891.226 508.152C893.912 510.811 897.894 511.674 901.44 510.366L936.394 497.474L974.263 486.259C975.589 485.867 976.816 485.196 977.862 484.292L1005.32 460.566" stroke="#5263FF" stroke-width="2.43324"/>
<circle cx="275.255" cy="625.17" r="3.23051" fill="white" stroke="#5263FF" stroke-width="2.43324"/>
<circle cx="313.797" cy="591.076" r="3.23051" fill="white" stroke="#5263FF" stroke-width="2.43324"/>
<circle cx="347.891" cy="582.181" r="3.23051" fill="white" stroke="#5263FF" stroke-width="2.43324"/>
<circle cx="383.468" cy="588.111" r="3.23051" fill="white" stroke="#5263FF" stroke-width="2.43324"/>
<circle cx="423.493" cy="576.251" r="3.23051" fill="white" stroke="#5263FF" stroke-width="2.43324"/>
<circle cx="457.587" cy="580.699" r="3.23051" fill="white" stroke="#5263FF" stroke-width="2.43324"/>
<circle cx="497.611" cy="576.251" r="3.23051" fill="white" stroke="#5263FF" stroke-width="2.43324"/>
<circle cx="534.67" cy="543.64" r="4.80502" fill="white" stroke="#5263FF" stroke-width="3.61918"/>
<circle cx="570.247" cy="555.498" r="3.23051" fill="white" stroke="#5263FF" stroke-width="2.43324"/>
<circle cx="604.342" cy="533.263" r="3.23051" fill="white" stroke="#5263FF" stroke-width="2.43324"/>
<circle cx="642.884" cy="564.393" r="3.23051" fill="white" stroke="#5263FF" stroke-width="2.43324"/>
<circle cx="678.461" cy="540.675" r="3.23051" fill="white" stroke="#5263FF" stroke-width="2.43324"/>
<circle cx="714.038" cy="555.498" r="3.23051" fill="white" stroke="#5263FF" stroke-width="2.43324"/>
<circle cx="749.615" cy="518.439" r="3.23051" fill="white" stroke="#5263FF" stroke-width="2.43324"/>
<circle cx="789.639" cy="491.756" r="3.23051" fill="white" stroke="#5263FF" stroke-width="2.43324"/>
<circle cx="822.251" cy="496.203" r="3.23051" fill="white" stroke="#5263FF" stroke-width="2.43324"/>
<circle cx="860.793" cy="479.897" r="3.23051" fill="white" stroke="#5263FF" stroke-width="2.43324"/>
<circle cx="896.37" cy="511.027" r="3.23051" fill="white" stroke="#5263FF" stroke-width="2.43324"/>
<circle cx="937.876" cy="497.685" r="3.23051" fill="white" stroke="#5263FF" stroke-width="2.43324"/>
<path d="M222.848 412.339V411.198H230.811V412.339H227.472V421.816H226.187V412.339H222.848ZM234.668 421.982C233.9 421.982 233.238 421.812 232.682 421.474C232.129 421.132 231.702 420.655 231.401 420.043C231.104 419.428 230.956 418.712 230.956 417.896C230.956 417.081 231.104 416.362 231.401 415.74C231.702 415.114 232.12 414.627 232.656 414.278C233.195 413.925 233.824 413.749 234.543 413.749C234.958 413.749 235.368 413.818 235.772 413.956C236.176 414.095 236.544 414.319 236.876 414.63C237.208 414.938 237.472 415.346 237.669 415.854C237.866 416.362 237.965 416.987 237.965 417.731V418.249H231.827V417.191H236.721C236.721 416.742 236.631 416.341 236.451 415.989C236.275 415.636 236.023 415.358 235.694 415.154C235.369 414.95 234.986 414.848 234.543 414.848C234.056 414.848 233.634 414.969 233.278 415.211C232.926 415.449 232.654 415.76 232.464 416.144C232.274 416.528 232.179 416.939 232.179 417.378V418.083C232.179 418.685 232.283 419.194 232.49 419.613C232.701 420.027 232.993 420.344 233.366 420.561C233.74 420.776 234.173 420.883 234.668 420.883C234.989 420.883 235.279 420.838 235.539 420.748C235.801 420.655 236.028 420.516 236.218 420.333C236.408 420.147 236.555 419.915 236.658 419.638L237.841 419.97C237.716 420.371 237.507 420.724 237.213 421.028C236.919 421.329 236.557 421.564 236.124 421.733C235.692 421.899 235.207 421.982 234.668 421.982ZM239.68 421.816V413.853H240.862V415.097H240.966C241.132 414.672 241.4 414.342 241.77 414.107C242.139 413.868 242.583 413.749 243.102 413.749C243.627 413.749 244.065 413.868 244.414 414.107C244.766 414.342 245.041 414.672 245.238 415.097H245.321C245.525 414.686 245.831 414.359 246.239 414.117C246.646 413.872 247.135 413.749 247.706 413.749C248.418 413.749 249 413.972 249.453 414.418C249.906 414.86 250.132 415.55 250.132 416.486V421.816H248.909V416.486C248.909 415.899 248.748 415.479 248.426 415.226C248.105 414.974 247.726 414.848 247.291 414.848C246.731 414.848 246.297 415.017 245.99 415.356C245.682 415.691 245.528 416.116 245.528 416.631V421.816H244.284V416.362C244.284 415.909 244.137 415.544 243.843 415.268C243.55 414.988 243.171 414.848 242.708 414.848C242.39 414.848 242.093 414.933 241.816 415.102C241.543 415.271 241.322 415.506 241.153 415.807C240.987 416.104 240.904 416.448 240.904 416.839V421.816H239.68ZM252.223 424.802V413.853H253.405V415.118H253.55C253.64 414.979 253.765 414.803 253.924 414.589C254.086 414.371 254.318 414.177 254.618 414.008C254.923 413.835 255.334 413.749 255.852 413.749C256.523 413.749 257.114 413.917 257.625 414.252C258.137 414.587 258.536 415.062 258.823 415.678C259.11 416.293 259.253 417.019 259.253 417.855C259.253 418.698 259.11 419.429 258.823 420.048C258.536 420.663 258.139 421.14 257.631 421.479C257.122 421.814 256.537 421.982 255.873 421.982C255.362 421.982 254.952 421.897 254.644 421.728C254.337 421.555 254.1 421.36 253.934 421.142C253.768 420.921 253.64 420.738 253.55 420.592H253.447V424.802H252.223ZM253.426 417.834C253.426 418.436 253.514 418.966 253.69 419.426C253.867 419.882 254.124 420.24 254.463 420.499C254.802 420.755 255.216 420.883 255.707 420.883C256.219 420.883 256.646 420.748 256.988 420.478C257.333 420.205 257.593 419.839 257.765 419.379C257.942 418.916 258.03 418.401 258.03 417.834C258.03 417.274 257.943 416.77 257.771 416.32C257.601 415.868 257.344 415.51 256.998 415.247C256.656 414.981 256.226 414.848 255.707 414.848C255.209 414.848 254.791 414.974 254.452 415.226C254.114 415.475 253.858 415.824 253.685 416.274C253.512 416.72 253.426 417.24 253.426 417.834ZM264.209 421.982C263.49 421.982 262.859 421.811 262.316 421.469C261.777 421.126 261.356 420.648 261.051 420.032C260.751 419.417 260.6 418.698 260.6 417.876C260.6 417.046 260.751 416.322 261.051 415.703C261.356 415.085 261.777 414.604 262.316 414.262C262.859 413.92 263.49 413.749 264.209 413.749C264.928 413.749 265.557 413.92 266.096 414.262C266.639 414.604 267.06 415.085 267.361 415.703C267.665 416.322 267.817 417.046 267.817 417.876C267.817 418.698 267.665 419.417 267.361 420.032C267.06 420.648 266.639 421.126 266.096 421.469C265.557 421.811 264.928 421.982 264.209 421.982ZM264.209 420.883C264.755 420.883 265.204 420.743 265.557 420.463C265.909 420.183 266.17 419.815 266.34 419.358C266.509 418.902 266.594 418.408 266.594 417.876C266.594 417.343 266.509 416.847 266.34 416.388C266.17 415.928 265.909 415.557 265.557 415.273C265.204 414.99 264.755 414.848 264.209 414.848C263.663 414.848 263.213 414.99 262.861 415.273C262.508 415.557 262.247 415.928 262.078 416.388C261.909 416.847 261.824 417.343 261.824 417.876C261.824 418.408 261.909 418.902 262.078 419.358C262.247 419.815 262.508 420.183 262.861 420.463C263.213 420.743 263.663 420.883 264.209 420.883ZM269.539 421.816V413.853H270.721V415.055H270.804C270.949 414.661 271.212 414.342 271.592 414.096C271.972 413.851 272.401 413.728 272.878 413.728C272.968 413.728 273.08 413.73 273.215 413.733C273.349 413.737 273.451 413.742 273.521 413.749V414.993C273.479 414.983 273.384 414.967 273.235 414.947C273.09 414.922 272.936 414.91 272.774 414.91C272.387 414.91 272.041 414.991 271.737 415.154C271.436 415.313 271.198 415.534 271.022 415.817C270.849 416.097 270.762 416.417 270.762 416.777V421.816H269.539ZM282.124 421.982C281.357 421.982 280.695 421.812 280.138 421.474C279.585 421.132 279.158 420.655 278.858 420.043C278.56 419.428 278.412 418.712 278.412 417.896C278.412 417.081 278.56 416.362 278.858 415.74C279.158 415.114 279.577 414.627 280.112 414.278C280.651 413.925 281.28 413.749 281.999 413.749C282.414 413.749 282.824 413.818 283.228 413.956C283.633 414.095 284.001 414.319 284.332 414.63C284.664 414.938 284.929 415.346 285.126 415.854C285.323 416.362 285.421 416.987 285.421 417.731V418.249H279.283V417.191H284.177C284.177 416.742 284.087 416.341 283.907 415.989C283.731 415.636 283.479 415.358 283.15 415.154C282.825 414.95 282.442 414.848 281.999 414.848C281.512 414.848 281.09 414.969 280.734 415.211C280.382 415.449 280.111 415.76 279.92 416.144C279.73 416.528 279.635 416.939 279.635 417.378V418.083C279.635 418.685 279.739 419.194 279.946 419.613C280.157 420.027 280.449 420.344 280.823 420.561C281.196 420.776 281.63 420.883 282.124 420.883C282.445 420.883 282.736 420.838 282.995 420.748C283.258 420.655 283.484 420.516 283.674 420.333C283.864 420.147 284.011 419.915 284.115 419.638L285.297 419.97C285.172 420.371 284.963 420.724 284.669 421.028C284.376 421.329 284.013 421.564 283.581 421.733C283.149 421.899 282.663 421.982 282.124 421.982ZM287.835 413.853L289.743 417.108L291.651 413.853H293.061L290.489 417.834L293.061 421.816H291.651L289.743 418.726L287.835 421.816H286.425L288.955 417.834L286.425 413.853H287.835ZM297.568 421.982C296.821 421.982 296.179 421.806 295.639 421.453C295.1 421.1 294.685 420.615 294.395 419.996C294.105 419.377 293.96 418.671 293.96 417.876C293.96 417.067 294.108 416.353 294.405 415.735C294.706 415.112 295.124 414.627 295.66 414.278C296.199 413.925 296.828 413.749 297.547 413.749C298.107 413.749 298.612 413.853 299.061 414.06C299.51 414.267 299.879 414.558 300.165 414.931C300.452 415.304 300.63 415.74 300.699 416.237H299.476C299.383 415.875 299.175 415.553 298.854 415.273C298.536 414.99 298.107 414.848 297.568 414.848C297.091 414.848 296.673 414.972 296.313 415.221C295.957 415.467 295.679 415.814 295.479 416.263C295.282 416.709 295.183 417.233 295.183 417.834C295.183 418.449 295.28 418.985 295.473 419.441C295.67 419.898 295.947 420.252 296.303 420.504C296.662 420.757 297.084 420.883 297.568 420.883C297.886 420.883 298.175 420.827 298.434 420.717C298.693 420.606 298.912 420.447 299.092 420.24C299.272 420.032 299.4 419.784 299.476 419.493H300.699C300.63 419.963 300.459 420.387 300.186 420.763C299.917 421.137 299.559 421.434 299.113 421.655C298.671 421.873 298.156 421.982 297.568 421.982ZM305.681 421.982C304.914 421.982 304.252 421.812 303.695 421.474C303.142 421.132 302.715 420.655 302.415 420.043C302.117 419.428 301.969 418.712 301.969 417.896C301.969 417.081 302.117 416.362 302.415 415.74C302.715 415.114 303.134 414.627 303.669 414.278C304.208 413.925 304.838 413.749 305.556 413.749C305.971 413.749 306.381 413.818 306.785 413.956C307.19 414.095 307.558 414.319 307.889 414.63C308.221 414.938 308.486 415.346 308.683 415.854C308.88 416.362 308.978 416.987 308.978 417.731V418.249H302.84V417.191H307.734C307.734 416.742 307.644 416.341 307.464 415.989C307.288 415.636 307.036 415.358 306.707 415.154C306.382 414.95 305.999 414.848 305.556 414.848C305.069 414.848 304.647 414.969 304.291 415.211C303.939 415.449 303.668 415.76 303.477 416.144C303.287 416.528 303.192 416.939 303.192 417.378V418.083C303.192 418.685 303.296 419.194 303.503 419.613C303.714 420.027 304.006 420.344 304.38 420.561C304.753 420.776 305.187 420.883 305.681 420.883C306.002 420.883 306.293 420.838 306.552 420.748C306.815 420.655 307.041 420.516 307.231 420.333C307.421 420.147 307.568 419.915 307.672 419.638L308.854 419.97C308.729 420.371 308.52 420.724 308.226 421.028C307.933 421.329 307.57 421.564 307.138 421.733C306.706 421.899 306.22 421.982 305.681 421.982ZM310.693 424.802V413.853H311.875V415.118H312.021C312.11 414.979 312.235 414.803 312.394 414.589C312.556 414.371 312.788 414.177 313.089 414.008C313.393 413.835 313.804 413.749 314.323 413.749C314.993 413.749 315.584 413.917 316.096 414.252C316.607 414.587 317.006 415.062 317.293 415.678C317.58 416.293 317.724 417.019 317.724 417.855C317.724 418.698 317.58 419.429 317.293 420.048C317.006 420.663 316.609 421.14 316.101 421.479C315.593 421.814 315.007 421.982 314.343 421.982C313.832 421.982 313.422 421.897 313.115 421.728C312.807 421.555 312.57 421.36 312.404 421.142C312.238 420.921 312.11 420.738 312.021 420.592H311.917V424.802H310.693ZM311.896 417.834C311.896 418.436 311.984 418.966 312.161 419.426C312.337 419.882 312.594 420.24 312.933 420.499C313.272 420.755 313.687 420.883 314.177 420.883C314.689 420.883 315.116 420.748 315.458 420.478C315.804 420.205 316.063 419.839 316.236 419.379C316.412 418.916 316.5 418.401 316.5 417.834C316.5 417.274 316.414 416.77 316.241 416.32C316.071 415.868 315.814 415.51 315.468 415.247C315.126 414.981 314.696 414.848 314.177 414.848C313.68 414.848 313.261 414.974 312.923 415.226C312.584 415.475 312.328 415.824 312.155 416.274C311.983 416.72 311.896 417.24 311.896 417.834ZM322.907 413.853V414.889H318.78V413.853H322.907ZM319.983 411.945H321.207V419.535C321.207 419.88 321.257 420.14 321.357 420.312C321.461 420.482 321.592 420.596 321.751 420.655C321.913 420.71 322.085 420.738 322.264 420.738C322.399 420.738 322.51 420.731 322.596 420.717C322.682 420.7 322.752 420.686 322.803 420.675L323.052 421.774C322.969 421.806 322.854 421.837 322.705 421.868C322.556 421.902 322.368 421.92 322.14 421.92C321.794 421.92 321.456 421.845 321.124 421.697C320.795 421.548 320.522 421.322 320.305 421.018C320.09 420.713 319.983 420.33 319.983 419.867V411.945ZM327.855 421.982C327.088 421.982 326.426 421.812 325.869 421.474C325.316 421.132 324.889 420.655 324.589 420.043C324.291 419.428 324.143 418.712 324.143 417.896C324.143 417.081 324.291 416.362 324.589 415.74C324.889 415.114 325.308 414.627 325.843 414.278C326.383 413.925 327.012 413.749 327.73 413.749C328.145 413.749 328.555 413.818 328.959 413.956C329.364 414.095 329.732 414.319 330.063 414.63C330.395 414.938 330.66 415.346 330.857 415.854C331.054 416.362 331.152 416.987 331.152 417.731V418.249H325.014V417.191H329.908C329.908 416.742 329.818 416.341 329.638 415.989C329.462 415.636 329.21 415.358 328.881 415.154C328.557 414.95 328.173 414.848 327.73 414.848C327.243 414.848 326.821 414.969 326.465 415.211C326.113 415.449 325.842 415.76 325.651 416.144C325.461 416.528 325.366 416.939 325.366 417.378V418.083C325.366 418.685 325.47 419.194 325.677 419.613C325.888 420.027 326.18 420.344 326.554 420.561C326.927 420.776 327.361 420.883 327.855 420.883C328.176 420.883 328.467 420.838 328.726 420.748C328.989 420.655 329.215 420.516 329.405 420.333C329.595 420.147 329.742 419.915 329.846 419.638L331.028 419.97C330.903 420.371 330.694 420.724 330.4 421.028C330.107 421.329 329.744 421.564 329.312 421.733C328.88 421.899 328.394 421.982 327.855 421.982ZM337.886 418.56V413.853H339.11V421.816H337.886V420.468H337.803C337.616 420.872 337.326 421.216 336.932 421.5C336.538 421.78 336.04 421.92 335.439 421.92C334.941 421.92 334.499 421.811 334.112 421.593C333.725 421.372 333.42 421.04 333.199 420.598C332.978 420.152 332.867 419.59 332.867 418.913V413.853H334.091V418.83C334.091 419.41 334.253 419.873 334.578 420.219C334.907 420.565 335.325 420.738 335.833 420.738C336.137 420.738 336.446 420.66 336.761 420.504C337.079 420.349 337.345 420.11 337.559 419.789C337.777 419.467 337.886 419.058 337.886 418.56ZM341.205 421.816V413.853H342.387V415.055H342.47C342.615 414.661 342.877 414.342 343.258 414.096C343.638 413.851 344.066 413.728 344.543 413.728C344.633 413.728 344.746 413.73 344.88 413.733C345.015 413.737 345.117 413.742 345.186 413.749V414.993C345.145 414.983 345.05 414.967 344.901 414.947C344.756 414.922 344.602 414.91 344.44 414.91C344.053 414.91 343.707 414.991 343.403 415.154C343.102 415.313 342.864 415.534 342.687 415.817C342.514 416.097 342.428 416.417 342.428 416.777V421.816H341.205ZM353.789 421.982C353.022 421.982 352.36 421.812 351.804 421.474C351.251 421.132 350.824 420.655 350.523 420.043C350.226 419.428 350.077 418.712 350.077 417.896C350.077 417.081 350.226 416.362 350.523 415.74C350.824 415.114 351.242 414.627 351.778 414.278C352.317 413.925 352.946 413.749 353.665 413.749C354.08 413.749 354.489 413.818 354.894 413.956C355.298 414.095 355.666 414.319 355.998 414.63C356.33 414.938 356.594 415.346 356.791 415.854C356.988 416.362 357.087 416.987 357.087 417.731V418.249H350.948V417.191H355.842C355.842 416.742 355.753 416.341 355.573 415.989C355.397 415.636 355.144 415.358 354.816 415.154C354.491 414.95 354.107 414.848 353.665 414.848C353.178 414.848 352.756 414.969 352.4 415.211C352.047 415.449 351.776 415.76 351.586 416.144C351.396 416.528 351.301 416.939 351.301 417.378V418.083C351.301 418.685 351.405 419.194 351.612 419.613C351.823 420.027 352.115 420.344 352.488 420.561C352.861 420.776 353.295 420.883 353.789 420.883C354.111 420.883 354.401 420.838 354.66 420.748C354.923 420.655 355.149 420.516 355.34 420.333C355.53 420.147 355.677 419.915 355.78 419.638L356.962 419.97C356.838 420.371 356.629 420.724 356.335 421.028C356.041 421.329 355.678 421.564 355.246 421.733C354.814 421.899 354.329 421.982 353.789 421.982ZM359.501 413.853L361.408 417.108L363.316 413.853H364.727L362.155 417.834L364.727 421.816H363.316L361.408 418.726L359.501 421.816H358.09L360.62 417.834L358.09 413.853H359.501ZM369.234 421.982C368.487 421.982 367.844 421.806 367.305 421.453C366.766 421.1 366.351 420.615 366.061 419.996C365.77 419.377 365.625 418.671 365.625 417.876C365.625 417.067 365.774 416.353 366.071 415.735C366.372 415.112 366.79 414.627 367.326 414.278C367.865 413.925 368.494 413.749 369.213 413.749C369.773 413.749 370.277 413.853 370.727 414.06C371.176 414.267 371.544 414.558 371.831 414.931C372.118 415.304 372.296 415.74 372.365 416.237H371.141C371.048 415.875 370.841 415.553 370.519 415.273C370.201 414.99 369.773 414.848 369.234 414.848C368.757 414.848 368.338 414.972 367.979 415.221C367.623 415.467 367.345 415.814 367.144 416.263C366.947 416.709 366.849 417.233 366.849 417.834C366.849 418.449 366.946 418.985 367.139 419.441C367.336 419.898 367.613 420.252 367.969 420.504C368.328 420.757 368.75 420.883 369.234 420.883C369.552 420.883 369.84 420.827 370.099 420.717C370.359 420.606 370.578 420.447 370.758 420.24C370.938 420.032 371.065 419.784 371.141 419.493H372.365C372.296 419.963 372.125 420.387 371.852 420.763C371.582 421.137 371.224 421.434 370.779 421.655C370.336 421.873 369.821 421.982 369.234 421.982ZM377.346 421.982C376.579 421.982 375.917 421.812 375.361 421.474C374.808 421.132 374.381 420.655 374.08 420.043C373.783 419.428 373.634 418.712 373.634 417.896C373.634 417.081 373.783 416.362 374.08 415.74C374.381 415.114 374.799 414.627 375.335 414.278C375.874 413.925 376.503 413.749 377.222 413.749C377.637 413.749 378.046 413.818 378.451 413.956C378.855 414.095 379.223 414.319 379.555 414.63C379.887 414.938 380.151 415.346 380.348 415.854C380.545 416.362 380.644 416.987 380.644 417.731V418.249H374.505V417.191H379.399C379.399 416.742 379.31 416.341 379.13 415.989C378.954 415.636 378.701 415.358 378.373 415.154C378.048 414.95 377.664 414.848 377.222 414.848C376.735 414.848 376.313 414.969 375.957 415.211C375.604 415.449 375.333 415.76 375.143 416.144C374.953 416.528 374.858 416.939 374.858 417.378V418.083C374.858 418.685 374.962 419.194 375.169 419.613C375.38 420.027 375.672 420.344 376.045 420.561C376.418 420.776 376.852 420.883 377.346 420.883C377.668 420.883 377.958 420.838 378.217 420.748C378.48 420.655 378.706 420.516 378.897 420.333C379.087 420.147 379.234 419.915 379.337 419.638L380.519 419.97C380.395 420.371 380.186 420.724 379.892 421.028C379.598 421.329 379.235 421.564 378.803 421.733C378.371 421.899 377.886 421.982 377.346 421.982ZM382.359 424.802V413.853H383.541V415.118H383.686C383.776 414.979 383.901 414.803 384.059 414.589C384.222 414.371 384.454 414.177 384.754 414.008C385.058 413.835 385.47 413.749 385.988 413.749C386.659 413.749 387.25 413.917 387.761 414.252C388.273 414.587 388.672 415.062 388.959 415.678C389.246 416.293 389.389 417.019 389.389 417.855C389.389 418.698 389.246 419.429 388.959 420.048C388.672 420.663 388.274 421.14 387.766 421.479C387.258 421.814 386.672 421.982 386.009 421.982C385.497 421.982 385.088 421.897 384.78 421.728C384.473 421.555 384.236 421.36 384.07 421.142C383.904 420.921 383.776 420.738 383.686 420.592H383.583V424.802H382.359ZM383.562 417.834C383.562 418.436 383.65 418.966 383.826 419.426C384.002 419.882 384.26 420.24 384.599 420.499C384.937 420.755 385.352 420.883 385.843 420.883C386.354 420.883 386.781 420.748 387.124 420.478C387.469 420.205 387.728 419.839 387.901 419.379C388.077 418.916 388.166 418.401 388.166 417.834C388.166 417.274 388.079 416.77 387.906 416.32C387.737 415.868 387.48 415.51 387.134 415.247C386.792 414.981 386.361 414.848 385.843 414.848C385.345 414.848 384.927 414.974 384.588 415.226C384.25 415.475 383.994 415.824 383.821 416.274C383.648 416.72 383.562 417.24 383.562 417.834ZM394.573 413.853V414.889H390.446V413.853H394.573ZM391.649 411.945H392.872V419.535C392.872 419.88 392.922 420.14 393.023 420.312C393.126 420.482 393.258 420.596 393.417 420.655C393.579 420.71 393.75 420.738 393.93 420.738C394.065 420.738 394.175 420.731 394.262 420.717C394.348 420.7 394.417 420.686 394.469 420.675L394.718 421.774C394.635 421.806 394.519 421.837 394.371 421.868C394.222 421.902 394.034 421.92 393.805 421.92C393.46 421.92 393.121 421.845 392.789 421.697C392.461 421.548 392.188 421.322 391.97 421.018C391.756 420.713 391.649 420.33 391.649 419.867V411.945ZM399.52 421.982C398.753 421.982 398.091 421.812 397.535 421.474C396.982 421.132 396.555 420.655 396.254 420.043C395.957 419.428 395.808 418.712 395.808 417.896C395.808 417.081 395.957 416.362 396.254 415.74C396.555 415.114 396.973 414.627 397.509 414.278C398.048 413.925 398.677 413.749 399.396 413.749C399.811 413.749 400.22 413.818 400.625 413.956C401.029 414.095 401.397 414.319 401.729 414.63C402.061 414.938 402.325 415.346 402.522 415.854C402.719 416.362 402.818 416.987 402.818 417.731V418.249H396.679V417.191H401.574C401.574 416.742 401.484 416.341 401.304 415.989C401.128 415.636 400.875 415.358 400.547 415.154C400.222 414.95 399.838 414.848 399.396 414.848C398.909 414.848 398.487 414.969 398.131 415.211C397.779 415.449 397.507 415.76 397.317 416.144C397.127 416.528 397.032 416.939 397.032 417.378V418.083C397.032 418.685 397.136 419.194 397.343 419.613C397.554 420.027 397.846 420.344 398.219 420.561C398.592 420.776 399.026 420.883 399.52 420.883C399.842 420.883 400.132 420.838 400.391 420.748C400.654 420.655 400.881 420.516 401.071 420.333C401.261 420.147 401.408 419.915 401.511 419.638L402.693 419.97C402.569 420.371 402.36 420.724 402.066 421.028C401.772 421.329 401.409 421.564 400.977 421.733C400.545 421.899 400.06 421.982 399.52 421.982ZM409.552 418.56V413.853H410.775V421.816H409.552V420.468H409.469C409.282 420.872 408.992 421.216 408.598 421.5C408.204 421.78 407.706 421.92 407.105 421.92C406.607 421.92 406.164 421.811 405.777 421.593C405.39 421.372 405.086 421.04 404.865 420.598C404.644 420.152 404.533 419.59 404.533 418.913V413.853H405.757V418.83C405.757 419.41 405.919 419.873 406.244 420.219C406.572 420.565 406.99 420.738 407.499 420.738C407.803 420.738 408.112 420.66 408.427 420.504C408.745 420.349 409.011 420.11 409.225 419.789C409.443 419.467 409.552 419.058 409.552 418.56ZM412.87 421.816V413.853H414.052V415.055H414.135C414.28 414.661 414.543 414.342 414.923 414.096C415.303 413.851 415.732 413.728 416.209 413.728C416.299 413.728 416.411 413.73 416.546 413.733C416.681 413.737 416.783 413.742 416.852 413.749V414.993C416.81 414.983 416.715 414.967 416.567 414.947C416.421 414.922 416.268 414.91 416.105 414.91C415.718 414.91 415.372 414.991 415.068 415.154C414.768 415.313 414.529 415.534 414.353 415.817C414.18 416.097 414.094 416.417 414.094 416.777V421.816H412.87ZM425.455 421.982C424.688 421.982 424.026 421.812 423.469 421.474C422.916 421.132 422.49 420.655 422.189 420.043C421.892 419.428 421.743 418.712 421.743 417.896C421.743 417.081 421.892 416.362 422.189 415.74C422.49 415.114 422.908 414.627 423.443 414.278C423.983 413.925 424.612 413.749 425.331 413.749C425.745 413.749 426.155 413.818 426.559 413.956C426.964 414.095 427.332 414.319 427.664 414.63C427.995 414.938 428.26 415.346 428.457 415.854C428.654 416.362 428.752 416.987 428.752 417.731V418.249H422.614V417.191H427.508C427.508 416.742 427.418 416.341 427.238 415.989C427.062 415.636 426.81 415.358 426.482 415.154C426.157 414.95 425.773 414.848 425.331 414.848C424.843 414.848 424.422 414.969 424.066 415.211C423.713 415.449 423.442 415.76 423.252 416.144C423.062 416.528 422.966 416.939 422.966 417.378V418.083C422.966 418.685 423.07 419.194 423.278 419.613C423.488 420.027 423.78 420.344 424.154 420.561C424.527 420.776 424.961 420.883 425.455 420.883C425.776 420.883 426.067 420.838 426.326 420.748C426.589 420.655 426.815 420.516 427.005 420.333C427.195 420.147 427.342 419.915 427.446 419.638L428.628 419.97C428.504 420.371 428.294 420.724 428.001 421.028C427.707 421.329 427.344 421.564 426.912 421.733C426.48 421.899 425.994 421.982 425.455 421.982ZM431.166 413.853L433.074 417.108L434.982 413.853H436.392L433.821 417.834L436.392 421.816H434.982L433.074 418.726L431.166 421.816H429.756L432.286 417.834L429.756 413.853H431.166ZM438.884 421.899C438.628 421.899 438.408 421.807 438.225 421.624C438.042 421.441 437.951 421.221 437.951 420.966C437.951 420.71 438.042 420.49 438.225 420.307C438.408 420.124 438.628 420.032 438.884 420.032C439.14 420.032 439.359 420.124 439.542 420.307C439.725 420.49 439.817 420.71 439.817 420.966C439.817 421.135 439.774 421.291 439.687 421.432C439.604 421.574 439.492 421.688 439.35 421.774C439.212 421.857 439.057 421.899 438.884 421.899Z" fill="#8C8E9C"/>
<g filter="url(#filter3_d_20326_42700)">
<path d="M438.761 476.596C434.024 476.596 430.185 479.487 430.185 483.052V523.078C430.185 526.643 434.025 529.533 438.761 529.533H519.642C522.81 529.533 525.891 530.564 528.422 532.469L532.388 535.454C533.728 536.463 535.9 536.463 537.24 535.454L541.206 532.469C543.737 530.564 546.819 529.533 549.986 529.533H630.867C635.604 529.533 639.444 526.643 639.444 523.078V483.052C639.444 479.487 635.604 476.596 630.867 476.596H438.761Z" fill="white"/>
<path d="M430.793 483.052C430.793 481.503 431.626 480.054 433.063 478.973C434.499 477.891 436.512 477.205 438.761 477.205H630.867C633.116 477.205 635.129 477.891 636.566 478.973C638.002 480.054 638.835 481.503 638.835 483.052V523.078C638.835 524.627 638.002 526.075 636.566 527.156C635.129 528.238 633.116 528.925 630.867 528.925H549.986C546.687 528.925 543.477 529.998 540.84 531.983L536.874 534.968C536.327 535.38 535.584 535.602 534.814 535.602C534.045 535.602 533.301 535.38 532.754 534.968L528.788 531.983C526.152 529.998 522.942 528.925 519.642 528.925H438.761C436.512 528.925 434.499 528.238 433.063 527.156C431.626 526.075 430.793 524.627 430.793 523.078V483.052Z" stroke="black" stroke-opacity="0.14" stroke-width="1.21662"/>
</g>
<rect x="447.833" y="500.046" width="7.29972" height="7.29972" rx="1.21662" fill="#5263FF"/>
<path d="M468.696 509.196V496.808H473.051C474.014 496.808 474.811 496.974 475.44 497.304C476.073 497.631 476.545 498.087 476.855 498.671C477.166 499.252 477.321 499.917 477.321 500.667C477.321 501.421 477.164 502.085 476.849 502.657C476.538 503.226 476.067 503.671 475.434 503.994C474.805 504.313 474.012 504.472 473.057 504.472H469.7V502.923H472.911C473.532 502.923 474.036 502.835 474.424 502.657C474.811 502.476 475.093 502.218 475.27 501.883C475.452 501.548 475.542 501.143 475.542 500.667C475.542 500.192 475.452 499.78 475.27 499.433C475.089 499.083 474.805 498.814 474.417 498.629C474.03 498.439 473.522 498.345 472.893 498.345H470.474V509.196H468.696ZM474.738 503.613L477.793 509.196H475.766L472.76 503.613H474.738ZM483.296 509.383C482.389 509.383 481.607 509.188 480.95 508.797C480.292 508.401 479.786 507.847 479.431 507.133C479.077 506.415 478.899 505.577 478.899 504.617C478.899 503.665 479.077 502.827 479.431 502.101C479.786 501.371 480.282 500.802 480.919 500.395C481.56 499.988 482.308 499.784 483.163 499.784C483.679 499.784 484.179 499.869 484.663 500.038C485.151 500.208 485.591 500.478 485.982 500.849C486.373 501.216 486.682 501.696 486.907 502.288C487.137 502.881 487.252 503.601 487.252 504.448V505.077H479.921V503.752H485.559C485.555 503.268 485.454 502.837 485.256 502.458C485.063 502.075 484.786 501.774 484.427 501.556C484.073 501.335 483.655 501.224 483.175 501.224C482.651 501.224 482.196 501.353 481.808 501.611C481.425 501.865 481.129 502.198 480.919 502.609C480.71 503.02 480.605 503.464 480.605 503.94V504.938C480.605 505.579 480.718 506.123 480.943 506.571C481.169 507.018 481.484 507.359 481.887 507.593C482.294 507.827 482.768 507.944 483.308 507.944C483.663 507.944 483.984 507.893 484.27 507.793C484.556 507.692 484.804 507.541 485.014 507.339C485.224 507.137 485.385 506.887 485.498 506.589L487.125 506.916C486.988 507.411 486.744 507.845 486.393 508.216C486.042 508.587 485.605 508.875 485.081 509.081C484.556 509.282 483.962 509.383 483.296 509.383ZM496.816 499.905L493.429 509.196H491.614L488.227 499.905H490.072L492.473 507.121H492.57L494.977 499.905H496.816ZM502.137 509.383C501.23 509.383 500.447 509.188 499.79 508.797C499.133 508.401 498.627 507.847 498.272 507.133C497.917 506.415 497.74 505.577 497.74 504.617C497.74 503.665 497.917 502.827 498.272 502.101C498.627 501.371 499.123 500.802 499.76 500.395C500.401 499.988 501.149 499.784 502.004 499.784C502.52 499.784 503.02 499.869 503.504 500.038C503.992 500.208 504.431 500.478 504.822 500.849C505.214 501.216 505.522 501.696 505.748 502.288C505.978 502.881 506.093 503.601 506.093 504.448V505.077H498.762V503.752H504.399C504.395 503.268 504.294 502.837 504.097 502.458C503.903 502.075 503.627 501.774 503.268 501.556C502.913 501.335 502.496 501.224 502.016 501.224C501.492 501.224 501.036 501.353 500.649 501.611C500.266 501.865 499.969 502.198 499.76 502.609C499.55 503.02 499.445 503.464 499.445 503.94V504.938C499.445 505.579 499.558 506.123 499.784 506.571C500.01 507.018 500.324 507.359 500.728 507.593C501.135 507.827 501.609 507.944 502.149 507.944C502.504 507.944 502.824 507.893 503.111 507.793C503.397 507.692 503.645 507.541 503.855 507.339C504.064 507.137 504.226 506.887 504.339 506.589L505.966 506.916C505.829 507.411 505.585 507.845 505.234 508.216C504.883 508.587 504.445 508.875 503.921 509.081C503.397 509.282 502.802 509.383 502.137 509.383ZM509.794 503.661V509.196H508.082V499.905H509.727V501.405H509.842C510.06 500.913 510.395 500.52 510.846 500.226C511.302 499.931 511.879 499.784 512.576 499.784C513.209 499.784 513.762 499.915 514.234 500.177C514.709 500.44 515.078 500.831 515.341 501.351C515.607 501.871 515.738 502.516 515.734 503.286V509.196H514.022V503.474C514.022 502.784 513.842 502.246 513.484 501.859C513.129 501.472 512.639 501.278 512.014 501.278C511.586 501.278 511.205 501.373 510.871 501.563C510.536 501.748 510.272 502.018 510.078 502.373C509.889 502.728 509.794 503.157 509.794 503.661ZM524.03 505.355V499.905H525.742V509.196H524.055V507.593H523.958C523.744 508.085 523.403 508.496 522.936 508.827C522.468 509.153 521.885 509.317 521.188 509.317C520.595 509.317 520.071 509.186 519.615 508.924C519.159 508.662 518.8 508.27 518.538 507.75C518.28 507.23 518.151 506.585 518.151 505.815V499.905H519.863V505.627C519.863 506.272 520.042 506.786 520.401 507.17C520.76 507.549 521.224 507.738 521.792 507.738C522.135 507.738 522.478 507.653 522.821 507.484C523.163 507.311 523.45 507.049 523.68 506.698C523.913 506.343 524.03 505.895 524.03 505.355ZM532.128 509.383C531.22 509.383 530.438 509.188 529.781 508.797C529.123 508.401 528.617 507.847 528.263 507.133C527.908 506.415 527.73 505.577 527.73 504.617C527.73 503.665 527.908 502.827 528.263 502.101C528.617 501.371 529.113 500.802 529.75 500.395C530.392 499.988 531.14 499.784 531.994 499.784C532.511 499.784 533.011 499.869 533.495 500.038C533.982 500.208 534.422 500.478 534.813 500.849C535.204 501.216 535.513 501.696 535.739 502.288C535.968 502.881 536.083 503.601 536.083 504.448V505.077H528.752V503.752H534.39C534.386 503.268 534.285 502.837 534.087 502.458C533.894 502.075 533.617 501.774 533.259 501.556C532.904 501.335 532.486 501.224 532.007 501.224C531.482 501.224 531.027 501.353 530.64 501.611C530.257 501.865 529.96 502.198 529.75 502.609C529.541 503.02 529.436 503.464 529.436 503.94V504.938C529.436 505.579 529.549 506.123 529.775 506.571C530 507.018 530.315 507.359 530.718 507.593C531.126 507.827 531.599 507.944 532.14 507.944C532.494 507.944 532.815 507.893 533.101 507.793C533.388 507.692 533.636 507.541 533.845 507.339C534.055 507.137 534.216 506.887 534.329 506.589L535.956 506.916C535.819 507.411 535.575 507.845 535.224 508.216C534.874 508.587 534.436 508.875 533.912 509.081C533.388 509.282 532.793 509.383 532.128 509.383Z" fill="#7F7D83"/>
<path d="M554.461 510.744V495.26H555.453V510.744H554.461ZM557.618 500.02C557.554 499.44 557.282 498.988 556.802 498.665C556.322 498.343 555.723 498.181 555.005 498.181C554.485 498.181 554.034 498.264 553.65 498.429C553.271 498.591 552.977 498.814 552.767 499.101C552.562 499.387 552.457 499.712 552.453 500.075C552.453 500.377 552.525 500.637 552.671 500.855C552.816 501.073 553.003 501.256 553.233 501.405C553.467 501.55 553.717 501.671 553.983 501.768C554.249 501.861 554.501 501.938 554.739 501.998L555.961 502.319C556.34 502.411 556.735 502.54 557.146 502.706C557.558 502.867 557.941 503.081 558.296 503.347C558.655 503.613 558.945 503.946 559.167 504.345C559.393 504.744 559.505 505.226 559.505 505.79C559.505 506.48 559.326 507.097 558.967 507.641C558.612 508.186 558.094 508.615 557.413 508.93C556.735 509.244 555.913 509.401 554.945 509.401C554.029 509.401 553.237 509.256 552.568 508.966C551.898 508.676 551.372 508.264 550.989 507.732C550.61 507.196 550.4 506.561 550.36 505.827H552.156C552.193 506.282 552.34 506.659 552.598 506.958C552.86 507.252 553.195 507.472 553.602 507.617C554.009 507.762 554.455 507.835 554.939 507.835C555.479 507.835 555.961 507.75 556.384 507.581C556.808 507.407 557.142 507.166 557.388 506.855C557.634 506.545 557.757 506.182 557.757 505.766C557.757 505.391 557.651 505.083 557.437 504.841C557.223 504.599 556.937 504.401 556.578 504.248C556.219 504.095 555.82 503.958 555.38 503.837L553.898 503.432C552.91 503.157 552.128 502.76 551.552 502.24C550.979 501.716 550.693 501.026 550.693 500.171C550.693 499.466 550.884 498.849 551.267 498.321C551.654 497.788 552.177 497.375 552.834 497.081C553.491 496.786 554.229 496.639 555.048 496.639C555.874 496.639 556.606 496.786 557.243 497.081C557.88 497.371 558.384 497.77 558.755 498.278C559.126 498.786 559.32 499.367 559.336 500.02H557.618ZM566.157 496.808V509.196H564.379V498.611H564.306L561.33 500.558V498.835L564.421 496.808H566.157ZM573.581 496.639C574.122 496.643 574.656 496.744 575.184 496.941C575.712 497.135 576.192 497.454 576.624 497.897C577.055 498.341 577.4 498.944 577.658 499.706C577.916 500.464 578.045 501.409 578.045 502.542C578.045 503.631 577.938 504.599 577.724 505.446C577.511 506.288 577.202 507.002 576.799 507.587C576.396 508.168 575.908 508.609 575.335 508.912C574.767 509.214 574.126 509.365 573.412 509.365C572.686 509.365 572.041 509.222 571.476 508.936C570.912 508.645 570.452 508.246 570.097 507.738C569.742 507.23 569.519 506.643 569.426 505.978H571.174C571.299 506.518 571.551 506.958 571.93 507.297C572.309 507.635 572.803 507.805 573.412 507.805C574.331 507.805 575.051 507.405 575.571 506.607C576.091 505.805 576.351 504.678 576.351 503.226H576.261C576.043 503.573 575.779 503.871 575.468 504.121C575.158 504.367 574.809 504.559 574.422 504.696C574.035 504.829 573.626 504.895 573.194 504.895C572.476 504.895 571.825 504.72 571.24 504.369C570.656 504.018 570.19 503.536 569.843 502.923C569.496 502.311 569.321 501.609 569.317 500.819C569.317 500.04 569.492 499.335 569.843 498.702C570.198 498.064 570.694 497.558 571.331 497.183C571.972 496.808 572.722 496.627 573.581 496.639ZM573.581 498.151C573.101 498.151 572.67 498.27 572.287 498.508C571.904 498.746 571.599 499.064 571.373 499.464C571.152 499.863 571.041 500.308 571.041 500.8C571.045 501.288 571.154 501.732 571.367 502.131C571.585 502.526 571.882 502.841 572.257 503.075C572.632 503.309 573.061 503.425 573.545 503.425C573.904 503.425 574.24 503.355 574.555 503.214C574.87 503.073 575.144 502.877 575.378 502.627C575.611 502.377 575.795 502.095 575.928 501.78C576.061 501.462 576.126 501.127 576.122 500.776C576.122 500.317 576.011 499.887 575.789 499.488C575.571 499.089 575.271 498.766 574.888 498.52C574.505 498.274 574.069 498.151 573.581 498.151ZM582.09 507.502L581.999 508.162C581.934 508.637 581.832 509.137 581.69 509.662C581.553 510.19 581.408 510.682 581.255 511.137C581.102 511.593 580.977 511.954 580.88 512.22H579.646C579.702 511.966 579.775 511.627 579.864 511.204C579.952 510.781 580.041 510.307 580.13 509.783C580.219 509.258 580.287 508.724 580.336 508.18L580.396 507.502H582.09ZM584.681 509.196L590.119 498.435V498.345H583.834V496.808H591.957V498.405L586.538 509.196H584.681ZM594.039 509.196V507.907L598.207 503.528C598.658 503.044 599.033 502.621 599.332 502.258C599.63 501.895 599.852 501.548 599.997 501.218C600.142 500.887 600.215 500.54 600.215 500.177C600.215 499.758 600.116 499.397 599.919 499.095C599.725 498.788 599.457 498.552 599.114 498.387C598.775 498.222 598.392 498.139 597.965 498.139C597.513 498.139 597.12 498.232 596.785 498.417C596.451 498.603 596.191 498.863 596.005 499.198C595.824 499.528 595.733 499.921 595.733 500.377H594.039C594.039 499.627 594.211 498.972 594.553 498.411C594.9 497.851 595.372 497.415 595.969 497.105C596.57 496.794 597.247 496.639 598.001 496.639C598.767 496.639 599.443 496.794 600.027 497.105C600.616 497.411 601.076 497.829 601.406 498.357C601.737 498.885 601.902 499.478 601.902 500.135C601.902 500.591 601.818 501.038 601.648 501.478C601.479 501.917 601.185 502.405 600.765 502.942C600.35 503.478 599.769 504.129 599.023 504.895L596.483 507.569V507.659H602.108V509.196H594.039ZM608.631 509.389C607.688 509.389 606.881 509.139 606.212 508.639C605.546 508.139 605.036 507.413 604.681 506.462C604.327 505.506 604.149 504.355 604.149 503.008C604.153 501.665 604.333 500.52 604.687 499.573C605.042 498.621 605.554 497.895 606.224 497.395C606.893 496.891 607.696 496.639 608.631 496.639C609.567 496.639 610.369 496.891 611.038 497.395C611.708 497.895 612.22 498.621 612.575 499.573C612.934 500.52 613.113 501.665 613.113 503.008C613.113 504.355 612.936 505.506 612.581 506.462C612.226 507.413 611.714 508.139 611.044 508.639C610.379 509.139 609.575 509.389 608.631 509.389ZM608.631 507.847C609.486 507.847 610.153 507.432 610.633 506.601C611.117 505.77 611.359 504.573 611.359 503.008C611.359 501.968 611.248 501.087 611.026 500.365C610.809 499.643 610.496 499.095 610.089 498.72C609.682 498.345 609.196 498.157 608.631 498.157C607.784 498.157 607.119 498.577 606.635 499.415C606.151 500.25 605.909 501.448 605.909 503.008C605.909 504.048 606.016 504.93 606.23 505.651C606.448 506.373 606.76 506.92 607.167 507.291C607.575 507.661 608.063 507.847 608.631 507.847Z" fill="#0A090B"/>
</g>
<g filter="url(#filter4_dd_20326_42700)">
<rect x="114" y="251" width="364.986" height="177.627" rx="9.73296" fill="white"/>
<path d="M179.868 356.352C178.14 356.352 176.534 356.036 175.05 355.403C173.59 354.77 172.325 353.894 171.254 352.775C170.208 351.632 169.442 350.305 168.955 348.797L173.079 347.008C173.736 348.566 174.685 349.794 175.926 350.695C177.167 351.571 178.566 352.009 180.124 352.009C180.999 352.009 181.754 351.875 182.386 351.607C183.043 351.315 183.542 350.926 183.883 350.439C184.248 349.953 184.43 349.369 184.43 348.687C184.43 347.884 184.187 347.227 183.7 346.716C183.238 346.181 182.532 345.767 181.583 345.475L176.364 343.797C174.247 343.14 172.653 342.154 171.583 340.84C170.512 339.526 169.977 337.981 169.977 336.205C169.977 334.648 170.354 333.273 171.108 332.08C171.887 330.888 172.958 329.964 174.32 329.307C175.707 328.625 177.289 328.285 179.065 328.285C180.695 328.285 182.192 328.577 183.554 329.161C184.917 329.72 186.085 330.511 187.058 331.533C188.056 332.531 188.798 333.711 189.285 335.073L185.197 336.898C184.662 335.536 183.859 334.489 182.788 333.759C181.717 333.005 180.476 332.628 179.065 332.628C178.238 332.628 177.508 332.774 176.875 333.066C176.242 333.334 175.744 333.723 175.379 334.234C175.038 334.721 174.868 335.305 174.868 335.986C174.868 336.74 175.111 337.409 175.598 337.993C176.084 338.553 176.826 338.991 177.824 339.307L182.824 340.877C184.99 341.582 186.608 342.556 187.679 343.797C188.774 345.037 189.321 346.57 189.321 348.395C189.321 349.953 188.92 351.327 188.117 352.52C187.314 353.712 186.207 354.649 184.795 355.33C183.384 356.011 181.742 356.352 179.868 356.352ZM178.116 359.564V325.073H181.218V359.564H178.116ZM196.017 355.914V332.956H190.761V328.723H200.981V355.914H196.017ZM206.723 361.608V359.235C207.526 359.041 208.171 358.664 208.657 358.104C209.168 357.569 209.485 356.839 209.606 355.914H207.453V350.804H212.271V353.943C212.271 356.084 211.796 357.8 210.847 359.089C209.923 360.379 208.548 361.219 206.723 361.608ZM225.389 356.352C223.954 356.352 222.579 356.084 221.265 355.549C219.975 355.014 218.856 354.259 217.907 353.286C216.982 352.289 216.35 351.108 216.009 349.746L220.316 348.213C220.73 349.454 221.399 350.378 222.323 350.987C223.248 351.571 224.27 351.863 225.389 351.863C226.314 351.863 227.129 351.668 227.835 351.279C228.565 350.865 229.124 350.305 229.514 349.6C229.903 348.87 230.098 348.03 230.098 347.081C230.098 346.132 229.891 345.305 229.477 344.599C229.088 343.894 228.54 343.346 227.835 342.957C227.129 342.543 226.314 342.337 225.389 342.337C224.44 342.337 223.576 342.543 222.798 342.957C222.044 343.371 221.496 343.967 221.155 344.745L217.104 343.833L219.257 328.723H234.076V332.92H221.228L223.09 330.767L221.557 342.154L220.133 340.986C220.815 339.988 221.642 339.259 222.615 338.796C223.613 338.334 224.817 338.103 226.229 338.103C228.029 338.103 229.587 338.492 230.901 339.271C232.239 340.049 233.273 341.108 234.003 342.446C234.733 343.784 235.098 345.329 235.098 347.081C235.098 348.833 234.672 350.415 233.82 351.826C232.969 353.237 231.813 354.345 230.353 355.148C228.893 355.951 227.238 356.352 225.389 356.352ZM248.465 356.352C246.299 356.352 244.401 355.768 242.771 354.6C241.141 353.432 239.863 351.79 238.939 349.673C238.038 347.556 237.588 345.098 237.588 342.3C237.588 339.478 238.038 337.02 238.939 334.927C239.839 332.835 241.104 331.204 242.735 330.037C244.365 328.869 246.263 328.285 248.428 328.285C250.643 328.285 252.553 328.869 254.159 330.037C255.789 331.204 257.066 332.847 257.991 334.964C258.916 337.056 259.378 339.502 259.378 342.3C259.378 345.098 258.916 347.556 257.991 349.673C257.091 351.765 255.825 353.408 254.195 354.6C252.565 355.768 250.655 356.352 248.465 356.352ZM248.501 351.826C249.742 351.826 250.801 351.449 251.677 350.695C252.553 349.916 253.222 348.821 253.684 347.41C254.171 345.974 254.414 344.271 254.414 342.3C254.414 340.329 254.171 338.638 253.684 337.227C253.222 335.791 252.541 334.696 251.64 333.942C250.764 333.188 249.694 332.81 248.428 332.81C247.212 332.81 246.165 333.188 245.29 333.942C244.414 334.696 243.732 335.791 243.246 337.227C242.783 338.638 242.552 340.329 242.552 342.3C242.552 344.247 242.783 345.938 243.246 347.373C243.732 348.785 244.414 349.88 245.29 350.658C246.19 351.437 247.26 351.826 248.501 351.826ZM273.722 355.914V349.928H261.24V345.767L273.43 328.723H278.613V345.767H282.591V349.928H278.613V355.914H273.722ZM264.89 347.556L264.014 345.767H273.722V332.628L275 333.029L264.89 347.556ZM286.106 361.608V359.235C286.909 359.041 287.554 358.664 288.041 358.104C288.551 357.569 288.868 356.839 288.989 355.914H286.836V350.804H291.654V353.943C291.654 356.084 291.179 357.8 290.23 359.089C289.306 360.379 287.931 361.219 286.106 361.608ZM305.466 356.352C303.495 356.352 301.779 355.987 300.319 355.257C298.884 354.503 297.765 353.493 296.962 352.228C296.183 350.962 295.794 349.575 295.794 348.067C295.794 346.291 296.268 344.794 297.217 343.578C298.166 342.337 299.541 341.424 301.341 340.84L301.049 342.045C299.76 341.631 298.738 340.828 297.984 339.636C297.254 338.443 296.889 337.129 296.889 335.694C296.889 334.258 297.254 332.981 297.984 331.861C298.714 330.742 299.723 329.866 301.013 329.234C302.303 328.601 303.787 328.285 305.466 328.285C307.12 328.285 308.58 328.601 309.846 329.234C311.135 329.866 312.145 330.742 312.875 331.861C313.629 332.981 314.006 334.258 314.006 335.694C314.006 337.154 313.629 338.48 312.875 339.672C312.145 340.84 311.135 341.643 309.846 342.081L309.59 340.804C311.391 341.436 312.765 342.373 313.714 343.614C314.663 344.831 315.138 346.327 315.138 348.103C315.138 349.612 314.736 350.999 313.933 352.264C313.155 353.505 312.035 354.503 310.576 355.257C309.14 355.987 307.437 356.352 305.466 356.352ZM305.466 352.155C306.415 352.155 307.242 351.984 307.948 351.644C308.653 351.279 309.201 350.78 309.59 350.147C309.979 349.49 310.174 348.748 310.174 347.921C310.174 347.069 309.979 346.339 309.59 345.731C309.201 345.098 308.653 344.612 307.948 344.271C307.242 343.906 306.415 343.724 305.466 343.724C304.517 343.724 303.689 343.906 302.984 344.271C302.303 344.612 301.767 345.098 301.378 345.731C300.989 346.339 300.794 347.069 300.794 347.921C300.794 348.748 300.989 349.49 301.378 350.147C301.767 350.78 302.303 351.279 302.984 351.644C303.689 351.984 304.517 352.155 305.466 352.155ZM305.466 339.526C306.171 339.526 306.792 339.368 307.327 339.052C307.862 338.735 308.276 338.322 308.568 337.811C308.884 337.275 309.043 336.667 309.043 335.986C309.043 335.305 308.884 334.708 308.568 334.197C308.276 333.662 307.862 333.248 307.327 332.956C306.792 332.64 306.171 332.482 305.466 332.482C304.76 332.482 304.127 332.64 303.568 332.956C303.033 333.248 302.607 333.662 302.29 334.197C301.998 334.708 301.852 335.305 301.852 335.986C301.852 336.667 301.998 337.275 302.29 337.811C302.607 338.322 303.033 338.735 303.568 339.052C304.127 339.368 304.76 339.526 305.466 339.526ZM317.212 355.914V352.155L324.585 344.453C326.045 342.921 327.164 341.704 327.943 340.804C328.746 339.879 329.306 339.088 329.622 338.431C329.938 337.774 330.096 337.105 330.096 336.424C330.096 335.28 329.731 334.38 329.001 333.723C328.296 333.066 327.383 332.737 326.264 332.737C325.096 332.737 324.086 333.078 323.235 333.759C322.383 334.416 321.762 335.39 321.373 336.679L317.03 335.329C317.322 333.893 317.918 332.652 318.818 331.606C319.719 330.535 320.814 329.72 322.103 329.161C323.417 328.577 324.804 328.285 326.264 328.285C328.016 328.285 329.549 328.601 330.863 329.234C332.201 329.866 333.235 330.754 333.965 331.898C334.719 333.042 335.097 334.38 335.097 335.913C335.097 336.886 334.914 337.847 334.549 338.796C334.184 339.745 333.637 340.718 332.907 341.716C332.177 342.689 331.228 343.784 330.06 345.001L323.673 351.717H335.462V355.914H317.212ZM346.546 356.352C345.061 356.352 343.65 356.084 342.312 355.549C340.998 354.989 339.866 354.211 338.917 353.213C337.993 352.191 337.36 350.987 337.019 349.6L341.363 348.067C341.801 349.308 342.47 350.257 343.37 350.914C344.27 351.546 345.329 351.863 346.546 351.863C347.519 351.863 348.358 351.68 349.064 351.315C349.794 350.95 350.366 350.427 350.779 349.746C351.193 349.04 351.4 348.213 351.4 347.264C351.4 346.315 351.193 345.512 350.779 344.855C350.39 344.174 349.83 343.651 349.1 343.286C348.37 342.921 347.507 342.738 346.509 342.738C346.047 342.738 345.56 342.787 345.049 342.884C344.562 342.981 344.124 343.127 343.735 343.322L342.604 340.95L349.648 332.92H338.552V328.723H355.232V332.628L348.151 340.913L348.224 339.052C349.855 339.076 351.278 339.429 352.495 340.11C353.711 340.791 354.66 341.728 355.342 342.921C356.023 344.113 356.364 345.512 356.364 347.118C356.364 348.87 355.938 350.451 355.086 351.863C354.235 353.25 353.067 354.345 351.582 355.148C350.098 355.951 348.419 356.352 346.546 356.352Z" fill="#2E2C34"/>
<path d="M359.098 355.914V353.189H361.668V355.914H359.098ZM370.64 355.914V352.722H363.983V350.503L370.485 341.412H373.249V350.503H375.371V352.722H373.249V355.914H370.64ZM365.93 351.456L365.462 350.503H370.64V343.495L371.322 343.709L365.93 351.456ZM381.119 356.148C380.133 356.148 379.257 355.94 378.491 355.525C377.738 355.096 377.148 354.525 376.719 353.812C376.291 353.085 376.077 352.261 376.077 351.34C376.077 350.872 376.123 350.405 376.213 349.938C376.317 349.471 376.499 348.971 376.758 348.439C377.031 347.907 377.42 347.317 377.926 346.668L381.975 341.412H385.129L380.204 347.738L379.776 347.271C379.957 347.128 380.145 347.018 380.34 346.94C380.535 346.849 380.729 346.785 380.924 346.746C381.132 346.707 381.346 346.687 381.566 346.687C382.449 346.687 383.234 346.888 383.922 347.291C384.61 347.693 385.148 348.244 385.538 348.945C385.94 349.633 386.141 350.412 386.141 351.281C386.141 352.216 385.927 353.053 385.499 353.792C385.07 354.519 384.473 355.096 383.708 355.525C382.955 355.94 382.092 356.148 381.119 356.148ZM381.119 353.753C381.56 353.753 381.956 353.656 382.306 353.461C382.67 353.254 382.955 352.962 383.163 352.585C383.383 352.209 383.494 351.787 383.494 351.32C383.494 350.827 383.383 350.405 383.163 350.055C382.955 349.691 382.676 349.406 382.326 349.198C381.975 348.991 381.573 348.887 381.119 348.887C380.678 348.887 380.275 348.991 379.912 349.198C379.549 349.406 379.257 349.691 379.036 350.055C378.828 350.405 378.724 350.827 378.724 351.32C378.724 351.787 378.828 352.209 379.036 352.585C379.257 352.962 379.549 353.254 379.912 353.461C380.275 353.656 380.678 353.753 381.119 353.753Z" fill="#8C8E9C"/>
<path d="M180.914 384.392L176.372 388.934L174.642 386.339L171.181 389.799" stroke="#34A853" stroke-width="1.62216" stroke-linecap="round" stroke-linejoin="round"/>
<path d="M178.751 384.392H180.913V386.554" stroke="#34A853" stroke-width="1.62216" stroke-linecap="round" stroke-linejoin="round"/>
<path d="M188.019 392.095V390.934L191.611 387.211C191.995 386.807 192.311 386.453 192.56 386.149C192.813 385.841 193.001 385.549 193.125 385.272C193.25 384.996 193.312 384.702 193.312 384.391C193.312 384.039 193.229 383.734 193.063 383.479C192.897 383.219 192.671 383.021 192.384 382.882C192.097 382.741 191.774 382.67 191.414 382.67C191.034 382.67 190.702 382.748 190.419 382.903C190.136 383.059 189.918 383.278 189.766 383.562C189.614 383.845 189.538 384.177 189.538 384.557H188.008C188.008 383.911 188.157 383.346 188.454 382.862C188.751 382.378 189.159 382.003 189.678 381.737C190.196 381.467 190.785 381.332 191.446 381.332C192.113 381.332 192.7 381.465 193.208 381.731C193.72 381.994 194.119 382.354 194.406 382.81C194.693 383.263 194.836 383.774 194.836 384.344C194.836 384.738 194.762 385.124 194.613 385.501C194.468 385.877 194.214 386.297 193.851 386.76C193.488 387.22 192.984 387.778 192.337 388.435L190.227 390.644V390.721H195.007V392.095H188.019ZM197.868 392.194C197.585 392.194 197.341 392.093 197.137 391.893C196.933 391.689 196.831 391.444 196.831 391.157C196.831 390.873 196.933 390.631 197.137 390.431C197.341 390.227 197.585 390.125 197.868 390.125C198.152 390.125 198.395 390.227 198.599 390.431C198.803 390.631 198.905 390.873 198.905 391.157C198.905 391.347 198.857 391.521 198.76 391.68C198.667 391.836 198.542 391.96 198.387 392.054C198.231 392.147 198.058 392.194 197.868 392.194ZM204.217 381.332C204.691 381.336 205.157 381.422 205.617 381.591C206.077 381.761 206.491 382.037 206.861 382.421C207.235 382.805 207.532 383.323 207.753 383.976C207.978 384.626 208.092 385.435 208.095 386.403C208.095 387.332 208.002 388.16 207.815 388.886C207.629 389.608 207.361 390.218 207.012 390.716C206.666 391.214 206.246 391.592 205.752 391.852C205.257 392.111 204.701 392.24 204.082 392.24C203.45 392.24 202.888 392.116 202.397 391.867C201.907 391.618 201.507 391.274 201.2 390.835C200.892 390.393 200.7 389.885 200.624 389.311H202.206C202.309 389.767 202.52 390.137 202.838 390.421C203.16 390.701 203.574 390.841 204.082 390.841C204.86 390.841 205.467 390.502 205.902 389.824C206.338 389.144 206.557 388.193 206.561 386.973H206.478C206.298 387.27 206.073 387.526 205.804 387.74C205.537 387.955 205.238 388.12 204.907 388.238C204.575 388.355 204.221 388.414 203.844 388.414C203.232 388.414 202.676 388.264 202.174 387.963C201.673 387.662 201.274 387.249 200.977 386.724C200.68 386.199 200.531 385.599 200.531 384.925C200.531 384.255 200.683 383.646 200.987 383.1C201.295 382.554 201.723 382.122 202.273 381.804C202.826 381.483 203.474 381.325 204.217 381.332ZM204.222 382.68C203.818 382.68 203.453 382.78 203.128 382.981C202.807 383.178 202.553 383.446 202.366 383.785C202.18 384.12 202.086 384.493 202.086 384.904C202.086 385.316 202.176 385.689 202.356 386.024C202.539 386.356 202.788 386.62 203.102 386.817C203.42 387.011 203.783 387.108 204.191 387.108C204.495 387.108 204.779 387.049 205.041 386.931C205.304 386.814 205.534 386.652 205.731 386.444C205.928 386.233 206.082 385.995 206.192 385.729C206.303 385.463 206.358 385.183 206.358 384.889C206.358 384.498 206.265 384.135 206.078 383.8C205.895 383.465 205.643 383.195 205.321 382.991C205 382.784 204.634 382.68 204.222 382.68ZM213.41 392.24C212.667 392.24 212.01 392.112 211.44 391.857C210.873 391.601 210.429 391.248 210.107 390.799C209.786 390.35 209.627 389.838 209.63 389.264C209.627 388.815 209.718 388.402 209.905 388.025C210.095 387.645 210.353 387.329 210.677 387.077C211.002 386.821 211.365 386.658 211.766 386.589V386.527C211.237 386.399 210.814 386.116 210.496 385.677C210.178 385.238 210.021 384.733 210.024 384.163C210.021 383.62 210.164 383.136 210.455 382.711C210.748 382.283 211.151 381.946 211.662 381.7C212.174 381.455 212.756 381.332 213.41 381.332C214.056 381.332 214.633 381.457 215.141 381.706C215.653 381.951 216.055 382.288 216.349 382.717C216.643 383.142 216.792 383.624 216.795 384.163C216.792 384.733 216.629 385.238 216.308 385.677C215.986 386.116 215.568 386.399 215.053 386.527V386.589C215.451 386.658 215.808 386.821 216.126 387.077C216.448 387.329 216.704 387.645 216.894 388.025C217.087 388.402 217.186 388.815 217.189 389.264C217.186 389.838 217.023 390.35 216.702 390.799C216.38 391.248 215.934 391.601 215.364 391.857C214.797 392.112 214.146 392.24 213.41 392.24ZM213.41 390.929C213.849 390.929 214.229 390.856 214.55 390.711C214.872 390.562 215.121 390.357 215.297 390.094C215.473 389.828 215.563 389.517 215.566 389.161C215.563 388.791 215.466 388.464 215.276 388.181C215.089 387.898 214.835 387.675 214.514 387.512C214.193 387.35 213.824 387.268 213.41 387.268C212.991 387.268 212.62 387.35 212.295 387.512C211.97 387.675 211.714 387.898 211.528 388.181C211.341 388.464 211.249 388.791 211.253 389.161C211.249 389.517 211.334 389.828 211.507 390.094C211.683 390.357 211.934 390.562 212.259 390.711C212.584 390.856 212.967 390.929 213.41 390.929ZM213.41 385.988C213.762 385.988 214.075 385.917 214.348 385.775C214.621 385.634 214.835 385.437 214.991 385.184C215.15 384.932 215.231 384.637 215.235 384.298C215.231 383.966 215.152 383.676 214.996 383.427C214.844 383.178 214.631 382.986 214.358 382.851C214.085 382.713 213.769 382.644 213.41 382.644C213.043 382.644 212.722 382.713 212.445 382.851C212.172 382.986 211.96 383.178 211.808 383.427C211.656 383.676 211.581 383.966 211.585 384.298C211.581 384.637 211.657 384.932 211.813 385.184C211.968 385.437 212.183 385.634 212.456 385.775C212.732 385.917 213.05 385.988 213.41 385.988ZM224.443 390.104V389.544C224.443 389.144 224.526 388.777 224.692 388.445C224.861 388.11 225.106 387.842 225.428 387.642C225.753 387.438 226.145 387.336 226.605 387.336C227.075 387.336 227.469 387.436 227.787 387.637C228.105 387.837 228.345 388.105 228.507 388.44C228.673 388.775 228.756 389.144 228.756 389.544V390.104C228.756 390.505 228.673 390.873 228.507 391.209C228.341 391.54 228.098 391.808 227.776 392.012C227.458 392.213 227.068 392.313 226.605 392.313C226.138 392.313 225.744 392.213 225.423 392.012C225.101 391.808 224.857 391.54 224.692 391.209C224.526 390.873 224.443 390.505 224.443 390.104ZM225.651 389.544V390.104C225.651 390.402 225.721 390.671 225.863 390.913C226.005 391.155 226.252 391.276 226.605 391.276C226.954 391.276 227.197 391.155 227.336 390.913C227.474 390.671 227.543 390.402 227.543 390.104V389.544C227.543 389.247 227.476 388.978 227.341 388.736C227.209 388.494 226.964 388.373 226.605 388.373C226.259 388.373 226.014 388.494 225.868 388.736C225.723 388.978 225.651 389.247 225.651 389.544ZM219.103 384.028V383.468C219.103 383.067 219.186 382.699 219.352 382.364C219.521 382.029 219.766 381.761 220.088 381.56C220.413 381.36 220.805 381.26 221.265 381.26C221.735 381.26 222.129 381.36 222.447 381.56C222.765 381.761 223.005 382.029 223.167 382.364C223.33 382.699 223.411 383.067 223.411 383.468V384.028C223.411 384.429 223.328 384.797 223.162 385.132C223 385.464 222.758 385.732 222.436 385.936C222.118 386.137 221.728 386.237 221.265 386.237C220.795 386.237 220.399 386.137 220.077 385.936C219.759 385.732 219.517 385.464 219.352 385.132C219.186 384.797 219.103 384.429 219.103 384.028ZM220.316 383.468V384.028C220.316 384.325 220.385 384.595 220.523 384.837C220.665 385.079 220.912 385.2 221.265 385.2C221.61 385.2 221.852 385.079 221.99 384.837C222.132 384.595 222.203 384.325 222.203 384.028V383.468C222.203 383.171 222.136 382.901 222.001 382.659C221.866 382.418 221.621 382.297 221.265 382.297C220.919 382.297 220.674 382.418 220.528 382.659C220.387 382.901 220.316 383.171 220.316 383.468ZM219.595 392.095L226.895 381.477H228.134L220.834 392.095H219.595Z" fill="#34A853"/>
<path fillRule="evenodd" clipRule="evenodd" d="M150.499 281.546C145.683 281.546 141.78 285.45 141.78 290.266C141.78 295.081 145.683 298.985 150.499 298.985C155.314 298.985 159.218 295.081 159.218 290.266C159.218 285.45 155.314 281.546 150.499 281.546ZM151.107 286.21C151.107 285.874 150.835 285.602 150.499 285.602C150.163 285.602 149.89 285.874 149.89 286.21V286.554C149.391 286.639 148.933 286.828 148.562 287.1C148.044 287.48 147.66 288.055 147.66 288.747C147.66 289.356 147.878 289.919 148.437 290.292C148.943 290.631 149.649 290.757 150.499 290.757C151.276 290.757 151.738 290.874 151.993 291.039C152.192 291.169 152.324 291.364 152.324 291.785C152.324 292.138 152.178 292.356 151.907 292.518C151.599 292.702 151.116 292.812 150.499 292.812C149.931 292.812 149.445 292.656 149.117 292.436C148.786 292.214 148.674 291.972 148.674 291.785C148.674 291.449 148.401 291.176 148.065 291.176C147.729 291.176 147.457 291.449 147.457 291.785C147.457 292.501 147.889 293.077 148.439 293.446C148.845 293.719 149.346 293.905 149.89 293.985V294.321C149.89 294.657 150.163 294.93 150.499 294.93C150.835 294.93 151.107 294.657 151.107 294.321V293.997C151.623 293.942 152.119 293.809 152.531 293.563C153.141 293.199 153.54 292.599 153.54 291.785C153.54 291.037 153.266 290.415 152.654 290.018C152.098 289.658 151.344 289.541 150.499 289.541C149.726 289.541 149.317 289.418 149.113 289.281C148.962 289.18 148.876 289.042 148.876 288.747C148.876 288.536 148.992 288.293 149.281 288.081C149.57 287.87 149.998 287.72 150.499 287.72C150.999 287.72 151.427 287.87 151.716 288.081C152.005 288.293 152.121 288.536 152.121 288.747C152.121 289.083 152.393 289.356 152.729 289.356C153.065 289.356 153.337 289.083 153.337 288.747C153.337 288.055 152.954 287.48 152.436 287.1C152.064 286.828 151.606 286.639 151.107 286.554V286.21Z" fill="#5263FF"/>
<path d="M168.282 284.987V283.378H177.868V284.987H174.003V295.766H172.14V284.987H168.282ZM182.238 295.953C181.367 295.953 180.606 295.754 179.957 295.354C179.308 294.955 178.804 294.397 178.445 293.679C178.086 292.961 177.907 292.122 177.907 291.163C177.907 290.199 178.086 289.356 178.445 288.634C178.804 287.913 179.308 287.352 179.957 286.953C180.606 286.554 181.367 286.354 182.238 286.354C183.109 286.354 183.869 286.554 184.518 286.953C185.167 287.352 185.671 287.913 186.03 288.634C186.389 289.356 186.568 290.199 186.568 291.163C186.568 292.122 186.389 292.961 186.03 293.679C185.671 294.397 185.167 294.955 184.518 295.354C183.869 295.754 183.109 295.953 182.238 295.953ZM182.244 294.435C182.808 294.435 183.276 294.286 183.647 293.987C184.018 293.689 184.292 293.292 184.469 292.796C184.651 292.3 184.742 291.753 184.742 291.157C184.742 290.564 184.651 290.02 184.469 289.524C184.292 289.024 184.018 288.622 183.647 288.32C183.276 288.017 182.808 287.866 182.244 287.866C181.675 287.866 181.203 288.017 180.828 288.32C180.457 288.622 180.181 289.024 180 289.524C179.822 290.02 179.733 290.564 179.733 291.157C179.733 291.753 179.822 292.3 180 292.796C180.181 293.292 180.457 293.689 180.828 293.987C181.203 294.286 181.675 294.435 182.244 294.435ZM192.753 286.475V287.927H187.679V286.475H192.753ZM189.04 284.249H190.848V293.038C190.848 293.389 190.901 293.653 191.005 293.83C191.11 294.003 191.245 294.122 191.411 294.187C191.58 294.247 191.764 294.278 191.961 294.278C192.106 294.278 192.233 294.268 192.342 294.247C192.451 294.227 192.536 294.211 192.596 294.199L192.923 295.693C192.818 295.733 192.669 295.774 192.475 295.814C192.282 295.858 192.04 295.883 191.749 295.887C191.274 295.895 190.83 295.81 190.419 295.633C190.007 295.455 189.675 295.181 189.421 294.81C189.167 294.439 189.04 293.973 189.04 293.413V284.249ZM197.287 295.971C196.699 295.971 196.166 295.862 195.691 295.645C195.215 295.423 194.838 295.102 194.56 294.683C194.285 294.264 194.148 293.749 194.148 293.141C194.148 292.616 194.249 292.185 194.451 291.846C194.652 291.507 194.924 291.239 195.267 291.042C195.61 290.844 195.993 290.695 196.416 290.594C196.84 290.493 197.271 290.417 197.711 290.364C198.267 290.3 198.719 290.247 199.066 290.207C199.412 290.163 199.664 290.092 199.822 289.995C199.979 289.899 200.058 289.741 200.058 289.524V289.481C200.058 288.953 199.908 288.544 199.61 288.253C199.316 287.963 198.876 287.818 198.291 287.818C197.683 287.818 197.203 287.953 196.852 288.223C196.505 288.489 196.265 288.786 196.132 289.112L194.432 288.725C194.634 288.161 194.928 287.705 195.316 287.358C195.707 287.007 196.156 286.753 196.664 286.596C197.172 286.435 197.707 286.354 198.267 286.354C198.638 286.354 199.031 286.398 199.447 286.487C199.866 286.572 200.257 286.729 200.62 286.959C200.987 287.189 201.288 287.517 201.521 287.945C201.755 288.368 201.872 288.919 201.872 289.596V295.766H200.106V294.495H200.033C199.917 294.729 199.741 294.959 199.507 295.185C199.273 295.411 198.973 295.598 198.606 295.747C198.239 295.897 197.8 295.971 197.287 295.971ZM197.681 294.52C198.181 294.52 198.608 294.421 198.963 294.223C199.322 294.026 199.594 293.768 199.779 293.449C199.969 293.126 200.064 292.782 200.064 292.415V291.217C199.999 291.282 199.874 291.342 199.689 291.399C199.507 291.451 199.3 291.497 199.066 291.538C198.832 291.574 198.604 291.608 198.382 291.641C198.16 291.669 197.975 291.693 197.826 291.713C197.475 291.757 197.154 291.832 196.864 291.937C196.578 292.042 196.348 292.193 196.174 292.391C196.005 292.584 195.92 292.842 195.92 293.165C195.92 293.612 196.086 293.951 196.416 294.181C196.747 294.407 197.168 294.52 197.681 294.52ZM205.919 283.378V295.766H204.111V283.378H205.919ZM212.664 295.766V283.378H217.08C218.04 283.378 218.836 283.544 219.469 283.874C220.106 284.205 220.582 284.663 220.896 285.247C221.211 285.828 221.368 286.499 221.368 287.261C221.368 288.019 221.209 288.687 220.89 289.263C220.576 289.836 220.1 290.282 219.463 290.6C218.83 290.919 218.034 291.078 217.074 291.078H213.729V289.469H216.904C217.509 289.469 218.001 289.382 218.38 289.209C218.763 289.036 219.044 288.784 219.221 288.453C219.398 288.122 219.487 287.725 219.487 287.261C219.487 286.794 219.396 286.388 219.215 286.046C219.038 285.703 218.757 285.441 218.374 285.259C217.995 285.074 217.497 284.981 216.88 284.981H214.533V295.766H212.664ZM218.78 290.177L221.84 295.766H219.711L216.711 290.177H218.78ZM227.215 295.953C226.299 295.953 225.511 295.758 224.85 295.366C224.192 294.971 223.684 294.417 223.326 293.703C222.971 292.985 222.793 292.145 222.793 291.181C222.793 290.229 222.971 289.39 223.326 288.665C223.684 287.939 224.184 287.372 224.826 286.965C225.471 286.558 226.225 286.354 227.088 286.354C227.612 286.354 228.12 286.441 228.612 286.614C229.104 286.788 229.545 287.06 229.937 287.431C230.328 287.802 230.636 288.284 230.862 288.876C231.088 289.465 231.201 290.181 231.201 291.024V291.665H223.815V290.31H229.429C229.429 289.834 229.332 289.413 229.138 289.046C228.945 288.675 228.672 288.382 228.322 288.169C227.975 287.955 227.568 287.848 227.1 287.848C226.592 287.848 226.148 287.973 225.769 288.223C225.394 288.469 225.104 288.792 224.898 289.191C224.697 289.586 224.596 290.015 224.596 290.479V291.538C224.596 292.159 224.705 292.687 224.922 293.122C225.144 293.558 225.453 293.891 225.848 294.12C226.243 294.346 226.705 294.459 227.233 294.459C227.576 294.459 227.888 294.411 228.17 294.314C228.453 294.213 228.697 294.064 228.902 293.866C229.108 293.669 229.265 293.425 229.374 293.135L231.086 293.443C230.949 293.947 230.703 294.389 230.348 294.768C229.997 295.143 229.556 295.435 229.023 295.645C228.495 295.85 227.892 295.953 227.215 295.953ZM240.719 286.475L237.35 295.766H235.414L232.039 286.475H233.981L236.333 293.624H236.43L238.777 286.475H240.719ZM245.936 295.953C245.021 295.953 244.232 295.758 243.571 295.366C242.914 294.971 242.406 294.417 242.047 293.703C241.692 292.985 241.515 292.145 241.515 291.181C241.515 290.229 241.692 289.39 242.047 288.665C242.406 287.939 242.906 287.372 243.547 286.965C244.192 286.558 244.946 286.354 245.809 286.354C246.333 286.354 246.841 286.441 247.333 286.614C247.825 286.788 248.267 287.06 248.658 287.431C249.049 287.802 249.358 288.284 249.583 288.876C249.809 289.465 249.922 290.181 249.922 291.024V291.665H242.537V290.31H248.15C248.15 289.834 248.053 289.413 247.859 289.046C247.666 288.675 247.394 288.382 247.043 288.169C246.696 287.955 246.289 287.848 245.821 287.848C245.313 287.848 244.869 287.973 244.49 288.223C244.115 288.469 243.825 288.792 243.619 289.191C243.418 289.586 243.317 290.015 243.317 290.479V291.538C243.317 292.159 243.426 292.687 243.644 293.122C243.865 293.558 244.174 293.891 244.569 294.12C244.964 294.346 245.426 294.459 245.954 294.459C246.297 294.459 246.609 294.411 246.892 294.314C247.174 294.213 247.418 294.064 247.624 293.866C247.829 293.669 247.987 293.425 248.095 293.135L249.807 293.443C249.67 293.947 249.424 294.389 249.069 294.768C248.718 295.143 248.277 295.435 247.745 295.645C247.216 295.85 246.613 295.953 245.936 295.953ZM253.567 290.249V295.766H251.758V286.475H253.494V287.987H253.609C253.823 287.495 254.158 287.1 254.613 286.802C255.073 286.503 255.652 286.354 256.349 286.354C256.982 286.354 257.537 286.487 258.013 286.753C258.488 287.015 258.857 287.407 259.119 287.927C259.381 288.447 259.513 289.09 259.513 289.856V295.766H257.704V290.074C257.704 289.401 257.529 288.874 257.178 288.495C256.827 288.112 256.345 287.921 255.732 287.921C255.313 287.921 254.94 288.011 254.613 288.193C254.291 288.374 254.035 288.64 253.845 288.991C253.66 289.338 253.567 289.757 253.567 290.249ZM267.653 291.913V286.475H269.467V295.766H267.689V294.157H267.592C267.379 294.653 267.036 295.066 266.564 295.397C266.096 295.723 265.514 295.887 264.816 295.887C264.219 295.887 263.691 295.756 263.231 295.493C262.776 295.227 262.417 294.834 262.155 294.314C261.897 293.794 261.768 293.151 261.768 292.384V286.475H263.576V292.167C263.576 292.8 263.752 293.304 264.102 293.679C264.453 294.054 264.909 294.241 265.469 294.241C265.808 294.241 266.145 294.157 266.479 293.987C266.818 293.818 267.098 293.562 267.32 293.219C267.546 292.876 267.657 292.441 267.653 291.913ZM275.731 295.953C274.816 295.953 274.028 295.758 273.366 295.366C272.709 294.971 272.201 294.417 271.842 293.703C271.487 292.985 271.31 292.145 271.31 291.181C271.31 290.229 271.487 289.39 271.842 288.665C272.201 287.939 272.701 287.372 273.342 286.965C273.987 286.558 274.741 286.354 275.604 286.354C276.128 286.354 276.637 286.441 277.128 286.614C277.62 286.788 278.062 287.06 278.453 287.431C278.844 287.802 279.153 288.284 279.379 288.876C279.604 289.465 279.717 290.181 279.717 291.024V291.665H272.332V290.31H277.945C277.945 289.834 277.848 289.413 277.655 289.046C277.461 288.675 277.189 288.382 276.838 288.169C276.491 287.955 276.084 287.848 275.616 287.848C275.108 287.848 274.665 287.973 274.286 288.223C273.911 288.469 273.62 288.792 273.415 289.191C273.213 289.586 273.112 290.015 273.112 290.479V291.538C273.112 292.159 273.221 292.687 273.439 293.122C273.661 293.558 273.969 293.891 274.364 294.12C274.759 294.346 275.221 294.459 275.749 294.459C276.092 294.459 276.405 294.411 276.687 294.314C276.969 294.213 277.213 294.064 277.419 293.866C277.624 293.669 277.782 293.425 277.891 293.135L279.602 293.443C279.465 293.947 279.219 294.389 278.864 294.768C278.514 295.143 278.072 295.435 277.54 295.645C277.012 295.85 276.409 295.953 275.731 295.953Z" fill="#5263FF"/>
</g>
</g>
<defs>
<filter id="filter0_f_20326_42700" x="-36.4987" y="8.51622" width="893" height="894.216" filterUnits="userSpaceOnUse" color-interpolation-filters="sRGB">
<feFlood flood-opacity="0" result="BackgroundImageFix"/>
<feBlend mode="normal" in="SourceGraphic" in2="BackgroundImageFix" result="shape"/>
<feGaussianBlur stdDeviation="99.7629" result="effect1_foregroundBlur_20326_42700"/>
</filter>
<filter id="filter1_f_20326_42700" x="23.1158" y="-21.8993" width="1038.99" height="1040.21" filterUnits="userSpaceOnUse" color-interpolation-filters="sRGB">
<feFlood flood-opacity="0" result="BackgroundImageFix"/>
<feBlend mode="normal" in="SourceGraphic" in2="BackgroundImageFix" result="shape"/>
<feGaussianBlur stdDeviation="99.7629" result="effect1_foregroundBlur_20326_42700"/>
</filter>
<filter id="filter2_dd_20326_42700" x="144.279" y="325.735" width="1007.36" height="552.346" filterUnits="userSpaceOnUse" color-interpolation-filters="sRGB">
<feFlood flood-opacity="0" result="BackgroundImageFix"/>
<feColorMatrix in="SourceAlpha" type="matrix" values="0 0 0 0 0 0 0 0 0 0 0 0 0 0 0 0 0 0 127 0" result="hardAlpha"/>
<feOffset dy="27.9823"/>
<feGaussianBlur stdDeviation="26.7657"/>
<feColorMatrix type="matrix" values="0 0 0 0 0.690196 0 0 0 0 0.717647 0 0 0 0 0.764706 0 0 0 0.14 0"/>
<feBlend mode="normal" in2="BackgroundImageFix" result="effect1_dropShadow_20326_42700"/>
<feColorMatrix in="SourceAlpha" type="matrix" values="0 0 0 0 0 0 0 0 0 0 0 0 0 0 0 0 0 0 127 0" result="hardAlpha"/>
<feOffset dy="1.21662"/>
<feGaussianBlur stdDeviation="1.82493"/>
<feColorMatrix type="matrix" values="0 0 0 0 0 0 0 0 0 0 0 0 0 0 0 0 0 0 0.12 0"/>
<feBlend mode="normal" in2="effect1_dropShadow_20326_42700" result="effect2_dropShadow_20326_42700"/>
<feBlend mode="normal" in="SourceGraphic" in2="effect2_dropShadow_20326_42700" result="shape"/>
</filter>
<filter id="filter3_d_20326_42700" x="425.318" y="475.38" width="218.992" height="69.3472" filterUnits="userSpaceOnUse" color-interpolation-filters="sRGB">
<feFlood flood-opacity="0" result="BackgroundImageFix"/>
<feColorMatrix in="SourceAlpha" type="matrix" values="0 0 0 0 0 0 0 0 0 0 0 0 0 0 0 0 0 0 127 0" result="hardAlpha"/>
<feMorphology radius="7.29972" operator="erode" in="SourceAlpha" result="effect1_dropShadow_20326_42700"/>
<feOffset dy="3.64986"/>
<feGaussianBlur stdDeviation="6.0831"/>
<feComposite in2="hardAlpha" operator="out"/>
<feColorMatrix type="matrix" values="0 0 0 0 0 0 0 0 0 0 0 0 0 0 0 0 0 0 0.09 0"/>
<feBlend mode="normal" in2="BackgroundImageFix" result="effect1_dropShadow_20326_42700"/>
<feBlend mode="normal" in="SourceGraphic" in2="effect1_dropShadow_20326_42700" result="shape"/>
</filter>
<filter id="filter4_dd_20326_42700" x="60.4687" y="225.451" width="472.049" height="284.689" filterUnits="userSpaceOnUse" color-interpolation-filters="sRGB">
<feFlood flood-opacity="0" result="BackgroundImageFix"/>
<feColorMatrix in="SourceAlpha" type="matrix" values="0 0 0 0 0 0 0 0 0 0 0 0 0 0 0 0 0 0 127 0" result="hardAlpha"/>
<feOffset dy="27.9823"/>
<feGaussianBlur stdDeviation="26.7657"/>
<feColorMatrix type="matrix" values="0 0 0 0 0.690196 0 0 0 0 0.717647 0 0 0 0 0.764706 0 0 0 0.14 0"/>
<feBlend mode="normal" in2="BackgroundImageFix" result="effect1_dropShadow_20326_42700"/>
<feColorMatrix in="SourceAlpha" type="matrix" values="0 0 0 0 0 0 0 0 0 0 0 0 0 0 0 0 0 0 127 0" result="hardAlpha"/>
<feOffset dy="1.21662"/>
<feGaussianBlur stdDeviation="1.82493"/>
<feColorMatrix type="matrix" values="0 0 0 0 0 0 0 0 0 0 0 0 0 0 0 0 0 0 0.12 0"/>
<feBlend mode="normal" in2="effect1_dropShadow_20326_42700" result="effect2_dropShadow_20326_42700"/>
<feBlend mode="normal" in="SourceGraphic" in2="effect2_dropShadow_20326_42700" result="shape"/>
</filter>
<linearGradient id="paint0_linear_20326_42700" x1="262.151" y1="250.376" x2="524.343" y2="682.082" gradientUnits="userSpaceOnUse">
<stop stop-color="#61CC00"/>
<stop offset="0.21875" stop-color="#61CC00"/>
<stop offset="0.385417" stop-color="#1DBF73"/>
<stop offset="0.5625" stop-color="#1DBE72"/>
<stop offset="0.770833" stop-color="#F98011"/>
<stop offset="1" stop-color="#61CC00"/>
</linearGradient>
<linearGradient id="paint1_linear_20326_42700" x1="351.063" y1="232.442" x2="690.472" y2="791.601" gradientUnits="userSpaceOnUse">
<stop stop-color="#4F6AFF"/>
<stop offset="0.21875" stop-color="#00B3FF"/>
<stop offset="0.385417" stop-color="#1DBF73"/>
<stop offset="0.5625" stop-color="#4F6AFF"/>
<stop offset="0.770833" stop-color="#F98011"/>
<stop offset="1" stop-color="#00C0FF" stop-opacity="0.15"/>
</linearGradient>
<clipPath id="clip0_20326_42700">
<rect width="955" height="1080" fill="white"/>
</clipPath>
</defs>
</svg>
