<svg width="20" height="20" viewBox="0 0 20 20" fill="none" xmlns="http://www.w3.org/2000/svg">
<path d="M2.5 9.16699L2.6274 11.8561C2.76428 14.7241 2.83272 16.1582 3.79904 17.0376C4.76536 17.917 6.27263 17.917 9.28719 17.917H10.7128C13.7274 17.917 15.2346 17.917 16.201 17.0376C17.1673 16.1582 17.2357 14.7241 17.3726 11.8561L17.5 9.16699" stroke="#8C8E9C" stroke-width="1.36364" stroke-linecap="round" stroke-linejoin="round"/>
<path d="M2.37233 8.7023C3.78841 11.3951 6.98234 12.4998 9.99968 12.4998C13.017 12.4998 16.2109 11.3951 17.627 8.7023C18.303 7.41689 17.7911 4.99976 16.1263 4.99976H3.87301C2.2082 4.99976 1.69636 7.41689 2.37233 8.7023Z" stroke="#8C8E9C" stroke-width="1.36364"/>
<path d="M10 9.16699H10.0075" stroke="#8C8E9C" stroke-width="1.81818" stroke-linecap="round" stroke-linejoin="round"/>
<path d="M13.3327 4.99967L13.2591 4.74212C12.8924 3.45875 12.7091 2.81707 12.2726 2.45004C11.8361 2.08301 11.2564 2.08301 10.0968 2.08301H9.90188C8.74234 2.08301 8.16258 2.08301 7.7261 2.45004C7.28962 2.81707 7.10628 3.45875 6.7396 4.74212L6.66602 4.99967" stroke="#8C8E9C" stroke-width="1.36364"/>
</svg>
