<svg width="18" height="18" viewBox="0 0 18 18" fill="none" xmlns="http://www.w3.org/2000/svg">
<g clip-path="url(#clip0_13319_11361)">
<path fillRule="evenodd" clipRule="evenodd" d="M14.8929 9.63388L11.79 8.34564L12.3173 6.97754L16.3125 8.63628V16.5025H14.8929V9.63388Z" fill="#8C8E9C"/>
<path fillRule="evenodd" clipRule="evenodd" d="M5.25 12.1875C4.93934 12.1875 4.6875 12.4393 4.6875 12.75V16.5H1.6875L1.6875 1.50001C1.6875 1.32616 1.76789 1.16207 1.90527 1.05552C2.04265 0.948977 2.22157 0.911942 2.38996 0.955199L12.5625 3.56848L12.5625 16.5H9.5625V12.75C9.5625 12.4393 9.31066 12.1875 9 12.1875H5.25ZM8.4375 16.5H5.8125V13.3125H8.4375V16.5ZM9 7.3125L5.25 7.3125V6.1875L9 6.1875V7.3125ZM9 10.3125L5.25 10.3125V9.1875L9 9.18751V10.3125Z" fill="#8C8E9C"/>
<path fillRule="evenodd" clipRule="evenodd" d="M0.75 15.5625L17.25 15.5625V17.0625L0.75 17.0625L0.75 15.5625Z" fill="#8C8E9C"/>
</g>
<defs>
<clipPath id="clip0_13319_11361">
<rect width="18" height="18" fill="white"/>
</clipPath>
</defs>
</svg>
