<svg width="16" height="16" viewBox="0 0 16 16" fill="none" xmlns="http://www.w3.org/2000/svg">
<g clip-path="url(#clip0_17043_19283)">
<path fillRule="evenodd" clipRule="evenodd" d="M13.2386 8.56359L10.4805 7.41848L10.9491 6.20239L14.5005 7.67683V14.6691H13.2386V8.56359Z" fill="#8C8E9C"/>
<path fillRule="evenodd" clipRule="evenodd" d="M1.69357 0.938205C1.81569 0.843496 1.97473 0.810575 2.12441 0.849027L11.1667 3.17194L11.1667 14.6666L1.5 14.6666L1.5 1.3333C1.5 1.17877 1.57146 1.03291 1.69357 0.938205ZM8.00033 6.5H4.66699L4.66699 5.5H8.00033V6.5ZM8.00033 9.16667H4.66699V8.16667H8.00033V9.16667ZM4.66699 10.8333C4.39085 10.8333 4.16699 11.0571 4.16699 11.3333V14.6666H5.16699V11.8333H7.50033V14.6666H8.50033V11.3333C8.50033 11.0571 8.27647 10.8333 8.00033 10.8333H4.66699Z" fill="#8C8E9C"/>
<path fillRule="evenodd" clipRule="evenodd" d="M0.666992 13.8333L15.3337 13.8333V15.1666L0.666992 15.1666L0.666992 13.8333Z" fill="#8C8E9C"/>
</g>
<defs>
<clipPath id="clip0_17043_19283">
<rect width="16" height="16" fill="white"/>
</clipPath>
</defs>
</svg>
