<svg width="153" height="103" viewBox="0 0 153 103" fill="none" xmlns="http://www.w3.org/2000/svg">
<g filter="url(#filter0_d_16238_21726)">
<path d="M86.9641 28.1895L75.5082 43.0042C75.1483 43.544 74.4286 43.6039 73.8888 43.1841L59.6139 31.9681C59.0741 31.6082 59.0141 30.8885 59.434 30.3487L74.3086 11.4555C74.6685 10.9157 75.3883 10.8557 75.9281 11.2755L86.3043 19.4326L86.9641 28.1895Z" fill="url(#paint0_linear_16238_21726)"/>
</g>
<path d="M82.1057 21.0522L75.2081 15.6541C75.0882 15.5341 75.0282 15.3542 75.1481 15.1143C75.2681 14.9943 75.448 14.9344 75.688 15.0543L82.5855 20.4524C82.7054 20.5723 82.7654 20.7523 82.6455 20.9922C82.4655 21.1721 82.2856 21.1721 82.1057 21.0522Z" fill="#CED6E2"/>
<path d="M76.5877 19.3727L74.0087 17.2734C73.8887 17.1535 73.8287 16.9735 73.9487 16.7336C74.0686 16.5537 74.2486 16.5537 74.4885 16.6736L77.0676 18.7729C77.1875 18.8928 77.2475 19.0728 77.1275 19.3127C76.9476 19.4926 76.7077 19.4926 76.5877 19.3727Z" fill="#CED6E2"/>
<path d="M86.3041 19.4327L83.1252 23.4513C82.6454 24.0511 82.8253 24.8908 83.3651 25.3106L87.0238 28.1896" fill="#CED6E2"/>
<path d="M82.5254 29.0892L78.9267 26.3302L75.208 23.3913L71.7892 20.6923C71.4294 20.3924 70.8296 20.4523 70.5297 20.8722L65.6114 27.11C65.3116 27.4698 65.3715 28.0696 65.7314 28.3695L76.5275 36.8864C76.8874 37.1863 77.4872 37.1264 77.7871 36.7065L82.7053 30.4688C83.0052 29.9289 82.9452 29.4491 82.5254 29.0892ZM71.1295 29.0293L72.2091 27.5898L75.5079 30.1689L74.4283 31.6083L71.1295 29.0293ZM74.1284 32.0282L73.1088 33.3477L69.8099 30.7686L70.8296 29.4491L74.1284 32.0282ZM76.9474 28.3695L75.8678 29.809L72.569 27.2299L73.6486 25.7904L76.9474 28.3695ZM73.9485 25.3706L75.148 23.9311L78.4468 26.5102L77.3672 27.9497L73.9485 25.3706ZM79.9463 32.9878L76.2876 30.1089L77.3672 28.6694L81.0259 31.5484L79.9463 32.9878ZM72.1491 26.87L68.6104 24.111L69.69 22.6715L73.2287 25.4306L72.1491 26.87ZM68.2505 24.5309L71.7892 27.2899L70.7096 28.7294L67.1709 25.9704L68.2505 24.5309ZM75.9877 30.5287L79.6464 33.4077L78.5668 34.8472L74.9081 31.9682L75.9877 30.5287ZM82.2855 30.0489L81.3858 31.1885L77.7271 28.3095L78.8067 26.87L82.1655 29.5091C82.4054 29.6291 82.4054 29.869 82.2855 30.0489ZM71.4294 20.9921L74.6682 23.5712L73.5886 25.0107L70.0499 22.2517L70.9495 21.1121C71.0695 20.9322 71.3094 20.9322 71.4294 20.9921ZM66.0313 27.3499L66.811 26.3902L70.3497 29.1492L69.3301 30.4688L66.0313 27.8897C65.9113 27.7697 65.9113 27.4698 66.0313 27.3499ZM76.8874 36.2867L73.5286 33.6476L74.5482 32.3281L78.2069 35.2071L77.3672 36.2267C77.2473 36.4666 77.0074 36.4666 76.8874 36.2867Z" fill="#CED6E2"/>
<path d="M114.882 37.6541H50.2811C48.9525 37.6541 47.79 38.817 47.79 40.146V81.8427C47.79 83.1717 48.9525 82.6733 50.2811 82.6733H114.716C116.044 82.6733 117.207 83.1717 117.207 81.8427V40.146C117.373 38.817 116.211 37.6541 114.882 37.6541Z" fill="#D5DDEA"/>
<path d="M112.711 40.0771H52.5917C51.3553 40.0771 50.2734 41.1182 50.2734 42.3079V79.6366C50.2734 80.8263 51.3553 80.3801 52.5917 80.3801H112.556C113.793 80.3801 114.875 80.8263 114.875 79.6366V42.3079C115.029 41.1182 113.947 40.0771 112.711 40.0771Z" fill="white"/>
<path d="M127.005 80.3475V81.6765C127.005 83.1716 125.676 84.5006 124.182 84.5006H40.9811C39.4865 84.5006 38.158 83.1716 38.158 81.6765V80.3475H127.005Z" fill="#D5DDEA"/>
<path d="M90.3036 80.3475V80.8459C90.3036 81.6765 89.6393 82.5071 88.6429 82.5071H76.3538C75.5235 82.5071 74.6931 81.8426 74.6931 80.8459V80.3475H90.3036Z" fill="#E9EFF8"/>
<path d="M89.1414 59.4163H83.6611V53.9343C83.6611 53.2698 83.1629 52.7714 82.4986 52.7714C81.8343 52.7714 81.3361 53.2698 81.3361 53.9343V59.4163H75.8558C75.1916 59.4163 74.6934 59.9147 74.6934 60.5792C74.6934 61.2436 75.1916 61.742 75.8558 61.742H81.3361V67.2241C81.3361 67.8885 81.8343 68.3869 82.4986 68.3869C83.1629 68.3869 83.6611 67.8885 83.6611 67.2241V61.742H89.1414C89.8057 61.742 90.3039 61.2436 90.3039 60.5792C90.3039 59.9147 89.8057 59.4163 89.1414 59.4163Z" fill="#5263FF"/>
<g filter="url(#filter1_d_16238_21726)">
<path d="M126.843 58.8391L108.471 68.7843C107.409 69.353 106.092 68.9685 105.512 67.9041L96.0173 50.3128C95.4494 49.2498 95.8338 47.9307 96.8972 47.3496L115.269 37.4044C116.331 36.8357 117.648 37.2202 118.229 38.2846L127.735 55.8772C128.303 56.9403 127.905 58.2703 126.843 58.8391Z" fill="url(#paint1_linear_16238_21726)"/>
</g>
<path d="M124.405 56.7553L108.252 65.4987C107.799 65.7481 107.232 65.5723 106.983 65.1197L99.1336 50.5734C98.8846 50.1208 99.0603 49.5531 99.5125 49.3037L115.666 40.5603C116.118 40.3109 116.685 40.4867 116.934 40.9393L124.784 55.4856C125.033 55.9382 124.857 56.5059 124.405 56.7553Z" fill="white"/>
<path d="M113.68 55.4456L107.782 58.636L108.919 53.7022L113.68 55.4456Z" fill="#B0B7C4"/>
<path d="M118.555 52.8034L110.066 57.4039L111.707 50.3022L118.555 52.8034Z" fill="#CED6E2"/>
<path d="M106.799 53.0156C107.493 53.0931 108.119 52.5924 108.197 51.8971C108.274 51.2019 107.774 50.5754 107.08 50.4979C106.385 50.4204 105.76 50.9212 105.682 51.6164C105.604 52.3117 106.104 52.9381 106.799 53.0156Z" fill="#B0B7C4"/>
<g filter="url(#filter2_d_16238_21726)">
<path d="M128.857 62.6264L107.97 63.0395C106.765 63.0579 105.771 62.1121 105.743 60.9002L105.373 40.9136C105.356 39.7086 106.302 38.7126 107.514 38.6839L128.401 38.2707C129.605 38.2523 130.6 39.1982 130.627 40.4101L131.008 60.4035C131.025 61.6086 130.061 62.608 128.857 62.6264Z" fill="url(#paint2_linear_16238_21726)"/>
</g>
<path d="M127.645 59.6561L109.281 60.0185C108.765 60.0328 108.342 59.6166 108.328 59.1002L108.023 42.5738C108.009 42.0574 108.426 41.6335 108.942 41.6192L127.306 41.2568C127.822 41.2425 128.245 41.6587 128.259 42.1751L128.564 58.7015C128.578 59.2179 128.162 59.6418 127.645 59.6561Z" fill="white"/>
<path d="M118.715 53.5742L112.011 53.7048L115.284 49.8419L118.715 53.5742Z" fill="#989FB0"/>
<path d="M124.259 53.4621L114.606 53.6576L119.321 48.0993L124.259 53.4621Z" fill="#CED6E2"/>
<path d="M113.715 48.2596C114.296 48.647 115.082 48.489 115.47 47.9067C115.858 47.3245 115.701 46.5385 115.119 46.1511C114.537 45.7638 113.752 45.9218 113.364 46.504C112.976 47.0863 113.133 47.8723 113.715 48.2596Z" fill="#989FB0"/>
<path d="M129.069 63.3687L124.639 64.7349L128.168 69.9534L125.292 71.8978L121.764 66.6792L118.845 70.2819L116.324 55.5363L129.069 63.3687Z" fill="#5263FF"/>
<g filter="url(#filter3_d_16238_21726)">
<path d="M40.787 41.3245L52.5145 54.8504C52.9092 55.3175 52.8237 56.0097 52.3464 56.4145L38.7223 67.9714C38.2451 68.3763 37.5316 68.3253 37.1549 67.8795L22.2998 50.2997C21.9051 49.8326 21.9906 49.1404 22.4679 48.7356L32.3388 40.3624L40.787 41.3245Z" fill="url(#paint3_linear_16238_21726)"/>
</g>
<path d="M32.3186 40.2151L35.5485 44.0301C36.0022 44.5659 36.8366 44.5954 37.3724 44.1417L40.7587 41.2747" fill="#CED6E2"/>
<g clip-path="url(#clip0_16238_21726)">
<path d="M29.2441 43.1507L28.4207 43.8479L28.8999 44.414L29.7234 43.7168L29.2441 43.1507Z" fill="#CED6E2"/>
<path d="M30.5549 43.0129L29.7314 43.71L30.2107 44.2761L31.0342 43.5789L30.5549 43.0129Z" fill="#CED6E2"/>
<path d="M30.1958 44.2749L29.3723 44.9721L29.8516 45.5381L30.675 44.8409L30.1958 44.2749Z" fill="#CED6E2"/>
<path d="M31.5066 44.137L30.6831 44.8342L31.1623 45.4002L31.9858 44.703L31.5066 44.137Z" fill="#CED6E2"/>
<path d="M31.1543 45.407L30.3308 46.1041L30.81 46.6702L31.6335 45.973L31.1543 45.407Z" fill="#CED6E2"/>
<path d="M32.4651 45.269L31.6416 45.9662L32.1208 46.5323L32.9443 45.8351L32.4651 45.269Z" fill="#CED6E2"/>
<path d="M32.1059 46.5311L31.2825 47.2282L31.7617 47.7943L32.5852 47.0971L32.1059 46.5311Z" fill="#CED6E2"/>
<path d="M33.4167 46.3932L32.5933 47.0903L33.0725 47.6564L33.896 46.9592L33.4167 46.3932Z" fill="#CED6E2"/>
<path d="M33.0644 47.6632L32.241 48.3604L32.7202 48.9264L33.5437 48.2292L33.0644 47.6632Z" fill="#CED6E2"/>
<path d="M34.3752 47.5253L33.5518 48.2225L34.031 48.7885L34.8545 48.0913L34.3752 47.5253Z" fill="#CED6E2"/>
<path d="M34.0163 48.7873L33.1929 49.4845L33.6721 50.0505L34.4956 49.3533L34.0163 48.7873Z" fill="#CED6E2"/>
<path d="M35.3269 48.6494L34.5034 49.3466L34.9827 49.9126L35.8061 49.2154L35.3269 48.6494Z" fill="#CED6E2"/>
<path d="M34.9746 49.9194L34.1511 50.6166L34.6304 51.1826L35.4538 50.4854L34.9746 49.9194Z" fill="#CED6E2"/>
<path d="M36.2786 49.7735L35.4551 50.4707L35.9343 51.0367L36.7578 50.3395L36.2786 49.7735Z" fill="#CED6E2"/>
<path d="M35.9265 51.0435L35.103 51.7407L35.5823 52.3067L36.4057 51.6096L35.9265 51.0435Z" fill="#CED6E2"/>
<path d="M37.237 50.9056L36.4136 51.6028L36.8928 52.1688L37.7163 51.4716L37.237 50.9056Z" fill="#CED6E2"/>
<path d="M36.0615 52.8728L38.3025 55.5197L39.9574 54.1185L37.7165 51.4717L36.0615 52.8728ZM39.5003 54.0812L38.3411 55.0627L37.6931 54.2973L38.8523 53.3159L39.5003 54.0812Z" fill="#CED6E2"/>
<path d="M39.8003 61.2286L39.7595 59.8671C39.7646 59.63 39.7648 59.4519 39.7768 59.2229L39.77 59.2149L38.8666 59.9798L38.4413 59.4775L40.1283 58.0493L40.4523 58.432L40.4914 59.7265C40.4942 59.9568 40.4983 60.1723 40.4728 60.3855L40.4796 60.3934L41.471 59.5541L41.9029 60.0644L40.1041 61.5873L39.8003 61.2286Z" fill="#CED6E2"/>
<path d="M40.8417 56.4599C40.9901 56.6353 40.9757 56.8939 40.7679 57.0699C40.568 57.2391 40.3106 57.2107 40.1621 57.0353C39.9988 56.8587 40.0133 56.6001 40.2211 56.4241C40.4357 56.2561 40.6864 56.2766 40.8417 56.4599ZM42.4068 59.6379L40.6721 57.589L41.3116 57.0475L43.0463 59.0964L42.4068 59.6379Z" fill="#CED6E2"/>
<path d="M42.4038 57.2999C42.1743 57.0288 41.9706 56.8044 41.8073 56.6278L42.359 56.1608L42.634 56.4207L42.642 56.4139C42.6116 56.0701 42.7422 55.7542 43.046 55.497C43.4937 55.1179 44.2322 55.1634 44.7857 55.8171C45.4202 56.5665 45.2455 57.3167 44.7818 57.7093C44.5339 57.9191 44.2543 57.9779 44.0504 57.9316L44.0424 57.9383L44.9064 58.9588L44.2668 59.5003L42.4038 57.2999ZM43.4551 57.2447C43.4956 57.2926 43.5441 57.3336 43.5859 57.3667C43.7744 57.5083 44.0343 57.5072 44.2181 57.3515C44.498 57.1146 44.4621 56.7481 44.1651 56.3973C43.8884 56.0704 43.5352 55.9451 43.2474 56.1888C43.0635 56.3444 43.0184 56.6153 43.1404 56.8405C43.1594 56.8792 43.1852 56.9258 43.2189 56.9657L43.4551 57.2447Z" fill="#CED6E2"/>
</g>
<defs>
<filter id="filter0_d_16238_21726" x="37.1584" y="0" width="71.8057" height="76.4596" filterUnits="userSpaceOnUse" color-interpolation-filters="sRGB">
<feFlood flood-opacity="0" result="BackgroundImageFix"/>
<feColorMatrix in="SourceAlpha" type="matrix" values="0 0 0 0 0 0 0 0 0 0 0 0 0 0 0 0 0 0 127 0" result="hardAlpha"/>
<feOffset dy="11"/>
<feGaussianBlur stdDeviation="11"/>
<feColorMatrix type="matrix" values="0 0 0 0 0.397708 0 0 0 0 0.47749 0 0 0 0 0.575 0 0 0 0.27 0"/>
<feBlend mode="normal" in2="BackgroundImageFix" result="effect1_dropShadow_16238_21726"/>
<feBlend mode="normal" in="SourceGraphic" in2="effect1_dropShadow_16238_21726" result="shape"/>
</filter>
<filter id="filter1_d_16238_21726" x="73.7556" y="26.1422" width="76.2383" height="75.9044" filterUnits="userSpaceOnUse" color-interpolation-filters="sRGB">
<feFlood flood-opacity="0" result="BackgroundImageFix"/>
<feColorMatrix in="SourceAlpha" type="matrix" values="0 0 0 0 0 0 0 0 0 0 0 0 0 0 0 0 0 0 127 0" result="hardAlpha"/>
<feOffset dy="11"/>
<feGaussianBlur stdDeviation="11"/>
<feColorMatrix type="matrix" values="0 0 0 0 0.397708 0 0 0 0 0.47749 0 0 0 0 0.575 0 0 0 0.27 0"/>
<feBlend mode="normal" in2="BackgroundImageFix" result="effect1_dropShadow_16238_21726"/>
<feBlend mode="normal" in="SourceGraphic" in2="effect1_dropShadow_16238_21726" result="shape"/>
</filter>
<filter id="filter2_d_16238_21726" x="83.3728" y="27.2705" width="69.6353" height="68.7693" filterUnits="userSpaceOnUse" color-interpolation-filters="sRGB">
<feFlood flood-opacity="0" result="BackgroundImageFix"/>
<feColorMatrix in="SourceAlpha" type="matrix" values="0 0 0 0 0 0 0 0 0 0 0 0 0 0 0 0 0 0 127 0" result="hardAlpha"/>
<feOffset dy="11"/>
<feGaussianBlur stdDeviation="11"/>
<feColorMatrix type="matrix" values="0 0 0 0 0.397708 0 0 0 0 0.47749 0 0 0 0 0.575 0 0 0 0.27 0"/>
<feBlend mode="normal" in2="BackgroundImageFix" result="effect1_dropShadow_16238_21726"/>
<feBlend mode="normal" in="SourceGraphic" in2="effect1_dropShadow_16238_21726" result="shape"/>
</filter>
<filter id="filter3_d_16238_21726" x="0.0500488" y="29.3624" width="74.7144" height="71.8843" filterUnits="userSpaceOnUse" color-interpolation-filters="sRGB">
<feFlood flood-opacity="0" result="BackgroundImageFix"/>
<feColorMatrix in="SourceAlpha" type="matrix" values="0 0 0 0 0 0 0 0 0 0 0 0 0 0 0 0 0 0 127 0" result="hardAlpha"/>
<feOffset dy="11"/>
<feGaussianBlur stdDeviation="11"/>
<feColorMatrix type="matrix" values="0 0 0 0 0.397708 0 0 0 0 0.47749 0 0 0 0 0.575 0 0 0 0.27 0"/>
<feBlend mode="normal" in2="BackgroundImageFix" result="effect1_dropShadow_16238_21726"/>
<feBlend mode="normal" in="SourceGraphic" in2="effect1_dropShadow_16238_21726" result="shape"/>
</filter>
<linearGradient id="paint0_linear_16238_21726" x1="73.0522" y1="10.2492" x2="73.0522" y2="43.8095" gradientUnits="userSpaceOnUse">
<stop stop-color="#FDFEFF"/>
<stop offset="0.9964" stop-color="#ECF0F5"/>
</linearGradient>
<linearGradient id="paint1_linear_16238_21726" x1="113.762" y1="36.0829" x2="110.01" y2="69.7028" gradientUnits="userSpaceOnUse">
<stop stop-color="#FDFEFF"/>
<stop offset="0.9964" stop-color="#ECF0F5"/>
</linearGradient>
<linearGradient id="paint2_linear_16238_21726" x1="127.668" y1="36.4054" x2="108.916" y2="64.5613" gradientUnits="userSpaceOnUse">
<stop stop-color="#FDFEFF"/>
<stop offset="0.9964" stop-color="#ECF0F5"/>
</linearGradient>
<linearGradient id="paint3_linear_16238_21726" x1="28.8989" y1="42.5164" x2="45.7423" y2="62.3726" gradientUnits="userSpaceOnUse">
<stop stop-color="#FDFEFF"/>
<stop offset="0.9964" stop-color="#ECF0F5"/>
</linearGradient>
<clipPath id="clip0_16238_21726">
<rect width="7.30139" height="21.6233" fill="white" transform="translate(26.4778 45.4928) rotate(-40.2525)"/>
</clipPath>
</defs>
</svg>
