<svg width="17" height="18" viewBox="0 0 17 18" fill="none" xmlns="http://www.w3.org/2000/svg">
<path fillRule="evenodd" clipRule="evenodd" d="M14.6388 7.51562H2.01343C1.72018 7.51562 1.48218 7.27762 1.48218 6.98438C1.48218 6.69112 1.72018 6.45312 2.01343 6.45312H14.6388C14.932 6.45312 15.17 6.69112 15.17 6.98438C15.17 7.27762 14.932 7.51562 14.6388 7.51562Z" fill="#9A9AAB"/>
<path fillRule="evenodd" clipRule="evenodd" d="M11.476 10.2819C11.1827 10.2819 10.9419 10.0439 10.9419 9.75061C10.9419 9.45736 11.1764 9.21936 11.4696 9.21936H11.476C11.7692 9.21936 12.0072 9.45736 12.0072 9.75061C12.0072 10.0439 11.7692 10.2819 11.476 10.2819Z" fill="#9A9AAB"/>
<path fillRule="evenodd" clipRule="evenodd" d="M8.33267 10.2819C8.03942 10.2819 7.79858 10.0439 7.79858 9.75061C7.79858 9.45736 8.03304 9.21936 8.32629 9.21936H8.33267C8.62592 9.21936 8.86392 9.45736 8.86392 9.75061C8.86392 10.0439 8.62592 10.2819 8.33267 10.2819Z" fill="#9A9AAB"/>
<path fillRule="evenodd" clipRule="evenodd" d="M5.18299 10.2819C4.88974 10.2819 4.64819 10.0439 4.64819 9.75061C4.64819 9.45736 4.88336 9.21936 5.17661 9.21936H5.18299C5.47624 9.21936 5.71424 9.45736 5.71424 9.75061C5.71424 10.0439 5.47624 10.2819 5.18299 10.2819Z" fill="#9A9AAB"/>
<path fillRule="evenodd" clipRule="evenodd" d="M11.476 13.0349C11.1827 13.0349 10.9419 12.7969 10.9419 12.5037C10.9419 12.2104 11.1764 11.9724 11.4696 11.9724H11.476C11.7692 11.9724 12.0072 12.2104 12.0072 12.5037C12.0072 12.7969 11.7692 13.0349 11.476 13.0349Z" fill="#9A9AAB"/>
<path fillRule="evenodd" clipRule="evenodd" d="M8.33267 13.0349C8.03942 13.0349 7.79858 12.7969 7.79858 12.5037C7.79858 12.2104 8.03304 11.9724 8.32629 11.9724H8.33267C8.62592 11.9724 8.86392 12.2104 8.86392 12.5037C8.86392 12.7969 8.62592 13.0349 8.33267 13.0349Z" fill="#9A9AAB"/>
<path fillRule="evenodd" clipRule="evenodd" d="M5.18299 13.0349C4.88974 13.0349 4.64819 12.7969 4.64819 12.5037C4.64819 12.2104 4.88336 11.9724 5.17661 11.9724H5.18299C5.47624 11.9724 5.71424 12.2104 5.71424 12.5037C5.71424 12.7969 5.47624 13.0349 5.18299 13.0349Z" fill="#9A9AAB"/>
<path fillRule="evenodd" clipRule="evenodd" d="M11.1873 4.602C10.894 4.602 10.656 4.364 10.656 4.07075V1.73962C10.656 1.44637 10.894 1.20837 11.1873 1.20837C11.4805 1.20837 11.7185 1.44637 11.7185 1.73962V4.07075C11.7185 4.364 11.4805 4.602 11.1873 4.602Z" fill="#9A9AAB"/>
<path fillRule="evenodd" clipRule="evenodd" d="M5.46509 4.602C5.17184 4.602 4.93384 4.364 4.93384 4.07075V1.73962C4.93384 1.44637 5.17184 1.20837 5.46509 1.20837C5.75834 1.20837 5.99634 1.44637 5.99634 1.73962V4.07075C5.99634 4.364 5.75834 4.602 5.46509 4.602Z" fill="#9A9AAB"/>
<mask id="mask0_14214_7673" style="mask-type:luminance" maskUnits="userSpaceOnUse" x="1" y="2" width="15" height="15">
<path fillRule="evenodd" clipRule="evenodd" d="M1.41675 2.3269H15.2292V16.4375H1.41675V2.3269Z" fill="white"/>
</mask>
<g mask="url(#mask0_14214_7673)">
<path fillRule="evenodd" clipRule="evenodd" d="M5.32746 3.3894C3.49075 3.3894 2.47925 4.36903 2.47925 6.14765V12.5574C2.47925 14.3749 3.49075 15.3751 5.32746 15.3751H11.3185C13.1552 15.3751 14.1667 14.3934 14.1667 12.6112V6.14765C14.1696 5.27286 13.9344 4.59286 13.4676 4.12536C12.9874 3.6437 12.2472 3.3894 11.3249 3.3894H5.32746ZM11.3185 16.4376H5.32746C2.91558 16.4376 1.41675 14.9508 1.41675 12.5574V6.14765C1.41675 3.79032 2.91558 2.3269 5.32746 2.3269H11.3249C12.5355 2.3269 13.5363 2.68957 14.2199 3.37453C14.8836 4.04107 15.2328 4.99945 15.2292 6.14907V12.6112C15.2292 14.9714 13.7304 16.4376 11.3185 16.4376Z" fill="#9A9AAB"/>
</g>
</svg>
