<svg width="42" height="45" viewBox="0 0 42 45" fill="none" xmlns="http://www.w3.org/2000/svg">
<path d="M37.875 3.75H32.8125V2.0625C32.8125 1.61495 32.6347 1.18572 32.3182 0.869257C32.0018 0.55279 31.5726 0.375 31.125 0.375C30.6774 0.375 30.2482 0.55279 29.9318 0.869257C29.6153 1.18572 29.4375 1.61495 29.4375 2.0625V3.75H12.5625V2.0625C12.5625 1.61495 12.3847 1.18572 12.0682 0.869257C11.7518 0.55279 11.3226 0.375 10.875 0.375C10.4274 0.375 9.99823 0.55279 9.68176 0.869257C9.36529 1.18572 9.1875 1.61495 9.1875 2.0625V3.75H4.125C3.22989 3.75 2.37145 4.10558 1.73851 4.73851C1.10558 5.37145 0.75 6.22989 0.75 7.125V40.875C0.75 41.7701 1.10558 42.6285 1.73851 43.2615C2.37145 43.8944 3.22989 44.25 4.125 44.25H37.875C38.7701 44.25 39.6285 43.8944 40.2615 43.2615C40.8944 42.6285 41.25 41.7701 41.25 40.875V7.125C41.25 6.22989 40.8944 5.37145 40.2615 4.73851C39.6285 4.10558 38.7701 3.75 37.875 3.75ZM17.625 35.8125C17.625 36.2601 17.4472 36.6893 17.1307 37.0057C16.8143 37.3222 16.3851 37.5 15.9375 37.5C15.4899 37.5 15.0607 37.3222 14.7443 37.0057C14.4278 36.6893 14.25 36.2601 14.25 35.8125V25.042L13.3177 25.5103C12.9171 25.7106 12.4534 25.7435 12.0285 25.6019C11.6037 25.4603 11.2525 25.1557 11.0522 24.7552C10.8519 24.3546 10.819 23.8909 10.9606 23.466C11.1022 23.0412 11.4068 22.69 11.8073 22.4897L15.1823 20.8022C15.4397 20.6734 15.7257 20.6126 16.0132 20.6255C16.3008 20.6384 16.5802 20.7246 16.825 20.876C17.0697 21.0273 17.2717 21.2388 17.4118 21.4902C17.5518 21.7416 17.6252 22.0247 17.625 22.3125V35.8125ZM29.4375 34.125C29.8851 34.125 30.3143 34.3028 30.6307 34.6193C30.9472 34.9357 31.125 35.3649 31.125 35.8125C31.125 36.2601 30.9472 36.6893 30.6307 37.0057C30.3143 37.3222 29.8851 37.5 29.4375 37.5H22.6875C22.3741 37.5 22.0669 37.4127 21.8003 37.248C21.5337 37.0832 21.3183 36.8475 21.1782 36.5672C21.038 36.2869 20.9787 35.9731 21.0068 35.661C21.035 35.3488 21.1495 35.0507 21.3375 34.8L27.4083 26.7063C27.5464 26.5225 27.6454 26.3124 27.6994 26.0889C27.7534 25.8654 27.7611 25.6332 27.7221 25.4067C27.6831 25.1801 27.5982 24.9638 27.4727 24.7712C27.3471 24.5786 27.1835 24.4137 26.9919 24.2866C26.8003 24.1595 26.5848 24.0729 26.3585 24.0321C26.1323 23.9913 25.9 23.9972 25.6761 24.0493C25.4522 24.1015 25.2413 24.1989 25.0564 24.3355C24.8715 24.4721 24.7164 24.6451 24.6007 24.8438C24.4932 25.0418 24.3471 25.2163 24.171 25.3569C23.9949 25.4976 23.7925 25.6015 23.5756 25.6627C23.3587 25.7238 23.1318 25.7409 22.9082 25.7129C22.6846 25.6849 22.4688 25.6124 22.2737 25.4997C22.0786 25.387 21.908 25.2364 21.772 25.0567C21.636 24.877 21.5375 24.6718 21.482 24.4534C21.4266 24.235 21.4155 24.0077 21.4494 23.7849C21.4833 23.5621 21.5614 23.3483 21.6792 23.1562C22.2366 22.1916 23.0967 21.4378 24.1261 21.0116C25.1555 20.5855 26.2967 20.5108 27.3729 20.7992C28.449 21.0876 29.4 21.7229 30.0784 22.6067C30.7567 23.4905 31.1246 24.5734 31.125 25.6875C31.1286 26.7881 30.7698 27.8592 30.1041 28.7355L26.0625 34.125H29.4375ZM4.125 13.875V7.125H9.1875V8.8125C9.1875 9.26005 9.36529 9.68927 9.68176 10.0057C9.99823 10.3222 10.4274 10.5 10.875 10.5C11.3226 10.5 11.7518 10.3222 12.0682 10.0057C12.3847 9.68927 12.5625 9.26005 12.5625 8.8125V7.125H29.4375V8.8125C29.4375 9.26005 29.6153 9.68927 29.9318 10.0057C30.2482 10.3222 30.6774 10.5 31.125 10.5C31.5726 10.5 32.0018 10.3222 32.3182 10.0057C32.6347 9.68927 32.8125 9.26005 32.8125 8.8125V7.125H37.875V13.875H4.125Z" fill="#5263FF"/>
</svg>
