<svg width="16" height="17" viewBox="0 0 16 17" fill="none" xmlns="http://www.w3.org/2000/svg">
<path d="M7.99984 3.16675V3.16675C5.48568 3.16675 4.2286 3.16675 3.44755 3.9478C3.44755 3.9478 3.44755 3.9478 3.44755 3.9478C2.6665 4.72885 2.6665 5.98592 2.6665 8.50008V12.5001C2.6665 13.1286 2.6665 13.4429 2.86177 13.6382C3.05703 13.8334 3.3713 13.8334 3.99984 13.8334H7.99984C10.514 13.8334 11.7711 13.8334 12.5521 13.0524C12.5521 13.0524 12.5521 13.0524 12.5521 13.0524C13.3332 12.2713 13.3332 11.0142 13.3332 8.50008V8.50008" stroke="#5263FF" stroke-width="1.33333"/>
<path d="M6 7.16675L10 7.16675" stroke="#5263FF" stroke-width="1.33333" stroke-linecap="round" stroke-linejoin="round"/>
<path d="M6 9.83325H8" stroke="#5263FF" stroke-width="1.33333" stroke-linecap="round" stroke-linejoin="round"/>
<path d="M12.6665 5.83325L12.6665 1.83325M10.6665 3.83325H14.6665" stroke="#5263FF" stroke-width="1.33333" stroke-linecap="round" stroke-linejoin="round"/>
</svg>
