<svg width="23" height="22" viewBox="0 0 23 22" fill="none" xmlns="http://www.w3.org/2000/svg">
<g id="elements">
<path id="Subtract" fillRule="evenodd" clipRule="evenodd" d="M12.0303 0.46967C11.7374 0.176777 11.2626 0.176777 10.9697 0.46967L8.18934 3.25H4.5C4.08579 3.25 3.75 3.58579 3.75 4V7.68934L0.96967 10.4697C0.676777 10.7626 0.676777 11.2374 0.96967 11.5303L3.75 14.3107V18C3.75 18.4142 4.08579 18.75 4.5 18.75H8.18934L10.9697 21.5303C11.2626 21.8232 11.7374 21.8232 12.0303 21.5303L14.8107 18.75H18.5C18.9142 18.75 19.25 18.4142 19.25 18V14.3107L22.0303 11.5303C22.3232 11.2374 22.3232 10.7626 22.0303 10.4697L19.25 7.68934V4C19.25 3.58579 18.9142 3.25 18.5 3.25H14.8107L12.0303 0.46967ZM13.9257 8.01758L10.2164 12.4334L8.49208 10.934L7.50781 12.0659L10.3835 14.5665L15.0742 8.98237L13.9257 8.01758Z" fill="#34A853"/>
</g>
</svg>
