<svg width="14" height="14" viewBox="0 0 14 14" fill="none" xmlns="http://www.w3.org/2000/svg">
<path fillRule="evenodd" clipRule="evenodd" d="M7.00016 13.4167C3.45634 13.4167 0.583496 10.5439 0.583496 7.00004C0.583496 3.45621 3.45634 0.583374 7.00016 0.583374C10.544 0.583374 13.4168 3.45621 13.4168 7.00004C13.4168 10.5439 10.544 13.4167 7.00016 13.4167ZM7.00016 12.25C9.89966 12.25 12.2502 9.89954 12.2502 7.00004C12.2502 4.10055 9.89966 1.75004 7.00016 1.75004C4.10067 1.75004 1.75016 4.10055 1.75016 7.00004C1.75016 9.89954 4.10067 12.25 7.00016 12.25ZM6.82931 7.75423L5.49179 6.41671H8.16683C8.81116 6.41671 9.3335 6.93904 9.3335 7.58337C9.3335 8.22771 8.81116 8.75004 8.16683 8.75004V9.91671C9.45549 9.91671 10.5002 8.87204 10.5002 7.58337C10.5002 6.29471 9.45549 5.25004 8.16683 5.25004H5.49179L6.82931 3.91252L6.00435 3.08756L3.25854 5.83337L6.00435 8.57919L6.82931 7.75423Z" fill="#5263FF"/>
</svg>
