<svg width="32" height="33" viewBox="0 0 32 33" fill="none" xmlns="http://www.w3.org/2000/svg">
<rect x="0.5" y="1" width="31" height="31" rx="15.5" stroke="#E6E6E9"/>
<g clip-path="url(#clip0_13083_3498)">
<path d="M12.6665 14.666L14.6278 15.8256C15.7713 16.5017 16.2284 16.5017 17.3718 15.8256L19.3332 14.666" stroke="#5263FF" stroke-width="1.09091" stroke-linecap="round" stroke-linejoin="round"/>
<path d="M9.34376 17.9824C9.38735 20.0261 9.40914 21.048 10.1632 21.8049C10.9173 22.5619 11.9668 22.5883 14.0658 22.641C15.3595 22.6735 16.6404 22.6735 17.934 22.641C20.033 22.5883 21.0825 22.5619 21.8366 21.8049C22.5907 21.048 22.6125 20.0261 22.6561 17.9824C22.6701 17.3253 22.6701 16.6721 22.6561 16.015C22.6125 13.9713 22.5907 12.9494 21.8366 12.1925C21.0825 11.4355 20.033 11.4091 17.934 11.3564C16.6404 11.3239 15.3595 11.3239 14.0658 11.3564C11.9668 11.4091 10.9173 11.4355 10.1632 12.1925C9.40913 12.9494 9.38734 13.9713 9.34376 16.015C9.32975 16.6721 9.32975 17.3253 9.34376 17.9824Z" stroke="#5263FF" stroke-width="1.09091" stroke-linejoin="round"/>
</g>
<defs>
<clipPath id="clip0_13083_3498">
<rect width="16" height="16" fill="white" transform="translate(8 9)"/>
</clipPath>
</defs>
</svg>
