<svg width="32" height="33" viewBox="0 0 32 33" fill="none" xmlns="http://www.w3.org/2000/svg">
<rect x="0.5" y="1" width="31" height="31" rx="15.5" stroke="#E6E6E9"/>
<path d="M16 8.5C12.6863 8.5 10 11.2134 10 14.5605C10 16.4744 10.75 17.9625 12.25 19.2917C13.3073 20.2287 15.231 22.2385 16 23.4999C16.808 22.2635 18.6927 20.2287 19.75 19.2917C21.25 17.9625 22 16.4744 22 14.5605C22 11.2134 19.3137 8.5 16 8.5Z" stroke="#5263FF" stroke-width="1.125" stroke-linejoin="round"/>
<path d="M16 11.5L16.4859 11.2166C16.3851 11.0438 16.2001 10.9375 16 10.9375C15.7999 10.9375 15.6149 11.0438 15.5141 11.2166L16 11.5ZM17.05 13.3L16.5641 13.5834L16.6832 13.7876L16.9124 13.8454L17.05 13.3ZM19 13.7918L19.4128 14.1739C19.5477 14.0282 19.5957 13.8222 19.5393 13.6318C19.4828 13.4414 19.3301 13.2949 19.1376 13.2464L19 13.7918ZM17.65 15.25L17.2372 14.8679L17.0365 15.0847L17.1011 15.373L17.65 15.25ZM18.1541 17.5L17.9373 18.019C18.1313 18.1001 18.3543 18.0662 18.5155 17.931C18.6766 17.7959 18.749 17.5822 18.703 17.377L18.1541 17.5ZM16 16.6L16.2169 16.081L16 15.9904L15.7831 16.081L16 16.6ZM13.8459 17.5L13.297 17.377C13.251 17.5822 13.3234 17.7959 13.4845 17.931C13.6457 18.0662 13.8687 18.1001 14.0627 18.019L13.8459 17.5ZM14.35 15.25L14.8989 15.373L14.9635 15.0847L14.7628 14.8679L14.35 15.25ZM13 13.7918L12.8624 13.2464C12.6699 13.2949 12.5172 13.4414 12.4607 13.6318C12.4043 13.8222 12.4523 14.0282 12.5872 14.1739L13 13.7918ZM14.95 13.3L15.0876 13.8454L15.3168 13.7876L15.4359 13.5834L14.95 13.3ZM15.5141 11.7834L16.5641 13.5834L17.5359 13.0166L16.4859 11.2166L15.5141 11.7834ZM16.9124 13.8454L18.8624 14.3372L19.1376 13.2464L17.1876 12.7546L16.9124 13.8454ZM18.5872 13.4097L17.2372 14.8679L18.0628 15.6321L19.4128 14.1739L18.5872 13.4097ZM17.1011 15.373L17.6052 17.623L18.703 17.377L18.1989 15.127L17.1011 15.373ZM18.371 16.981L16.2169 16.081L15.7831 17.119L17.9373 18.019L18.371 16.981ZM15.7831 16.081L13.629 16.981L14.0627 18.019L16.2169 17.119L15.7831 16.081ZM14.3948 17.623L14.8989 15.373L13.8011 15.127L13.297 17.377L14.3948 17.623ZM14.7628 14.8679L13.4128 13.4097L12.5872 14.1739L13.9372 15.6321L14.7628 14.8679ZM13.1376 14.3372L15.0876 13.8454L14.8124 12.7546L12.8624 13.2464L13.1376 14.3372ZM15.4359 13.5834L16.4859 11.7834L15.5141 11.2166L14.4641 13.0166L15.4359 13.5834Z" fill="#5263FF"/>
</svg>
