<svg width="30" height="30" viewBox="0 0 30 30" fill="none" xmlns="http://www.w3.org/2000/svg">
<g id="Frame" clip-path="url(#clip0_13052_11461)">
<path id="Vector" d="M35.625 18.75H31.875V22.5H33.1875C33.498 22.5 33.75 22.7109 33.75 22.9688V23.9062C33.75 24.1641 33.498 24.375 33.1875 24.375H4.3125C4.00195 24.375 3.75 24.1641 3.75 23.9062V22.9688C3.75 22.7109 4.00195 22.5 4.3125 22.5H5.625V18.75H1.875C0.837891 18.75 0 19.5879 0 20.625V26.25C0 27.2871 0.837891 28.125 1.875 28.125H35.625C36.6621 28.125 37.5 27.2871 37.5 26.25V20.625C37.5 19.5879 36.6621 18.75 35.625 18.75ZM30 22.5V3.76758C30 2.71875 29.1504 1.875 28.1074 1.875H9.39844C8.34961 1.875 7.5 2.72461 7.5 3.76758V22.5H30ZM12.375 11.8359L13.8691 10.3535C14.1152 10.1074 14.5137 10.1074 14.7598 10.3594L17.1797 12.7969L22.7578 7.26562C23.0039 7.01953 23.4023 7.01953 23.6484 7.27148L25.1309 8.76563C25.377 9.01172 25.377 9.41016 25.125 9.65625L17.6074 17.1094C17.3613 17.3555 16.9629 17.3555 16.7168 17.1035L12.375 12.7266C12.123 12.4805 12.1289 12.082 12.375 11.8359Z" fill="#5263FF"/>
</g>
<defs>
<clipPath id="clip0_13052_11461">
<rect width="30" height="30" fill="white"/>
</clipPath>
</defs>
</svg>
