<svg width="17" height="16" viewBox="0 0 17 16" fill="none" xmlns="http://www.w3.org/2000/svg">
<path d="M8.5 4.66667V5.33333M10.1 6.33333C9.96667 5.73333 9.43333 5.33333 8.83333 5.33333H8.16667C7.43333 5.33333 6.83333 5.93333 6.83333 6.66667C6.83333 7.4 7.43333 8 8.16667 8H8.83333C9.56667 8 10.1667 8.6 10.1667 9.33333C10.1667 10.0667 9.56667 10.6667 8.83333 10.6667H8.16667C7.56667 10.6667 7.03333 10.2 6.9 9.66667M8.5 10.6667V11.3333M14.5 8C14.5 11.3333 11.8333 14 8.5 14C5.16667 14 2.5 11.3333 2.5 8C2.5 4.66667 5.16667 2 8.5 2C11.8333 2 14.5 4.66667 14.5 8Z" stroke="#030712" stroke-width="1.33333" stroke-linecap="round" stroke-linejoin="round"/>
</svg>
