<svg width="18" height="18" viewBox="0 0 18 18" fill="none" xmlns="http://www.w3.org/2000/svg">
<path d="M9 5.25V6M10.8 7.125C10.65 6.45 10.05 6 9.375 6H8.625C7.8 6 7.125 6.675 7.125 7.5C7.125 8.325 7.8 9 8.625 9H9.375C10.2 9 10.875 9.675 10.875 10.5C10.875 11.325 10.2 12 9.375 12H8.625C7.95 12 7.35 11.475 7.2 10.875M9 12V12.75M15.75 9C15.75 12.75 12.75 15.75 9 15.75C5.25 15.75 2.25 12.75 2.25 9C2.25 5.25 5.25 2.25 9 2.25C12.75 2.25 15.75 5.25 15.75 9Z" stroke="white" stroke-width="1.5" stroke-linecap="round" stroke-linejoin="round"/>
</svg>
