<svg width="20" height="21" viewBox="0 0 20 21" fill="none" xmlns="http://www.w3.org/2000/svg">
<path d="M18.3327 8.83366V7.16699H1.66602V18.8337H9.99935" stroke="#8C8E9C" stroke-width="1.4" stroke-linejoin="round"/>
<path d="M1.66602 7.16699L4.16602 2.16699L15.8327 2.167L18.3327 7.16699" stroke="#8C8E9C" stroke-width="1.4"/>
<path d="M9.99902 7.16699V2.16699" stroke="#8C8E9C" stroke-width="1.4"/>
<path d="M7.5 10.5H10" stroke="#8C8E9C" stroke-width="1.4"/>
<path d="M14.9993 10.5C13.1584 10.5 11.666 12.0074 11.666 13.8669C11.666 14.9302 12.0827 15.7569 12.916 16.4954C13.5034 17.0159 14.5721 18.1325 14.9993 18.8333C15.4482 18.1465 16.4953 17.0159 17.0827 16.4954C17.916 15.7569 18.3327 14.9302 18.3327 13.8669C18.3327 12.0074 16.8403 10.5 14.9993 10.5Z" stroke="#8C8E9C" stroke-width="1.4" stroke-linejoin="round"/>
<path d="M15 13.834H15.0075" stroke="#8C8E9C" stroke-width="1.4" stroke-linecap="round" stroke-linejoin="round"/>
</svg>
