<svg width="32" height="32" viewBox="0 0 32 32" fill="none" xmlns="http://www.w3.org/2000/svg">
<g id="dollar-circle">
<g id="elements">
<path id="Subtract" fillRule="evenodd" clipRule="evenodd" d="M16.0001 1.6665C8.084 1.6665 1.66675 8.08376 1.66675 15.9998C1.66675 23.9159 8.084 30.3332 16.0001 30.3332C23.9162 30.3332 30.3334 23.9159 30.3334 15.9998C30.3334 8.08376 23.9162 1.6665 16.0001 1.6665ZM17.0001 9.33317C17.0001 8.78089 16.5524 8.33317 16.0001 8.33317C15.4478 8.33317 15.0001 8.78089 15.0001 9.33317V9.89872C14.1797 10.0383 13.4268 10.3481 12.816 10.796C11.9643 11.4205 11.3334 12.366 11.3334 13.5036C11.3334 14.5043 11.6926 15.4291 12.6104 16.0436C13.4427 16.6008 14.603 16.8081 16.0001 16.8081C17.2776 16.8081 18.0373 16.9999 18.4562 17.2714C18.7841 17.4839 19.0001 17.8052 19.0001 18.4967C19.0001 19.0777 18.7616 19.4365 18.3159 19.7025C17.8096 20.0048 17.0145 20.1853 16.0001 20.1853C15.0671 20.1853 14.2672 19.9293 13.7295 19.5679C13.1855 19.2022 13.0001 18.8046 13.0001 18.4967C13.0001 17.9444 12.5524 17.4967 12.0001 17.4967C11.4478 17.4967 11.0001 17.9444 11.0001 18.4967C11.0001 19.6737 11.7101 20.6203 12.6138 21.2278C13.2813 21.6764 14.1049 21.9821 15.0001 22.1131V22.6665C15.0001 23.2188 15.4478 23.6665 16.0001 23.6665C16.5524 23.6665 17.0001 23.2188 17.0001 22.6665V22.134C17.8489 22.0432 18.6633 21.8244 19.3411 21.4198C20.3432 20.8216 21.0001 19.8361 21.0001 18.4967C21.0001 17.2678 20.5494 16.2447 19.544 15.5931C18.6295 15.0003 17.3892 14.8081 16.0001 14.8081C14.7305 14.8081 14.0575 14.6056 13.7231 14.3817C13.4743 14.2151 13.3334 13.9877 13.3334 13.5036C13.3334 13.1563 13.5233 12.7574 13.9987 12.4089C14.4735 12.0607 15.1778 11.8149 16.0001 11.8149C16.8224 11.8149 17.5267 12.0607 18.0015 12.4089C18.4769 12.7574 18.6667 13.1563 18.6667 13.5036C18.6667 14.0558 19.1145 14.5036 19.6667 14.5036C20.219 14.5036 20.6667 14.0558 20.6667 13.5036C20.6667 12.366 20.0358 11.4205 19.1841 10.796C18.5733 10.3481 17.8204 10.0383 17.0001 9.89872V9.33317Z" fill="#5263FF"/>
</g>
</g>
</svg>
