<svg width="20" height="20" viewBox="0 0 20 20" fill="none" xmlns="http://www.w3.org/2000/svg">
<path fillRule="evenodd" clipRule="evenodd" d="M10 4.375C10.3452 4.375 10.625 4.65482 10.625 5L10.625 11.6667C10.625 12.0118 10.3452 12.2917 10 12.2917C9.65482 12.2917 9.375 12.0118 9.375 11.6667L9.375 5C9.375 4.65482 9.65482 4.375 10 4.375Z" fill="#14142B"/>
<path fillRule="evenodd" clipRule="evenodd" d="M12.9419 9.55806C13.186 9.80214 13.186 10.1979 12.9419 10.4419L10.7366 12.6473C10.3298 13.0541 9.67023 13.0541 9.26343 12.6473L7.05806 10.4419C6.81398 10.1979 6.81398 9.80214 7.05806 9.55806C7.30214 9.31398 7.69786 9.31398 7.94194 9.55806L10 11.6161L12.0581 9.55806C12.3021 9.31398 12.6979 9.31398 12.9419 9.55806Z" fill="#14142B"/>
<path fillRule="evenodd" clipRule="evenodd" d="M15.8333 11.5975C16.1785 11.5975 16.4583 11.8774 16.4583 12.2225L16.4583 14.5837C16.4583 15.159 15.9919 15.6253 15.4166 15.6253L4.58331 15.6253C4.00802 15.6253 3.54165 15.159 3.54165 14.5837L3.54165 11.667C3.54165 11.3218 3.82147 11.042 4.16665 11.042C4.51182 11.042 4.79165 11.3218 4.79165 11.667L4.79165 14.3753L15.2083 14.3753L15.2083 12.2225C15.2083 11.8774 15.4881 11.5975 15.8333 11.5975Z" fill="#14142B"/>
</svg>
