<svg width="48" height="48" viewBox="0 0 48 48" fill="none" xmlns="http://www.w3.org/2000/svg">
<path d="M0 24C0 10.7452 10.7452 0 24 0C37.2548 0 48 10.7452 48 24C48 37.2548 37.2548 48 24 48C10.7452 48 0 37.2548 0 24Z" fill="#F0F1FF"/>
<g clip-path="url(#clip0_15522_9884)">
<path d="M20.6665 27.3334V29.6667C20.6665 30.6001 20.6665 31.0668 20.8482 31.4233C21.0079 31.7369 21.2629 31.9919 21.5765 32.1517C21.933 32.3334 22.3997 32.3334 23.3332 32.3334H29.6665C30.5999 32.3334 31.0666 32.3334 31.4232 32.1517C31.7368 31.9919 31.9917 31.7369 32.1515 31.4233C32.3332 31.0668 32.3332 30.6001 32.3332 29.6667V23.3334C32.3332 22.3999 32.3332 21.9332 32.1515 21.5767C31.9917 21.2631 31.7368 21.0081 31.4232 20.8483C31.0666 20.6667 30.5999 20.6667 29.6665 20.6667H27.3332M18.3332 27.3334H24.6665C25.5999 27.3334 26.0666 27.3334 26.4232 27.1517C26.7368 26.9919 26.9917 26.7369 27.1515 26.4233C27.3332 26.0668 27.3332 25.6001 27.3332 24.6667V18.3334C27.3332 17.3999 27.3332 16.9332 27.1515 16.5767C26.9917 16.2631 26.7368 16.0081 26.4232 15.8483C26.0666 15.6667 25.5999 15.6667 24.6665 15.6667H18.3332C17.3997 15.6667 16.933 15.6667 16.5765 15.8483C16.2629 16.0081 16.0079 16.2631 15.8482 16.5767C15.6665 16.9332 15.6665 17.3999 15.6665 18.3334V24.6667C15.6665 25.6001 15.6665 26.0668 15.8482 26.4233C16.0079 26.7369 16.2629 26.9919 16.5765 27.1517C16.933 27.3334 17.3997 27.3334 18.3332 27.3334Z" stroke="#5263FF" stroke-width="1.5" stroke-linecap="round" stroke-linejoin="round"/>
</g>
<defs>
<clipPath id="clip0_15522_9884">
<rect width="20" height="20" fill="white" transform="translate(14 14)"/>
</clipPath>
</defs>
</svg>
