<svg width="18" height="18" viewBox="0 0 18 18" fill="none" xmlns="http://www.w3.org/2000/svg">
<path d="M3.75 5.02941C3.75 3.17747 5.26733 1.6875 7.125 1.6875C8.98267 1.6875 10.5 3.17747 10.5 5.02941C10.5 6.88136 8.98267 8.37132 7.125 8.37132C5.26733 8.37132 3.75 6.88136 3.75 5.02941Z" fill="#9747FF"/>
<path d="M0.9375 15.75C0.9375 12.363 3.71403 9.62868 7.125 9.62868C10.536 9.62868 13.3125 12.363 13.3125 15.75V16.3125H0.9375V15.75Z" fill="#9747FF"/>
<path d="M15.0938 3.9375C15.2429 3.9375 15.386 3.99676 15.4915 4.10225L16.8977 5.5085C17.1174 5.72817 17.1174 6.08433 16.8977 6.304L13.6392 9.5625H11.4375V7.36075L14.696 4.10225C14.8015 3.99676 14.9446 3.9375 15.0938 3.9375Z" fill="#9747FF"/>
</svg>
