<svg width="34" height="36" viewBox="0 0 34 36" fill="none" xmlns="http://www.w3.org/2000/svg">
<path d="M13.3438 11.75H15.875C16.0648 11.75 16.2187 11.9039 16.2188 12.0938C16.2188 12.2836 16.0648 12.4375 15.875 12.4375H13.3438C11.6697 12.4375 10.3125 13.7947 10.3125 15.4688V21.6562C10.3125 23.3304 11.6696 24.6875 13.3438 24.6875H19.5312C21.2053 24.6875 22.5625 23.3304 22.5625 21.6562V18C22.5625 17.8102 22.7165 17.6563 22.9062 17.6562C23.0961 17.6562 23.25 17.8102 23.25 18V21.6562C23.25 23.7101 21.5851 25.375 19.5312 25.375H13.3438C11.2899 25.375 9.625 23.7101 9.625 21.6562V15.4688C9.62504 13.415 11.29 11.75 13.3438 11.75ZM20.9434 14.8438L16.582 19.2061C15.9476 19.8404 15.1715 20.3097 14.3223 20.5801C14.5926 19.7313 15.0632 18.9564 15.6973 18.3223L20.0596 13.96L20.9434 14.8438ZM22.9795 11.1133C23.3622 11.2408 23.6625 11.5412 23.79 11.9238C23.8013 11.9577 23.7926 11.9945 23.7676 12.0195L22.8438 12.9434L21.96 12.0596L22.8838 11.1357C22.9087 11.1108 22.9459 11.1021 22.9795 11.1133Z" fill="#8C8E9C" stroke="#8C8E9C"/>
<rect x="0.75" y="0.75" width="32.5" height="34.5" rx="16.25" stroke="#E3E3E3" stroke-width="1.5"/>
</svg>
