<svg width="24" height="24" viewBox="0 0 24 24" fill="none" xmlns="http://www.w3.org/2000/svg">
<g id="Edit">
<path id="Union" fillRule="evenodd" clipRule="evenodd" d="M19.8408 3.90364C19.364 3.47027 18.636 3.47027 18.1592 3.90364C18.1405 3.92064 18.1161 3.94475 18.0303 4.03051L17.7233 4.33752C17.6991 5.4137 18.5865 6.30112 19.6627 6.27686L19.9697 5.96985C20.0554 5.88409 20.0795 5.85968 20.0965 5.84097C20.5299 5.36421 20.5299 4.63616 20.0965 4.1594C20.0795 4.14069 20.0554 4.11628 19.9697 4.03052C19.8839 3.94475 19.8595 3.92064 19.8408 3.90364ZM20.5357 7.52512L21.0303 7.03051L21.0429 7.01793L21.0429 7.0179C21.1103 6.95058 21.1621 6.89873 21.2065 6.84992C22.1599 5.80104 22.1599 4.19933 21.2065 3.15046C21.1621 3.10164 21.1103 3.04979 21.0429 2.98245L21.0429 2.98242L21.0303 2.96986L21.0177 2.95726L21.0177 2.95722L21.0175 2.95707C20.9503 2.88981 20.8985 2.838 20.8497 2.79367C19.8009 1.84026 18.1991 1.84026 17.1503 2.79367C17.1015 2.83803 17.0496 2.88988 16.9823 2.9572L16.9823 2.95722L16.9822 2.95728L16.9697 2.96985L16.475 3.46454C16.4711 3.46831 16.4673 3.47213 16.4635 3.47598L12.7232 7.21637L12.6791 7.26046L12.679 7.26047L12.679 7.26048C12.2545 7.68496 11.9807 7.95869 11.755 8.27263C11.555 8.55081 11.3857 8.84981 11.2501 9.16441C11.097 9.51946 11.0031 9.89508 10.8576 10.4776L10.8425 10.5381L10.2724 12.8183C10.2085 13.0739 10.2834 13.3442 10.4697 13.5305C10.656 13.7168 10.9263 13.7917 11.1819 13.7278L13.4621 13.1577L13.5226 13.1426L13.5226 13.1426L13.5227 13.1426C14.1051 12.9971 14.4807 12.9032 14.8358 12.7501C15.1504 12.6145 15.4494 12.4452 15.7276 12.2452C16.0415 12.0195 16.3152 11.7457 16.7397 11.3211L16.7397 11.3211L16.7838 11.277L20.5241 7.53673C20.528 7.5329 20.5319 7.52903 20.5357 7.52512ZM18.3917 7.5478C17.5064 7.20215 16.798 6.49382 16.4524 5.60846L13.7838 8.27703C13.3006 8.76025 13.1189 8.94514 12.9729 9.14818C12.8361 9.33851 12.7203 9.54309 12.6275 9.75834C12.5285 9.98796 12.4634 10.2389 12.2977 10.9019L12.0308 11.9694L13.0983 11.7025C13.7613 11.5368 14.0122 11.4717 14.2418 11.3727C14.4571 11.2799 14.6617 11.1641 14.852 11.0272C15.055 10.8813 15.2399 10.6996 15.7232 10.2164L18.3917 7.5478ZM9.367 2.25019L9.4 2.25019H12C12.4142 2.25019 12.75 2.58597 12.75 3.00019C12.75 3.4144 12.4142 3.75019 12 3.75019H9.4C8.26752 3.75019 7.46327 3.75077 6.83388 3.80219C6.21326 3.8529 5.829 3.94928 5.52453 4.10442C4.91301 4.416 4.41582 4.91319 4.10423 5.52472C3.94909 5.82919 3.85271 6.21344 3.80201 6.83407C3.75058 7.46345 3.75 8.26771 3.75 9.40019L3.75 14.6002C3.75 15.7327 3.75058 16.5369 3.80201 17.1663C3.85271 17.7869 3.94909 18.1712 4.10423 18.4757C4.41582 19.0872 4.91301 19.5844 5.52453 19.896C5.829 20.0511 6.21326 20.1475 6.83388 20.1982C7.46327 20.2496 8.26752 20.2502 9.4 20.2502H14.6C15.7325 20.2502 16.5367 20.2496 17.1661 20.1982C17.7867 20.1475 18.171 20.0511 18.4755 19.896C19.087 19.5844 19.5842 19.0872 19.8958 18.4757C20.0509 18.1712 20.1473 17.7869 20.198 17.1663C20.2494 16.5369 20.25 15.7327 20.25 14.6002V12.0002C20.25 11.586 20.5858 11.2502 21 11.2502C21.4142 11.2502 21.75 11.586 21.75 12.0002V14.6002V14.6332C21.75 15.7253 21.75 16.5908 21.693 17.2885C21.6347 18.0018 21.5131 18.6055 21.2323 19.1566C20.7769 20.0504 20.0502 20.7771 19.1565 21.2325C18.6053 21.5133 18.0017 21.6349 17.2883 21.6932C16.5907 21.7502 15.7252 21.7502 14.633 21.7502H14.6H9.4H9.36698C8.27485 21.7502 7.40935 21.7502 6.71174 21.6932C5.99835 21.6349 5.39472 21.5133 4.84355 21.2325C3.94978 20.7771 3.22312 20.0504 2.76772 19.1566C2.48688 18.6055 2.36528 18.0018 2.30699 17.2885C2.24999 16.5908 2.25 15.7254 2.25 14.6333V14.6332V14.6002L2.25 9.40019V9.36719V9.36712C2.25 8.27501 2.24999 7.40953 2.30699 6.71192C2.36528 5.99853 2.48688 5.39491 2.76772 4.84373C3.22312 3.94996 3.94978 3.2233 4.84355 2.76791C5.39472 2.48707 5.99835 2.36546 6.71174 2.30717C7.40936 2.25018 8.27486 2.25018 9.367 2.25019Z" fill="#8C9498"/>
</g>
</svg>
