<svg width="16" height="16" viewBox="0 0 16 16" fill="none" xmlns="http://www.w3.org/2000/svg">
<path d="M4.75 2.00007C2.67893 2.00007 1 3.679 1 5.75007V11.25C1 13.3211 2.67893 15 4.75 15H10.2501C12.3212 15 14.0001 13.3211 14.0001 11.25V8.00007C14.0001 7.58586 13.6643 7.25007 13.2501 7.25007C12.8359 7.25007 12.5001 7.58586 12.5001 8.00007V11.25C12.5001 12.4927 11.4927 13.5 10.2501 13.5H4.75C3.50736 13.5 2.5 12.4927 2.5 11.25V5.75007C2.5 4.50743 3.50736 3.50007 4.75 3.50007H7C7.41421 3.50007 7.75 3.16428 7.75 2.75007C7.75 2.33586 7.41421 2.00007 7 2.00007H4.75Z" fill="#5263FF"/>
<path d="M12.1339 5.19461L10.7197 3.7804L6.52812 7.97196C5.77185 8.72823 5.25635 9.69144 5.0466 10.7402C5.03144 10.816 5.09828 10.8828 5.17409 10.8677C6.22285 10.6579 7.18606 10.1424 7.94233 9.38618L12.1339 5.19461Z" fill="#5263FF"/>
<path d="M13.4559 1.45679C13.2663 1.39356 13.0571 1.44293 12.9158 1.58431L11.7803 2.71974L13.1945 4.13395L14.33 2.99852C14.4714 2.85714 14.5207 2.64802 14.4575 2.45834C14.2999 1.98547 13.9288 1.61441 13.4559 1.45679Z" fill="#5263FF"/>
</svg>
