<svg width="16" height="16" viewBox="0 0 16 16" fill="none" xmlns="http://www.w3.org/2000/svg">
<g id="Frame">
<path id="Vector" d="M11.1713 1.99795L9.838 3.33128H3.33333V12.6646H12.6667V6.15928L14 4.82595V13.3313C14 13.5081 13.9298 13.6777 13.8047 13.8027C13.6797 13.9277 13.5101 13.9979 13.3333 13.9979H2.66667C2.48986 13.9979 2.32029 13.9277 2.19526 13.8027C2.07024 13.6777 2 13.5081 2 13.3313V2.66462C2 2.4878 2.07024 2.31824 2.19526 2.19321C2.32029 2.06819 2.48986 1.99795 2.66667 1.99795H11.1713ZM13.6567 1.39795L14.6 2.34062L8.47133 8.46928L7.53 8.47062L7.52867 7.52662L13.6567 1.39795Z" fill="#030712"/>
</g>
</svg>
