<svg width="12" height="12" viewBox="0 0 12 12" fill="none" xmlns="http://www.w3.org/2000/svg">
<path fillRule="evenodd" clipRule="evenodd" d="M0.625 6C0.625 8.96853 3.03147 11.375 6 11.375C8.96853 11.375 11.375 8.96853 11.375 6C11.375 3.03147 8.96853 0.625 6 0.625C3.03147 0.625 0.625 3.03147 0.625 6ZM8.33786 4.13143C8.54142 4.31802 8.55517 4.63431 8.36858 4.83787L5.61858 7.83786C5.52642 7.9384 5.39721 7.99692 5.26086 7.99988C5.12452 8.00285 4.99288 7.94999 4.89645 7.85356L3.64645 6.60356C3.45118 6.40829 3.45118 6.09171 3.64645 5.89645C3.84171 5.70119 4.15829 5.70119 4.35355 5.89645L5.23429 6.77719L7.63142 4.16214C7.81802 3.95858 8.1343 3.94483 8.33786 4.13143Z" fill="#34A853"/>
</svg>
