<svg width="62" height="62" viewBox="0 0 62 62" fill="none" xmlns="http://www.w3.org/2000/svg">
<circle opacity="0.1" cx="31" cy="31" r="31" fill="white"/>
<g clip-path="url(#clip0_15533_15708)">
<path  transform="translate(17 17)" fillRule="evenodd" clipRule="evenodd" d="M14.0002 1.45825C7.07359 1.45825 1.4585 7.07335 1.4585 13.9999C1.4585 20.9265 7.07359 26.5416 14.0002 26.5416C20.9268 26.5416 26.5418 20.9265 26.5418 13.9999C26.5418 7.07335 20.9268 1.45825 14.0002 1.45825ZM18.6675 9.33325C18.6675 9.02376 18.5446 8.72695 18.3257 8.50814C18.1068 8.28933 17.8099 8.16647 17.5004 8.16658L10.5004 8.16925C10.0426 8.16942 9.6272 8.43735 9.43823 8.85433C9.24925 9.27133 9.32163 9.76031 9.62331 10.1047L13.0335 13.9974L9.62222 17.8954C9.3207 18.2399 9.24859 18.7291 9.43785 19.146C9.62712 19.5629 10.0428 19.8306 10.5007 19.8305L17.501 19.8275C18.1452 19.8273 18.6672 19.3051 18.6672 18.6609V16.3303H16.3338V17.4947L13.0724 17.4961L16.1348 13.9967L13.0731 10.5016L16.3342 10.5004V11.6637H18.6675V9.33325Z" fill="white"/>
</g>
</svg>
