<svg width="41" height="42" viewBox="0 0 41 42" fill="none" xmlns="http://www.w3.org/2000/svg">
<rect y="0.5" width="41" height="41" rx="20.5" fill="#DBDFFF"/>
<path d="M29.25 21.4375V12.6875H11.75V27.5625H21.375" stroke="#5263FF" stroke-width="1.5" stroke-linejoin="round"/>
<path d="M15.25 16.625L20.5 20.125L25.75 16.625" stroke="#5263FF" stroke-width="1.5"/>
<path d="M23.125 24.5L22.5947 23.9697L22.0643 24.5L22.5947 25.0303L23.125 24.5ZM23.125 25.25H25.75V23.75H23.125V25.25ZM28.5 28V29.3125H30V28H28.5ZM25.75 25.25C27.2688 25.25 28.5 26.4812 28.5 28H30C30 25.6528 28.0972 23.75 25.75 23.75V25.25ZM22.5947 25.0303L24.7822 27.2178L25.8428 26.1572L23.6553 23.9697L22.5947 25.0303ZM24.7822 21.7822L22.5947 23.9697L23.6553 25.0303L25.8428 22.8428L24.7822 21.7822Z" fill="#5263FF"/>
</svg>
