<svg width="18" height="18" viewBox="0 0 18 18" fill="none" xmlns="http://www.w3.org/2000/svg">
<g id="calendar-setting-01">
<g id="elements">
<path id="Union" d="M12.375 1.125V2.25H5.625V1.125H4.125V2.25H2.25C1.93934 2.25 1.6875 2.50184 1.6875 2.8125V16.1437C1.6875 16.5476 2.01489 16.875 2.41875 16.875H8.25V15.4125H3.15V7.125H14.85V9.01875H16.3125V2.8125C16.3125 2.50184 16.0607 2.25 15.75 2.25H13.875V1.125H12.375Z" fill="#030712"/>
<path id="Vector (Stroke)" fillRule="evenodd" clipRule="evenodd" d="M12.1269 10.6742C11.6754 10.7896 11.2648 11.0068 10.9227 11.3001L10.3126 10.8645L9.44116 12.0855L10.071 12.535C9.96337 12.8371 9.90466 13.162 9.90466 13.5C9.90466 13.838 9.96338 14.1629 10.0711 14.4651L9.44123 14.9145L10.3125 16.1355L10.9228 15.7C11.2648 15.9933 11.6754 16.2104 12.1269 16.3258V16.875H13.6269V16.3258C14.0784 16.2104 14.489 15.9933 14.8309 15.7L15.4412 16.1355L16.3125 14.9145L15.6827 14.4651C15.7904 14.1629 15.8491 13.838 15.8491 13.5C15.8491 13.162 15.7904 12.8371 15.6827 12.535L16.3126 12.0855L15.4412 10.8645L14.831 11.3001C14.489 11.0068 14.0784 10.7896 13.6269 10.6742V10.125H12.1269V10.6742ZM12.8769 12.0804C12.3587 12.0804 11.9085 12.3372 11.6467 12.7199C11.493 12.9445 11.4047 13.2117 11.4047 13.5C11.4047 13.7883 11.493 14.0556 11.6467 14.2802C11.9085 14.6628 12.3587 14.9196 12.8769 14.9196C13.395 14.9196 13.8452 14.6628 14.107 14.2802C14.2607 14.0556 14.3491 13.7883 14.3491 13.5C14.3491 13.2117 14.2607 12.9445 14.1071 12.7199C13.8453 12.3372 13.3951 12.0804 12.8769 12.0804Z" fill="#030712"/>
</g>
</g>
</svg>
