<svg width="24" height="24" viewBox="0 0 24 24" fill="none" xmlns="http://www.w3.org/2000/svg">
<circle cx="12" cy="12" r="12" fill="#F0F1FF"/>
<path fillRule="evenodd" clipRule="evenodd" d="M6.75 7.625C6.50838 7.625 6.3125 7.82088 6.3125 8.0625V16.2292C6.3125 16.4708 6.50838 16.6667 6.75 16.6667L17.25 16.6667C17.366 16.6667 17.4773 16.6206 17.5594 16.5385C17.6414 16.4565 17.6875 16.3452 17.6875 16.2292V8.0625C17.6875 7.82088 17.4916 7.625 17.25 7.625H6.75ZM12.5833 14.4788V10.3955H11.4166V14.4788H12.5833ZM10.25 14.4788V12.1455H9.08331V14.4788H10.25ZM14.9166 14.4788V12.7288H13.75V14.4788H14.9166Z" fill="#5263FF"/>
</svg>
