<svg width="30" height="30" viewBox="0 0 30 30" fill="none" xmlns="http://www.w3.org/2000/svg">
<circle cx="15" cy="15" r="15" fill="#5263FF"/>
<path fillRule="evenodd" clipRule="evenodd" d="M8.4375 9.53137C8.13547 9.53137 7.89062 9.77622 7.89062 10.0782V20.2866C7.89062 20.5886 8.13547 20.8335 8.4375 20.8335L21.5625 20.8335C21.7075 20.8335 21.8466 20.7758 21.9492 20.6733C22.0518 20.5707 22.1094 20.4316 22.1094 20.2866V10.0782C22.1094 9.77622 21.8645 9.53137 21.5625 9.53137H8.4375ZM15.7292 18.0992V12.995H14.2708V18.0992H15.7292ZM12.8125 18.0992V15.1825H11.3542V18.0992H12.8125ZM18.6458 18.0992V15.9117H17.1875V18.0992H18.6458Z" fill="white"/>
</svg>
