<svg width="16" height="16" viewBox="0 0 16 16" fill="none" xmlns="http://www.w3.org/2000/svg">
<g clip-path="url(#clip0_13319_10948)">
<path fillRule="evenodd" clipRule="evenodd" d="M0.833252 7.99967C0.833252 4.04163 4.04188 0.833008 7.99992 0.833008C11.958 0.833008 15.1666 4.04163 15.1666 7.99967C15.1666 11.9577 11.958 15.1663 7.99992 15.1663C4.04188 15.1663 0.833252 11.9577 0.833252 7.99967ZM4.83325 5.99967C4.83325 5.35534 5.35559 4.83301 5.99992 4.83301C6.64425 4.83301 7.16659 5.35534 7.16659 5.99967C7.16659 6.64401 6.64425 7.16634 5.99992 7.16634C5.35559 7.16634 4.83325 6.64401 4.83325 5.99967ZM8.83325 9.99967C8.83325 9.35534 9.35559 8.83301 9.99992 8.83301C10.6443 8.83301 11.1666 9.35534 11.1666 9.99967C11.1666 10.644 10.6443 11.1663 9.99992 11.1663C9.35559 11.1663 8.83325 10.644 8.83325 9.99967ZM5.80471 11.1378L11.138 5.80446L10.1952 4.86165L4.8619 10.195L5.80471 11.1378Z" fill="#FAA422"/>
</g>
<defs>
<clipPath id="clip0_13319_10948">
<rect width="16" height="16" fill="white"/>
</clipPath>
</defs>
</svg>
