<svg width="16" height="16" viewBox="0 0 16 16" fill="none" xmlns="http://www.w3.org/2000/svg">
<path fillRule="evenodd" clipRule="evenodd" d="M5.96999 1.44152C7.27202 1.40881 8.56132 1.40881 9.86335 1.44153L9.90212 1.4425C10.9187 1.46803 11.7367 1.48857 12.3922 1.60274C13.0785 1.72226 13.6363 1.95152 14.1076 2.42455C14.5769 2.89561 14.8049 3.4454 14.9222 4.1206C15.0338 4.76352 15.0508 5.56154 15.0719 6.55011L15.0727 6.58926C15.0778 6.82578 15.0805 7.0831 15.0814 7.3464C15.0832 7.90217 15.0842 8.18006 14.9457 8.26895C14.8072 8.35784 14.5135 8.22212 13.926 7.95067C13.4162 7.71509 12.8485 7.58366 12.25 7.58366C11.1605 7.58366 10.1702 8.02139 9.45051 8.72659C8.71171 9.45055 8.25 10.4646 8.25 11.5837C8.25 11.9951 8.31211 12.392 8.42746 12.7655C8.5802 13.2601 8.65658 13.5074 8.56647 13.6293C8.47636 13.7513 8.25097 13.7509 7.80018 13.7502C7.19117 13.7493 6.58199 13.7412 5.96999 13.7258L5.93118 13.7248C4.91465 13.6993 4.09667 13.6788 3.44113 13.5646C2.7548 13.4451 2.19699 13.2158 1.72575 12.7428C1.25648 12.2717 1.02843 11.7219 0.911175 11.0467C0.799529 10.4038 0.782524 9.60579 0.761459 8.61723L0.760624 8.57807C0.746459 7.91384 0.746459 7.25348 0.760623 6.58925L0.761458 6.55009C0.782522 5.56153 0.799526 4.76351 0.911173 4.12059C1.02843 3.44539 1.25648 2.8956 1.72574 2.42454C2.19699 1.95151 2.7548 1.72225 3.44113 1.60273C4.09668 1.48856 4.91466 1.46802 5.93122 1.4425L5.96999 1.44152ZM4.83788 4.81992C4.60018 4.67938 4.29355 4.75815 4.15301 4.99585C4.01247 5.23356 4.09124 5.54018 4.32894 5.68072L6.29029 6.84034C6.87085 7.1836 7.37182 7.41699 7.91675 7.41699C8.46167 7.41699 8.96264 7.1836 9.54321 6.84034L11.5045 5.68072C11.7423 5.54018 11.821 5.23356 11.6805 4.99585C11.5399 4.75815 11.2333 4.67938 10.9956 4.81992L9.03427 5.97954C8.47136 6.31235 8.17208 6.41699 7.91675 6.41699C7.66141 6.41699 7.36213 6.31235 6.79923 5.97954L4.83788 4.81992Z" fill="#EA4334"/>
<path fillRule="evenodd" clipRule="evenodd" d="M11.6651 10.0226L13.8113 12.1688C13.8795 11.9869 13.9167 11.7899 13.9167 11.584C13.9167 10.6635 13.1705 9.91732 12.25 9.91732C12.044 9.91732 11.847 9.95449 11.6651 10.0226ZM12.8832 13.1263L10.7076 10.9508C10.6274 11.1459 10.5833 11.3597 10.5833 11.584C10.5833 12.5045 11.3295 13.2507 12.25 13.2507C12.4743 13.2507 12.688 13.2065 12.8832 13.1263ZM10.1504 9.44116C10.6908 8.9116 11.4328 8.58398 12.25 8.58398C13.9069 8.58398 15.25 9.92713 15.25 11.584C15.25 12.4012 14.9224 13.1432 14.3928 13.6836C13.8491 14.2385 13.0893 14.584 12.25 14.584C10.5931 14.584 9.25 13.2408 9.25 11.584C9.25 10.7447 9.59553 9.98489 10.1504 9.44116Z" fill="#EA4334"/>
</svg>
