<svg width="20" height="21" viewBox="0 0 20 21" fill="none" xmlns="http://www.w3.org/2000/svg">
<path d="M2.91699 8.83341C2.91699 5.69072 2.91699 4.11937 3.95432 3.14306C4.99165 2.16675 6.66121 2.16675 10.0003 2.16675H10.6443C13.3619 2.16675 14.7208 2.16675 15.6644 2.83161C15.9348 3.0221 16.1748 3.24802 16.3772 3.50249C17.0837 4.39064 17.0837 5.66955 17.0837 8.22735V10.3486C17.0837 12.8179 17.0837 14.0525 16.6929 15.0386C16.0646 16.6239 14.736 17.8743 13.0517 18.4656C12.004 18.8334 10.6921 18.8334 8.06851 18.8334C6.56928 18.8334 5.81967 18.8334 5.22097 18.6232C4.25849 18.2854 3.49928 17.5708 3.1403 16.665C2.91699 16.1015 2.91699 15.396 2.91699 13.9849V8.83341Z" stroke="#8C8E9C" stroke-width="1.36364" stroke-linejoin="round"/>
<path d="M17.0833 10.4998C17.0833 12.0339 15.8397 13.2775 14.3056 13.2775C13.7507 13.2775 13.0966 13.1803 12.5572 13.3249C12.0779 13.4533 11.7035 13.8277 11.5751 14.307C11.4306 14.8464 11.5278 15.5005 11.5278 16.0553C11.5278 17.5894 10.2841 18.8331 8.75 18.8331" stroke="#8C8E9C" stroke-width="1.36364" stroke-linecap="round" stroke-linejoin="round"/>
<path d="M6.66699 6.33374H12.5003" stroke="#8C8E9C" stroke-width="1.36364" stroke-linecap="round" stroke-linejoin="round"/>
<path d="M6.66699 9.6665H9.16699" stroke="#8C8E9C" stroke-width="1.36364" stroke-linecap="round" stroke-linejoin="round"/>
</svg>
