<svg width="36" height="36" viewBox="0 0 36 36" fill="none" xmlns="http://www.w3.org/2000/svg">
<circle cx="18" cy="18" r="18" fill="#5263FF"/>
<path d="M23.3559 13.7036C23.6533 14.2742 23.4535 14.9896 22.9098 15.3016C21.3711 16.1847 19.9261 18.0333 18.8228 19.8062C18.2849 20.6705 17.8534 21.4752 17.5566 22.0636C17.4085 22.3572 17.2947 22.5954 17.2188 22.7585L17.1085 23.0004C16.9352 23.398 16.566 23.6624 16.1499 23.6865C15.7337 23.7106 15.3391 23.4906 15.1251 23.1152C14.7765 22.5036 14.2225 21.9452 13.7091 21.5193C13.4597 21.3123 13.2351 21.1491 13.0749 21.039L12.8389 20.8841C12.3009 20.5618 12.1136 19.8429 12.4205 19.2782C12.7275 18.7133 13.4128 18.5165 13.9511 18.8387L14.3045 19.0691C14.509 19.2096 14.7893 19.4135 15.1009 19.672C15.339 19.8695 15.6052 20.107 15.874 20.3807C16.1622 19.8374 16.5223 19.196 16.9439 18.5186C18.0846 16.6855 19.7813 14.413 21.8331 13.2355C22.3768 12.9235 23.0586 13.1331 23.3559 13.7036Z" fill="white"/>
</svg>
