<svg width="18" height="18" viewBox="0 0 18 18" fill="none" xmlns="http://www.w3.org/2000/svg">
<g id="filter">
<path id="Vector" d="M7.125 10.5C8.57475 10.5 9.75 11.6753 9.75 13.125C9.75 14.5747 8.57475 15.75 7.125 15.75C5.67525 15.75 4.5 14.5747 4.5 13.125C4.5 11.6753 5.67525 10.5 7.125 10.5Z" stroke="#030712" stroke-width="1.5" stroke-linecap="round" stroke-linejoin="round"/>
<path id="Vector_2" d="M10.875 2.25C12.3247 2.25 13.5 3.42525 13.5 4.875C13.5 6.32475 12.3247 7.5 10.875 7.5C9.42525 7.5 8.25 6.32475 8.25 4.875C8.25 3.42525 9.42525 2.25 10.875 2.25Z" stroke="#030712" stroke-width="1.5" stroke-linecap="round" stroke-linejoin="round"/>
<path id="Vector_3" d="M15.75 4.875H13.5" stroke="#030712" stroke-width="1.5" stroke-linecap="round" stroke-linejoin="round"/>
<path id="Vector_4" d="M8.25 4.875L2.25 4.875" stroke="#030712" stroke-width="1.5" stroke-linecap="round" stroke-linejoin="round"/>
<path id="Vector_5" d="M15.75 13.125L9.75 13.125" stroke="#030712" stroke-width="1.5" stroke-linecap="round" stroke-linejoin="round"/>
<path id="Vector_6" d="M4.5 13.125H2.25" stroke="#030712" stroke-width="1.5" stroke-linecap="round" stroke-linejoin="round"/>
</g>
</svg>
