<svg width="24" height="25" viewBox="0 0 24 25" fill="none" xmlns="http://www.w3.org/2000/svg">
<path d="M18.353 14.5H19C19.943 14.5 20.414 14.5 20.707 14.207C21 13.914 21 13.443 21 12.5V11.5C21 9.614 21 8.672 20.414 8.086C19.828 7.5 18.886 7.5 17 7.5H7C5.114 7.5 4.172 7.5 3.586 8.086C3 8.672 3 9.614 3 11.5V13.5C3 13.971 3 14.207 3.146 14.354C3.293 14.5 3.53 14.5 4 14.5H5.647" stroke="#8C8E9C" stroke-width="1.4"/>
<path d="M18 7.5V6.38C18 5.372 18 4.868 17.804 4.483C17.6314 4.14411 17.3559 3.86861 17.017 3.696C16.632 3.5 16.128 3.5 15.12 3.5H8.88C7.872 3.5 7.368 3.5 6.983 3.696C6.64411 3.86861 6.36861 4.14411 6.196 4.483C6 4.868 6 5.372 6 6.38V7.5M6 20.806V12.5C6 11.557 6 11.086 6.293 10.793C6.586 10.5 7.057 10.5 8 10.5H16C16.943 10.5 17.414 10.5 17.707 10.793C18 11.086 18 11.557 18 12.5V20.806C18 21.123 18 21.281 17.896 21.356C17.792 21.431 17.642 21.381 17.342 21.281L15.158 20.553C15.08 20.527 15.041 20.513 15 20.513C14.959 20.513 14.92 20.527 14.842 20.553L12.158 21.447C12.08 21.473 12.041 21.487 12 21.487C11.959 21.487 11.92 21.473 11.842 21.447L9.158 20.553C9.08 20.527 9.041 20.513 9 20.513C8.959 20.513 8.92 20.527 8.842 20.553L6.658 21.281C6.358 21.381 6.208 21.431 6.104 21.356C6 21.281 6 21.123 6 20.806Z" stroke="#8C8E9C" stroke-width="1.4"/>
<path d="M10 14.5H13M10 17.5H14.5" stroke="#8C8E9C" stroke-width="1.4" stroke-linecap="round"/>
</svg>
