<svg width="111" height="90" viewBox="0 0 111 90" fill="none" xmlns="http://www.w3.org/2000/svg">
<path d="M53.8008 56.9998C66.2776 56.9998 76.4439 46.8756 76.4439 34.4408C76.4018 21.9641 66.2776 11.8398 53.8008 11.8398C41.2821 11.8398 31.1578 21.9641 31.1578 34.3988C31.1578 46.8756 41.2821 56.9998 53.8008 56.9998Z" fill="#DBDFFF"/>
<g filter="url(#filter0_d_13727_4768)">
<path d="M88.5094 50.1319C88.5094 53.778 85.5608 56.7266 81.883 56.7266C81.8196 56.7266 81.2806 56.7266 77.3175 56.7266C74.5591 56.7266 70.1521 56.7266 63.1136 56.7266H59.7528C55.3458 56.8217 51.8265 53.3024 51.8265 49.054C51.8265 44.7738 55.3775 41.2228 59.8479 41.4447C63.6843 29.4602 81.2489 31.1406 82.739 43.5373C86.0364 43.9494 88.5094 46.7395 88.5094 50.1319Z" fill="url(#paint0_linear_13727_4768)"/>
</g>
<path d="M81.8828 56.7264C85.5289 56.7264 88.5092 53.7779 88.5092 50.1318C88.5092 46.4857 85.5289 43.5371 81.8828 43.5371C78.2368 43.5371 75.2565 46.4857 75.2565 50.1318C75.2565 53.7779 78.2368 56.7264 81.8828 56.7264Z" fill="url(#paint1_linear_13727_4768)"/>
<path d="M71.0715 56.7899C77.5711 56.7899 82.8658 51.5268 82.8658 45.0272C82.8658 38.5277 77.5711 33.2646 71.0715 33.2646C64.572 33.2646 59.2772 38.5277 59.2772 45.0272C59.2772 51.5268 64.5403 56.7899 71.0715 56.7899Z" fill="url(#paint2_linear_13727_4768)"/>
<g filter="url(#filter1_d_13727_4768)">
<path d="M53.4424 25.4584C53.4424 28.5836 50.9151 31.1109 47.7627 31.1109C47.7083 31.1109 47.2463 31.1109 43.8494 31.1109C41.4851 31.1109 37.7076 31.1109 31.6746 31.1109H28.794C25.0165 31.1925 22 28.1759 22 24.5344C22 20.8656 25.0437 17.822 28.8755 18.0122C32.1638 7.73973 47.2192 9.18004 48.4964 19.8058C51.3227 20.1591 53.4424 22.5505 53.4424 25.4584Z" fill="url(#paint3_linear_13727_4768)"/>
</g>
<path d="M47.7628 31.1103C50.888 31.1103 53.4425 28.583 53.4425 25.4577C53.4425 22.3325 50.888 19.8052 47.7628 19.8052C44.6375 19.8052 42.083 22.3325 42.083 25.4577C42.083 28.583 44.6375 31.1103 47.7628 31.1103Z" fill="url(#paint4_linear_13727_4768)"/>
<path d="M38.4956 31.1645C44.0667 31.1645 48.605 26.6533 48.605 21.0822C48.605 15.5112 44.0667 11 38.4956 11C32.9246 11 28.3862 15.5112 28.3862 21.0822C28.3862 26.6533 32.8974 31.1645 38.4956 31.1645Z" fill="url(#paint5_linear_13727_4768)"/>
<g filter="url(#filter2_d_13727_4768)">
<path d="M72.7382 26.337C72.7382 28.2903 71.1586 29.8699 69.1883 29.8699C69.1544 29.8699 68.8656 29.8699 66.7425 29.8699C65.2648 29.8699 62.9039 29.8699 59.1333 29.8699H57.3329C54.972 29.9208 53.0867 28.0355 53.0867 25.7595C53.0867 23.4666 54.989 21.5643 57.3838 21.6832C59.439 15.2629 68.8486 16.1631 69.6469 22.8042C71.4134 23.025 72.7382 24.5196 72.7382 26.337Z" fill="url(#paint6_linear_13727_4768)"/>
</g>
<path d="M69.1885 29.8704C71.1418 29.8704 72.7384 28.2908 72.7384 26.3375C72.7384 24.3843 71.1418 22.8047 69.1885 22.8047C67.2353 22.8047 65.6387 24.3843 65.6387 26.3375C65.6387 28.2908 67.2353 29.8704 69.1885 29.8704Z" fill="url(#paint7_linear_13727_4768)"/>
<path d="M63.3966 29.9041C66.8785 29.9041 69.715 27.0846 69.715 23.6027C69.715 20.1208 66.8785 17.3013 63.3966 17.3013C59.9147 17.3013 57.0782 20.1208 57.0782 23.6027C57.0782 27.0846 59.8977 29.9041 63.3966 29.9041Z" fill="url(#paint8_linear_13727_4768)"/>
<path d="M76.9902 26.5429C77.9414 26.5429 78.7126 25.7718 78.7126 24.8205C78.7126 23.8693 77.9414 23.0981 76.9902 23.0981C76.039 23.0981 75.2678 23.8693 75.2678 24.8205C75.2678 25.7718 76.039 26.5429 76.9902 26.5429Z" fill="#EAEEF9"/>
<path d="M79.5107 19.8222C80.1604 19.8222 80.687 19.2956 80.687 18.646C80.687 17.9964 80.1604 17.4697 79.5107 17.4697C78.8611 17.4697 78.3345 17.9964 78.3345 18.646C78.3345 19.2956 78.8611 19.8222 79.5107 19.8222Z" fill="#EAEEF9"/>
<path d="M29.2255 49.5643C30.432 49.5643 31.41 48.5863 31.41 47.3798C31.41 46.1733 30.432 45.1953 29.2255 45.1953C28.019 45.1953 27.041 46.1733 27.041 47.3798C27.041 48.5863 28.019 49.5643 29.2255 49.5643Z" fill="#EAEEF9"/>
<g filter="url(#filter3_d_13727_4768)">
<path d="M66.1254 26.3102L66.4185 49.9003C66.4185 50.7062 65.7591 51.3289 64.9533 51.3289H41.9492C41.1434 51.3289 40.484 50.6696 40.484 49.9003V19.5702C40.484 18.7643 41.1434 18.1416 41.9492 18.1416H58.6162L66.1254 26.3102Z" fill="url(#paint9_linear_13727_4768)"/>
</g>
<path d="M51.4852 46.2878H51.0139C50.9114 46.2878 50.8295 46.1923 50.8295 46.0777C50.8295 45.9632 50.9114 45.8677 51.0139 45.8677H51.4852C51.5877 45.8677 51.6697 45.9632 51.6697 46.0777C51.6697 46.2114 51.5877 46.2878 51.4852 46.2878Z" fill="#CED7E2"/>
<path d="M48.8508 46.2878H44.4066C44.2408 46.2878 44.1082 46.1923 44.1082 46.0777C44.1082 45.9632 44.2408 45.8677 44.4066 45.8677H48.8508C49.0166 45.8677 49.1493 45.9632 49.1493 46.0777C49.1493 46.2114 49.0166 46.2878 48.8508 46.2878Z" fill="#D5DDEA"/>
<path d="M55.4031 23.183H44.5758C44.324 23.183 44.1082 22.9891 44.1082 22.7629C44.1082 22.5367 44.324 22.3428 44.5758 22.3428H55.4031C55.6549 22.3428 55.8708 22.5367 55.8708 22.7629C55.8708 22.9891 55.6549 23.183 55.4031 23.183Z" fill="#D5DDEA"/>
<path d="M48.7202 25.703H44.5729C44.3227 25.703 44.1082 25.5091 44.1082 25.2829C44.1082 25.0567 44.3227 24.8628 44.5729 24.8628H48.6845C48.9348 24.8628 49.1493 25.0567 49.1493 25.2829C49.1493 25.5091 48.9348 25.703 48.7202 25.703Z" fill="#D5DDEA"/>
<path d="M58.705 18.1416V24.848C58.705 25.7899 59.5165 26.5435 60.4386 26.5435L66.1099 26.3334" fill="#D5DDEA"/>
<path d="M49.6828 30.1197C50.7454 29.4386 51.9987 29.0571 53.3337 29.0571C56.9847 29.0571 59.9545 31.9997 59.9545 35.6506C59.9545 39.3016 56.9847 42.2442 53.3337 42.2442C49.6828 42.2442 46.713 39.3016 46.713 35.6506C46.6585 33.3347 47.8573 31.3185 49.6828 30.1197Z" fill="#5263FF"/>
<path d="M53.8096 38.513L55.7035 36.443C55.9263 36.1994 55.9263 35.7732 55.7035 35.5297C55.4807 35.2862 55.0907 35.2862 54.8401 35.5297L53.9767 36.443V33.0944C53.9767 32.7291 53.6982 32.4247 53.364 32.4247C53.0297 32.4247 52.7512 32.7291 52.7512 33.0944V36.443L51.8878 35.5297C51.665 35.2862 51.2751 35.2862 51.0244 35.5297C50.8852 35.6819 50.8295 35.8341 50.8295 35.9863C50.8295 36.1385 50.8852 36.3516 51.0244 36.443L52.9183 38.513C53.0019 38.6043 53.1968 38.7261 53.3361 38.7261C53.4754 38.7261 53.726 38.6652 53.8096 38.513Z" fill="white"/>
<g filter="url(#filter4_d_13727_4768)">
<path d="M46.6929 40.1998C46.6929 42.1531 45.1133 43.7327 43.1431 43.7327C43.1091 43.7327 42.8203 43.7327 40.6972 43.7327C39.2195 43.7327 36.8586 43.7327 33.088 43.7327H31.2876C28.9267 43.7836 27.0414 41.8983 27.0414 39.6223C27.0414 37.3294 28.9437 35.4271 31.3386 35.5459C33.3937 29.1257 42.8034 30.0259 43.6017 36.667C45.3681 36.8878 46.6929 38.3824 46.6929 40.1998Z" fill="url(#paint10_linear_13727_4768)"/>
</g>
<path d="M43.143 43.7332C45.0962 43.7332 46.6928 42.1536 46.6928 40.2003C46.6928 38.2471 45.0962 36.6675 43.143 36.6675C41.1897 36.6675 39.5931 38.2471 39.5931 40.2003C39.5931 42.1536 41.1897 43.7332 43.143 43.7332Z" fill="url(#paint11_linear_13727_4768)"/>
<path d="M37.3512 43.7669C40.8331 43.7669 43.6696 40.9474 43.6696 37.4655C43.6696 33.9836 40.8331 31.1641 37.3512 31.1641C33.8693 31.1641 31.0328 33.9836 31.0328 37.4655C31.0328 40.9474 33.8523 43.7669 37.3512 43.7669Z" fill="url(#paint12_linear_13727_4768)"/>
<defs>
<filter id="filter0_d_13727_4768" x="29.8265" y="22.2935" width="80.6829" height="67.4351" filterUnits="userSpaceOnUse" color-interpolation-filters="sRGB">
<feFlood flood-opacity="0" result="BackgroundImageFix"/>
<feColorMatrix in="SourceAlpha" type="matrix" values="0 0 0 0 0 0 0 0 0 0 0 0 0 0 0 0 0 0 127 0" result="hardAlpha"/>
<feOffset dy="11"/>
<feGaussianBlur stdDeviation="11"/>
<feColorMatrix type="matrix" values="0 0 0 0 0.397708 0 0 0 0 0.47749 0 0 0 0 0.575 0 0 0 0.27 0"/>
<feBlend mode="normal" in2="BackgroundImageFix" result="effect1_dropShadow_13727_4768"/>
<feBlend mode="normal" in="SourceGraphic" in2="effect1_dropShadow_13727_4768" result="shape"/>
</filter>
<filter id="filter1_d_13727_4768" x="0" y="0.0253906" width="75.4424" height="64.0874" filterUnits="userSpaceOnUse" color-interpolation-filters="sRGB">
<feFlood flood-opacity="0" result="BackgroundImageFix"/>
<feColorMatrix in="SourceAlpha" type="matrix" values="0 0 0 0 0 0 0 0 0 0 0 0 0 0 0 0 0 0 127 0" result="hardAlpha"/>
<feOffset dy="11"/>
<feGaussianBlur stdDeviation="11"/>
<feColorMatrix type="matrix" values="0 0 0 0 0.397708 0 0 0 0 0.47749 0 0 0 0 0.575 0 0 0 0.27 0"/>
<feBlend mode="normal" in2="BackgroundImageFix" result="effect1_dropShadow_13727_4768"/>
<feBlend mode="normal" in="SourceGraphic" in2="effect1_dropShadow_13727_4768" result="shape"/>
</filter>
<filter id="filter2_d_13727_4768" x="31.0867" y="6.31641" width="63.6515" height="56.5547" filterUnits="userSpaceOnUse" color-interpolation-filters="sRGB">
<feFlood flood-opacity="0" result="BackgroundImageFix"/>
<feColorMatrix in="SourceAlpha" type="matrix" values="0 0 0 0 0 0 0 0 0 0 0 0 0 0 0 0 0 0 127 0" result="hardAlpha"/>
<feOffset dy="11"/>
<feGaussianBlur stdDeviation="11"/>
<feColorMatrix type="matrix" values="0 0 0 0 0.397708 0 0 0 0 0.47749 0 0 0 0 0.575 0 0 0 0.27 0"/>
<feBlend mode="normal" in2="BackgroundImageFix" result="effect1_dropShadow_13727_4768"/>
<feBlend mode="normal" in="SourceGraphic" in2="effect1_dropShadow_13727_4768" result="shape"/>
</filter>
<filter id="filter3_d_13727_4768" x="18.484" y="7.1416" width="69.9344" height="77.1875" filterUnits="userSpaceOnUse" color-interpolation-filters="sRGB">
<feFlood flood-opacity="0" result="BackgroundImageFix"/>
<feColorMatrix in="SourceAlpha" type="matrix" values="0 0 0 0 0 0 0 0 0 0 0 0 0 0 0 0 0 0 127 0" result="hardAlpha"/>
<feOffset dy="11"/>
<feGaussianBlur stdDeviation="11"/>
<feColorMatrix type="matrix" values="0 0 0 0 0.397708 0 0 0 0 0.47749 0 0 0 0 0.575 0 0 0 0.27 0"/>
<feBlend mode="normal" in2="BackgroundImageFix" result="effect1_dropShadow_13727_4768"/>
<feBlend mode="normal" in="SourceGraphic" in2="effect1_dropShadow_13727_4768" result="shape"/>
</filter>
<filter id="filter4_d_13727_4768" x="5.04138" y="20.1792" width="63.6515" height="56.5547" filterUnits="userSpaceOnUse" color-interpolation-filters="sRGB">
<feFlood flood-opacity="0" result="BackgroundImageFix"/>
<feColorMatrix in="SourceAlpha" type="matrix" values="0 0 0 0 0 0 0 0 0 0 0 0 0 0 0 0 0 0 127 0" result="hardAlpha"/>
<feOffset dy="11"/>
<feGaussianBlur stdDeviation="11"/>
<feColorMatrix type="matrix" values="0 0 0 0 0.397708 0 0 0 0 0.47749 0 0 0 0 0.575 0 0 0 0.27 0"/>
<feBlend mode="normal" in2="BackgroundImageFix" result="effect1_dropShadow_13727_4768"/>
<feBlend mode="normal" in="SourceGraphic" in2="effect1_dropShadow_13727_4768" result="shape"/>
</filter>
<linearGradient id="paint0_linear_13727_4768" x1="70.168" y1="42.9777" x2="70.156" y2="56.9811" gradientUnits="userSpaceOnUse">
<stop stop-color="white"/>
<stop offset="0.9964" stop-color="#ECF0F5"/>
</linearGradient>
<linearGradient id="paint1_linear_13727_4768" x1="74.5513" y1="42.1173" x2="80.4255" y2="48.5419" gradientUnits="userSpaceOnUse">
<stop stop-color="#BCCBE1"/>
<stop offset="0.9942" stop-color="white" stop-opacity="0"/>
</linearGradient>
<linearGradient id="paint2_linear_13727_4768" x1="58.1728" y1="39.6297" x2="67.4311" y2="43.2528" gradientUnits="userSpaceOnUse">
<stop stop-color="#E2E8F0"/>
<stop offset="0.9942" stop-color="white" stop-opacity="0"/>
</linearGradient>
<linearGradient id="paint3_linear_13727_4768" x1="37.7212" y1="19.3262" x2="37.711" y2="31.3291" gradientUnits="userSpaceOnUse">
<stop stop-color="white"/>
<stop offset="0.9964" stop-color="#ECF0F5"/>
</linearGradient>
<linearGradient id="paint4_linear_13727_4768" x1="41.4786" y1="18.5882" x2="46.5136" y2="24.095" gradientUnits="userSpaceOnUse">
<stop stop-color="#BCCBE1"/>
<stop offset="0.9942" stop-color="white" stop-opacity="0"/>
</linearGradient>
<linearGradient id="paint5_linear_13727_4768" x1="27.4396" y1="16.4558" x2="35.3753" y2="19.5612" gradientUnits="userSpaceOnUse">
<stop stop-color="#E2E8F0"/>
<stop offset="0.9942" stop-color="white" stop-opacity="0"/>
</linearGradient>
<linearGradient id="paint6_linear_13727_4768" x1="62.9124" y1="22.5044" x2="62.906" y2="30.0062" gradientUnits="userSpaceOnUse">
<stop stop-color="white"/>
<stop offset="0.9964" stop-color="#ECF0F5"/>
</linearGradient>
<linearGradient id="paint7_linear_13727_4768" x1="65.2609" y1="22.0441" x2="68.4078" y2="25.4858" gradientUnits="userSpaceOnUse">
<stop stop-color="#BCCBE1"/>
<stop offset="0.9942" stop-color="white" stop-opacity="0"/>
</linearGradient>
<linearGradient id="paint8_linear_13727_4768" x1="56.4866" y1="20.7111" x2="61.4464" y2="22.652" gradientUnits="userSpaceOnUse">
<stop stop-color="#E2E8F0"/>
<stop offset="0.9942" stop-color="white" stop-opacity="0"/>
</linearGradient>
<linearGradient id="paint9_linear_13727_4768" x1="53.4428" y1="17.3739" x2="53.4428" y2="51.6867" gradientUnits="userSpaceOnUse">
<stop stop-color="#FDFEFF"/>
<stop offset="0.9964" stop-color="#ECF0F5"/>
</linearGradient>
<linearGradient id="paint10_linear_13727_4768" x1="36.8671" y1="36.3672" x2="36.8607" y2="43.869" gradientUnits="userSpaceOnUse">
<stop stop-color="white"/>
<stop offset="0.9964" stop-color="#ECF0F5"/>
</linearGradient>
<linearGradient id="paint11_linear_13727_4768" x1="39.2154" y1="35.9069" x2="42.3623" y2="39.3486" gradientUnits="userSpaceOnUse">
<stop stop-color="#BCCBE1"/>
<stop offset="0.9942" stop-color="white" stop-opacity="0"/>
</linearGradient>
<linearGradient id="paint12_linear_13727_4768" x1="30.4412" y1="34.5739" x2="35.401" y2="36.5148" gradientUnits="userSpaceOnUse">
<stop stop-color="#E2E8F0"/>
<stop offset="0.9942" stop-color="white" stop-opacity="0"/>
</linearGradient>
</defs>
</svg>
