<svg width="22" height="22" viewBox="0 0 22 22" fill="none" xmlns="http://www.w3.org/2000/svg">
<path d="M11 2.75C15.5833 2.75 19.25 6.41667 19.25 11C19.25 15.5833 15.5833 19.25 11 19.25C6.41667 19.25 2.75 15.5833 2.75 11C2.75 6.41667 6.41667 2.75 11 2.75Z" stroke="#8D9097" stroke-width="1.35" stroke-linecap="round" stroke-linejoin="round"/>
<path d="M10.7583 14.6667C10.7583 14.5451 10.7959 14.4962 10.8127 14.4794C10.8295 14.4626 10.8784 14.425 11 14.425C11.1216 14.425 11.1705 14.4626 11.1873 14.4794C11.2041 14.4962 11.2417 14.5451 11.2417 14.6667C11.2417 14.7883 11.2041 14.8372 11.1873 14.854C11.1705 14.8707 11.1216 14.9083 11 14.9083C10.8784 14.9083 10.8295 14.8707 10.8127 14.854C10.7959 14.8372 10.7583 14.7883 10.7583 14.6667Z" fill="#8D9097" stroke="#8D9097" stroke-width="1.35"/>
<path d="M11 11.9168C12.2833 11.9168 13.2917 10.9085 13.2917 9.62516C13.2917 8.34183 12.2833 7.3335 11 7.3335C9.71668 7.3335 8.70834 8.34183 8.70834 9.62516" stroke="#8D9097" stroke-width="1.35" stroke-linecap="round" stroke-linejoin="round"/>
</svg>
