<svg width="40" height="40" viewBox="0 0 40 40" fill="none" xmlns="http://www.w3.org/2000/svg">
<circle cx="20" cy="20" r="20" fill="#DBDFFF"/>
<path fillRule="evenodd" clipRule="evenodd" d="M23.8088 19.1912C22.2206 17.603 19.6456 17.603 18.0574 19.1912L17.8505 19.3981C17.46 19.7886 16.8268 19.7886 16.4363 19.3981C16.0458 19.0076 16.0458 18.3744 16.4363 17.9839L16.6432 17.777C19.0125 15.4077 22.8538 15.4077 25.2231 17.777C27.5923 20.1462 27.5923 23.9875 25.2231 26.3568L22.3568 29.2231C19.9875 31.5923 16.1462 31.5923 13.777 29.2231C11.4077 26.8538 11.4077 23.0125 13.777 20.6432L14.2413 20.1789C14.6318 19.7883 15.265 19.7883 15.6555 20.1789C16.046 20.5694 16.046 21.2025 15.6555 21.5931L15.1912 22.0574C13.603 23.6456 13.603 26.2206 15.1912 27.8088C16.7794 29.3971 19.3544 29.3971 20.9426 27.8088L23.8088 24.9426C25.3971 23.3544 25.3971 20.7794 23.8088 19.1912Z" fill="#5263FF"/>
<path fillRule="evenodd" clipRule="evenodd" d="M24.8088 12.1912C23.2206 10.6029 20.6456 10.6029 19.0574 12.1912L16.1912 15.0574C14.603 16.6456 14.603 19.2206 16.1912 20.8088C17.7794 22.3971 20.3544 22.3971 21.9426 20.8088L22.1495 20.6019C22.54 20.2114 23.1732 20.2114 23.5637 20.6019C23.9542 20.9924 23.9542 21.6256 23.5637 22.0161L23.3568 22.2231C20.9875 24.5923 17.1462 24.5923 14.777 22.2231C12.4077 19.8538 12.4077 16.0125 14.777 13.6432L17.6432 10.7769C20.0125 8.40768 23.8538 8.40768 26.2231 10.7769C28.5923 13.1462 28.5923 16.9875 26.2231 19.3568L25.7587 19.8211C25.3682 20.2117 24.735 20.2117 24.3445 19.8211C23.954 19.4306 23.954 18.7975 24.3445 18.4069L24.8088 17.9426C26.3971 16.3544 26.3971 13.7794 24.8088 12.1912Z" fill="#5263FF"/>
</svg>
