<svg width="252" height="52" viewBox="0 0 252 52" fill="none" xmlns="http://www.w3.org/2000/svg">
<g clip-path="url(#clip0_20316_42643)">
<path d="M69.4272 9.79838C69.4272 8.6574 68.8185 7.6031 67.8304 7.03261L57.8503 1.27061C57.1092 0.842741 56.1962 0.842741 55.4551 1.27061L53.4591 2.42301V42.8947L50.2655 40.8987V15.8357L45.3792 18.8896C44.4455 19.4732 43.8782 20.4966 43.8782 21.5978V42.458C43.8782 43.599 44.4869 44.6533 45.475 45.2238L55.4551 50.9858C56.1962 51.4136 57.1092 51.4136 57.8503 50.9858L59.8463 49.8334V9.36164L63.04 11.3577V36.4207L67.9262 33.3668C68.86 32.7832 69.4272 31.7597 69.4272 30.6586V9.79838Z" fill="#5263FF"/>
<path d="M72.6209 9.79838V34.1987L64.541 39.2487C63.6072 39.8323 63.04 40.8557 63.04 41.9568V47.9895L77.5812 39.5941C78.3223 39.1663 78.7788 38.3756 78.7788 37.5198V14.7366C78.7788 13.8808 78.3223 13.0901 77.5812 12.6622L72.6209 9.79838Z" fill="#5263FF"/>
<path d="M40.6846 42.458V18.0577L48.7645 13.0077C49.6982 12.4241 50.2655 11.4007 50.2655 10.2995V4.26685L35.7242 12.6622C34.9831 13.0901 34.5266 13.8808 34.5266 14.7366V37.5198C34.5266 38.3756 34.9831 39.1663 35.7242 39.5941L40.6846 42.458Z" fill="#5263FF"/>
</g>
<path d="M107.184 43.6756L98.0178 8.5808H105.021L112.642 39.4141H113.363L120.985 8.5808H127.988L118.822 43.6756H107.184Z" fill="white"/>
<path d="M145.625 44.3775C141.093 44.3775 137.488 43.1743 134.811 40.7678C132.133 38.3278 130.794 34.8518 130.794 30.3396V21.9168C130.794 17.4046 132.133 13.9453 134.811 11.5388C137.488 9.09887 141.093 7.87891 145.625 7.87891C150.156 7.87891 153.761 9.09887 156.439 11.5388C159.116 13.9453 160.455 17.4046 160.455 21.9168V30.3396C160.455 34.8518 159.116 38.3278 156.439 40.7678C153.761 43.1743 150.156 44.3775 145.625 44.3775ZM145.625 38.4615C148.165 38.4615 150.139 37.7429 151.547 36.3057C152.954 34.8685 153.658 32.9466 153.658 30.5401V21.7163C153.658 19.3098 152.954 17.3879 151.547 15.9507C150.139 14.5135 148.165 13.7949 145.625 13.7949C143.119 13.7949 141.145 14.5135 139.703 15.9507C138.295 17.3879 137.591 19.3098 137.591 21.7163V30.5401C137.591 32.9466 138.295 34.8685 139.703 36.3057C141.145 37.7429 143.119 38.4615 145.625 38.4615Z" fill="white"/>
<path d="M173.301 43.6756V14.5971H162.796V8.5808H190.604V14.5971H180.099V43.6756H173.301Z" fill="white"/>
<path d="M195.233 43.6756V8.5808H210.887C213.153 8.5808 215.127 8.96517 216.809 9.73392C218.491 10.5027 219.796 11.5889 220.723 12.9927C221.65 14.3965 222.113 16.051 222.113 17.9561V18.5578C222.113 20.6634 221.598 22.3681 220.568 23.6716C219.538 24.9751 218.268 25.9277 216.758 26.5293V27.4317C218.131 27.4986 219.195 27.9665 219.95 28.8355C220.706 29.6711 221.083 30.7908 221.083 32.1946V43.6756H214.286V33.1472C214.286 32.345 214.063 31.6932 213.616 31.1919C213.204 30.6905 212.501 30.4399 211.505 30.4399H202.03V43.6756H195.233ZM202.03 24.4236H210.166C211.78 24.4236 213.033 24.0058 213.925 23.1702C214.852 22.3012 215.316 21.1648 215.316 19.761V19.2597C215.316 17.8559 214.869 16.7362 213.977 15.9006C213.084 15.0316 211.814 14.5971 210.166 14.5971H202.03V24.4236Z" fill="white"/>
<defs>
<clipPath id="clip0_20316_42643">
<rect width="51.0981" height="51.0981" fill="white" transform="translate(31.1038 0.579102)"/>
</clipPath>
</defs>
</svg>
