<svg width="34" height="34" viewBox="0 0 34 34" fill="none" xmlns="http://www.w3.org/2000/svg">
<g id="mail-02">
<g id="elements">
<path id="Subtract" fillRule="evenodd" clipRule="evenodd" d="M21.1366 3.94814C18.3698 3.87862 15.63 3.87862 12.8632 3.94813L12.7808 3.9502C10.6207 4.00444 8.88245 4.04808 7.48941 4.29068C6.03095 4.54468 4.8456 5.03184 3.84421 6.03704C2.84701 7.03803 2.36241 8.20634 2.11324 9.64115C1.876 11.0073 1.83986 12.7031 1.7951 14.8038L1.79333 14.887C1.76323 16.2985 1.76323 17.7018 1.79333 19.1133L1.7951 19.1965C1.83987 21.2972 1.876 22.993 2.11325 24.3592C2.36241 25.794 2.84702 26.9623 3.84421 27.9633C4.84561 28.9685 6.03095 29.4556 7.48941 29.7096C8.88243 29.9522 10.6206 29.9959 12.7808 30.0501L12.8632 30.0522C15.63 30.1217 18.3698 30.1217 21.1366 30.0522L21.2191 30.0501C23.3792 29.9959 25.1174 29.9522 26.5104 29.7096C27.9689 29.4556 29.1542 28.9685 30.1556 27.9633C31.1528 26.9623 31.6374 25.794 31.8866 24.3592C32.1238 22.993 32.16 21.2972 32.2047 19.1965L32.2065 19.1133C32.2366 17.7018 32.2366 16.2986 32.2065 14.8871L32.2047 14.8039C32.16 12.7032 32.1238 11.0074 31.8866 9.64117C31.6374 8.20636 31.1528 7.03805 30.1556 6.03706C29.1542 5.03186 27.9689 4.5447 26.5104 4.2907C25.1174 4.0481 23.3792 4.00445 21.219 3.95021L21.1366 3.94814ZM10.4575 11.1274C9.95238 10.8287 9.3008 10.9961 9.00215 11.5012C8.7035 12.0064 8.87088 12.658 9.376 12.9566L13.5439 15.4208C14.7776 16.1502 15.8421 16.6462 17.0001 16.6462C18.158 16.6462 19.2226 16.1502 20.4563 15.4208L24.6242 12.9566C25.1293 12.658 25.2967 12.0064 24.998 11.5012C24.6994 10.9961 24.0478 10.8287 23.5427 11.1274L19.3748 13.5916C18.1786 14.2988 17.5427 14.5212 17.0001 14.5212C16.4575 14.5212 15.8215 14.2988 14.6254 13.5916L10.4575 11.1274Z" fill="#5263FF"/>
</g>
</g>
</svg>
