<svg width="20" height="20" viewBox="0 0 20 20" fill="none" xmlns="http://www.w3.org/2000/svg">
<path fillRule="evenodd" clipRule="evenodd" d="M1.04163 2.08325C1.04163 1.73807 1.32145 1.45825 1.66663 1.45825H18.3333C18.6785 1.45825 18.9583 1.73807 18.9583 2.08325V15.0071C18.6173 14.5925 18.2049 14.2388 17.74 13.9649C18.2383 13.4112 18.5416 12.6785 18.5416 11.8749C18.5416 10.149 17.1425 8.74992 15.4166 8.74992C13.6907 8.74992 12.2916 10.149 12.2916 11.8749C12.2916 12.6785 12.5949 13.4112 13.0933 13.9649C12.0287 14.5922 11.2398 15.6374 10.9522 16.8749H1.66663C1.32145 16.8749 1.04163 16.5951 1.04163 16.2499V2.08325ZM5.34665 5.31323L4.65328 6.3533L9.99997 9.91775L15.3467 6.3533L14.6533 5.31323L9.99997 8.41544L5.34665 5.31323Z" fill="#8C8E9C"/>
<path d="M13.3333 11.8748C13.3333 10.7242 14.2661 9.7915 15.4167 9.7915C16.5673 9.7915 17.5 10.7242 17.5 11.8748C17.5 13.0254 16.5673 13.9582 15.4167 13.9582C14.2661 13.9582 13.3333 13.0254 13.3333 11.8748Z" fill="#8C8E9C"/>
<path d="M11.875 17.9165C11.875 15.9605 13.4607 14.3748 15.4167 14.3748C17.3727 14.3748 18.9583 15.9605 18.9583 17.9165V18.5415H11.875V17.9165Z" fill="#8C8E9C"/>
</svg>
