<svg width="16" height="16" viewBox="0 0 16 16" fill="none" xmlns="http://www.w3.org/2000/svg">
<g id="mail-account-02">
<g id="elements">
<path id="Subtract" fillRule="evenodd" clipRule="evenodd" d="M6.05398 1.19152C7.356 1.15881 8.6453 1.15881 9.94733 1.19153L9.9861 1.1925C11.0027 1.21803 11.8206 1.23857 12.4762 1.35274C13.1625 1.47226 13.7203 1.70152 14.1916 2.17455C14.6608 2.64561 14.8889 3.1954 15.0061 3.8706C15.1178 4.51352 15.1348 5.31154 15.1559 6.30011L15.1567 6.33926C15.1687 6.9039 15.1705 7.46574 15.1621 8.02954C15.1607 8.12483 15.16 8.17248 15.143 8.21024C15.1226 8.25548 15.0856 8.2919 15.0401 8.31161C15.002 8.32807 14.9541 8.32807 14.8581 8.32807C14.7884 8.32807 14.7536 8.32807 14.725 8.31928C14.6881 8.30799 14.6611 8.29077 14.6352 8.2622C14.6151 8.23997 14.5986 8.20475 14.5657 8.13429C14.114 7.16901 13.1341 6.50033 11.998 6.50033C10.4332 6.50033 9.16464 7.76885 9.16464 9.33366C9.16464 9.98429 9.38395 10.5837 9.75267 11.062C9.83552 11.1695 9.80346 11.3309 9.68326 11.3939L9.66952 11.4007C9.4755 11.497 8.90727 11.7788 8.55659 12.0829C8.34218 12.2688 7.92475 12.6856 7.84432 13.3375C7.83319 13.4277 7.75934 13.5 7.66842 13.4996C7.13125 13.4973 6.59371 13.4894 6.05398 13.4758L6.01517 13.4748C4.99863 13.4493 4.18066 13.4288 3.52512 13.3146C2.83879 13.1951 2.28097 12.9658 1.80973 12.4928C1.34046 12.0217 1.11241 11.4719 0.99516 10.7967C0.883513 10.1538 0.866508 9.35579 0.845443 8.36723L0.844609 8.32807C0.830443 7.66384 0.830443 7.00348 0.844608 6.33925L0.845442 6.30009C0.866507 5.31153 0.883511 4.51351 0.995157 3.87059C1.11241 3.19539 1.34046 2.6456 1.80973 2.17454C2.28097 1.70151 2.83878 1.47225 3.52512 1.35273C4.18066 1.23856 4.99865 1.21802 6.0152 1.1925L6.05398 1.19152ZM4.92154 4.24448C4.68384 4.10394 4.37721 4.18271 4.23667 4.42041C4.09613 4.65812 4.1749 4.96475 4.4126 5.10528L6.37395 6.2649C6.95451 6.60816 7.45548 6.84155 8.0004 6.84155C8.54533 6.84155 9.0463 6.60816 9.62686 6.2649L11.5882 5.10528C11.8259 4.96475 11.9047 4.65812 11.7641 4.42041C11.6236 4.18271 11.317 4.10394 11.0793 4.24448L9.11792 5.4041C8.55502 5.73691 8.25574 5.84155 8.0004 5.84155C7.74507 5.84155 7.44579 5.73691 6.88288 5.4041L4.92154 4.24448Z" fill="#8C8E9C"/>
<g id="Vector">
<path d="M10.1384 12.2843C11.2775 11.6833 12.7182 11.6833 13.8573 12.2843C14.0637 12.387 14.5348 12.6222 14.7841 12.8383C14.9393 12.9729 15.1246 13.1811 15.159 13.4599C15.197 13.7675 15.0389 14.0329 14.7954 14.2384C14.4223 14.5533 13.9413 14.8336 13.3043 14.8336H10.6914C10.0544 14.8336 9.57336 14.5533 9.20031 14.2384C8.95679 14.0329 8.79871 13.7675 8.83667 13.4599C8.87107 13.1811 9.05638 12.9729 9.21162 12.8383C9.46086 12.6222 9.93202 12.387 10.1384 12.2843Z" fill="#8C8E9C"/>
<path d="M10.1645 9.33358C10.1645 8.32106 10.9853 7.50024 11.9979 7.50024C13.0104 7.50024 13.8312 8.32106 13.8312 9.33358C13.8312 10.3461 13.0104 11.1669 11.9979 11.1669C10.9853 11.1669 10.1645 10.3461 10.1645 9.33358Z" fill="#8C8E9C"/>
</g>
</g>
</g>
</svg>
