<svg width="109" height="107" viewBox="0 0 109 107" fill="none" xmlns="http://www.w3.org/2000/svg">
<path d="M54.3563 78.6186C73.43 78.6186 88.8982 63.2666 88.8982 44.3093C88.8982 25.352 73.43 10 54.3563 10C35.2827 10 19.8145 25.352 19.8145 44.3093C19.8145 63.2666 35.2827 78.6186 54.3563 78.6186Z" fill="#DBDFFF"/>
<path d="M88.0151 27.911C89.3318 27.911 90.3993 26.8435 90.3993 25.5268C90.3993 24.21 89.3318 23.1426 88.0151 23.1426C86.6983 23.1426 85.6309 24.21 85.6309 25.5268C85.6309 26.8435 86.6983 27.911 88.0151 27.911Z" fill="#EAEEF9"/>
<path d="M85.6312 20.1764C86.5304 20.1764 87.2594 19.4474 87.2594 18.5482C87.2594 17.6489 86.5304 16.9199 85.6312 16.9199C84.7319 16.9199 84.0029 17.6489 84.0029 18.5482C84.0029 19.4474 84.7319 20.1764 85.6312 20.1764Z" fill="#EAEEF9"/>
<path d="M19.6868 25.526C20.5861 25.526 21.3151 24.797 21.3151 23.8978C21.3151 22.9985 20.5861 22.2695 19.6868 22.2695C18.7876 22.2695 18.0586 22.9985 18.0586 23.8978C18.0586 24.797 18.7876 25.526 19.6868 25.526Z" fill="#EAEEF9"/>
<path d="M16.0239 61.3475C17.6939 61.3475 19.0477 59.9937 19.0477 58.3237C19.0477 56.6536 17.6939 55.2998 16.0239 55.2998C14.3538 55.2998 13 56.6536 13 58.3237C13 59.9937 14.3538 61.3475 16.0239 61.3475Z" fill="#EAEEF9"/>
<g filter="url(#filter0_d_16729_43215)">
<path d="M86.1792 35.8152V67.2987C86.1792 67.4286 86.1792 67.4935 86.1792 67.6233C86.1143 69.4409 85.2704 70.9989 83.9721 72.1024C82.8685 73.0761 81.3755 73.7253 79.7527 73.7253H28.9246C27.8211 73.7253 26.7825 73.4656 25.8737 72.9463C25.4842 72.7515 25.0947 72.4919 24.7701 72.1673C24.056 71.5831 23.4069 70.7392 23.0823 69.8304C22.8227 69.1813 22.6279 68.4672 22.6279 67.7531V35.8152C22.6279 35.8152 25.2894 33.5432 29.1194 30.4273C33.0792 27.1167 38.2723 22.8323 42.8163 19.0673C45.4129 16.8602 45.1532 17.1199 49.1779 13.7443C52.2289 11.1477 56.708 11.1477 59.759 13.7443C60.538 14.3935 61.3819 15.1724 62.1608 15.8216C63.8486 17.1848 65.6662 18.7427 67.6136 20.3656C71.7033 23.7411 76.1824 27.5062 79.6877 30.4273C83.258 33.3485 85.8546 35.5556 86.1792 35.8152Z" fill="url(#paint0_linear_16729_43215)"/>
</g>
<path d="M79.6884 30.3625V41.6576L68.5881 48.3438L65.2774 50.3562L58.2667 54.5756L54.956 56.5879L53.5279 57.4318L52.1647 56.5879L49.0488 54.5756L42.3626 50.3562L39.2467 48.3438L28.9902 41.9173V30.4274C32.95 27.1168 38.1432 22.8324 42.6872 19.0674L67.5494 20.3008C71.7039 23.7412 76.183 27.4413 79.6884 30.3625Z" fill="#989FB0"/>
<path d="M77.4808 21.4042V41.2681L67.3542 47.3051L64.3681 49.1227L57.9416 52.8878L54.9555 54.7054L53.6572 55.4194L52.4238 54.7054L49.5676 52.8878L43.4656 49.1227L40.6094 47.3051L31.2617 41.4628V21.4042C31.2617 19.327 32.9495 17.6392 35.0917 17.6392H73.6509C75.7281 17.5743 77.4808 19.327 77.4808 21.4042Z" fill="white"/>
<path opacity="0.5" d="M22.8877 35.6853L53.3975 37.6977L85.7249 35.6853L84.4915 41.4627C84.4915 41.4627 54.1115 57.3018 54.3063 57.3018C54.501 57.3018 22.9526 38.5415 22.9526 38.5415L22.8877 35.6853Z" fill="url(#paint1_linear_16729_43215)"/>
<path d="M86.1792 35.8154V67.6235C86.1143 69.4411 85.2704 70.9991 83.9721 72.1026C82.8685 73.0763 81.3755 73.7255 79.7527 73.7255H28.9246C27.8211 73.7255 26.7825 73.4658 25.8737 72.9465C25.4842 72.7518 25.0947 72.4921 24.7701 72.1675C24.056 71.5833 23.4069 70.7394 23.0823 69.8306C22.8227 69.1815 22.6279 68.4674 22.6279 67.7533V67.6884V35.8154L51.0605 53.602L53.5272 55.1599L54.3711 54.6406L55.1501 54.1862L86.1792 35.8154Z" fill="#738DFF"/>
<path d="M84.037 72.1026C82.9335 73.0763 81.4404 73.7255 79.8176 73.7255H28.9246C27.8211 73.7255 26.7825 73.4658 25.8737 72.9465C25.4842 72.7518 25.0947 72.4921 24.7701 72.1675C24.056 71.5833 23.4069 70.7394 23.0823 69.8306C22.8227 69.1815 22.6279 68.4674 22.6279 67.7533V67.6884V35.8154L25.9386 37.8278L54.3711 54.6406L55.1501 55.095L55.215 55.1599L80.7264 70.2201L84.037 72.1026Z" fill="url(#paint2_linear_16729_43215)"/>
<path d="M55.1498 54.1206V56.3277L25.8734 72.9458C25.4839 72.7511 25.0944 72.4914 24.7698 72.1668C24.0557 71.5826 23.4066 70.7387 23.082 69.8299L51.5795 52.9521L54.0462 54.5101L54.3708 54.6399L55.1498 54.1206Z" fill="url(#paint3_linear_16729_43215)"/>
<path d="M22.6279 35.8154L54.3711 54.6406" stroke="white" strokeMiterlimit="10"/>
<path d="M86.1786 35.8154V67.6235C86.1137 69.4411 85.2698 70.9991 83.9715 72.1026C82.868 73.0763 81.3749 73.7255 79.7521 73.7255H28.9241C27.8205 73.7255 26.7819 73.4658 25.8731 72.9465C25.4836 72.7518 25.0941 72.4921 24.7695 72.1675L28.0153 70.2201L53.5266 55.1599L54.3705 54.6406L55.1495 54.1862L82.8031 37.7629L86.1786 35.8154Z" fill="url(#paint4_linear_16729_43215)"/>
<path d="M86.1786 35.8154L55.1495 54.1213L54.3705 54.6406L53.5266 55.1599L24.7695 72.1026" stroke="white" strokeMiterlimit="10"/>
<path d="M78.5196 58.0805H61.6418C61.2523 58.0805 60.9277 57.7559 60.9277 57.3664C60.9277 56.9769 61.2523 56.6523 61.6418 56.6523H78.5196C78.909 56.6523 79.2336 56.9769 79.2336 57.3664C79.2985 57.7559 78.974 58.0805 78.5196 58.0805Z" fill="#CED7E2"/>
<path d="M78.5196 62.9494H61.6418C61.2523 62.9494 60.9277 62.6248 60.9277 62.2353C60.9277 61.8458 61.2523 61.5212 61.6418 61.5212H78.5196C78.909 61.5212 79.2336 61.8458 79.2336 62.2353C79.2985 62.6248 78.974 62.9494 78.5196 62.9494Z" fill="#CED7E2"/>
<path d="M82.0244 73.0757L84.1017 72.0371C84.0368 72.102 84.0368 72.102 83.9718 72.1669C83.9718 72.1669 83.9718 72.1669 83.9069 72.1669L82.0244 73.0757Z" fill="#526DFF"/>
<defs>
<filter id="filter0_d_16729_43215" x="0.62793" y="0.796875" width="107.551" height="105.928" filterUnits="userSpaceOnUse" color-interpolation-filters="sRGB">
<feFlood flood-opacity="0" result="BackgroundImageFix"/>
<feColorMatrix in="SourceAlpha" type="matrix" values="0 0 0 0 0 0 0 0 0 0 0 0 0 0 0 0 0 0 127 0" result="hardAlpha"/>
<feOffset dy="11"/>
<feGaussianBlur stdDeviation="11"/>
<feColorMatrix type="matrix" values="0 0 0 0 0.397708 0 0 0 0 0.47749 0 0 0 0 0.575 0 0 0 0.27 0"/>
<feBlend mode="normal" in2="BackgroundImageFix" result="effect1_dropShadow_16729_43215"/>
<feBlend mode="normal" in="SourceGraphic" in2="effect1_dropShadow_16729_43215" result="shape"/>
</filter>
<linearGradient id="paint0_linear_16729_43215" x1="54.3781" y1="12.5228" x2="54.3781" y2="58.7478" gradientUnits="userSpaceOnUse">
<stop stop-color="#B0BACC"/>
<stop offset="1" stop-color="#969EAE"/>
</linearGradient>
<linearGradient id="paint1_linear_16729_43215" x1="54.2784" y1="64.155" x2="54.2784" y2="37.142" gradientUnits="userSpaceOnUse">
<stop stop-color="#8A90B5"/>
<stop offset="1" stop-color="#A7AED2" stop-opacity="0"/>
</linearGradient>
<linearGradient id="paint2_linear_16729_43215" x1="53.3125" y1="34.9385" x2="53.3125" y2="74.1342" gradientUnits="userSpaceOnUse">
<stop stop-color="#FDFEFF"/>
<stop offset="0.9964" stop-color="#ECF0F5"/>
</linearGradient>
<linearGradient id="paint3_linear_16729_43215" x1="40.9471" y1="64.78" x2="38.4579" y2="61.1368" gradientUnits="userSpaceOnUse">
<stop stop-color="#D5D8E4"/>
<stop offset="1" stop-color="#E1E4F0" stop-opacity="0"/>
</linearGradient>
<linearGradient id="paint4_linear_16729_43215" x1="55.4541" y1="34.9385" x2="55.4541" y2="74.1342" gradientUnits="userSpaceOnUse">
<stop stop-color="#FDFEFF"/>
<stop offset="0.9964" stop-color="#ECF0F5"/>
</linearGradient>
</defs>
</svg>
