<svg width="16" height="16" viewBox="0 0 16 16" fill="none" xmlns="http://www.w3.org/2000/svg">
<path d="M10.6667 7.33301C11.7734 7.33301 12.6601 6.43967 12.6601 5.33301C12.6601 4.22634 11.7734 3.33301 10.6667 3.33301C9.56008 3.33301 8.66675 4.22634 8.66675 5.33301C8.66675 6.43967 9.56008 7.33301 10.6667 7.33301ZM5.33342 7.33301C6.44008 7.33301 7.32675 6.43967 7.32675 5.33301C7.32675 4.22634 6.44008 3.33301 5.33342 3.33301C4.22675 3.33301 3.33341 4.22634 3.33341 5.33301C3.33341 6.43967 4.22675 7.33301 5.33342 7.33301ZM5.33342 8.66634C3.78008 8.66634 0.666748 9.44634 0.666748 10.9997V11.9997C0.666748 12.3663 0.966748 12.6663 1.33341 12.6663H9.33342C9.70008 12.6663 10.0001 12.3663 10.0001 11.9997V10.9997C10.0001 9.44634 6.88675 8.66634 5.33342 8.66634ZM10.6667 8.66634C10.4734 8.66634 10.2534 8.67967 10.0201 8.69967C10.0334 8.70634 10.0401 8.71967 10.0467 8.72634C10.8067 9.27967 11.3334 10.0197 11.3334 10.9997V11.9997C11.3334 12.233 11.2867 12.4597 11.2134 12.6663H14.6667C15.0334 12.6663 15.3334 12.3663 15.3334 11.9997V10.9997C15.3334 9.44634 12.2201 8.66634 10.6667 8.66634Z" fill="#F046FE"/>
</svg>
