<svg width="16" height="16" viewBox="0 0 16 16" fill="none" xmlns="http://www.w3.org/2000/svg">
<path d="M6.50108 3.50001C7.0015 3.49983 7.36516 3.49971 7.71563 3.63423C8.04616 3.76113 8.31696 3.99351 8.67736 4.30285L8.73416 4.35159L9.87283 5.32756L9.9461 5.39029C10.4251 5.80022 10.7815 6.10525 10.975 6.53023C11.1677 6.9534 11.1674 7.42653 11.1669 8.0676L11.1668 8.16547V9.8956C11.1668 10.871 11.1668 11.6427 11.1022 12.2565C11.036 12.8849 10.8974 13.4066 10.5801 13.8559C10.3902 14.1248 10.1599 14.3618 9.89743 14.5579C9.4567 14.8873 8.94363 15.0313 8.3281 15.0999C7.7291 15.1667 6.97696 15.1667 6.03054 15.1667H5.9698C5.0234 15.1667 4.27124 15.1667 3.67226 15.0999C3.05666 15.0313 2.54362 14.8873 2.1029 14.5579C1.84041 14.3618 1.61015 14.1248 1.42024 13.8559C1.10288 13.4066 0.964336 12.8849 0.898143 12.2565C0.833483 11.6427 0.83349 10.871 0.833496 9.8956V9.22227C0.83349 8.03207 0.833483 7.09067 0.92737 6.35227C1.02376 5.59429 1.22644 4.97759 1.6864 4.48297C1.718 4.44899 1.75034 4.41572 1.7834 4.38319C2.26652 3.90789 2.87183 3.69692 3.61505 3.59694C4.3356 3.50001 5.25315 3.50001 6.408 3.50003H6.44528L6.50108 3.50001Z" fill="#8C8E9C"/>
<path opacity="0.4" d="M8.0737 2.7043C8.56956 2.89502 8.9595 3.23127 9.2761 3.50433L9.3283 3.54931L10.596 4.63796L10.6646 4.69663C11.0859 5.05676 11.5975 5.49395 11.8848 6.12614C12.1696 6.75288 12.168 7.42721 12.1668 7.99001L12.1666 8.08248L12.1665 9.96254C12.1665 10.2315 12.1666 10.4908 12.1649 10.7394C12.1635 10.9433 12.1628 11.0453 12.2288 11.1053C12.2947 11.1653 12.3918 11.1556 12.586 11.1361C12.612 11.1335 12.6378 11.1308 12.6632 11.1279C13.2 11.0669 13.6563 10.9379 14.0497 10.6383C14.2814 10.4619 14.4842 10.249 14.6512 10.008C14.9326 9.60214 15.0532 9.13368 15.1106 8.57861C15.1666 8.03761 15.1665 7.35868 15.1665 6.50596L15.1666 4.89412C15.1671 4.33866 15.1674 3.91208 14.9965 3.52956C14.8243 3.14414 14.5071 2.86758 14.0997 2.51244L12.9991 1.55105C12.6938 1.28398 12.4518 1.07224 12.1553 0.956218C11.8402 0.832951 11.5134 0.833125 11.0902 0.833351L10.9974 0.833371C10.0084 0.833358 9.21456 0.833345 8.58943 0.919045C7.9407 1.00798 7.40236 1.19722 6.9721 1.62862C6.94296 1.65784 6.9145 1.6877 6.88663 1.71822C6.8073 1.80514 6.73663 1.89623 6.6737 1.99155C6.54388 2.18811 6.47896 2.28639 6.53138 2.39001C6.58381 2.49363 6.7197 2.50047 6.99143 2.51414C7.35276 2.53232 7.75076 2.58009 8.0737 2.7043Z" fill="#8C8E9C"/>
</svg>
