<svg width="62" height="62" viewBox="0 0 62 62" fill="none" xmlns="http://www.w3.org/2000/svg">
<circle opacity="0.1" cx="31" cy="31" r="31" fill="white"/>
<path fillRule="evenodd" clipRule="evenodd" d="M31.0002 18.4583C24.0736 18.4583 18.4585 24.0733 18.4585 30.9999C18.4585 37.9265 24.0736 43.5416 31.0002 43.5416C37.9268 43.5416 43.5418 37.9265 43.5418 30.9999C43.5418 24.0733 37.9268 18.4583 31.0002 18.4583ZM35.6675 26.3333C35.6675 26.0238 35.5446 25.7269 35.3257 25.5081C35.1068 25.2893 34.8099 25.1665 34.5004 25.1666L27.5004 25.1692C27.0426 25.1694 26.6272 25.4373 26.4382 25.8543C26.2493 26.2713 26.3216 26.7603 26.6233 27.1047L30.0335 30.9974L26.6222 34.8954C26.3207 35.2399 26.2486 35.7291 26.4379 36.146C26.6271 36.5629 27.0428 36.8306 27.5007 36.8305L34.501 36.8275C35.1452 36.8273 35.6672 36.3051 35.6672 35.6609V33.3303H33.3338V34.4947L30.0724 34.4961L33.1348 30.9967L30.0731 27.5016L33.3342 27.5004V28.6637H35.6675V26.3333Z" fill="white"/>
</svg>
