<svg width="20" height="20" viewBox="0 0 20 20" fill="none" xmlns="http://www.w3.org/2000/svg">
<path d="M10 18.3332C14.6024 18.3332 18.3333 14.6022 18.3333 9.99984C18.3333 5.39746 14.6024 1.6665 10 1.6665C5.39763 1.6665 1.66667 5.39746 1.66667 9.99984C1.66667 14.6022 5.39763 18.3332 10 18.3332Z" stroke="#8C8E9C" stroke-width="1.25" stroke-linejoin="round"/>
<path d="M6.25 14.1668C8.19308 12.1317 11.786 12.0358 13.75 14.1668M12.0792 7.91683C12.0792 9.06741 11.1452 10.0002 9.99292 10.0002C8.84075 10.0002 7.90664 9.06741 7.90664 7.91683C7.90664 6.76624 8.84075 5.8335 9.99292 5.8335C11.1452 5.8335 12.0792 6.76624 12.0792 7.91683Z" stroke="#8C8E9C" stroke-width="1.25" stroke-linejoin="round"/>
</svg>
