<svg width="20" height="20" viewBox="0 0 20 20" fill="none" xmlns="http://www.w3.org/2000/svg">
<path d="M1.45801 5C1.45801 4.65482 1.73783 4.375 2.08301 4.375H17.9167C18.0824 4.375 18.2414 4.44085 18.3586 4.55808C18.4758 4.6753 18.5417 4.83428 18.5417 5.00005L18.5413 9.62473L10 12.3221L1.45801 9.62473V5Z" fill="#8C8E9C"/>
<path d="M17.7386 17.9165C17.7386 18.2617 17.4588 18.5415 17.1136 18.5415H2.88422C2.71845 18.5415 2.55947 18.4757 2.44225 18.3585C2.32504 18.2412 2.2592 18.0822 2.25922 17.9165L2.25986 11.1889L9.99935 13.6328L17.7386 11.1887V17.9165Z" fill="#8C8E9C"/>
<path fillRule="evenodd" clipRule="evenodd" d="M6.24969 2.29159C6.24969 1.83135 6.62279 1.45825 7.08303 1.45825H12.9164C13.3766 1.45825 13.7497 1.83135 13.7497 2.29159V5.20825H12.083V3.12492H7.91636V5.20825H6.24969V2.29159Z" fill="#8C8E9C"/>
</svg>
