<svg width="323" height="259" viewBox="0 0 323 259" fill="none" xmlns="http://www.w3.org/2000/svg">
<path d="M156.333 258.469C227.564 258.469 285.313 200.72 285.313 129.234C285.313 57.7484 227.564 0 156.333 0C85.1013 0 27.3528 57.7484 27.3528 129.234C27.3528 200.72 85.1013 258.469 156.333 258.469Z" fill="#EAEEF9"/>
<path d="M300.068 76.065C305.828 76.065 310.498 71.3952 310.498 65.6347C310.498 59.8742 305.828 55.2043 300.068 55.2043C294.307 55.2043 289.638 59.8742 289.638 65.6347C289.638 71.3952 294.307 76.065 300.068 76.065Z" fill="#EAEEF9"/>
<path d="M315.332 35.1069C319.266 35.1069 322.455 31.9178 322.455 27.9838C322.455 24.0497 319.266 20.8606 315.332 20.8606C311.398 20.8606 308.209 24.0497 308.209 27.9838C308.209 31.9178 311.398 35.1069 315.332 35.1069Z" fill="#EAEEF9"/>
<path d="M18.4489 83.4426C22.3829 83.4426 25.572 80.2535 25.572 76.3194C25.572 72.3854 22.3829 69.1963 18.4489 69.1963C14.5149 69.1963 11.3257 72.3854 11.3257 76.3194C11.3257 80.2535 14.5149 83.4426 18.4489 83.4426Z" fill="#EAEEF9"/>
<path d="M31.6776 238.371C38.9836 238.371 44.9063 232.449 44.9063 225.143C44.9063 217.837 38.9836 211.914 31.6776 211.914C24.3716 211.914 18.4489 217.837 18.4489 225.143C18.4489 232.449 24.3716 238.371 31.6776 238.371Z" fill="#EAEEF9"/>
<g filter="url(#filter0_d_21801_42310)">
<path d="M275.9 77.5914H55.3366C50.503 77.5914 46.687 73.7754 46.687 68.9418V19.3341C46.687 14.5005 50.503 10.6846 55.3366 10.6846H275.646C280.479 10.6846 284.295 14.5005 284.295 19.3341V68.9418C284.55 73.7754 280.479 77.5914 275.9 77.5914Z" fill="white"/>
</g>
<path d="M100.111 44.0105C100.111 49.6073 97.5667 54.6953 93.7507 58.2569C90.4436 61.3096 85.8644 63.0904 81.0308 63.0904C76.1973 63.0904 71.6181 61.3096 68.3109 58.2569C64.2405 54.6953 61.9509 49.6073 61.9509 44.0105C61.9509 33.5802 70.6005 24.9307 81.0308 24.9307C91.4612 24.9307 100.111 33.5802 100.111 44.0105Z" fill="#DCE1EE"/>
<path d="M93.7508 58.2568C90.4436 61.3096 85.8644 63.0904 81.0308 63.0904C76.1973 63.0904 71.6181 61.3096 68.3109 58.2568C69.8373 57.748 71.6181 56.9848 73.9077 55.9672C74.4165 55.7128 74.9253 55.204 75.1797 54.6952C75.4341 54.4408 75.4341 53.932 75.4341 53.6776V48.8441L75.1797 48.5897C74.6709 48.0809 74.4165 47.3177 74.4165 46.5545L73.9077 46.3001C72.6357 46.5545 72.8901 45.2825 72.3813 42.7385C72.3813 41.7209 72.3813 41.4665 72.8901 41.2121L73.3989 40.7033C71.1093 35.3609 72.1269 32.0538 74.6709 30.7818C73.9077 29.001 73.9077 28.4922 73.9077 28.4922C73.9077 28.4922 78.9956 29.2554 80.522 29.001C82.8116 28.4922 86.1188 29.001 87.3908 32.0538C89.426 32.817 90.1892 34.089 90.4436 35.6153C90.698 37.9049 89.426 40.4489 89.1716 41.2121C89.426 41.4665 89.6804 41.7209 89.426 42.4841C89.1716 44.7737 89.1716 46.3001 87.8996 46.0457L86.882 48.3353C86.882 48.5897 86.882 48.5897 86.882 48.8441C86.882 49.0985 86.882 49.8617 86.882 53.932C86.882 54.4408 87.1364 54.9496 87.1364 55.204C87.3908 55.7128 87.8996 55.9672 88.154 56.2216C90.4436 56.9848 92.2244 57.748 93.7508 58.2568Z" fill="white"/>
<path d="M89.2385 41.4665C89.2385 40.937 88.9738 40.1426 88.709 39.6131V39.3483C87.6498 37.23 85.5316 36.4357 83.4133 36.4357C78.1177 36.1709 77.5881 37.23 75.7346 35.6413C76.2642 36.4357 76.2642 37.7596 75.4698 39.3483C74.9403 40.4074 73.8811 40.937 72.822 41.2018C70.439 35.6413 71.4981 32.1991 74.1459 30.8752C73.3516 29.0218 73.3516 28.4922 73.3516 28.4922C73.3516 28.4922 78.6472 29.2865 80.2359 29.0218C82.619 28.4922 86.0612 29.0218 87.3851 32.1991C89.5033 32.9935 90.2977 34.3174 90.5625 35.9061C90.8272 37.7596 89.5033 40.4074 89.2385 41.4665Z" fill="#A2ABBC"/>
<path d="M87.1364 55.204V56.2216H75.1797V54.9496C75.4341 54.6952 75.4341 54.1864 75.4341 53.932V49.0984L75.1797 48.844V48.5896C75.4341 49.0984 75.6885 49.3528 76.1973 49.8616L80.0133 52.4056C80.7765 53.1688 82.0484 53.1688 83.066 52.4056L86.6276 49.3528L86.882 49.0984C86.882 49.3528 86.882 50.116 86.882 54.1864C86.6276 54.4408 86.882 54.6952 87.1364 55.204Z" fill="url(#paint0_linear_21801_42310)"/>
<path d="M162.693 38.414H113.848C112.576 38.414 111.813 37.3964 111.813 36.3788V30.0188C111.813 28.7468 112.831 27.9836 113.848 27.9836H162.693C163.965 27.9836 164.728 29.0012 164.728 30.0188V36.3788C164.728 37.6508 163.965 38.414 162.693 38.414Z" fill="#CED6E2"/>
<path d="M220.696 60.0378H113.848C112.576 60.0378 111.813 59.0202 111.813 58.0026V51.6426C111.813 50.3706 112.831 49.6074 113.848 49.6074H220.696C221.968 49.6074 222.731 50.625 222.731 51.6426V58.0026C222.731 59.2746 221.713 60.0378 220.696 60.0378Z" fill="#CED6E2"/>
<g filter="url(#filter1_d_21801_42310)">
<path d="M275.9 244.477H55.3366C50.503 244.477 46.687 240.661 46.687 235.828V186.22C46.687 181.386 50.503 177.57 55.3366 177.57H275.646C280.479 177.57 284.295 181.386 284.295 186.22V235.828C284.55 240.661 280.479 244.477 275.9 244.477Z" fill="white"/>
</g>
<path d="M100.111 210.897C100.111 216.493 97.5667 221.581 93.7507 225.143C90.4436 228.196 85.8644 229.976 81.0308 229.976C76.1973 229.976 71.6181 228.196 68.3109 225.143C64.2405 221.581 61.9509 216.493 61.9509 210.897C61.9509 200.466 70.6005 191.817 81.0308 191.817C91.4612 191.817 100.111 200.466 100.111 210.897Z" fill="#DCE1EE"/>
<path d="M93.7508 225.143C90.4436 228.196 85.8644 229.977 81.0308 229.977C76.1973 229.977 71.6181 228.196 68.3109 225.143C69.8373 224.634 71.6181 223.871 73.9077 222.853C74.4165 222.599 74.9253 222.09 75.1797 221.581C75.4341 221.327 75.4341 220.818 75.4341 220.564V215.73L75.1797 215.476C74.6709 214.967 74.4165 214.204 74.4165 213.441L73.9077 213.186C72.6357 213.441 72.8901 212.169 72.3813 209.625C72.3813 208.607 72.3813 208.353 72.8901 208.098L73.3989 207.59C71.1093 202.247 72.1269 198.94 74.6709 197.668C73.9077 195.887 73.9077 195.378 73.9077 195.378C73.9077 195.378 78.9956 196.142 80.522 195.887C82.8116 195.378 86.1188 195.887 87.3908 198.94C89.426 199.703 90.1892 200.975 90.4436 202.502C90.698 204.791 89.426 207.335 89.1716 208.098C89.426 208.353 89.6804 208.607 89.426 209.37C89.1716 211.66 89.1716 213.186 87.8996 212.932L86.882 214.967C86.882 215.221 86.882 215.221 86.882 215.476C86.882 215.73 86.882 216.493 86.882 220.564C86.882 221.073 87.1364 221.581 87.1364 221.836C87.3908 222.345 87.8996 222.599 88.154 222.853C90.4436 224.125 92.2244 224.634 93.7508 225.143Z" fill="white"/>
<path d="M89.2385 208.353C89.2385 207.823 88.9738 207.029 88.709 206.499V206.235C87.6498 204.116 85.5316 203.322 83.4133 203.322C78.1177 203.057 77.5881 204.116 75.7346 202.528C76.2642 203.322 76.2642 204.646 75.4698 206.235C74.9403 207.294 73.8811 207.823 72.822 208.088C70.439 202.528 71.4981 199.085 74.1459 197.761C73.3516 195.908 73.3516 195.378 73.3516 195.378C73.3516 195.378 78.6472 196.173 80.2359 195.908C82.619 195.378 86.0612 195.908 87.3851 199.085C89.5033 199.88 90.2977 201.204 90.5625 202.792C90.8272 204.911 89.5033 207.294 89.2385 208.353Z" fill="#A2ABBC"/>
<path d="M87.1364 222.09V223.108H75.1797V221.836C75.4341 221.582 75.4341 221.073 75.4341 220.818V215.985L75.1797 215.73V215.476C75.4341 215.985 75.6885 216.239 76.1973 216.748L80.0133 219.292C80.7765 220.055 82.0484 220.055 83.066 219.292L86.6276 216.239L86.882 215.985C86.882 216.239 86.882 217.002 86.882 221.073C86.6276 221.327 86.882 221.836 87.1364 222.09Z" fill="url(#paint1_linear_21801_42310)"/>
<path d="M162.693 205.554H113.848C112.576 205.554 111.813 204.537 111.813 203.519V197.159C111.813 195.887 112.831 195.124 113.848 195.124H162.693C163.965 195.124 164.728 196.141 164.728 197.159V203.519C164.728 204.537 163.965 205.554 162.693 205.554Z" fill="#CED6E2"/>
<path d="M220.696 227.178H113.848C112.576 227.178 111.813 226.16 111.813 225.143V218.783C111.813 217.511 112.831 216.748 113.848 216.748H220.696C221.968 216.748 222.731 217.765 222.731 218.783V225.143C222.731 226.16 221.713 227.178 220.696 227.178Z" fill="#CED6E2"/>
<g filter="url(#filter2_d_21801_42310)">
<path d="M238.504 161.034H18.1945C13.3609 161.034 9.54491 157.218 9.54491 152.385V102.777C9.54491 97.9434 13.3609 94.1274 18.1945 94.1274H238.504C243.337 94.1274 247.153 97.9434 247.153 102.777V152.385C247.407 157.218 243.337 161.034 238.504 161.034Z" fill="white"/>
</g>
<path d="M125.551 121.857H76.706C75.434 121.857 74.6709 120.84 74.6709 119.822V113.462C74.6709 112.19 75.6884 111.427 76.706 111.427H125.551C126.823 111.427 127.586 112.444 127.586 113.462V119.822C127.586 121.094 126.823 121.857 125.551 121.857Z" fill="#CED6E2"/>
<path d="M183.553 143.735H76.706C75.434 143.735 74.6708 142.718 74.6708 141.7V135.34C74.6708 134.068 75.6884 133.305 76.706 133.305H183.299C184.571 133.305 185.334 134.323 185.334 135.34V141.7C185.589 142.718 184.571 143.735 183.553 143.735Z" fill="#CED6E2"/>
<path d="M63.223 127.454C63.223 132.796 60.9334 137.63 57.3718 141.191C57.1174 141.446 57.1174 141.446 56.863 141.7C53.5558 144.753 48.9767 146.534 44.1431 146.534C39.3095 146.534 34.9847 144.753 31.6776 141.954C31.6776 141.954 31.6776 141.954 31.4232 141.954C27.3528 138.393 24.8088 133.305 24.8088 127.454C24.8088 117.023 33.4584 108.374 43.8887 108.374C54.5734 108.374 63.223 117.023 63.223 127.454Z" fill="#DCE1EE"/>
<path d="M57.2971 141.578C56.5232 139.773 55.2332 138.225 53.1694 137.193C52.1374 136.677 51.3635 136.419 50.0735 136.419H49.2996C47.4937 136.419 47.2357 136.161 47.2357 136.161V133.065C49.2996 131.517 50.8475 129.453 51.3635 127.131C52.6534 126.873 53.4273 125.841 53.1694 124.551C53.1694 124.035 52.6534 123.519 52.6534 123.004C52.6534 122.746 52.6534 122.488 52.6534 122.23C52.6534 121.972 52.6534 121.972 52.6534 121.714C52.6534 121.456 52.6534 121.456 52.6534 121.198C52.6534 120.166 52.3954 119.392 51.6215 118.36C50.0735 115.522 46.9777 113.716 43.6239 113.716C42.85 113.716 42.334 113.716 41.56 113.974C40.2701 114.232 39.2382 114.748 38.2062 115.522C37.9483 115.78 37.9483 115.78 37.6903 116.038C37.6903 116.038 37.6903 116.038 37.4323 116.296C36.4003 117.328 35.6264 118.618 35.1104 119.908C34.5945 121.198 34.5944 122.746 34.5944 124.293C34.5944 124.293 34.5944 124.293 34.5944 124.551C34.5944 124.809 34.5944 124.809 34.5944 125.067C34.5944 125.067 34.5944 125.325 34.3365 125.325C34.8524 124.809 34.5944 125.583 34.8524 126.099C35.3684 127.389 36.1424 127.131 37.1743 127.905C37.1743 127.905 37.1743 127.905 36.9163 127.905L35.8844 128.163C30.2087 129.969 29.6927 135.903 35.3684 137.193C34.8524 137.451 34.5944 137.709 34.3365 137.709C32.7886 138.999 31.7566 140.546 31.2406 142.094C34.5945 144.932 38.9802 146.738 43.8819 146.738C48.7836 146.738 53.4273 144.932 56.7812 141.836C57.0391 142.094 57.2971 141.836 57.2971 141.578C57.5551 141.578 57.5551 141.578 57.2971 141.578ZM41.3021 135.387C41.0441 135.129 40.7861 134.871 40.7861 134.871C40.5281 134.613 40.2701 134.613 40.0121 134.355C40.0121 134.355 39.7541 134.355 39.7541 134.097C38.9802 133.581 38.2062 133.065 37.9483 132.291C37.9483 132.033 38.2062 131.517 38.7222 131.001C38.9802 131.259 39.2382 131.517 39.4962 132.033C39.7541 132.291 40.0121 132.549 40.2701 132.807C40.5281 132.807 40.7861 133.065 40.7861 133.323C40.7861 133.323 40.7861 133.323 41.0441 133.323C41.0441 133.323 41.0441 133.323 41.3021 133.323V135.387Z" fill="white"/>
<path d="M49.6126 136.271C49.3582 137.289 48.8494 138.052 48.8494 138.052L39.1822 136.525L39.691 133.981C39.691 133.981 39.9454 133.981 39.9454 134.236C40.1998 134.49 40.4542 134.49 40.7086 134.745C40.963 134.745 40.963 134.999 41.2174 135.253V133.473C41.2174 133.473 41.2174 133.473 40.963 133.473C42.4894 134.236 44.5246 134.745 47.323 132.964V136.017C47.5774 136.017 47.8318 136.271 49.6126 136.271Z" fill="url(#paint2_linear_21801_42310)"/>
<path d="M47.6023 122.082C49.4172 122.082 51.2321 121.823 52.7877 121.304C52.7877 121.304 52.7877 121.045 53.047 120.786C52.7877 120.008 52.5284 118.971 52.0099 117.934C50.4543 115.082 47.343 113.267 43.9725 113.267C43.1947 113.267 42.4486 113.322 41.4083 113.582C40.0239 114.005 39.3811 114.377 39.0531 114.575C39.0531 114.575 38.2953 115.085 37.75 115.6C37.2048 116.116 35.9351 117.934 35.4166 119.23C34.898 120.786 34.4797 122.108 34.7389 123.664C34.9982 123.664 35.4166 123.378 35.6758 123.378C37.75 122.341 39.3056 121.045 40.0834 118.971C42.1576 120.786 44.7503 121.823 47.6023 122.082Z" fill="#A2ABBC"/>
<path d="M38.8007 131.27C39.0551 131.524 39.3095 131.779 39.5639 132.033C39.3095 131.779 39.0551 131.524 38.8007 131.27Z" fill="#3973F4"/>
<path d="M42.3623 140.682C41.5991 141.7 40.3271 141.7 39.0551 141.7C40.3271 140.428 39.5639 136.612 35.4935 137.121C29.6424 136.103 30.4055 129.998 36.0023 128.217L37.0199 127.962C37.0199 127.962 37.0199 127.962 37.2743 128.217C37.7831 129.489 38.2919 130.252 39.0551 131.27C36.7655 133.305 40.0727 133.814 41.5991 135.34C42.6167 135.849 43.6343 139.156 42.3623 140.682Z" fill="#A2ABBC"/>
<defs>
<filter id="filter0_d_21801_42310" x="37.687" y="6.68457" width="255.619" height="84.9067" filterUnits="userSpaceOnUse" colorInterpolationFilters="sRGB">
<feFlood floodOpacity="0" result="BackgroundImageFix"/>
<feColorMatrix in="SourceAlpha" type="matrix" values="0 0 0 0 0 0 0 0 0 0 0 0 0 0 0 0 0 0 127 0" result="hardAlpha"/>
<feOffset dy="5"/>
<feGaussianBlur stdDeviation="4.5"/>
<feColorMatrix type="matrix" values="0 0 0 0 0.397708 0 0 0 0 0.47749 0 0 0 0 0.575 0 0 0 0.17 0"/>
<feBlend mode="normal" in2="BackgroundImageFix" result="effect1_dropShadow_21801_42310"/>
<feBlend mode="normal" in="SourceGraphic" in2="effect1_dropShadow_21801_42310" result="shape"/>
</filter>
<filter id="filter1_d_21801_42310" x="37.687" y="173.57" width="255.619" height="84.9067" filterUnits="userSpaceOnUse" colorInterpolationFilters="sRGB">
<feFlood floodOpacity="0" result="BackgroundImageFix"/>
<feColorMatrix in="SourceAlpha" type="matrix" values="0 0 0 0 0 0 0 0 0 0 0 0 0 0 0 0 0 0 127 0" result="hardAlpha"/>
<feOffset dy="5"/>
<feGaussianBlur stdDeviation="4.5"/>
<feColorMatrix type="matrix" values="0 0 0 0 0.397708 0 0 0 0 0.47749 0 0 0 0 0.575 0 0 0 0.17 0"/>
<feBlend mode="normal" in2="BackgroundImageFix" result="effect1_dropShadow_21801_42310"/>
<feBlend mode="normal" in="SourceGraphic" in2="effect1_dropShadow_21801_42310" result="shape"/>
</filter>
<filter id="filter2_d_21801_42310" x="0.544907" y="90.1274" width="255.619" height="84.9067" filterUnits="userSpaceOnUse" colorInterpolationFilters="sRGB">
<feFlood floodOpacity="0" result="BackgroundImageFix"/>
<feColorMatrix in="SourceAlpha" type="matrix" values="0 0 0 0 0 0 0 0 0 0 0 0 0 0 0 0 0 0 127 0" result="hardAlpha"/>
<feOffset dy="5"/>
<feGaussianBlur stdDeviation="4.5"/>
<feColorMatrix type="matrix" values="0 0 0 0 0.397708 0 0 0 0 0.47749 0 0 0 0 0.575 0 0 0 0.17 0"/>
<feBlend mode="normal" in2="BackgroundImageFix" result="effect1_dropShadow_21801_42310"/>
<feBlend mode="normal" in="SourceGraphic" in2="effect1_dropShadow_21801_42310" result="shape"/>
</filter>
<linearGradient id="paint0_linear_21801_42310" x1="81.1617" y1="56.268" x2="81.1617" y2="52.0636" gradientUnits="userSpaceOnUse">
<stop stop-color="white"/>
<stop offset="1" stop-color="#E2E5EC"/>
</linearGradient>
<linearGradient id="paint1_linear_21801_42310" x1="81.1617" y1="223.154" x2="81.1617" y2="218.95" gradientUnits="userSpaceOnUse">
<stop stop-color="white"/>
<stop offset="1" stop-color="#E2E5EC"/>
</linearGradient>
<linearGradient id="paint2_linear_21801_42310" x1="44.4006" y1="138.083" x2="44.4006" y2="135.28" gradientUnits="userSpaceOnUse">
<stop stop-color="white"/>
<stop offset="1" stop-color="#E2E5EC"/>
</linearGradient>
</defs>
</svg>
