<svg width="1290" height="122" viewBox="0 0 1290 122" fill="none" xmlns="http://www.w3.org/2000/svg">
<g clip-path="url(#clip0_4_9)">
<rect width="1290" height="122" rx="8" fill="#000424"/>
<g opacity="0.2" filter="url(#filter0_f_4_9)">
<path d="M344.052 142.169C344.052 236.66 242.392 362.74 147.928 362.74C53.4637 362.74 -18 301.821 -18 207.33C-18 112.839 37.6771 0 132.141 0C226.606 0 344.052 47.6783 344.052 142.169Z" fill="url(#paint0_linear_4_9)"/>
</g>
<g opacity="0.2" filter="url(#filter1_f_4_9)">
<path d="M1358.05 83.1691C1358.05 177.66 1256.39 303.74 1161.93 303.74C1067.46 303.74 996 242.821 996 148.33C996 53.8391 1051.68 -59 1146.14 -59C1240.61 -59 1358.05 -11.3217 1358.05 83.1691Z" fill="url(#paint1_linear_4_9)"/>
</g>
<circle opacity="0.05" cx="1156" cy="71.0004" r="149.886" fill="white"/>
<circle opacity="0.05" cx="1156" cy="71.0005" r="188.178" fill="white"/>
<circle opacity="0.05" cx="1156" cy="71" r="221" fill="white"/>
<g opacity="0.2">
<path d="M1220 18.8155C1220 15.8681 1218.43 13.1445 1215.88 11.6708L1190.1 -3.214C1188.18 -4.31929 1185.82 -4.31929 1183.91 -3.214L1178.75 -0.237039V104.312L1170.5 99.1561V34.4115L1157.88 42.3005C1155.47 43.8081 1154 46.452 1154 49.2965V103.184C1154 106.132 1155.57 108.855 1158.13 110.329L1183.91 125.214C1185.82 126.319 1188.18 126.319 1190.1 125.214L1195.25 122.237V17.6873L1203.5 22.8436V87.5881L1216.12 79.6991C1218.54 78.1915 1220 75.5476 1220 72.7031V18.8155Z" fill="white"/>
<path d="M1228.25 18.8155V81.8482L1207.38 94.8935C1204.97 96.4011 1203.5 99.0449 1203.5 101.889V117.474L1241.07 95.786C1242.98 94.6807 1244.16 92.638 1244.16 90.4275V31.5722C1244.16 29.3616 1242.98 27.3189 1241.07 26.2136L1228.25 18.8155Z" fill="white"/>
<path d="M1145.75 103.184V40.1514L1166.62 27.1061C1169.04 25.5986 1170.5 22.9547 1170.5 20.1102V4.5261L1132.94 26.2136C1131.02 27.3189 1129.84 29.3616 1129.84 31.5722V90.4275C1129.84 92.638 1131.02 94.6807 1132.94 95.786L1145.75 103.184Z" fill="white"/>
</g>
</g>
<defs>
<filter id="filter0_f_4_9" x="-130.883" y="-112.883" width="587.818" height="588.507" filterUnits="userSpaceOnUse" color-interpolation-filters="sRGB">
<feFlood flood-opacity="0" result="BackgroundImageFix"/>
<feBlend mode="normal" in="SourceGraphic" in2="BackgroundImageFix" result="shape"/>
<feGaussianBlur stdDeviation="56.4416" result="effect1_foregroundBlur_4_9"/>
</filter>
<filter id="filter1_f_4_9" x="883.117" y="-171.883" width="587.818" height="588.507" filterUnits="userSpaceOnUse" color-interpolation-filters="sRGB">
<feFlood flood-opacity="0" result="BackgroundImageFix"/>
<feBlend mode="normal" in="SourceGraphic" in2="BackgroundImageFix" result="shape"/>
<feGaussianBlur stdDeviation="56.4416" result="effect1_foregroundBlur_4_9"/>
</filter>
<linearGradient id="paint0_linear_4_9" x1="54.6553" y1="31.0124" x2="246.678" y2="347.36" gradientUnits="userSpaceOnUse">
<stop stop-color="#4F6AFF"/>
<stop offset="0.21875" stop-color="#00B3FF"/>
<stop offset="0.385417" stop-color="#1DBF73"/>
<stop offset="0.5625" stop-color="#4F6AFF"/>
<stop offset="0.770833" stop-color="#F98011"/>
<stop offset="1" stop-color="#00C0FF" stop-opacity="0.15"/>
</linearGradient>
<linearGradient id="paint1_linear_4_9" x1="1068.66" y1="-27.9876" x2="1260.68" y2="288.36" gradientUnits="userSpaceOnUse">
<stop stop-color="#4F6AFF"/>
<stop offset="0.21875" stop-color="#00B3FF"/>
<stop offset="0.385417" stop-color="#1DBF73"/>
<stop offset="0.5625" stop-color="#4F6AFF"/>
<stop offset="0.770833" stop-color="#F98011"/>
<stop offset="1" stop-color="#00C0FF" stop-opacity="0.15"/>
</linearGradient>
<clipPath id="clip0_4_9">
<rect width="1290" height="122" rx="8" fill="white"/>
</clipPath>
</defs>
</svg>
