<svg width="16" height="16" viewBox="0 0 16 16" fill="none" xmlns="http://www.w3.org/2000/svg">
<g clip-path="url(#clip0_17722_4191)">
<path d="M19 10H17V12H17.7C17.8656 12 18 12.1125 18 12.25V12.75C18 12.8875 17.8656 13 17.7 13H2.3C2.13437 13 2 12.8875 2 12.75V12.25C2 12.1125 2.13437 12 2.3 12H3V10H1C0.446875 10 0 10.4469 0 11V14C0 14.5531 0.446875 15 1 15H19C19.5531 15 20 14.5531 20 14V11C20 10.4469 19.5531 10 19 10ZM16 12V2.00938C16 1.45 15.5469 1 14.9906 1H5.0125C4.45312 1 4 1.45313 4 2.00938V12H16ZM6.6 6.3125L7.39687 5.52187C7.52812 5.39062 7.74062 5.39062 7.87187 5.525L9.1625 6.825L12.1375 3.875C12.2688 3.74375 12.4812 3.74375 12.6125 3.87812L13.4031 4.675C13.5344 4.80625 13.5344 5.01875 13.4 5.15L9.39062 9.125C9.25937 9.25625 9.04688 9.25625 8.91562 9.12187L6.6 6.7875C6.46562 6.65625 6.46875 6.44375 6.6 6.3125Z" fill="#8C8E9C"/>
</g>
<defs>
<clipPath id="clip0_17722_4191">
<rect width="16" height="16" fill="white"/>
</clipPath>
</defs>
</svg>
