<svg width="30" height="30" viewBox="0 0 30 30" fill="none" xmlns="http://www.w3.org/2000/svg">
<path d="M5.8125 3C5.8125 1.65381 6.90381 0.5625 8.25 0.5625H20.25C20.3409 0.5625 20.4281 0.598619 20.4924 0.662913L28.5871 8.75758C28.6514 8.82188 28.6875 8.90908 28.6875 9V27C28.6875 28.3462 27.5962 29.4375 26.25 29.4375H8.25C6.90381 29.4375 5.8125 28.3462 5.8125 27V3Z" stroke="#D0D5DD" stroke-width="1.125"/>
<path d="M20.25 0.375V6C20.25 7.65685 21.5931 9 23.25 9H28.875" stroke="#D0D5DD" stroke-width="1.125"/>
<rect x="0.75" y="13.5" width="19.5" height="12" rx="1.5" fill="#D92D20"/>
<path d="M3.62422 22V16.5455H5.77621C6.18992 16.5455 6.54237 16.6245 6.83356 16.7825C7.12476 16.9387 7.3467 17.1562 7.4994 17.435C7.65388 17.712 7.73111 18.0316 7.73111 18.3938C7.73111 18.756 7.65299 19.0756 7.49674 19.3526C7.34049 19.6296 7.1141 19.8453 6.81758 19.9998C6.52284 20.1543 6.16595 20.2315 5.74692 20.2315H4.37529V19.3074H5.56048C5.78243 19.3074 5.96531 19.2692 6.10913 19.1928C6.25473 19.1147 6.36304 19.0073 6.43406 18.8706C6.50686 18.7321 6.54326 18.5732 6.54326 18.3938C6.54326 18.2127 6.50686 18.0547 6.43406 17.9197C6.36304 17.783 6.25473 17.6774 6.10913 17.6028C5.96353 17.5265 5.77888 17.4883 5.55515 17.4883H4.77745V22H3.62422ZM10.4138 22H8.48018V16.5455H10.4298C10.9784 16.5455 11.4507 16.6547 11.8467 16.873C12.2426 17.0897 12.5471 17.4013 12.7602 17.8079C12.975 18.2145 13.0825 18.701 13.0825 19.2674C13.0825 19.8356 12.975 20.3239 12.7602 20.7322C12.5471 21.1406 12.2408 21.454 11.8413 21.6724C11.4436 21.8908 10.9678 22 10.4138 22ZM9.63341 21.0119H10.3658C10.7067 21.0119 10.9935 20.9515 11.2261 20.8308C11.4605 20.7083 11.6363 20.5192 11.7534 20.2635C11.8724 20.006 11.9319 19.674 11.9319 19.2674C11.9319 18.8643 11.8724 18.535 11.7534 18.2793C11.6363 18.0236 11.4614 17.8354 11.2288 17.7147C10.9962 17.5939 10.7094 17.5336 10.3685 17.5336H9.63341V21.0119ZM13.9367 22V16.5455H17.5482V17.4963H15.09V18.796H17.3085V19.7468H15.09V22H13.9367Z" fill="white"/>
</svg>
