<svg width="16" height="16" viewBox="0 0 16 16" fill="none" xmlns="http://www.w3.org/2000/svg">
<g id="vuesax/bold/percentage-circle">
<g id="vuesax/bold/percentage-circle_2">
<g id="percentage-circle">
<path id="Vector" d="M7.99967 1.3335C4.31967 1.3335 1.33301 4.32016 1.33301 8.00016C1.33301 11.6802 4.31967 14.6668 7.99967 14.6668C11.6797 14.6668 14.6663 11.6802 14.6663 8.00016C14.6663 4.32016 11.6797 1.3335 7.99967 1.3335ZM5.81967 5.10683C6.35967 5.10683 6.80634 5.54683 6.80634 6.0935C6.80634 6.6335 6.36634 7.08016 5.81967 7.08016C5.27967 7.08016 4.83301 6.64016 4.83301 6.0935C4.83301 5.54683 5.27301 5.10683 5.81967 5.10683ZM5.89967 10.5335C5.79967 10.6335 5.67301 10.6802 5.54634 10.6802C5.41967 10.6802 5.29301 10.6335 5.19301 10.5335C4.99967 10.3402 4.99967 10.0202 5.19301 9.82683L9.55968 5.46016C9.75301 5.26683 10.073 5.26683 10.2663 5.46016C10.4597 5.6535 10.4597 5.9735 10.2663 6.16683L5.89967 10.5335ZM10.1797 10.8935C9.63968 10.8935 9.19301 10.4535 9.19301 9.90683C9.19301 9.36683 9.63301 8.92016 10.1797 8.92016C10.7197 8.92016 11.1663 9.36016 11.1663 9.90683C11.1663 10.4535 10.7263 10.8935 10.1797 10.8935Z" fill="#8C8E9C"/>
</g>
</g>
</g>
</svg>
