<svg width="18" height="18" viewBox="0 0 18 18" fill="none" xmlns="http://www.w3.org/2000/svg">
<g clip-path="url(#clip0_13083_3748)">
<path d="M5.51547 13.5C3.92313 13.5 3.12696 13.5 2.56012 13.1601C2.18965 12.938 1.89119 12.6203 1.69856 12.2431C1.40384 11.6661 1.48307 10.903 1.64151 9.37686C1.77377 8.10289 1.83991 7.46591 2.16513 6.9981C2.37865 6.69097 2.66744 6.43923 3.00598 6.26515C3.52161 6 4.18623 6 5.51547 6H12.4845C13.8138 6 14.4784 6 14.994 6.26515C15.3326 6.43923 15.6214 6.69097 15.8349 6.9981C16.1601 7.46591 16.2262 8.10289 16.3585 9.37686C16.5169 10.903 16.5962 11.6661 16.3014 12.2431C16.1088 12.6203 15.8104 12.938 15.4399 13.1601C14.873 13.5 14.0769 13.5 12.4845 13.5" stroke="#030712" stroke-width="1.5"/>
<path d="M12.75 6V4.5C12.75 3.08579 12.75 2.37868 12.3107 1.93934C11.8713 1.5 11.1642 1.5 9.75 1.5H8.25C6.83579 1.5 6.12868 1.5 5.68934 1.93934C5.25 2.37868 5.25 3.08579 5.25 4.5V6" stroke="#030712" stroke-width="1.5" stroke-linejoin="round"/>
<path d="M10.4915 12L7.50849 12C6.99452 12 6.73753 12 6.51887 12.0816C6.22733 12.1905 5.9777 12.402 5.80965 12.6824C5.68361 12.8928 5.62128 13.1633 5.49663 13.7043C5.30185 14.5496 5.20446 14.9723 5.2707 15.3112C5.35901 15.763 5.63428 16.1455 6.01689 16.3481C6.30384 16.5 6.70539 16.5 7.50849 16.5L10.4915 16.5C11.2946 16.5 11.6962 16.5 11.9831 16.3481C12.3657 16.1455 12.641 15.763 12.7293 15.3112C12.7955 14.9723 12.6982 14.5496 12.5034 13.7043C12.3787 13.1633 12.3164 12.8928 12.1904 12.6824C12.0223 12.402 11.7727 12.1905 11.4811 12.0816C11.2625 12 11.0055 12 10.4915 12Z" stroke="#030712" stroke-width="1.5" stroke-linejoin="round"/>
<path d="M13.5 9H13.5067" stroke="#030712" stroke-width="2" stroke-linecap="round" stroke-linejoin="round"/>
</g>
<defs>
<clipPath id="clip0_13083_3748">
<rect width="18" height="18" fill="white"/>
</clipPath>
</defs>
</svg>
