<svg width="20" height="20" viewBox="0 0 20 20" fill="none" xmlns="http://www.w3.org/2000/svg">
<g clip-path="url(#clip0_29601_88353)">
<path fill-rule="evenodd" clip-rule="evenodd" d="M8.97604 0C9.93459 0.620845 10.9347 1.17358 11.9692 1.6542C11.6827 2.01716 11.4431 2.41556 11.2563 2.83976C10.4733 2.45253 9.71258 2.02103 8.97767 1.54732C6.74948 3.29688 4.186 4.16673 1.38815 4.01381C1.17656 12.1565 4.186 16.6752 9.00696 18.4478C12.4559 17.1323 14.9412 14.4816 16.0236 10.4267H16.1473C16.5588 10.427 16.969 10.379 17.3696 10.2836C16.1456 15.2249 13.2176 18.3918 9.00696 19.9951C3.19642 17.8558 -0.242712 12.6038 0.0128221 2.79536C3.06946 2.9598 6.06914 2.28891 8.97604 0.00822166V0Z" fill="white"/>
<path fill-rule="evenodd" clip-rule="evenodd" d="M6.55944 8.72967H6.80358V8.1854C6.80228 7.58064 7.03199 6.9987 7.44485 6.5608C7.64477 6.34483 7.88647 6.17264 8.15497 6.05492C8.42347 5.93721 8.71304 5.87646 9.00573 5.87646C9.29842 5.87646 9.58799 5.93721 9.85649 6.05492C10.125 6.17264 10.3667 6.34483 10.5666 6.5608C10.9835 6.99686 11.2168 7.57917 11.2176 8.1854V8.72967H11.4602C11.5556 8.72967 11.647 8.76796 11.7145 8.83611C11.782 8.90426 11.8199 8.99669 11.8199 9.09307V12.9326C11.8194 13.0288 11.7814 13.121 11.714 13.1891C11.6467 13.2571 11.5554 13.2955 11.4602 13.296H6.55944C6.46417 13.2955 6.37293 13.2571 6.30556 13.1891C6.2382 13.121 6.20017 13.0288 6.19974 12.9326V9.09307C6.19974 8.99669 6.23763 8.90426 6.30509 8.83611C6.37255 8.76796 6.46404 8.72967 6.55944 8.72967ZM7.48392 8.72967H10.5292V8.1854C10.5318 7.75727 10.3702 7.34473 10.0783 7.03437C9.94124 6.88573 9.77535 6.76719 9.59095 6.68614C9.40656 6.60509 9.20763 6.56326 9.00654 6.56326C8.80545 6.56326 8.60652 6.60509 8.42213 6.68614C8.23774 6.76719 8.07184 6.88573 7.93476 7.03437C7.64284 7.34473 7.48125 7.75727 7.48392 8.1854V8.72967ZM8.71113 11.1814L8.32376 12.2091H9.68932L9.32962 11.1666C9.47154 11.0925 9.58442 10.972 9.64982 10.8247C9.71522 10.6775 9.72928 10.5122 9.6897 10.3558C9.65013 10.1994 9.55926 10.0612 9.43193 9.96377C9.3046 9.8663 9.14832 9.81531 8.98861 9.81914C8.8289 9.82296 8.67519 9.88136 8.55257 9.98481C8.42995 10.0883 8.34566 10.2306 8.31346 10.3887C8.28126 10.5468 8.30305 10.7113 8.37527 10.8552C8.4475 10.9992 8.56589 11.1141 8.71113 11.1814Z" fill="white"/>
<path fill-rule="evenodd" clip-rule="evenodd" d="M16.1507 1.1377C16.912 1.1377 17.6562 1.36577 18.2893 1.79308C18.9223 2.2204 19.4156 2.82775 19.707 3.53834C19.9983 4.24894 20.0746 5.03085 19.926 5.78521C19.7775 6.53958 19.4109 7.2325 18.8726 7.77637C18.3342 8.32023 17.6484 8.69061 16.9017 8.84066C16.155 8.99071 15.381 8.9137 14.6776 8.61936C13.9743 8.32502 13.3731 7.82658 12.9501 7.18706C12.5272 6.54755 12.3014 5.79568 12.3014 5.02654C12.3014 3.99515 12.707 3.00601 13.4289 2.27671C14.1507 1.54741 15.1298 1.1377 16.1507 1.1377ZM15.2653 4.93281C15.376 5.02654 15.4799 5.1282 15.5762 5.23701C15.8708 4.75977 16.197 4.30324 16.5527 3.87057C17.5293 2.68994 17.0817 2.91851 18.4245 2.91851L18.2292 3.13227C17.7745 3.65314 17.3615 4.20957 16.9938 4.79633C16.5281 5.47611 16.1057 6.18516 15.7292 6.91916L15.6136 7.14608L15.5062 6.91587C15.3166 6.4974 15.0766 6.10417 14.7917 5.74511C14.5346 5.41752 14.2281 5.13285 13.8835 4.90157C14.0576 4.32112 14.8909 4.61874 15.2637 4.93774L15.2653 4.93281Z" fill="#19B933"/>
</g>
<defs>
<clipPath id="clip0_29601_88353">
<rect width="20" height="20" fill="white"/>
</clipPath>
</defs>
</svg>
