<svg width="138" height="109" viewBox="0 0 138 109" fill="none" xmlns="http://www.w3.org/2000/svg">
<path d="M71.3332 82.5247C89.9452 82.5247 105.033 67.3419 105.033 48.6129C105.033 29.884 89.9452 14.7012 71.3332 14.7012C52.7213 14.7012 37.6333 29.884 37.6333 48.6129C37.6333 67.3419 52.7213 82.5247 71.3332 82.5247Z" fill="#DBDFFF"/>
<path d="M83.3611 12.19C83.6653 11.9102 83.6866 11.4352 83.4086 11.1291C83.1305 10.823 82.6585 10.8016 82.3543 11.0813C82.0501 11.3611 82.0288 11.8361 82.3069 12.1422C82.5849 12.4483 83.0569 12.4697 83.3611 12.19Z" fill="#DBDFFF"/>
<path fillRule="evenodd" clipRule="evenodd" d="M69.729 82.3228C69.775 81.7325 69.9869 81.1678 70.4988 80.6587C70.9996 80.1606 71.5004 79.6625 72.0013 78.9984C73.1894 77.669 74.5097 78.0479 76.0796 78.4984C76.2744 78.5543 76.473 78.6113 76.6757 78.6663C79.0216 79.2153 79.7706 77.2686 80.9026 74.3266C81.1401 73.7093 81.3945 73.0481 81.684 72.357C82.698 70.3401 81.1982 69.4482 79.5839 68.4883C79.3378 68.3419 79.089 68.1939 78.846 68.0401C77.4219 67.1904 77.4556 65.8573 77.4962 64.2471C77.5032 63.9697 77.5104 63.684 77.5104 63.3912C77.3543 61.6827 78.6225 60.9186 79.846 60.1815C81.2383 59.3426 82.5726 58.5387 81.684 56.4178C81.4664 55.8984 81.2658 55.3987 81.0753 54.9239C79.8036 51.7564 78.9769 49.6969 76.5088 50.2745C76.2905 50.3337 76.077 50.3953 75.8678 50.4555C74.3176 50.9023 73.0112 51.2789 71.8343 50.1085C71.508 49.7433 71.1716 49.4277 70.8546 49.1302C69.8741 48.2103 69.0779 47.4631 69.3302 45.9576C70.3678 41.5348 70.0892 41.4319 65.4556 39.7208C64.8708 39.5048 64.2167 39.2633 63.4871 38.9842C61.3557 38.1893 60.5943 39.5088 59.7956 40.893C59.093 42.1108 58.3614 43.3788 56.6424 43.3011C56.2517 43.3011 55.8737 43.32 55.5109 43.3382C54.0133 43.4133 52.7743 43.4754 51.968 42.1388C49.5843 38.2865 49.3278 38.4008 44.6731 40.476C44.1119 40.7262 43.4867 41.0049 42.786 41.3087C40.4926 42.2862 41.0927 44.223 41.7469 46.3347C41.7594 46.375 41.7719 46.4153 41.7844 46.4557C42.1807 48.0323 41.3226 48.8811 40.2855 49.9072C40.0119 50.1778 39.7259 50.4607 39.4472 50.7726C38.9531 51.3342 38.3844 51.5693 37.7805 51.6285C39.3246 68.3378 52.9158 81.5293 69.729 82.3228ZM52.3019 73.6853C57.1432 75.5117 62.6524 73.1872 64.4888 68.3722C66.3252 63.5572 63.988 58.0781 59.1466 56.2517C54.3052 54.4254 48.796 56.7498 46.9596 61.5648C45.1233 66.3798 47.4605 71.8589 52.3019 73.6853Z" fill="#5263FF"/>
<path d="M94.6168 37.4059C94.4857 35.422 94.7479 34.0994 93.4371 33.9672C92.5195 33.8349 91.8641 33.9672 91.4709 33.1736C91.0776 32.3801 90.5533 31.7188 91.0776 31.0575C92.3884 29.0736 91.9952 29.2059 89.7668 27.0898C88.325 25.7672 87.6696 28.5446 86.2277 27.8833C85.4412 27.4865 84.6547 27.4865 84.3926 26.5607C83.8682 24.3124 83.8682 24.5769 80.7223 24.7091C79.5426 24.7091 79.5426 25.7672 79.5426 26.8253C79.4115 27.7511 78.7561 27.8833 77.8385 28.2801C76.3967 29.0736 75.4791 26.4285 74.1683 27.8833C73.5129 28.5446 72.9886 29.2059 72.4643 29.9994C72.071 31.0575 72.9886 31.322 73.5129 32.2478C73.5129 32.2478 73.5129 32.2478 73.5129 32.3801C73.644 32.6446 73.5129 32.9091 73.5129 33.1736C73.5129 33.3059 73.3818 33.5704 73.3818 33.7026C73.1197 34.3639 73.1197 34.893 72.3332 35.0252C70.1048 35.422 70.367 35.5542 70.4981 38.7284C70.6291 40.7123 72.9886 39.2575 73.644 40.7123C73.9061 41.2413 74.4305 42.0349 74.1683 42.5639C74.0372 43.0929 73.5129 43.4897 73.3818 44.0187C72.7264 45.209 73.9061 45.8703 75.0859 46.9284C76.5278 48.251 77.1831 45.4736 78.625 46.1348C80.3291 46.7961 80.198 46.3994 80.5912 48.3832C80.8534 49.7058 82.4263 49.309 84.1304 49.1768C86.0966 49.0445 84.6547 46.6639 86.0966 46.0026C86.3588 45.8703 86.752 45.7381 87.0142 45.6058C87.8006 45.209 88.325 45.7381 89.1114 46.1348C90.2912 46.9284 90.9466 45.7381 92.2574 44.151C93.0438 43.2252 92.2574 42.5639 91.602 41.7703C91.0776 41.1091 91.4709 40.4478 91.733 39.522C92.2574 38.1994 94.7479 39.3897 94.6168 37.4059ZM85.5723 39.9187C83.9993 41.6381 81.3777 41.9026 79.5426 40.3155C77.8385 38.7284 77.5764 36.0833 79.1494 34.2317C80.7223 32.5123 83.3439 32.2478 85.179 33.8349C86.8831 35.422 87.1452 38.0671 85.5723 39.9187Z" fill="#5263FF"/>
<path d="M30.4395 47.9593C29.1595 48.5904 28.6272 50.1435 29.2507 51.4281C29.8741 52.7128 31.4172 53.2426 32.6972 52.6115C33.9772 51.9804 34.5095 50.4273 33.886 49.1427C33.2626 47.858 31.7195 47.3282 30.4395 47.9593Z" fill="#DBDFFF"/>
<path d="M80.5445 85.6417C79.6082 85.6704 78.8698 86.4567 78.8951 87.3978C78.9205 88.339 79.7001 89.0787 80.6364 89.05C81.5728 89.0213 82.3112 88.2351 82.2858 87.2939C82.2605 86.3527 81.4809 85.613 80.5445 85.6417Z" fill="#DBDFFF"/>
<path d="M75.4273 89.9365C74.7906 89.956 74.2884 90.4906 74.3057 91.1306C74.3229 91.7706 74.853 92.2736 75.4897 92.2541C76.1264 92.2346 76.6286 91.6999 76.6113 91.0599C76.5941 90.4199 76.0639 89.9169 75.4273 89.9365Z" fill="#DBDFFF"/>
<path d="M27.0105 58.9657C26.4716 59.2314 26.2475 59.8853 26.51 60.4263C26.7725 60.9672 27.4222 61.1902 27.9612 60.9245C28.5001 60.6588 28.7242 60.0049 28.4617 59.464C28.1992 58.9231 27.5495 58.7 27.0105 58.9657Z" fill="#DBDFFF"/>
<path d="M48.7802 81.9817C48.4095 82.1645 48.2553 82.6142 48.4359 82.9863C48.6164 83.3583 49.0633 83.5118 49.434 83.329C49.8047 83.1462 49.9589 82.6964 49.7783 82.3244C49.5977 81.9524 49.1509 81.7989 48.7802 81.9817Z" fill="#DBDFFF"/>
<path d="M75.4311 13.6629L67.566 21.9334C65.1236 24.4689 61.2212 24.765 58.787 22.5443C56.3529 20.3236 56.3141 16.5205 58.7565 13.985L66.6216 5.71441C69.064 3.1789 72.9664 2.88278 75.4006 5.10352C77.8591 7.25686 77.8735 11.1273 75.4311 13.6629Z" fill="url(#paint0_linear_13727_5232)"/>
<path d="M73.5446 12.7015C75.0862 11.0419 75.0222 8.48249 73.4016 6.98489C71.781 5.4873 69.2175 5.61862 67.6759 7.27823C66.1343 8.93783 66.1983 11.4972 67.8189 12.9948C69.4394 14.4924 72.0029 14.3611 73.5446 12.7015Z" fill="white"/>
<g filter="url(#filter0_d_13727_5232)">
<path d="M49.8949 24.2583L47.698 26.3237C47.4367 26.5636 47.0283 26.6467 46.6771 26.5315L44.0665 25.7183C43.7152 25.6031 43.4211 25.2895 43.3819 24.9365L42.7574 22.2999C42.6675 21.9447 42.7818 21.548 43.0432 21.3081L45.2401 19.2426C45.3969 19.0987 45.4066 18.7979 45.2596 18.6411C45.2106 18.5888 45.1109 18.5344 45.0096 18.5302C43.0411 18.2461 41.0939 18.8665 39.6827 20.162C37.9039 21.8436 37.2133 24.3743 37.8981 26.7123L23.1046 40.3419C21.8486 41.5436 21.7345 43.4964 22.9599 44.8031C24.1363 46.0576 26.1113 46.1411 27.3151 44.9873L42.2654 31.2138C44.4741 31.9096 46.8755 31.3586 48.5497 29.773C50.0132 28.4294 50.7349 26.5024 50.5942 24.589C50.6023 24.3384 50.354 24.1773 50.1514 24.1687C50.0501 24.1644 49.9978 24.2124 49.8949 24.2583ZM24.7403 43.0714C24.2991 42.601 24.3235 41.8491 24.7939 41.4172C25.2644 40.9854 25.9733 41.0154 26.4145 41.4858C26.8556 41.9562 26.8312 42.7081 26.3608 43.14C25.8904 43.5718 25.1814 43.5418 24.7403 43.0714C24.7387 43.1215 24.7387 43.1215 24.7403 43.0714Z" fill="#D5DDEA"/>
</g>
<path opacity="0.4" d="M37.8177 29.5168L26.8945 39.4238" stroke="#D6DCE8" strokeMiterlimit="10"/>
<path opacity="0.4" d="M39.5665 31.3498L28.593 41.2539" stroke="#D6DCE8" strokeMiterlimit="10"/>
<path d="M111.304 26.0151C111.075 25.8687 110.73 25.8752 110.405 26.007C109.84 26.3819 109.123 26.207 108.77 25.6987C108.598 25.4758 108.551 25.1627 108.647 24.8846C108.743 24.6064 108.628 24.3071 108.332 24.1746L107.721 23.7842L106.743 25.0838L95.1228 17.6662C94.9699 17.5686 94.8745 17.3946 94.8556 17.2694L94.8082 16.9562C94.7704 16.7057 94.608 16.5455 94.3881 16.4617L91.3863 15.3377L89.8335 17.4018L92.0302 19.5961C92.1926 19.7563 92.4124 19.8401 92.6804 19.7848L93.0152 19.7157C93.2162 19.6742 93.3596 19.7092 93.5125 19.8068L105.133 27.2243L104.155 28.5239L104.767 28.9143C104.996 29.0607 105.34 29.0542 105.599 28.9363C106.164 28.5614 106.881 28.7362 107.234 29.2446C107.406 29.4674 107.453 29.7805 107.357 30.0587C107.261 30.3368 107.442 30.6223 107.672 30.7687L116.004 36.0878C117.304 36.9174 119.246 36.5165 120.224 35.2169C120.224 35.2169 120.282 35.1405 120.272 35.0778C121.173 33.7294 120.851 32.0524 119.551 31.2228L111.304 26.0151Z" fill="url(#paint1_linear_13727_5232)"/>
<path opacity="0.4" d="M109.409 29.8613L115.678 34.0225" stroke="#D6DCE8" strokeMiterlimit="10"/>
<path opacity="0.4" d="M110.479 28.3359L116.748 32.497" stroke="#D6DCE8" strokeMiterlimit="10"/>
<g filter="url(#filter1_d_13727_5232)">
<path d="M104.197 48.7131L89.5027 57.8307C88.7041 58.3262 88.4616 59.3616 88.9571 60.1602L98.0748 74.8548C98.5703 75.6534 99.6056 75.8959 100.404 75.4003L115.099 66.2827C115.897 65.7872 116.14 64.7519 115.644 63.9533L106.527 49.2587C106.031 48.46 104.996 48.2176 104.197 48.7131Z" fill="#99A1B1"/>
</g>
<path d="M105.269 54.631L100.837 57.3812C100.052 56.6514 98.9277 56.3538 97.9006 56.6593C96.3199 57.1423 95.4426 58.848 95.9656 60.4039L94.568 61.271C94.2086 61.494 94.0874 62.0117 94.3104 62.3711C94.5581 62.7704 95.0758 62.8916 95.4352 62.6686L96.8327 61.8015C97.5678 62.4514 98.5784 62.654 99.4857 62.4228C101.076 62.0444 102.043 60.3938 101.664 58.8035L106.137 56.0286C106.496 55.8056 106.617 55.288 106.394 54.9286C106.186 54.5045 105.669 54.3833 105.269 54.631ZM100.128 59.5358C100.147 59.745 100.102 59.9392 99.9914 60.1181C99.9363 60.2076 99.9211 60.2723 99.8413 60.3219C99.7463 60.4361 99.6912 60.5256 99.5714 60.5999C98.9573 61.0363 98.1408 60.8792 97.7045 60.2651C97.6797 60.2252 97.6797 60.2252 97.6549 60.1852C97.2585 59.5463 97.4803 58.7451 98.0793 58.3734C98.6782 58.0018 99.4547 58.1836 99.8663 58.7578C100.015 58.9974 100.124 59.2618 100.128 59.5358ZM109.655 61.6988L108.297 62.5412C107.513 61.8114 106.388 61.5138 105.361 61.8193C103.78 62.3023 102.943 63.9832 103.426 65.5639L98.9534 68.3388C98.5541 68.5866 98.4328 69.1042 98.6806 69.5035C98.9283 69.9029 99.446 70.0241 99.8453 69.7763L104.318 67.0014C105.053 67.6514 106.023 67.8787 106.971 67.6227C108.561 67.2444 109.528 65.5937 109.149 64.0035L110.547 63.1363C110.946 62.8886 111.067 62.3709 110.82 61.9716C110.572 61.5723 110.054 61.451 109.655 61.6988ZM107.361 64.0624C107.559 64.3819 107.548 64.7205 107.472 65.0441C107.457 65.1088 107.402 65.1983 107.387 65.263C107.332 65.3525 107.316 65.4172 107.261 65.5067C107.206 65.5961 107.166 65.6209 107.111 65.7104C107.071 65.7352 107.031 65.76 106.992 65.7847C106.952 65.8095 106.912 65.8343 106.872 65.8591C106.792 65.9086 106.712 65.9582 106.607 65.9678C106.567 65.9926 106.527 66.0173 106.463 66.0022C105.949 66.1549 105.317 65.9387 104.995 65.4196C104.698 64.9404 104.73 64.3677 105.03 63.9602C105.125 63.8459 105.18 63.7564 105.3 63.6821C105.34 63.6573 105.38 63.6325 105.42 63.6078C106.058 63.2113 106.86 63.4331 107.231 64.0321C107.376 63.9977 107.401 64.0376 107.361 64.0624Z" fill="white"/>
<defs>
<filter id="filter0_d_13727_5232" x="0.0992432" y="7.46191" width="72.5122" height="71.3389" filterUnits="userSpaceOnUse" color-interpolation-filters="sRGB">
<feFlood flood-opacity="0" result="BackgroundImageFix"/>
<feColorMatrix in="SourceAlpha" type="matrix" values="0 0 0 0 0 0 0 0 0 0 0 0 0 0 0 0 0 0 127 0" result="hardAlpha"/>
<feOffset dy="11"/>
<feGaussianBlur stdDeviation="11"/>
<feColorMatrix type="matrix" values="0 0 0 0 0.397708 0 0 0 0 0.47749 0 0 0 0 0.575 0 0 0 0.27 0"/>
<feBlend mode="normal" in2="BackgroundImageFix" result="effect1_dropShadow_13727_5232"/>
<feBlend mode="normal" in="SourceGraphic" in2="effect1_dropShadow_13727_5232" result="shape"/>
</filter>
<filter id="filter1_d_13727_5232" x="66.7002" y="37.4561" width="71.201" height="71.2012" filterUnits="userSpaceOnUse" color-interpolation-filters="sRGB">
<feFlood flood-opacity="0" result="BackgroundImageFix"/>
<feColorMatrix in="SourceAlpha" type="matrix" values="0 0 0 0 0 0 0 0 0 0 0 0 0 0 0 0 0 0 127 0" result="hardAlpha"/>
<feOffset dy="11"/>
<feGaussianBlur stdDeviation="11"/>
<feColorMatrix type="matrix" values="0 0 0 0 0.397708 0 0 0 0 0.47749 0 0 0 0 0.575 0 0 0 0.27 0"/>
<feBlend mode="normal" in2="BackgroundImageFix" result="effect1_dropShadow_13727_5232"/>
<feBlend mode="normal" in="SourceGraphic" in2="effect1_dropShadow_13727_5232" result="shape"/>
</filter>
<linearGradient id="paint0_linear_13727_5232" x1="63.8893" y1="7.34803" x2="67.9326" y2="15.0676" gradientUnits="userSpaceOnUse">
<stop stop-color="#B0BACC"/>
<stop offset="1" stop-color="#969EAE"/>
</linearGradient>
<linearGradient id="paint1_linear_13727_5232" x1="103.56" y1="13.751" x2="106.522" y2="28.1006" gradientUnits="userSpaceOnUse">
<stop stop-color="#B0BACC"/>
<stop offset="1" stop-color="#969EAE"/>
</linearGradient>
</defs>
</svg>
