<svg width="16" height="16" viewBox="0 0 16 16" fill="none" xmlns="http://www.w3.org/2000/svg">
<path d="M10.997 10.5544L15.0443 6.57368L15.0956 6.51518C15.171 6.41299 15.2073 6.28717 15.1978 6.16052C15.1884 6.03387 15.1339 5.91479 15.0443 5.82488L10.997 1.84598L10.9412 1.79828C10.6172 1.55528 10.1402 1.78928 10.1402 2.22038V4.13738L9.93765 4.15088C6.73095 4.40468 4.85265 6.43418 4.40445 10.1152C4.34685 10.5877 4.88865 10.8838 5.23965 10.5706C6.52755 9.42038 7.85865 8.70578 9.24015 8.41958C9.46155 8.37338 9.68415 8.33828 9.90795 8.31428L10.1402 8.29358V10.18L10.1447 10.2538C10.1987 10.6615 10.6928 10.8532 10.997 10.5544ZM10.0034 5.04818L11.0402 4.97888V3.14918L14.1416 6.19838L11.0402 9.24938V7.30808L9.81975 7.41788H9.81255C8.27985 7.58258 6.83355 8.19638 5.46825 9.21968C5.73645 8.01458 6.19455 7.10828 6.79665 6.45938C7.54365 5.65388 8.58765 5.16158 10.0034 5.04818ZM3.94995 2.60018C3.35321 2.60018 2.78092 2.83723 2.35896 3.25919C1.937 3.68114 1.69995 4.25344 1.69995 4.85018V12.0502C1.69995 12.6469 1.937 13.2192 2.35896 13.6412C2.78092 14.0631 3.35321 14.3002 3.94995 14.3002H11.15C11.7467 14.3002 12.319 14.0631 12.7409 13.6412C13.1629 13.2192 13.4 12.6469 13.4 12.0502V11.1502C13.4 11.0308 13.3525 10.9164 13.2682 10.832C13.1838 10.7476 13.0693 10.7002 12.95 10.7002C12.8306 10.7002 12.7161 10.7476 12.6318 10.832C12.5474 10.9164 12.5 11.0308 12.5 11.1502V12.0502C12.5 12.4082 12.3577 12.7516 12.1045 13.0048C11.8514 13.2579 11.508 13.4002 11.15 13.4002H3.94995C3.59191 13.4002 3.24853 13.2579 2.99536 13.0048C2.74218 12.7516 2.59995 12.4082 2.59995 12.0502V4.85018C2.59995 4.49214 2.74218 4.14876 2.99536 3.89558C3.24853 3.64241 3.59191 3.50018 3.94995 3.50018H6.64995C6.7693 3.50018 6.88376 3.45277 6.96815 3.36838C7.05254 3.28398 7.09995 3.16953 7.09995 3.05018C7.09995 2.93083 7.05254 2.81637 6.96815 2.73198C6.88376 2.64759 6.7693 2.60018 6.64995 2.60018H3.94995Z" fill="white"/>
</svg>
