<svg width="32" height="32" viewBox="0 0 32 32" fill="none" xmlns="http://www.w3.org/2000/svg">
<rect x="0.5" y="0.5" width="31" height="31" rx="15.5" stroke="#E6E6E9"/>
<path fillRule="evenodd" clipRule="evenodd" d="M16 10.375C16.3452 10.375 16.625 10.6548 16.625 11L16.625 17.6667C16.625 18.0118 16.3452 18.2917 16 18.2917C15.6548 18.2917 15.375 18.0118 15.375 17.6667L15.375 11C15.375 10.6548 15.6548 10.375 16 10.375Z" fill="#14142B"/>
<path fillRule="evenodd" clipRule="evenodd" d="M18.9419 15.5581C19.186 15.8021 19.186 16.1979 18.9419 16.4419L16.7366 18.6473C16.3298 19.0541 15.6702 19.0541 15.2634 18.6473L13.0581 16.4419C12.814 16.1979 12.814 15.8021 13.0581 15.5581C13.3021 15.314 13.6979 15.314 13.9419 15.5581L16 17.6161L18.0581 15.5581C18.3021 15.314 18.6979 15.314 18.9419 15.5581Z" fill="#14142B"/>
<path fillRule="evenodd" clipRule="evenodd" d="M21.8335 17.5985C22.1787 17.5985 22.4585 17.8783 22.4585 18.2235L22.4585 20.5846C22.4585 21.1599 21.9921 21.6263 21.4168 21.6263L10.5835 21.6263C10.0082 21.6263 9.54183 21.1599 9.54183 20.5846L9.54183 17.668C9.54183 17.3228 9.82165 17.043 10.1668 17.043C10.512 17.043 10.7918 17.3228 10.7918 17.668L10.7918 20.3763L21.2085 20.3763L21.2085 18.2235C21.2085 17.8783 21.4883 17.5985 21.8335 17.5985Z" fill="#14142B"/>
</svg>
