<svg width="21" height="20" viewBox="0 0 21 20" fill="none" xmlns="http://www.w3.org/2000/svg">
<path d="M13.0003 1.04102C13.2926 1.04102 13.5458 1.24356 13.6101 1.52867L14.059 3.52165C14.3867 4.97667 15.523 6.11292 16.978 6.44068L18.971 6.88962C19.2562 6.95385 19.4587 7.20709 19.4587 7.49935C19.4587 7.79161 19.2562 8.04485 18.971 8.10907L16.978 8.55802C15.523 8.88577 14.3867 10.022 14.059 11.477L13.6101 13.47C13.5458 13.7552 13.2926 13.9577 13.0003 13.9577C12.7081 13.9577 12.4548 13.7552 12.3906 13.47L11.9417 11.477C11.6139 10.022 10.4777 8.88577 9.02266 8.55802L7.02964 8.10907C6.74453 8.04485 6.54199 7.79161 6.54199 7.49935C6.54199 7.20709 6.74453 6.95385 7.02964 6.88962L9.02266 6.44068C10.4777 6.11292 11.6139 4.97667 11.9417 3.52165L12.3906 1.52867C12.4548 1.24356 12.7081 1.04102 13.0003 1.04102Z" fill="white"/>
<path d="M6.33366 9.375C6.62592 9.375 6.87916 9.5775 6.94338 9.86267L7.26405 11.2862C7.48302 12.2582 8.24209 13.0173 9.21408 13.2362L10.6377 13.5569C10.9228 13.6212 11.1253 13.8744 11.1253 14.1667C11.1253 14.4589 10.9228 14.7122 10.6377 14.7764L9.21408 15.0971C8.24209 15.316 7.48302 16.0751 7.26405 17.0471L6.94338 18.4707C6.87916 18.7558 6.62592 18.9583 6.33366 18.9583C6.0414 18.9583 5.78816 18.7558 5.72393 18.4707L5.40327 17.0471C5.1843 16.0751 4.42523 15.316 3.4532 15.0971L2.02964 14.7764C1.74453 14.7122 1.54199 14.4589 1.54199 14.1667C1.54199 13.8744 1.74453 13.6212 2.02964 13.5569L3.4532 13.2362C4.42523 13.0173 5.1843 12.2582 5.40327 11.2862L5.72393 9.86267C5.78816 9.5775 6.0414 9.375 6.33366 9.375Z" fill="white"/>
</svg>
