<svg width="22" height="22" viewBox="0 0 22 22" fill="none" xmlns="http://www.w3.org/2000/svg">
<circle cx="11" cy="11" r="11" fill="white"/>
<path d="M16.1713 6.64133C16.4412 7.13485 16.2599 7.75372 15.7664 8.02362C14.3697 8.78744 13.058 10.3865 12.0565 11.92C11.5683 12.6676 11.1766 13.3637 10.9072 13.8726C10.7727 14.1266 10.6695 14.3327 10.6005 14.4737L10.5004 14.6829C10.3431 15.0269 10.008 15.2556 9.63028 15.2764C9.2525 15.2973 8.8943 15.107 8.70008 14.7823C8.38362 14.2532 7.88075 13.7703 7.41473 13.4018C7.18829 13.2228 6.98447 13.0816 6.83902 12.9864L6.62483 12.8524C6.13648 12.5736 5.96643 11.9518 6.24503 11.4633C6.52371 10.9747 7.14572 10.8045 7.63434 11.0832L7.95521 11.2824C8.14076 11.404 8.39527 11.5803 8.67808 11.8039C8.8942 11.9748 9.13586 12.1802 9.37983 12.417C9.64143 11.947 9.9683 11.3922 10.351 10.8062C11.3865 9.22065 12.9266 7.25496 14.789 6.23642C15.2826 5.96652 15.9014 6.14781 16.1713 6.64133Z" fill="#5263FF"/>
</svg>
