<svg width="19" height="18" viewBox="0 0 19 18" fill="none" xmlns="http://www.w3.org/2000/svg">
<g clip-path="url(#clip0_13083_3431)">
<path d="M21.875 11.25H19.625V13.5H20.4125C20.5988 13.5 20.75 13.6266 20.75 13.7812V14.3438C20.75 14.4984 20.5988 14.625 20.4125 14.625H3.0875C2.90117 14.625 2.75 14.4984 2.75 14.3438V13.7812C2.75 13.6266 2.90117 13.5 3.0875 13.5H3.875V11.25H1.625C1.00273 11.25 0.5 11.7527 0.5 12.375V15.75C0.5 16.3723 1.00273 16.875 1.625 16.875H21.875C22.4973 16.875 23 16.3723 23 15.75V12.375C23 11.7527 22.4973 11.25 21.875 11.25ZM18.5 13.5V2.26055C18.5 1.63125 17.9902 1.125 17.3645 1.125H6.13906C5.50977 1.125 5 1.63477 5 2.26055V13.5H18.5ZM7.925 7.10156L8.82148 6.21211C8.96914 6.06445 9.2082 6.06445 9.35586 6.21563L10.8078 7.67812L14.1547 4.35938C14.3023 4.21172 14.5414 4.21172 14.6891 4.36289L15.5785 5.25938C15.7262 5.40703 15.7262 5.64609 15.575 5.79375L11.0645 10.2656C10.9168 10.4133 10.6777 10.4133 10.5301 10.2621L7.925 7.63594C7.77383 7.48828 7.77734 7.24922 7.925 7.10156Z" fill="white"/>
</g>
<defs>
<clipPath id="clip0_13083_3431">
<rect width="18" height="18" fill="white" transform="translate(0.5)"/>
</clipPath>
</defs>
</svg>
