<svg width="705" height="133" viewBox="0 0 705 133" fill="none" xmlns="http://www.w3.org/2000/svg">
<rect x="0.5" y="0.5" width="704" height="132" rx="11.5" fill="#F7F8F8"/>
<rect x="0.5" y="0.5" width="704" height="132" rx="11.5" stroke="#E6E6E9"/>
<path d="M170.438 49.1307C170.347 48.3239 169.972 47.6989 169.312 47.2557C168.653 46.8068 167.824 46.5824 166.824 46.5824C166.108 46.5824 165.489 46.696 164.966 46.9233C164.443 47.1449 164.037 47.4517 163.747 47.8438C163.463 48.2301 163.321 48.6705 163.321 49.1648C163.321 49.5795 163.418 49.9375 163.611 50.2386C163.81 50.5398 164.068 50.7926 164.386 50.9972C164.71 51.196 165.057 51.3636 165.426 51.5C165.795 51.6307 166.151 51.7386 166.491 51.8239L168.196 52.267C168.753 52.4034 169.324 52.5881 169.909 52.821C170.494 53.054 171.037 53.3608 171.537 53.7415C172.037 54.1222 172.44 54.5938 172.747 55.1562C173.06 55.7188 173.216 56.392 173.216 57.1761C173.216 58.1648 172.96 59.0426 172.449 59.8097C171.943 60.5767 171.207 61.1818 170.241 61.625C169.281 62.0682 168.119 62.2898 166.756 62.2898C165.449 62.2898 164.318 62.0824 163.364 61.6676C162.409 61.2528 161.662 60.6648 161.122 59.9034C160.582 59.1364 160.284 58.2273 160.227 57.1761H162.869C162.92 57.8068 163.125 58.3324 163.483 58.7528C163.847 59.1676 164.31 59.4773 164.872 59.6818C165.44 59.8807 166.062 59.9801 166.739 59.9801C167.483 59.9801 168.145 59.8636 168.724 59.6307C169.31 59.392 169.77 59.0625 170.105 58.642C170.44 58.2159 170.608 57.7187 170.608 57.1506C170.608 56.6335 170.46 56.2102 170.165 55.8807C169.875 55.5511 169.48 55.2784 168.98 55.0625C168.486 54.8466 167.926 54.6562 167.301 54.4915L165.239 53.929C163.841 53.5483 162.733 52.9886 161.915 52.25C161.102 51.5114 160.696 50.5341 160.696 49.3182C160.696 48.3125 160.969 47.4347 161.514 46.6847C162.06 45.9347 162.798 45.3523 163.73 44.9375C164.662 44.517 165.713 44.3068 166.884 44.3068C168.065 44.3068 169.108 44.5142 170.011 44.929C170.92 45.3438 171.636 45.9148 172.159 46.642C172.682 47.3636 172.955 48.1932 172.977 49.1307H170.438ZM184.211 56.571V48.9091H186.768V62H184.262V59.733H184.126C183.825 60.4318 183.342 61.0142 182.677 61.4801C182.018 61.9403 181.197 62.1705 180.214 62.1705C179.373 62.1705 178.629 61.9858 177.981 61.6165C177.339 61.2415 176.833 60.6875 176.464 59.9545C176.1 59.2216 175.918 58.3153 175.918 57.2358V48.9091H178.467V56.929C178.467 57.821 178.714 58.5312 179.208 59.0597C179.702 59.5881 180.345 59.8523 181.134 59.8523C181.612 59.8523 182.086 59.733 182.558 59.4943C183.035 59.2557 183.43 58.8949 183.742 58.4119C184.06 57.929 184.217 57.3153 184.211 56.571ZM189.952 62V48.9091H192.398V51.0398H192.56C192.833 50.3182 193.279 49.7557 193.898 49.3523C194.517 48.9432 195.259 48.7386 196.122 48.7386C196.997 48.7386 197.73 48.9432 198.321 49.3523C198.918 49.7614 199.358 50.3239 199.642 51.0398H199.779C200.091 50.3409 200.588 49.7841 201.27 49.3693C201.952 48.9489 202.764 48.7386 203.708 48.7386C204.895 48.7386 205.864 49.1108 206.614 49.8551C207.369 50.5994 207.747 51.7216 207.747 53.2216V62H205.199V53.4602C205.199 52.5739 204.958 51.9318 204.475 51.5341C203.992 51.1364 203.415 50.9375 202.744 50.9375C201.915 50.9375 201.27 51.1932 200.81 51.7045C200.35 52.2102 200.119 52.8608 200.119 53.6562V62H197.58V53.2983C197.58 52.5881 197.358 52.017 196.915 51.5852C196.472 51.1534 195.895 50.9375 195.185 50.9375C194.702 50.9375 194.256 51.0653 193.847 51.321C193.443 51.571 193.117 51.9205 192.867 52.3693C192.622 52.8182 192.5 53.3381 192.5 53.929V62H189.952ZM210.923 62V48.9091H213.369V51.0398H213.531C213.803 50.3182 214.249 49.7557 214.869 49.3523C215.488 48.9432 216.23 48.7386 217.093 48.7386C217.968 48.7386 218.701 48.9432 219.292 49.3523C219.889 49.7614 220.329 50.3239 220.613 51.0398H220.749C221.062 50.3409 221.559 49.7841 222.241 49.3693C222.923 48.9489 223.735 48.7386 224.678 48.7386C225.866 48.7386 226.835 49.1108 227.585 49.8551C228.34 50.5994 228.718 51.7216 228.718 53.2216V62H226.17V53.4602C226.17 52.5739 225.928 51.9318 225.445 51.5341C224.963 51.1364 224.386 50.9375 223.715 50.9375C222.886 50.9375 222.241 51.1932 221.781 51.7045C221.32 52.2102 221.09 52.8608 221.09 53.6562V62H218.551V53.2983C218.551 52.5881 218.329 52.017 217.886 51.5852C217.443 51.1534 216.866 50.9375 216.156 50.9375C215.673 50.9375 215.227 51.0653 214.818 51.321C214.414 51.571 214.088 51.9205 213.838 52.3693C213.593 52.8182 213.471 53.3381 213.471 53.929V62H210.923ZM235.703 62.2898C234.874 62.2898 234.124 62.1364 233.453 61.8295C232.783 61.517 232.252 61.0653 231.86 60.4744C231.473 59.8835 231.28 59.1591 231.28 58.3011C231.28 57.5625 231.422 56.9545 231.706 56.4773C231.99 56 232.374 55.6222 232.857 55.3438C233.34 55.0653 233.879 54.8551 234.476 54.7131C235.073 54.571 235.681 54.4631 236.3 54.3892C237.084 54.2983 237.72 54.2244 238.209 54.1676C238.698 54.1051 239.053 54.0057 239.274 53.8693C239.496 53.733 239.607 53.5114 239.607 53.2045V53.1449C239.607 52.4006 239.397 51.8239 238.976 51.4148C238.561 51.0057 237.942 50.8011 237.118 50.8011C236.26 50.8011 235.584 50.9915 235.09 51.3722C234.601 51.7472 234.263 52.1648 234.076 52.625L231.681 52.0795C231.965 51.2841 232.379 50.642 232.925 50.1534C233.476 49.6591 234.11 49.3011 234.826 49.0795C235.541 48.8523 236.294 48.7386 237.084 48.7386C237.607 48.7386 238.161 48.8011 238.746 48.9261C239.337 49.0455 239.888 49.267 240.399 49.5909C240.916 49.9148 241.34 50.3778 241.669 50.9801C241.999 51.5767 242.164 52.3523 242.164 53.3068V62H239.675V60.2102H239.573C239.408 60.5398 239.161 60.8636 238.831 61.1818C238.502 61.5 238.078 61.7642 237.561 61.9744C237.044 62.1847 236.425 62.2898 235.703 62.2898ZM236.257 60.2443C236.962 60.2443 237.564 60.1051 238.064 59.8267C238.57 59.5483 238.953 59.1847 239.215 58.7358C239.482 58.2812 239.615 57.7955 239.615 57.2784V55.5909C239.524 55.6818 239.348 55.767 239.087 55.8466C238.831 55.9205 238.539 55.9858 238.209 56.0426C237.879 56.0937 237.558 56.142 237.246 56.1875C236.933 56.2273 236.672 56.2614 236.462 56.2898C235.968 56.3523 235.516 56.4574 235.107 56.6051C234.703 56.7528 234.379 56.9659 234.135 57.2443C233.897 57.517 233.777 57.8807 233.777 58.3352C233.777 58.9659 234.01 59.4432 234.476 59.767C234.942 60.0852 235.536 60.2443 236.257 60.2443ZM245.318 62V48.9091H247.781V50.9886H247.917C248.156 50.2841 248.576 49.7301 249.179 49.3267C249.787 48.9176 250.474 48.7131 251.241 48.7131C251.4 48.7131 251.588 48.7187 251.804 48.7301C252.025 48.7415 252.198 48.7557 252.323 48.7727V51.2102C252.221 51.1818 252.039 51.1506 251.778 51.1165C251.517 51.0767 251.255 51.0568 250.994 51.0568C250.392 51.0568 249.855 51.1847 249.383 51.4403C248.917 51.6903 248.548 52.0398 248.275 52.4886C248.002 52.9318 247.866 53.4375 247.866 54.0057V62H245.318ZM256.298 66.9091C255.917 66.9091 255.571 66.8778 255.258 66.8153C254.946 66.7585 254.713 66.696 254.559 66.6278L255.173 64.5398C255.639 64.6648 256.054 64.7188 256.417 64.7017C256.781 64.6847 257.102 64.5483 257.38 64.2926C257.664 64.0369 257.914 63.6193 258.13 63.0398L258.446 62.1705L253.656 48.9091H256.383L259.698 59.0682H259.835L263.15 48.9091H265.886L260.491 63.7472C260.241 64.429 259.923 65.0057 259.537 65.4773C259.15 65.9545 258.69 66.3125 258.156 66.5511C257.622 66.7898 257.002 66.9091 256.298 66.9091Z" fill="#1E1E1E"/>
<path d="M160.162 90V79.57H163.844C164.535 79.57 165.141 79.7007 165.664 79.962C166.187 80.2233 166.593 80.5967 166.882 81.082C167.181 81.5673 167.33 82.1367 167.33 82.79C167.33 83.5273 167.143 84.1527 166.77 84.666C166.397 85.1793 165.893 85.548 165.258 85.772L167.68 90H166.084L163.536 85.478L164.446 86.01H161.534V90H160.162ZM161.534 84.75H163.886C164.297 84.75 164.656 84.6707 164.964 84.512C165.272 84.3533 165.51 84.1247 165.678 83.826C165.855 83.5273 165.944 83.182 165.944 82.79C165.944 82.3887 165.855 82.0433 165.678 81.754C165.51 81.4553 165.272 81.2267 164.964 81.068C164.656 80.9093 164.297 80.83 163.886 80.83H161.534V84.75ZM172.134 90.168C171.406 90.168 170.758 89.9953 170.188 89.65C169.619 89.3047 169.171 88.8333 168.844 88.236C168.518 87.6293 168.354 86.9527 168.354 86.206C168.354 85.45 168.513 84.778 168.83 84.19C169.157 83.602 169.596 83.14 170.146 82.804C170.706 82.4587 171.332 82.286 172.022 82.286C172.582 82.286 173.077 82.3887 173.506 82.594C173.945 82.79 174.314 83.0607 174.612 83.406C174.92 83.742 175.154 84.1293 175.312 84.568C175.48 84.9973 175.564 85.4453 175.564 85.912C175.564 86.0147 175.555 86.1313 175.536 86.262C175.527 86.3833 175.513 86.5 175.494 86.612H169.306V85.492H174.738L174.122 85.996C174.206 85.5107 174.16 85.0767 173.982 84.694C173.805 84.3113 173.544 84.008 173.198 83.784C172.853 83.56 172.461 83.448 172.022 83.448C171.584 83.448 171.182 83.56 170.818 83.784C170.454 84.008 170.17 84.33 169.964 84.75C169.768 85.1607 169.689 85.6507 169.726 86.22C169.689 86.7707 169.773 87.256 169.978 87.676C170.193 88.0867 170.492 88.4087 170.874 88.642C171.266 88.866 171.691 88.978 172.148 88.978C172.652 88.978 173.077 88.8613 173.422 88.628C173.768 88.3947 174.048 88.096 174.262 87.732L175.354 88.292C175.205 88.6373 174.972 88.9547 174.654 89.244C174.346 89.524 173.978 89.748 173.548 89.916C173.128 90.084 172.657 90.168 172.134 90.168ZM179.225 90L176.271 82.454H177.727L180.093 88.838H179.589L181.969 82.454H183.425L180.457 90H179.225ZM184.59 90V82.454H185.892V90H184.59ZM184.59 81.25V79.57H185.892V81.25H184.59ZM191.384 90.168C190.656 90.168 190.008 89.9953 189.438 89.65C188.869 89.3047 188.421 88.8333 188.094 88.236C187.768 87.6293 187.604 86.9527 187.604 86.206C187.604 85.45 187.763 84.778 188.08 84.19C188.407 83.602 188.846 83.14 189.396 82.804C189.956 82.4587 190.582 82.286 191.272 82.286C191.832 82.286 192.327 82.3887 192.756 82.594C193.195 82.79 193.564 83.0607 193.862 83.406C194.17 83.742 194.404 84.1293 194.562 84.568C194.73 84.9973 194.814 85.4453 194.814 85.912C194.814 86.0147 194.805 86.1313 194.786 86.262C194.777 86.3833 194.763 86.5 194.744 86.612H188.556V85.492H193.988L193.372 85.996C193.456 85.5107 193.41 85.0767 193.232 84.694C193.055 84.3113 192.794 84.008 192.448 83.784C192.103 83.56 191.711 83.448 191.272 83.448C190.834 83.448 190.432 83.56 190.068 83.784C189.704 84.008 189.42 84.33 189.214 84.75C189.018 85.1607 188.939 85.6507 188.976 86.22C188.939 86.7707 189.023 87.256 189.228 87.676C189.443 88.0867 189.742 88.4087 190.124 88.642C190.516 88.866 190.941 88.978 191.398 88.978C191.902 88.978 192.327 88.8613 192.672 88.628C193.018 88.3947 193.298 88.096 193.512 87.732L194.604 88.292C194.455 88.6373 194.222 88.9547 193.904 89.244C193.596 89.524 193.228 89.748 192.798 89.916C192.378 90.084 191.907 90.168 191.384 90.168ZM198.248 90L195.658 82.454H197.1L199.158 88.768L198.654 88.754L200.67 82.454H201.902L203.918 88.754L203.414 88.768L205.486 82.454H206.914L204.324 90H203.078L201.09 83.7H201.482L199.494 90H198.248ZM213.97 90.168C213.242 90.168 212.594 89.9953 212.024 89.65C211.455 89.3047 211.007 88.8333 210.68 88.236C210.354 87.6293 210.19 86.9527 210.19 86.206C210.19 85.45 210.349 84.778 210.666 84.19C210.993 83.602 211.432 83.14 211.982 82.804C212.542 82.4587 213.168 82.286 213.858 82.286C214.418 82.286 214.913 82.3887 215.342 82.594C215.781 82.79 216.15 83.0607 216.448 83.406C216.756 83.742 216.99 84.1293 217.148 84.568C217.316 84.9973 217.4 85.4453 217.4 85.912C217.4 86.0147 217.391 86.1313 217.372 86.262C217.363 86.3833 217.349 86.5 217.33 86.612H211.142V85.492H216.574L215.958 85.996C216.042 85.5107 215.996 85.0767 215.818 84.694C215.641 84.3113 215.38 84.008 215.034 83.784C214.689 83.56 214.297 83.448 213.858 83.448C213.42 83.448 213.018 83.56 212.654 83.784C212.29 84.008 212.006 84.33 211.8 84.75C211.604 85.1607 211.525 85.6507 211.562 86.22C211.525 86.7707 211.609 87.256 211.814 87.676C212.029 88.0867 212.328 88.4087 212.71 88.642C213.102 88.866 213.527 88.978 213.984 88.978C214.488 88.978 214.913 88.8613 215.258 88.628C215.604 88.3947 215.884 88.096 216.098 87.732L217.19 88.292C217.041 88.6373 216.808 88.9547 216.49 89.244C216.182 89.524 215.814 89.748 215.384 89.916C214.964 90.084 214.493 90.168 213.97 90.168ZM221.061 90L218.107 82.454H219.563L221.929 88.838H221.425L223.805 82.454H225.261L222.293 90H221.061ZM229.761 90.168C229.033 90.168 228.385 89.9953 227.815 89.65C227.246 89.3047 226.798 88.8333 226.471 88.236C226.145 87.6293 225.981 86.9527 225.981 86.206C225.981 85.45 226.14 84.778 226.457 84.19C226.784 83.602 227.223 83.14 227.773 82.804C228.333 82.4587 228.959 82.286 229.649 82.286C230.209 82.286 230.704 82.3887 231.133 82.594C231.572 82.79 231.941 83.0607 232.239 83.406C232.547 83.742 232.781 84.1293 232.939 84.568C233.107 84.9973 233.191 85.4453 233.191 85.912C233.191 86.0147 233.182 86.1313 233.163 86.262C233.154 86.3833 233.14 86.5 233.121 86.612H226.933V85.492H232.365L231.749 85.996C231.833 85.5107 231.787 85.0767 231.609 84.694C231.432 84.3113 231.171 84.008 230.825 83.784C230.48 83.56 230.088 83.448 229.649 83.448C229.211 83.448 228.809 83.56 228.445 83.784C228.081 84.008 227.797 84.33 227.591 84.75C227.395 85.1607 227.316 85.6507 227.353 86.22C227.316 86.7707 227.4 87.256 227.605 87.676C227.82 88.0867 228.119 88.4087 228.501 88.642C228.893 88.866 229.318 88.978 229.775 88.978C230.279 88.978 230.704 88.8613 231.049 88.628C231.395 88.3947 231.675 88.096 231.889 87.732L232.981 88.292C232.832 88.6373 232.599 88.9547 232.281 89.244C231.973 89.524 231.605 89.748 231.175 89.916C230.755 90.084 230.284 90.168 229.761 90.168ZM234.889 90V82.454H236.163V83.84L236.023 83.644C236.2 83.2147 236.471 82.8973 236.835 82.692C237.199 82.4773 237.642 82.37 238.165 82.37H238.627V83.602H237.969C237.437 83.602 237.008 83.77 236.681 84.106C236.354 84.4327 236.191 84.8993 236.191 85.506V90H234.889ZM240.189 93.08C240.021 93.08 239.853 93.066 239.685 93.038C239.517 93.0193 239.359 92.9773 239.209 92.912V91.75C239.312 91.7593 239.438 91.778 239.587 91.806C239.746 91.834 239.9 91.848 240.049 91.848C240.488 91.848 240.819 91.75 241.043 91.554C241.277 91.358 241.496 91.0267 241.701 90.56L242.177 89.426L242.149 90.56L238.929 82.454H240.343L242.849 88.894H242.429L244.921 82.454H246.363L242.961 90.896C242.803 91.2973 242.597 91.666 242.345 92.002C242.103 92.338 241.804 92.5993 241.449 92.786C241.095 92.982 240.675 93.08 240.189 93.08ZM250.588 90.084C249.85 90.084 249.281 89.874 248.88 89.454C248.488 89.034 248.292 88.4413 248.292 87.676V83.7H246.92V82.454H247.2C247.536 82.454 247.802 82.3513 247.998 82.146C248.194 81.9407 248.292 81.67 248.292 81.334V80.718H249.594V82.454H251.288V83.7H249.594V87.634C249.594 87.886 249.631 88.1053 249.706 88.292C249.79 88.4787 249.925 88.628 250.112 88.74C250.298 88.8427 250.546 88.894 250.854 88.894C250.919 88.894 250.998 88.8893 251.092 88.88C251.194 88.8707 251.288 88.8613 251.372 88.852V90C251.25 90.028 251.115 90.0467 250.966 90.056C250.816 90.0747 250.69 90.084 250.588 90.084ZM253.072 90V79.402H254.374V83.924L254.136 83.798C254.323 83.322 254.622 82.9533 255.032 82.692C255.452 82.4213 255.942 82.286 256.502 82.286C257.044 82.286 257.524 82.4073 257.944 82.65C258.374 82.8927 258.71 83.2287 258.952 83.658C259.204 84.0873 259.33 84.5727 259.33 85.114V90H258.014V85.534C258.014 85.114 257.935 84.7593 257.776 84.47C257.627 84.1807 257.417 83.9567 257.146 83.798C256.876 83.63 256.563 83.546 256.208 83.546C255.863 83.546 255.55 83.63 255.27 83.798C254.99 83.9567 254.771 84.1853 254.612 84.484C254.454 84.7733 254.374 85.1233 254.374 85.534V90H253.072ZM261.194 90V82.454H262.496V90H261.194ZM261.194 81.25V79.57H262.496V81.25H261.194ZM264.516 90V82.454H265.79V83.924L265.58 83.798C265.766 83.322 266.065 82.9533 266.476 82.692C266.896 82.4213 267.386 82.286 267.946 82.286C268.487 82.286 268.968 82.4073 269.388 82.65C269.817 82.8927 270.153 83.2287 270.396 83.658C270.648 84.0873 270.774 84.5727 270.774 85.114V90H269.458V85.534C269.458 85.114 269.383 84.7593 269.234 84.47C269.084 84.1807 268.87 83.9567 268.59 83.798C268.319 83.63 268.006 83.546 267.652 83.546C267.297 83.546 266.98 83.63 266.7 83.798C266.429 83.9567 266.214 84.1853 266.056 84.484C265.897 84.7733 265.818 85.1233 265.818 85.534V90H264.516ZM276.235 93.08C275.703 93.08 275.208 92.996 274.751 92.828C274.303 92.66 273.916 92.4267 273.589 92.128C273.272 91.8387 273.029 91.498 272.861 91.106L274.079 90.546C274.21 90.9007 274.457 91.1993 274.821 91.442C275.194 91.694 275.661 91.82 276.221 91.82C276.65 91.82 277.038 91.736 277.383 91.568C277.738 91.4093 278.018 91.1667 278.223 90.84C278.428 90.5227 278.531 90.1353 278.531 89.678V87.984L278.769 88.236C278.508 88.7493 278.13 89.1413 277.635 89.412C277.15 89.6827 276.613 89.818 276.025 89.818C275.316 89.818 274.681 89.6547 274.121 89.328C273.561 88.992 273.122 88.5393 272.805 87.97C272.488 87.3913 272.329 86.752 272.329 86.052C272.329 85.3427 272.488 84.7033 272.805 84.134C273.122 83.5647 273.556 83.1167 274.107 82.79C274.667 82.454 275.302 82.286 276.011 82.286C276.599 82.286 277.131 82.4213 277.607 82.692C278.092 82.9533 278.48 83.3173 278.769 83.784L278.573 84.134V82.454H279.847V89.678C279.847 90.3313 279.693 90.9147 279.385 91.428C279.077 91.9413 278.648 92.3427 278.097 92.632C277.556 92.9307 276.935 93.08 276.235 93.08ZM276.137 88.558C276.585 88.558 276.986 88.446 277.341 88.222C277.705 87.998 277.994 87.6993 278.209 87.326C278.424 86.9433 278.531 86.5187 278.531 86.052C278.531 85.5947 278.424 85.1747 278.209 84.792C277.994 84.4093 277.705 84.106 277.341 83.882C276.986 83.658 276.585 83.546 276.137 83.546C275.68 83.546 275.264 83.658 274.891 83.882C274.518 84.106 274.224 84.4093 274.009 84.792C273.804 85.1653 273.701 85.5853 273.701 86.052C273.701 86.5187 273.804 86.9433 274.009 87.326C274.224 87.6993 274.513 87.998 274.877 88.222C275.25 88.446 275.67 88.558 276.137 88.558ZM288.191 90.168C287.585 90.168 287.029 90.0327 286.525 89.762C286.031 89.4913 285.648 89.1087 285.377 88.614L285.559 88.39V90H284.285V79.402H285.587V84.078L285.391 83.756C285.671 83.308 286.054 82.9533 286.539 82.692C287.025 82.4213 287.58 82.286 288.205 82.286C288.915 82.286 289.549 82.4587 290.109 82.804C290.679 83.1493 291.127 83.6207 291.453 84.218C291.78 84.806 291.943 85.478 291.943 86.234C291.943 86.9713 291.78 87.6387 291.453 88.236C291.127 88.8333 290.679 89.3047 290.109 89.65C289.549 89.9953 288.91 90.168 288.191 90.168ZM288.093 88.908C288.569 88.908 288.994 88.7913 289.367 88.558C289.741 88.3247 290.03 88.0073 290.235 87.606C290.45 87.1953 290.557 86.738 290.557 86.234C290.557 85.7113 290.45 85.254 290.235 84.862C290.03 84.4607 289.741 84.1433 289.367 83.91C288.994 83.6673 288.569 83.546 288.093 83.546C287.617 83.546 287.188 83.6627 286.805 83.896C286.432 84.1293 286.133 84.4513 285.909 84.862C285.695 85.2633 285.587 85.7207 285.587 86.234C285.587 86.738 285.695 87.1953 285.909 87.606C286.133 88.0073 286.432 88.3247 286.805 88.558C287.188 88.7913 287.617 88.908 288.093 88.908ZM297.123 90.168C296.395 90.168 295.746 89.9953 295.177 89.65C294.607 89.3047 294.159 88.8333 293.833 88.236C293.506 87.6293 293.343 86.9527 293.343 86.206C293.343 85.45 293.501 84.778 293.819 84.19C294.145 83.602 294.584 83.14 295.135 82.804C295.695 82.4587 296.32 82.286 297.011 82.286C297.571 82.286 298.065 82.3887 298.495 82.594C298.933 82.79 299.302 83.0607 299.601 83.406C299.909 83.742 300.142 84.1293 300.301 84.568C300.469 84.9973 300.553 85.4453 300.553 85.912C300.553 86.0147 300.543 86.1313 300.525 86.262C300.515 86.3833 300.501 86.5 300.483 86.612H294.295V85.492H299.727L299.111 85.996C299.195 85.5107 299.148 85.0767 298.971 84.694C298.793 84.3113 298.532 84.008 298.187 83.784C297.841 83.56 297.449 83.448 297.011 83.448C296.572 83.448 296.171 83.56 295.807 83.784C295.443 84.008 295.158 84.33 294.953 84.75C294.757 85.1607 294.677 85.6507 294.715 86.22C294.677 86.7707 294.761 87.256 294.967 87.676C295.181 88.0867 295.48 88.4087 295.863 88.642C296.255 88.866 296.679 88.978 297.137 88.978C297.641 88.978 298.065 88.8613 298.411 88.628C298.756 88.3947 299.036 88.096 299.251 87.732L300.343 88.292C300.193 88.6373 299.96 88.9547 299.643 89.244C299.335 89.524 298.966 89.748 298.537 89.916C298.117 90.084 297.645 90.168 297.123 90.168ZM303.048 90V83.7H301.606V82.454H303.048V81.922C303.048 81.3807 303.165 80.9233 303.398 80.55C303.641 80.1767 303.958 79.892 304.35 79.696C304.752 79.5 305.195 79.402 305.68 79.402C305.783 79.402 305.895 79.4113 306.016 79.43C306.147 79.4393 306.254 79.4533 306.338 79.472V80.634C306.264 80.6153 306.175 80.606 306.072 80.606C305.97 80.5967 305.89 80.592 305.834 80.592C305.405 80.592 305.05 80.6947 304.77 80.9C304.5 81.1053 304.364 81.446 304.364 81.922V82.454H306.156V83.7H304.364V90H303.048ZM311.043 90.168C310.315 90.168 309.657 90 309.069 89.664C308.481 89.3187 308.015 88.8473 307.669 88.25C307.324 87.6527 307.151 86.976 307.151 86.22C307.151 85.464 307.319 84.792 307.655 84.204C308.001 83.616 308.467 83.1493 309.055 82.804C309.643 82.4587 310.306 82.286 311.043 82.286C311.771 82.286 312.429 82.4587 313.017 82.804C313.605 83.14 314.067 83.602 314.403 84.19C314.749 84.778 314.921 85.4547 314.921 86.22C314.921 86.9853 314.744 87.6667 314.389 88.264C314.035 88.852 313.563 89.3187 312.975 89.664C312.397 90 311.753 90.168 311.043 90.168ZM311.043 88.908C311.51 88.908 311.93 88.7913 312.303 88.558C312.686 88.3247 312.985 88.0027 313.199 87.592C313.423 87.1813 313.535 86.724 313.535 86.22C313.535 85.7067 313.423 85.254 313.199 84.862C312.985 84.4607 312.686 84.1433 312.303 83.91C311.93 83.6673 311.51 83.546 311.043 83.546C310.567 83.546 310.138 83.6673 309.755 83.91C309.382 84.1433 309.083 84.4607 308.859 84.862C308.635 85.254 308.523 85.7067 308.523 86.22C308.523 86.724 308.635 87.1813 308.859 87.592C309.083 88.0027 309.382 88.3247 309.755 88.558C310.138 88.7913 310.567 88.908 311.043 88.908ZM316.619 90V82.454H317.893V83.84L317.753 83.644C317.931 83.2147 318.201 82.8973 318.565 82.692C318.929 82.4773 319.373 82.37 319.895 82.37H320.357V83.602H319.699C319.167 83.602 318.738 83.77 318.411 84.106C318.085 84.4327 317.921 84.8993 317.921 85.506V90H316.619ZM324.986 90.168C324.258 90.168 323.609 89.9953 323.04 89.65C322.471 89.3047 322.023 88.8333 321.696 88.236C321.369 87.6293 321.206 86.9527 321.206 86.206C321.206 85.45 321.365 84.778 321.682 84.19C322.009 83.602 322.447 83.14 322.998 82.804C323.558 82.4587 324.183 82.286 324.874 82.286C325.434 82.286 325.929 82.3887 326.358 82.594C326.797 82.79 327.165 83.0607 327.464 83.406C327.772 83.742 328.005 84.1293 328.164 84.568C328.332 84.9973 328.416 85.4453 328.416 85.912C328.416 86.0147 328.407 86.1313 328.388 86.262C328.379 86.3833 328.365 86.5 328.346 86.612H322.158V85.492H327.59L326.974 85.996C327.058 85.5107 327.011 85.0767 326.834 84.694C326.657 84.3113 326.395 84.008 326.05 83.784C325.705 83.56 325.313 83.448 324.874 83.448C324.435 83.448 324.034 83.56 323.67 83.784C323.306 84.008 323.021 84.33 322.816 84.75C322.62 85.1607 322.541 85.6507 322.578 86.22C322.541 86.7707 322.625 87.256 322.83 87.676C323.045 88.0867 323.343 88.4087 323.726 88.642C324.118 88.866 324.543 88.978 325 88.978C325.504 88.978 325.929 88.8613 326.274 88.628C326.619 88.3947 326.899 88.096 327.114 87.732L328.206 88.292C328.057 88.6373 327.823 88.9547 327.506 89.244C327.198 89.524 326.829 89.748 326.4 89.916C325.98 90.084 325.509 90.168 324.986 90.168ZM335.235 90.168C334.479 90.168 333.821 89.9813 333.261 89.608C332.701 89.2347 332.305 88.7307 332.071 88.096L333.107 87.592C333.322 88.04 333.616 88.3947 333.989 88.656C334.363 88.9173 334.778 89.048 335.235 89.048C335.646 89.048 335.987 88.95 336.257 88.754C336.528 88.558 336.663 88.3013 336.663 87.984C336.663 87.76 336.598 87.5827 336.467 87.452C336.346 87.312 336.197 87.2047 336.019 87.13C335.842 87.046 335.679 86.9853 335.529 86.948L334.395 86.626C333.714 86.43 333.215 86.15 332.897 85.786C332.589 85.422 332.435 84.9973 332.435 84.512C332.435 84.064 332.547 83.6767 332.771 83.35C333.005 83.014 333.317 82.7527 333.709 82.566C334.111 82.3793 334.559 82.286 335.053 82.286C335.716 82.286 336.309 82.454 336.831 82.79C337.363 83.126 337.741 83.5973 337.965 84.204L336.901 84.694C336.733 84.302 336.481 83.994 336.145 83.77C335.809 83.5367 335.431 83.42 335.011 83.42C334.629 83.42 334.325 83.518 334.101 83.714C333.877 83.9007 333.765 84.1387 333.765 84.428C333.765 84.6427 333.821 84.82 333.933 84.96C334.045 85.0907 334.181 85.1933 334.339 85.268C334.498 85.3333 334.652 85.3893 334.801 85.436L336.033 85.8C336.649 85.9773 337.125 86.2527 337.461 86.626C337.807 86.9993 337.979 87.4473 337.979 87.97C337.979 88.39 337.863 88.768 337.629 89.104C337.396 89.44 337.074 89.7013 336.663 89.888C336.253 90.0747 335.777 90.168 335.235 90.168ZM342.358 90.168C341.816 90.168 341.326 90.042 340.888 89.79C340.458 89.538 340.122 89.188 339.88 88.74C339.646 88.2827 339.53 87.76 339.53 87.172V82.454H340.832V87.032C340.832 87.4053 340.906 87.732 341.056 88.012C341.214 88.292 341.429 88.5113 341.7 88.67C341.98 88.8287 342.297 88.908 342.652 88.908C343.006 88.908 343.319 88.8287 343.59 88.67C343.87 88.5113 344.084 88.2827 344.234 87.984C344.392 87.6853 344.472 87.3307 344.472 86.92V82.454H345.788V90H344.514V88.53L344.724 88.656C344.546 89.132 344.243 89.5053 343.814 89.776C343.394 90.0373 342.908 90.168 342.358 90.168ZM351.711 90.168C351.104 90.168 350.549 90.0327 350.045 89.762C349.55 89.4913 349.168 89.1087 348.897 88.614L349.079 88.39V90H347.805V79.402H349.107V84.078L348.911 83.756C349.191 83.308 349.574 82.9533 350.059 82.692C350.544 82.4213 351.1 82.286 351.725 82.286C352.434 82.286 353.069 82.4587 353.629 82.804C354.198 83.1493 354.646 83.6207 354.973 84.218C355.3 84.806 355.463 85.478 355.463 86.234C355.463 86.9713 355.3 87.6387 354.973 88.236C354.646 88.8333 354.198 89.3047 353.629 89.65C353.069 89.9953 352.43 90.168 351.711 90.168ZM351.613 88.908C352.089 88.908 352.514 88.7913 352.887 88.558C353.26 88.3247 353.55 88.0073 353.755 87.606C353.97 87.1953 354.077 86.738 354.077 86.234C354.077 85.7113 353.97 85.254 353.755 84.862C353.55 84.4607 353.26 84.1433 352.887 83.91C352.514 83.6673 352.089 83.546 351.613 83.546C351.137 83.546 350.708 83.6627 350.325 83.896C349.952 84.1293 349.653 84.4513 349.429 84.862C349.214 85.2633 349.107 85.7207 349.107 86.234C349.107 86.738 349.214 87.1953 349.429 87.606C349.653 88.0073 349.952 88.3247 350.325 88.558C350.708 88.7913 351.137 88.908 351.613 88.908ZM357.17 90V82.454H358.444V83.994L358.262 83.756C358.449 83.28 358.747 82.916 359.158 82.664C359.569 82.412 360.031 82.286 360.544 82.286C361.132 82.286 361.659 82.4493 362.126 82.776C362.602 83.1027 362.929 83.532 363.106 84.064L362.742 84.078C362.938 83.49 363.269 83.0467 363.736 82.748C364.203 82.44 364.721 82.286 365.29 82.286C365.813 82.286 366.284 82.4073 366.704 82.65C367.133 82.8927 367.474 83.2287 367.726 83.658C367.978 84.0873 368.104 84.5727 368.104 85.114V90H366.788V85.534C366.788 85.114 366.713 84.7593 366.564 84.47C366.415 84.1807 366.209 83.9567 365.948 83.798C365.696 83.63 365.397 83.546 365.052 83.546C364.716 83.546 364.413 83.63 364.142 83.798C363.881 83.9567 363.671 84.1853 363.512 84.484C363.363 84.7733 363.288 85.1233 363.288 85.534V90H361.972V85.534C361.972 85.114 361.897 84.7593 361.748 84.47C361.599 84.1807 361.393 83.9567 361.132 83.798C360.88 83.63 360.581 83.546 360.236 83.546C359.9 83.546 359.597 83.63 359.326 83.798C359.065 83.9567 358.855 84.1853 358.696 84.484C358.547 84.7733 358.472 85.1233 358.472 85.534V90H357.17ZM369.953 90V82.454H371.255V90H369.953ZM369.953 81.25V79.57H371.255V81.25H369.953ZM376.342 90.084C375.604 90.084 375.035 89.874 374.634 89.454C374.242 89.034 374.046 88.4413 374.046 87.676V83.7H372.674V82.454H372.954C373.29 82.454 373.556 82.3513 373.752 82.146C373.948 81.9407 374.046 81.67 374.046 81.334V80.718H375.348V82.454H377.042V83.7H375.348V87.634C375.348 87.886 375.385 88.1053 375.46 88.292C375.544 88.4787 375.679 88.628 375.866 88.74C376.052 88.8427 376.3 88.894 376.608 88.894C376.673 88.894 376.752 88.8893 376.846 88.88C376.948 88.8707 377.042 88.8613 377.126 88.852V90C377.004 90.028 376.869 90.0467 376.72 90.056C376.57 90.0747 376.444 90.084 376.342 90.084ZM381.892 90.084C381.155 90.084 380.586 89.874 380.184 89.454C379.792 89.034 379.596 88.4413 379.596 87.676V83.7H378.224V82.454H378.504C378.84 82.454 379.106 82.3513 379.302 82.146C379.498 81.9407 379.596 81.67 379.596 81.334V80.718H380.898V82.454H382.592V83.7H380.898V87.634C380.898 87.886 380.936 88.1053 381.01 88.292C381.094 88.4787 381.23 88.628 381.416 88.74C381.603 88.8427 381.85 88.894 382.158 88.894C382.224 88.894 382.303 88.8893 382.396 88.88C382.499 88.8707 382.592 88.8613 382.676 88.852V90C382.555 90.028 382.42 90.0467 382.27 90.056C382.121 90.0747 381.995 90.084 381.892 90.084ZM384.377 90V82.454H385.679V90H384.377ZM384.377 81.25V79.57H385.679V81.25H384.377ZM387.699 90V82.454H388.973V83.924L388.763 83.798C388.95 83.322 389.249 82.9533 389.659 82.692C390.079 82.4213 390.569 82.286 391.129 82.286C391.671 82.286 392.151 82.4073 392.571 82.65C393.001 82.8927 393.337 83.2287 393.579 83.658C393.831 84.0873 393.957 84.5727 393.957 85.114V90H392.641V85.534C392.641 85.114 392.567 84.7593 392.417 84.47C392.268 84.1807 392.053 83.9567 391.773 83.798C391.503 83.63 391.19 83.546 390.835 83.546C390.481 83.546 390.163 83.63 389.883 83.798C389.613 83.9567 389.398 84.1853 389.239 84.484C389.081 84.7733 389.001 85.1233 389.001 85.534V90H387.699ZM399.419 93.08C398.887 93.08 398.392 92.996 397.935 92.828C397.487 92.66 397.099 92.4267 396.773 92.128C396.455 91.8387 396.213 91.498 396.045 91.106L397.263 90.546C397.393 90.9007 397.641 91.1993 398.005 91.442C398.378 91.694 398.845 91.82 399.405 91.82C399.834 91.82 400.221 91.736 400.567 91.568C400.921 91.4093 401.201 91.1667 401.407 90.84C401.612 90.5227 401.715 90.1353 401.715 89.678V87.984L401.953 88.236C401.691 88.7493 401.313 89.1413 400.819 89.412C400.333 89.6827 399.797 89.818 399.209 89.818C398.499 89.818 397.865 89.6547 397.305 89.328C396.745 88.992 396.306 88.5393 395.989 87.97C395.671 87.3913 395.513 86.752 395.513 86.052C395.513 85.3427 395.671 84.7033 395.989 84.134C396.306 83.5647 396.74 83.1167 397.291 82.79C397.851 82.454 398.485 82.286 399.195 82.286C399.783 82.286 400.315 82.4213 400.791 82.692C401.276 82.9533 401.663 83.3173 401.953 83.784L401.757 84.134V82.454H403.031V89.678C403.031 90.3313 402.877 90.9147 402.569 91.428C402.261 91.9413 401.831 92.3427 401.281 92.632C400.739 92.9307 400.119 93.08 399.419 93.08ZM399.321 88.558C399.769 88.558 400.17 88.446 400.525 88.222C400.889 87.998 401.178 87.6993 401.393 87.326C401.607 86.9433 401.715 86.5187 401.715 86.052C401.715 85.5947 401.607 85.1747 401.393 84.792C401.178 84.4093 400.889 84.106 400.525 83.882C400.17 83.658 399.769 83.546 399.321 83.546C398.863 83.546 398.448 83.658 398.075 83.882C397.701 84.106 397.407 84.4093 397.193 84.792C396.987 85.1653 396.885 85.5853 396.885 86.052C396.885 86.5187 396.987 86.9433 397.193 87.326C397.407 87.6993 397.697 87.998 398.061 88.222C398.434 88.446 398.854 88.558 399.321 88.558Z" fill="#8C9498"/>
<path opacity="0.6" d="M76.6213 109C100.311 109 119.516 89.7947 119.516 66.0207C119.516 42.2467 100.226 23.0414 76.6213 23.0414C52.9319 23.0414 33.7266 42.2467 33.7266 66.0207C33.7266 89.7947 52.9319 109 76.6213 109Z" fill="#E6E7E8"/>
<path opacity="0.6" d="M124.957 52.4033C126.873 52.4033 128.426 50.8503 128.426 48.9345C128.426 47.0187 126.873 45.4657 124.957 45.4657C123.041 45.4657 121.488 47.0187 121.488 48.9345C121.488 50.8503 123.041 52.4033 124.957 52.4033Z" fill="#E6E7E8"/>
<path opacity="0.6" d="M130.037 38.8665C131.345 38.8665 132.406 37.8059 132.406 36.4976C132.406 35.1893 131.345 34.1287 130.037 34.1287C128.729 34.1287 127.668 35.1893 127.668 36.4976C127.668 37.8059 128.729 38.8665 130.037 38.8665Z" fill="#E6E7E8"/>
<path d="M35.6736 37.8473C36.982 37.8473 38.0426 36.7866 38.0426 35.4783C38.0426 34.17 36.982 33.1094 35.6736 33.1094C34.3653 33.1094 33.3047 34.17 33.3047 35.4783C33.3047 36.7866 34.3653 37.8473 35.6736 37.8473Z" fill="#F1F3F9"/>
<path opacity="0.6" d="M21.2041 83.534C23.6339 83.534 25.6036 81.5643 25.6036 79.1346C25.6036 76.7048 23.6339 74.7351 21.2041 74.7351C18.7744 74.7351 16.8047 76.7048 16.8047 79.1346C16.8047 81.5643 18.7744 83.534 21.2041 83.534Z" fill="#E6E7E8"/>
<g filter="url(#filter0_d_13874_10176)">
<path d="M122.66 37.2519V94.8303C122.66 97.3512 120.618 99.4184 118.097 99.4184H35.3342C32.8133 99.4184 30.7461 97.3764 30.7461 94.8303V37.2519C30.7461 34.7309 32.7881 32.689 35.3342 32.689H118.097C120.618 32.689 122.66 34.7309 122.66 37.2519Z" fill="url(#paint0_linear_13874_10176)"/>
</g>
<path d="M122.66 37.2519V42.0165H30.7461V37.2519C30.7461 34.7309 32.7881 32.689 35.3342 32.689H118.097C120.618 32.689 122.66 34.7309 122.66 37.2519Z" fill="#D5DDEA"/>
<path d="M35.7136 38.5878C36.4097 38.5878 36.9741 38.0235 36.9741 37.3274C36.9741 36.6312 36.4097 36.0669 35.7136 36.0669C35.0175 36.0669 34.4531 36.6312 34.4531 37.3274C34.4531 38.0235 35.0175 38.5878 35.7136 38.5878Z" fill="#FF3B30"/>
<path d="M39.4909 38.5878C40.1871 38.5878 40.7514 38.0235 40.7514 37.3274C40.7514 36.6312 40.1871 36.0669 39.4909 36.0669C38.7948 36.0669 38.2305 36.6312 38.2305 37.3274C38.2305 38.0235 38.7948 38.5878 39.4909 38.5878Z" fill="#FBAD03"/>
<path d="M43.2488 38.5878C43.9449 38.5878 44.5092 38.0235 44.5092 37.3274C44.5092 36.6312 43.9449 36.0669 43.2488 36.0669C42.5526 36.0669 41.9883 36.6312 41.9883 37.3274C41.9883 38.0235 42.5526 38.5878 43.2488 38.5878Z" fill="#27BE69"/>
<path d="M61.6924 49.4281H40.8359C39.7314 49.4281 38.8359 50.3235 38.8359 51.4281V72.003C38.8359 73.1075 39.7314 74.003 40.8359 74.003H61.6925C62.797 74.003 63.6925 73.1075 63.6925 72.003V51.4281C63.6925 50.3235 62.797 49.4281 61.6924 49.4281Z" fill="#D5DDEA"/>
<path d="M97.7422 49.3043H114.894" stroke="#D6DCE8" stroke-width="4" strokeMiterlimit="10" stroke-linecap="round" stroke-linejoin="round"/>
<path d="M70.9453 49.3043H90.2406" stroke="#D6DCE8" stroke-width="4" strokeMiterlimit="10" stroke-linecap="round" stroke-linejoin="round"/>
<path d="M70.9453 57.344H114.896" stroke="#D6DCE8" stroke-width="4" strokeMiterlimit="10" stroke-linecap="round" stroke-linejoin="round"/>
<path d="M88.6328 65.3838H114.896" stroke="#D6DCE8" stroke-width="4" strokeMiterlimit="10" stroke-linecap="round" stroke-linejoin="round"/>
<path d="M70.9453 65.3838H82.2009" stroke="#D6DCE8" stroke-width="4" strokeMiterlimit="10" stroke-linecap="round" stroke-linejoin="round"/>
<path d="M70.9453 73.4235H95.0644" stroke="#D6DCE8" stroke-width="4" strokeMiterlimit="10" stroke-linecap="round" stroke-linejoin="round"/>
<path d="M90.2383 81.4631H114.893" stroke="#D6DCE8" stroke-width="4" strokeMiterlimit="10" stroke-linecap="round" stroke-linejoin="round"/>
<path d="M38.7852 81.4631H82.7354" stroke="#D6DCE8" stroke-width="4" strokeMiterlimit="10" stroke-linecap="round" stroke-linejoin="round"/>
<path d="M63.4414 89.5028H95.6002" stroke="#D6DCE8" stroke-width="4" strokeMiterlimit="10" stroke-linecap="round" stroke-linejoin="round"/>
<path d="M38.7852 89.5028H55.9365" stroke="#D6DCE8" stroke-width="4" strokeMiterlimit="10" stroke-linecap="round" stroke-linejoin="round"/>
<defs>
<filter id="filter0_d_13874_10176" x="8.74609" y="21.689" width="135.914" height="110.729" filterUnits="userSpaceOnUse" color-interpolation-filters="sRGB">
<feFlood flood-opacity="0" result="BackgroundImageFix"/>
<feColorMatrix in="SourceAlpha" type="matrix" values="0 0 0 0 0 0 0 0 0 0 0 0 0 0 0 0 0 0 127 0" result="hardAlpha"/>
<feOffset dy="11"/>
<feGaussianBlur stdDeviation="11"/>
<feColorMatrix type="matrix" values="0 0 0 0 0.397708 0 0 0 0 0.47749 0 0 0 0 0.575 0 0 0 0.27 0"/>
<feBlend mode="normal" in2="BackgroundImageFix" result="effect1_dropShadow_13874_10176"/>
<feBlend mode="normal" in="SourceGraphic" in2="effect1_dropShadow_13874_10176" result="shape"/>
</filter>
<linearGradient id="paint0_linear_13874_10176" x1="76.673" y1="31.1454" x2="76.673" y2="100.138" gradientUnits="userSpaceOnUse">
<stop stop-color="#FDFEFF"/>
<stop offset="0.9964" stop-color="#ECF0F5"/>
</linearGradient>
</defs>
</svg>
