<svg width="20" height="21" viewBox="0 0 20 21" fill="none" xmlns="http://www.w3.org/2000/svg">
<path d="M7 2.50002C6.73729 2.50009 6.47717 2.5519 6.23448 2.65249C5.99179 2.75309 5.7713 2.9005 5.58558 3.08631C5.39986 3.27212 5.25256 3.49269 5.15209 3.73543C5.05161 3.97816 4.99993 4.23831 5 4.50102C5.00007 4.76373 5.05187 5.02386 5.15247 5.26654C5.25307 5.50923 5.40048 5.72973 5.58629 5.91544C5.7721 6.10116 5.99267 6.24846 6.2354 6.34894C6.47814 6.44941 6.73829 6.50109 7.001 6.50102C7.53157 6.50089 8.04035 6.29 8.41542 5.91474C8.79049 5.53948 9.00113 5.03059 9.001 4.50002C9.00087 3.96946 8.78997 3.46068 8.41471 3.0856C8.03945 2.71053 7.53057 2.49989 7 2.50002ZM7 8.50002C6.73729 8.50009 6.47717 8.5519 6.23448 8.65249C5.99179 8.75309 5.7713 8.9005 5.58558 9.08631C5.39986 9.27212 5.25256 9.49269 5.15209 9.73543C5.05161 9.97816 4.99993 10.2383 5 10.501C5.00007 10.7637 5.05187 11.0239 5.15247 11.2665C5.25307 11.5092 5.40048 11.7297 5.58629 11.9154C5.7721 12.1012 5.99267 12.2485 6.2354 12.3489C6.47814 12.4494 6.73829 12.5011 7.001 12.501C7.53157 12.5009 8.04035 12.29 8.41542 11.9147C8.79049 11.5395 9.00113 11.0306 9.001 10.5C9.00087 9.96946 8.78997 9.46068 8.41471 9.0856C8.03945 8.71053 7.53057 8.49989 7 8.50002ZM7 14.5C6.46943 14.5002 5.96065 14.7111 5.58558 15.0863C5.21051 15.4616 4.99987 15.9705 5 16.501C5.00013 17.0316 5.21103 17.5404 5.58629 17.9154C5.96155 18.2905 6.47043 18.5012 7.001 18.501C7.53157 18.5009 8.04035 18.29 8.41542 17.9147C8.79049 17.5395 9.00113 17.0306 9.001 16.5C9.00087 15.9695 8.78997 15.4607 8.41471 15.0856C8.03945 14.7105 7.53057 14.4999 7 14.5ZM13 6.50002C13.2627 6.49996 13.5228 6.44815 13.7655 6.34755C14.0082 6.24696 14.2287 6.09955 14.4144 5.91374C14.6001 5.72793 14.7474 5.50736 14.8479 5.26462C14.9484 5.02188 15.0001 4.76173 15 4.49902C14.9999 4.23631 14.9481 3.97619 14.8475 3.7335C14.7469 3.49082 14.5995 3.27032 14.4137 3.0846C14.2279 2.89889 14.0073 2.75159 13.7646 2.65111C13.5219 2.55064 13.2617 2.49896 12.999 2.49902C12.4684 2.49916 11.9597 2.71005 11.5846 3.08531C11.2095 3.46057 10.9989 3.96946 10.999 4.50002C10.9991 5.03059 11.21 5.53937 11.5853 5.91444C11.9605 6.28952 12.4694 6.50016 13 6.50002ZM13 8.50002C12.7373 8.50009 12.4772 8.5519 12.2345 8.65249C11.9918 8.75309 11.7713 8.9005 11.5856 9.08631C11.3999 9.27212 11.2526 9.49269 11.1521 9.73543C11.0516 9.97816 10.9999 10.2383 11 10.501C11.0001 10.7637 11.0519 11.0239 11.1525 11.2665C11.2531 11.5092 11.4005 11.7297 11.5863 11.9154C11.7721 12.1012 11.9927 12.2485 12.2354 12.3489C12.4781 12.4494 12.7383 12.5011 13.001 12.501C13.5316 12.5009 14.0403 12.29 14.4154 11.9147C14.7905 11.5395 15.0011 11.0306 15.001 10.5C15.0009 9.96946 14.79 9.46068 14.4147 9.0856C14.0395 8.71053 13.5306 8.49989 13 8.50002ZM13 14.5C12.4694 14.5002 11.9607 14.7111 11.5856 15.0863C11.3999 15.2721 11.2526 15.4927 11.1521 15.7354C11.0516 15.9782 10.9999 16.2383 11 16.501C11.0001 16.7637 11.0519 17.0239 11.1525 17.2665C11.2531 17.5092 11.4005 17.7297 11.5863 17.9154C11.9615 18.2905 12.4704 18.5012 13.001 18.501C13.5316 18.5009 14.0403 18.29 14.4154 17.9147C14.7905 17.5395 15.0011 17.0306 15.001 16.5C15.0009 15.9695 14.79 15.4607 14.4147 15.0856C14.0395 14.7105 13.5306 14.4999 13 14.5Z" fill="#BFC0C8"/>
</svg>
