<svg width="20" height="20" viewBox="0 0 20 20" fill="none" xmlns="http://www.w3.org/2000/svg">
<path d="M10 10.8333C10.4602 10.8333 10.8333 10.4602 10.8333 9.99996C10.8333 9.53972 10.4602 9.16663 10 9.16663C9.53976 9.16663 9.16666 9.53972 9.16666 9.99996C9.16666 10.4602 9.53976 10.8333 10 10.8333Z" stroke="#8C8E9C" stroke-width="1.66667" stroke-linecap="round" stroke-linejoin="round"/>
<path d="M15.8333 10.8333C16.2936 10.8333 16.6667 10.4602 16.6667 9.99996C16.6667 9.53972 16.2936 9.16663 15.8333 9.16663C15.3731 9.16663 15 9.53972 15 9.99996C15 10.4602 15.3731 10.8333 15.8333 10.8333Z" stroke="#8C8E9C" stroke-width="1.66667" stroke-linecap="round" stroke-linejoin="round"/>
<path d="M4.16666 10.8333C4.6269 10.8333 4.99999 10.4602 4.99999 9.99996C4.99999 9.53972 4.6269 9.16663 4.16666 9.16663C3.70642 9.16663 3.33333 9.53972 3.33333 9.99996C3.33333 10.4602 3.70642 10.8333 4.16666 10.8333Z" stroke="#8C8E9C" stroke-width="1.66667" stroke-linecap="round" stroke-linejoin="round"/>
</svg>
