<svg width="32" height="32" viewBox="0 0 32 32" fill="none" xmlns="http://www.w3.org/2000/svg">
<g id="time-half-pass">
<g id="elements">
<path id="Union" fillRule="evenodd" clipRule="evenodd" d="M16.001 1.6665C15.2814 1.6665 14.698 2.24989 14.698 2.96953C14.698 3.68918 15.2814 4.27256 16.001 4.27256C22.4778 4.27256 27.7283 9.52304 27.7283 15.9998C27.7283 22.4766 22.4778 27.7271 16.001 27.7271C15.2814 27.7271 14.698 28.3105 14.698 29.0301C14.698 29.7498 15.2814 30.3332 16.001 30.3332C23.9171 30.3332 30.3344 23.9159 30.3344 15.9998C30.3344 8.08376 23.9171 1.6665 16.001 1.6665ZM12.2292 4.84801C12.9068 4.60572 13.2597 3.85998 13.0174 3.18235C12.7752 2.50472 12.0294 2.1518 11.3518 2.39409C10.9632 2.53303 10.5822 2.6875 10.2097 2.85674C9.55446 3.15438 9.26459 3.92681 9.56223 4.58202C9.85987 5.23723 10.6323 5.5271 11.2875 5.22946C11.5946 5.08995 11.9087 4.96258 12.2292 4.84801ZM8.29178 7.16206C8.83286 6.68759 8.88685 5.86432 8.41237 5.32325C7.9379 4.78218 7.11463 4.72819 6.57356 5.20266C6.24977 5.4866 5.93883 5.78439 5.64173 6.09511C5.1444 6.61525 5.16289 7.44008 5.68303 7.93741C6.20317 8.43475 7.02799 8.41626 7.52533 7.89612C7.76955 7.6407 8.0253 7.39575 8.29178 7.16206ZM5.48075 10.8012C5.8014 10.1569 5.53907 9.37471 4.89481 9.05405C4.25056 8.7334 3.46834 8.99573 3.14769 9.63999C2.88121 10.1754 2.64749 10.7295 2.44916 11.2999C2.21281 11.9797 2.57224 12.7223 3.25197 12.9586C3.93169 13.195 4.67432 12.8355 4.91066 12.1558C5.07235 11.6908 5.26305 11.2386 5.48075 10.8012ZM4.29164 15.281C4.33263 14.5625 3.78341 13.9469 3.06493 13.9059C2.34646 13.8649 1.7308 14.4141 1.68981 15.1326C1.65794 15.6912 1.65917 16.2597 1.69305 16.818C1.73663 17.5363 2.35427 18.0833 3.07259 18.0397C3.79092 17.9961 4.3379 17.3785 4.29432 16.6602C4.2666 16.2032 4.26563 15.7371 4.29164 15.281ZM4.93813 19.8185C4.6969 19.1405 3.95171 18.7864 3.2737 19.0276C2.5957 19.2688 2.24162 20.014 2.48285 20.692C2.6738 21.2287 2.89615 21.7508 3.14769 22.2562C3.46834 22.9004 4.25056 23.1628 4.89481 22.8421C5.53907 22.5215 5.8014 21.7393 5.48075 21.095C5.27526 20.6821 5.09382 20.256 4.93813 19.8185ZM7.42835 23.8974C6.93716 23.3715 6.1126 23.3433 5.58666 23.8345C5.06072 24.3257 5.03255 25.1503 5.52375 25.6762C5.87309 26.0503 6.24223 26.4062 6.62951 26.7423C7.17297 27.2141 7.99595 27.1559 8.46769 26.6125C8.93943 26.069 8.88129 25.246 8.33783 24.7743C8.01907 24.4976 7.71547 24.2049 7.42835 23.8974ZM11.0597 26.5604C10.4108 26.2494 9.63255 26.5233 9.32151 27.1722C9.01047 27.8212 9.2844 28.5994 9.93335 28.9105C10.4967 29.1805 11.0803 29.4164 11.6812 29.6155C12.3643 29.8419 13.1016 29.4716 13.3279 28.7884C13.5542 28.1053 13.1839 27.3681 12.5008 27.1417C12.0052 26.9775 11.5241 26.783 11.0597 26.5604Z" fill="#5263FF"/>
<path id="Vector (Stroke)" d="M16.0001 6.6665C16.7365 6.6665 17.3334 7.26346 17.3334 7.99984V12.9439C18.5107 13.4582 19.3334 14.633 19.3334 15.9998C19.3334 17.3667 18.5107 18.5414 17.3334 19.0558V21.3332C17.3334 22.0696 16.7365 22.6665 16.0001 22.6665C15.2637 22.6665 14.6667 22.0696 14.6667 21.3332V19.0558C13.4895 18.5414 12.6667 17.3667 12.6667 15.9998C12.6667 14.633 13.4895 13.4582 14.6667 12.9439V7.99984C14.6667 7.26346 15.2637 6.6665 16.0001 6.6665Z" fill="#5263FF"/>
</g>
</g>
</svg>
