<svg width="62" height="62" viewBox="0 0 62 62" fill="none" xmlns="http://www.w3.org/2000/svg">
<circle opacity="0.1" cx="31" cy="31" r="31" fill="white"/>
<g clip-path="url(#clip0_15533_15708)">
<path d="M46.875 33.25H43.625V36.5H44.7625C45.0316 36.5 45.25 36.6828 45.25 36.9062V37.7188C45.25 37.9422 45.0316 38.125 44.7625 38.125H19.7375C19.4684 38.125 19.25 37.9422 19.25 37.7188V36.9062C19.25 36.6828 19.4684 36.5 19.7375 36.5H20.875V33.25H17.625C16.7262 33.25 16 33.9762 16 34.875V39.75C16 40.6488 16.7262 41.375 17.625 41.375H46.875C47.7738 41.375 48.5 40.6488 48.5 39.75V34.875C48.5 33.9762 47.7738 33.25 46.875 33.25ZM42 36.5V20.2652C42 19.3563 41.2637 18.625 40.3598 18.625H24.1453C23.2363 18.625 22.5 19.3613 22.5 20.2652V36.5H42ZM26.725 27.2578L28.0199 25.973C28.2332 25.7598 28.5785 25.7598 28.7918 25.9781L30.8891 28.0906L35.7234 23.2969C35.9367 23.0836 36.282 23.0836 36.4953 23.302L37.7801 24.5969C37.9934 24.8102 37.9934 25.1555 37.775 25.3688L31.2598 31.8281C31.0465 32.0414 30.7012 32.0414 30.4879 31.823L26.725 28.0297C26.5066 27.8164 26.5117 27.4711 26.725 27.2578Z" fill="white"/>
</g>
<defs>
<clipPath id="clip0_15533_15708">
<rect width="26" height="26" fill="white" transform="translate(16 17)"/>
</clipPath>
</defs>
</svg>
