<svg width="62" height="62" viewBox="0 0 62 62" fill="none" xmlns="http://www.w3.org/2000/svg">
<circle opacity="0.1" cx="31" cy="31" r="31" fill="white"/>
<path d="M36 30.25C36.2668 30.25 36.5134 30.3917 36.6478 30.6221L37.889 32.7498L40.1834 33.3285C40.4402 33.3932 40.6437 33.5886 40.719 33.8424C40.7943 34.0962 40.7302 34.371 40.5504 34.5652L39.018 36.2204L39.604 38.836C39.6653 39.1096 39.5689 39.3946 39.354 39.5747C39.1391 39.7549 38.8417 39.8001 38.583 39.692L36 38.6128L33.417 39.692C33.1583 39.8001 32.8609 39.7549 32.646 39.5747C32.4312 39.3946 32.3347 39.1096 32.396 38.836L32.982 36.2204L31.4497 34.5652C31.2698 34.371 31.2057 34.0962 31.281 33.8424C31.3563 33.5886 31.5599 33.3932 31.8166 33.3285L34.111 32.7498L35.3522 30.6221C35.4866 30.3917 35.7333 30.25 36 30.25Z" fill="white"/>
<path d="M23.25 23C23.25 20.3766 25.3766 18.25 28 18.25C30.6234 18.25 32.75 20.3766 32.75 23C32.75 25.6234 30.6234 27.75 28 27.75C25.3766 27.75 23.25 25.6234 23.25 23Z" fill="white"/>
<path d="M19.25 37C19.25 32.6289 23.2647 29.25 28 29.25C30.0319 29.25 31.931 29.8721 33.4373 30.9278L33.1329 31.4495L31.4498 31.874C30.6796 32.0683 30.0689 32.6542 29.843 33.4157C29.617 34.1772 29.8093 35.0014 30.3489 35.5843L31.3461 36.6613L31.1022 37.75H19.25V37Z" fill="white"/>
</svg>
