<svg width="62" height="62" viewBox="0 0 62 62" fill="none" xmlns="http://www.w3.org/2000/svg">
<circle opacity="0.1" cx="31" cy="31" r="31" fill="white"/>
<path d="M43.2977 19.8218L37.9996 20.0625C37.9155 20.0669 37.8344 20.0956 37.7661 20.145C37.6979 20.1944 37.6454 20.2625 37.6149 20.341C37.5844 20.4196 37.5772 20.5053 37.5942 20.5878C37.6113 20.6703 37.6518 20.7462 37.7109 20.8062L38.774 21.8693L27.5609 30.1818L22.5734 24.0568C22.5362 24.0109 22.4901 23.973 22.4379 23.9454C22.3857 23.9177 22.3284 23.9009 22.2696 23.896C22.2107 23.8911 22.1514 23.8982 22.0954 23.9168C22.0393 23.9354 21.9876 23.9652 21.9434 24.0043L18.4827 27.0668C18.4361 27.1078 18.3987 27.1583 18.373 27.2149C18.3474 27.2715 18.3341 27.3328 18.334 27.395V30.895C18.3341 30.979 18.3584 31.0613 18.4041 31.1319C18.4497 31.2025 18.5147 31.2585 18.5914 31.2931C18.668 31.3277 18.7529 31.3395 18.8361 31.3271C18.9193 31.3147 18.9971 31.2786 19.0602 31.2231L22.184 28.4625L27.1234 34.5743C27.1953 34.662 27.2985 34.7182 27.4111 34.7313C27.5237 34.7444 27.637 34.7132 27.7271 34.6443L41.3246 24.4375L42.7596 25.8725C42.8195 25.933 42.8957 25.9747 42.9789 25.9926C43.0621 26.0104 43.1488 26.0036 43.2282 25.9729C43.3076 25.9423 43.3763 25.8891 43.426 25.82C43.4756 25.7509 43.5041 25.6688 43.5077 25.5837L43.7571 20.2637C43.7578 20.204 43.7462 20.1448 43.7232 20.0897C43.7001 20.0346 43.666 19.9849 43.6229 19.9435C43.5799 19.9021 43.5288 19.8699 43.4729 19.849C43.417 19.8281 43.3574 19.8188 43.2977 19.8218Z" fill="white"/>
<path d="M22.25 32.75H19.1875C18.9459 32.75 18.75 32.9459 18.75 33.1875V41.0625C18.75 41.3041 18.9459 41.5 19.1875 41.5H22.25C22.4916 41.5 22.6875 41.3041 22.6875 41.0625V33.1875C22.6875 32.9459 22.4916 32.75 22.25 32.75Z" fill="white"/>
<path d="M29.25 36.25H26.1875C25.9459 36.25 25.75 36.4459 25.75 36.6875V41.0625C25.75 41.3041 25.9459 41.5 26.1875 41.5H29.25C29.4916 41.5 29.6875 41.3041 29.6875 41.0625V36.6875C29.6875 36.4459 29.4916 36.25 29.25 36.25Z" fill="white"/>
<path d="M36.25 32.75H33.1875C32.9459 32.75 32.75 32.9459 32.75 33.1875V41.0625C32.75 41.3041 32.9459 41.5 33.1875 41.5H36.25C36.4916 41.5 36.6875 41.3041 36.6875 41.0625V33.1875C36.6875 32.9459 36.4916 32.75 36.25 32.75Z" fill="white"/>
<path d="M42.8125 27.9375H39.75C39.5084 27.9375 39.3125 28.1334 39.3125 28.375V41.0625C39.3125 41.3041 39.5084 41.5 39.75 41.5H42.8125C43.0541 41.5 43.25 41.3041 43.25 41.0625V28.375C43.25 28.1334 43.0541 27.9375 42.8125 27.9375Z" fill="white"/>
</svg>
