<svg width="403" height="320" viewBox="0 0 403 320" fill="none" xmlns="http://www.w3.org/2000/svg">
<path d="M200.695 249.274C263.054 249.274 313.609 198.719 313.609 136.137C313.609 73.5554 262.831 23 200.695 23C138.336 23 87.7803 73.5554 87.7803 136.137C87.7803 198.719 138.336 249.274 200.695 249.274Z" fill="#F0F1FF"/>
<g filter="url(#filter0_d_13083_3234)">
<path d="M283.723 212.85C263.09 235.257 233.529 249.273 200.695 249.273C174.491 249.273 150.371 240.346 131.21 225.351V40.7025C131.21 34.5945 136.129 29.6104 142.264 29.6104H251.925L283.723 61.5186V212.85Z" fill="url(#paint0_linear_13083_3234)"/>
</g>
<g filter="url(#filter1_d_13083_3234)">
<path d="M251.925 30.9404V54.3555C251.925 59.0462 255.728 62.8487 260.418 62.8487H285.686" fill="#D5DDEA"/>
</g>
<path fillRule="evenodd" clipRule="evenodd" d="M262.972 75.6461C264.563 77.7893 264.115 80.8161 261.972 82.4067L226.315 108.871C224.635 110.117 222.344 110.142 220.638 108.931L208.348 100.212L186.213 114.084C184.664 115.055 182.699 115.068 181.136 114.118L174.453 110.054L158.5 119.71C156.217 121.092 153.246 120.361 151.864 118.078C150.482 115.795 151.212 112.823 153.496 111.441L171.956 100.268C173.498 99.3348 175.43 99.3368 176.969 100.273L183.609 104.31L205.948 90.3097C207.602 89.2729 209.718 89.3334 211.31 90.4632L223.371 99.0195L256.212 74.6456C258.355 73.055 261.382 73.503 262.972 75.6461Z" fill="#BFC8D6"/>
<path d="M262.5 149.402H217.022C216.268 149.402 215.598 148.839 215.598 148.033V144.328C215.598 143.603 216.184 142.959 217.022 142.959H262.5C263.253 142.959 263.923 143.523 263.923 144.328V148.033C263.84 148.839 263.253 149.402 262.5 149.402Z" fill="#D6DCE8"/>
<path d="M248.009 159.067H217.015C216.265 159.067 215.598 158.644 215.598 158.04V155.261C215.598 154.718 216.181 154.234 217.015 154.234H248.009C248.759 154.234 249.426 154.657 249.426 155.261V158.04C249.426 158.584 248.759 159.067 248.009 159.067Z" fill="#D6DCE8"/>
<path d="M262.5 178.397H217.022C216.268 178.397 215.598 177.692 215.598 176.685V172.054C215.598 171.148 216.184 170.343 217.022 170.343H262.5C263.253 170.343 263.923 171.048 263.923 172.054V176.685C263.923 177.692 263.253 178.397 262.5 178.397Z" fill="#D6DCE8"/>
<path d="M248.009 189.673H217.015C216.265 189.673 215.598 189.109 215.598 188.304V184.599C215.598 183.874 216.181 183.229 217.015 183.229H248.009C248.759 183.229 249.426 183.793 249.426 184.599V188.304C249.426 189.029 248.759 189.673 248.009 189.673Z" fill="#D6DCE8"/>
<path d="M262.5 205.781H217.022C216.268 205.781 215.598 205.217 215.598 204.412V200.707C215.598 199.982 216.184 199.338 217.022 199.338H262.5C263.253 199.338 263.923 199.902 263.923 200.707V204.412C263.923 205.217 263.253 205.781 262.5 205.781Z" fill="#D6DCE8"/>
<path d="M248.009 217.057H217.015C216.265 217.057 215.598 216.352 215.598 215.346V210.714C215.598 209.808 216.181 209.003 217.015 209.003H248.009C248.759 209.003 249.426 209.708 249.426 210.714V215.346C249.426 216.352 248.759 217.057 248.009 217.057Z" fill="#D6DCE8"/>
<path d="M199.053 176.787H156.432C153.479 176.787 151.165 174.37 151.165 171.471V148.275C151.165 145.295 153.559 142.959 156.432 142.959H199.053C202.006 142.959 204.32 145.375 204.32 148.275V171.471C204.4 174.37 202.006 176.787 199.053 176.787Z" fill="#D6DCE8"/>
<path d="M199.052 217.057H156.432C153.479 217.057 151.164 214.641 151.164 211.741V188.545C151.164 185.565 153.559 183.229 156.432 183.229H199.052C202.006 183.229 204.32 185.646 204.32 188.545V211.741C204.4 214.721 202.006 217.057 199.052 217.057Z" fill="#D6DCE8"/>
<g filter="url(#filter2_d_13083_3234)">
<path d="M355.741 123.963V232.457C355.741 237.957 351.242 242.356 345.742 242.356H262.647C257.147 242.356 252.647 237.857 252.647 232.457V123.963C252.647 118.464 257.147 113.964 262.647 113.964H345.842C351.242 113.964 355.741 118.464 355.741 123.963Z" fill="white"/>
</g>
<path d="M355.741 123.963V150.938C355.741 152.111 354.791 153.062 353.618 153.062H254.771C253.598 153.062 252.647 152.111 252.647 150.938V123.963C252.647 118.464 257.147 113.964 262.647 113.964H345.842C351.242 113.964 355.741 118.464 355.741 123.963Z" fill="#BFC8D6"/>
<path d="M275.346 172.36H264.247C262.647 172.36 261.347 171.06 261.347 169.46V164.46C261.347 162.86 262.647 161.561 264.247 161.561H275.346C276.946 161.561 278.246 162.86 278.246 164.46V169.46C278.246 171.06 276.946 172.36 275.346 172.36Z" fill="#D6DCE8"/>
<path d="M298.345 172.36H287.245C285.645 172.36 284.345 171.06 284.345 169.46V164.46C284.345 162.86 285.645 161.561 287.245 161.561H298.345C299.945 161.561 301.244 162.86 301.244 164.46V169.46C301.244 171.06 299.945 172.36 298.345 172.36Z" fill="#D6DCE8"/>
<path d="M321.443 172.36H310.244C308.644 172.36 307.344 171.06 307.344 169.46V164.46C307.344 162.86 308.644 161.561 310.244 161.561H321.343C322.943 161.561 324.243 162.86 324.243 164.46V169.46C324.243 171.06 322.943 172.36 321.443 172.36Z" fill="#D6DCE8"/>
<path d="M344.442 172.36H333.343C331.743 172.36 330.443 171.06 330.443 169.46V164.46C330.443 162.86 331.743 161.561 333.343 161.561H344.442C346.042 161.561 347.342 162.86 347.342 164.46V169.46C347.242 171.06 346.042 172.36 344.442 172.36Z" fill="#D6DCE8"/>
<path d="M275.346 190.46H264.247C262.647 190.46 261.347 189.16 261.347 187.56V182.56C261.347 180.96 262.647 179.66 264.247 179.66H275.346C276.946 179.66 278.246 180.96 278.246 182.56V187.56C278.246 189.16 276.946 190.46 275.346 190.46Z" fill="#D6DCE8"/>
<path d="M298.345 190.46H287.245C285.645 190.46 284.345 189.16 284.345 187.56V182.56C284.345 180.96 285.645 179.66 287.245 179.66H298.345C299.945 179.66 301.244 180.96 301.244 182.56V187.56C301.244 189.16 299.945 190.46 298.345 190.46Z" fill="#D6DCE8"/>
<path d="M321.443 190.46H310.244C308.644 190.46 307.344 189.16 307.344 187.56V182.56C307.344 180.96 308.644 179.66 310.244 179.66H321.343C322.943 179.66 324.243 180.96 324.243 182.56V187.56C324.243 189.16 322.943 190.46 321.443 190.46Z" fill="#D6DCE8"/>
<path d="M344.442 190.46H333.343C331.743 190.46 330.443 189.16 330.443 187.56V182.56C330.443 180.96 331.743 179.66 333.343 179.66H344.442C346.042 179.66 347.342 180.96 347.342 182.56V187.56C347.242 189.16 346.042 190.46 344.442 190.46Z" fill="#D6DCE8"/>
<path d="M275.346 208.459H264.247C262.647 208.459 261.347 207.159 261.347 205.559V200.559C261.347 198.959 262.647 197.659 264.247 197.659H275.346C276.946 197.659 278.246 198.959 278.246 200.559V205.559C278.246 207.259 276.946 208.459 275.346 208.459Z" fill="#D6DCE8"/>
<path d="M298.345 208.459H287.245C285.645 208.459 284.345 207.159 284.345 205.559V200.559C284.345 198.959 285.645 197.659 287.245 197.659H298.345C299.945 197.659 301.244 198.959 301.244 200.559V205.559C301.244 207.259 299.945 208.459 298.345 208.459Z" fill="#D6DCE8"/>
<path d="M321.443 208.459H310.244C308.644 208.459 307.344 207.159 307.344 205.559V200.559C307.344 198.959 308.644 197.659 310.244 197.659H321.343C322.943 197.659 324.243 198.959 324.243 200.559V205.559C324.243 207.259 322.943 208.459 321.443 208.459Z" fill="#D6DCE8"/>
<path d="M347.242 200.659V223.757C347.242 225.357 345.942 226.657 344.442 226.657H333.343C331.743 226.657 330.443 225.357 330.443 223.757V200.659C330.443 199.059 331.743 197.759 333.343 197.759H344.442C346.042 197.759 347.242 199.059 347.242 200.659Z" fill="#BFC8D6"/>
<path d="M275.346 226.558H264.247C262.647 226.558 261.347 225.258 261.347 223.658V218.659C261.347 217.059 262.647 215.759 264.247 215.759H275.346C276.946 215.759 278.246 217.059 278.246 218.659V223.658C278.246 225.358 276.946 226.558 275.346 226.558Z" fill="#D6DCE8"/>
<path d="M298.345 226.558H287.245C285.645 226.558 284.345 225.258 284.345 223.658V218.659C284.345 217.059 285.645 215.759 287.245 215.759H298.345C299.945 215.759 301.244 217.059 301.244 218.659V223.658C301.244 225.358 299.945 226.558 298.345 226.558Z" fill="#D6DCE8"/>
<path d="M321.443 226.558H310.244C308.644 226.558 307.344 225.258 307.344 223.658V218.659C307.344 217.059 308.644 215.759 310.244 215.759H321.343C322.943 215.759 324.243 217.059 324.243 218.659V223.658C324.243 225.358 322.943 226.558 321.443 226.558Z" fill="#D6DCE8"/>
<path d="M342.542 143.661H266.146C263.547 143.661 261.347 141.562 261.347 138.862V127.562C261.347 124.963 263.447 122.763 266.146 122.763H342.542C345.142 122.763 347.342 124.863 347.342 127.562V138.862C347.242 141.462 345.142 143.661 342.542 143.661Z" fill="white"/>
<path d="M309.844 135.464H338.442C339.842 135.464 340.942 134.364 340.942 132.964C340.942 131.564 339.842 130.464 338.442 130.464H309.844C308.444 130.464 307.344 131.564 307.344 132.964C307.444 134.364 308.544 135.464 309.844 135.464Z" fill="#D6DCE8"/>
<g filter="url(#filter3_d_13083_3234)">
<path d="M83.277 134.483C83.8566 132.642 82.5017 130.63 80.6155 130.305C65.3936 126.976 50.3698 135.647 47.5707 150.849C45.2674 163.329 52.4256 176.763 64.7291 182.47C80.955 190.073 99.136 182.858 104.015 167.368C104.304 166.447 104.546 165.681 104.673 164.703C105.09 162.805 103.687 160.946 101.59 160.717L78.4542 157.832C77.2188 157.737 76.3697 156.415 76.7561 155.188L83.277 134.483Z" fill="#D6DCE8"/>
</g>
<path d="M89.7094 133.414C88.4734 132.829 87.0421 133.365 86.6626 134.57C85.9879 136.712 84.976 139.925 84.976 139.925L80.8438 153.046C80.4643 154.251 81.3474 155.456 82.71 155.639L103.19 158.258C104.552 158.441 105.642 157.487 105.553 156.266C105.247 148.719 101.495 141.592 95.2948 136.725C93.4752 135.487 91.6555 134.25 89.7094 133.414Z" fill="#BAC3D2"/>
<g filter="url(#filter4_d_13083_3234)">
<path d="M163.834 84.9679H87.7998C84.2313 84.9679 81.2119 81.9485 81.2119 78.38V30.3437C81.2119 26.7753 84.2313 23.7559 87.7998 23.7559H163.834C167.403 23.7559 170.422 26.7753 170.422 30.3437V78.6545C170.422 82.2229 167.403 84.9679 163.834 84.9679Z" fill="url(#paint1_linear_13083_3234)"/>
</g>
<path d="M101.25 72.8914H95.4855C94.113 72.8914 93.2896 71.7934 93.2896 70.6954V65.7545C93.2896 64.3821 94.3875 63.5586 95.4855 63.5586H101.25C102.622 63.5586 103.446 64.6566 103.446 65.7545V70.6954C103.446 71.7934 102.622 72.8914 101.25 72.8914Z" fill="#AAB2C5"/>
<path d="M119.641 72.8903H113.877C112.504 72.8903 111.681 71.7924 111.681 70.6944V59.1657C111.681 57.7932 112.779 56.9697 113.877 56.9697H119.641C121.013 56.9697 121.837 58.0677 121.837 59.1657V70.6944C121.837 71.7924 121.013 72.8903 119.641 72.8903Z" fill="#AAB2C5"/>
<path d="M138.032 72.8908H132.267C130.895 72.8908 130.072 71.7929 130.072 70.6949V47.3629C130.072 45.9905 131.17 45.167 132.267 45.167H138.032C139.404 45.167 140.228 46.265 140.228 47.3629V70.4204C140.228 71.7929 139.13 72.8908 138.032 72.8908Z" fill="#AAB2C5"/>
<path d="M156.423 72.8905H150.659C149.286 72.8905 148.463 71.7925 148.463 70.6946V38.3043C148.463 36.9319 149.561 36.1084 150.659 36.1084H156.423C157.795 36.1084 158.619 37.2064 158.619 38.3043V70.6946C158.619 71.7925 157.521 72.8905 156.423 72.8905Z" fill="#AAB2C5"/>
<defs>
<filter id="filter0_d_13083_3234" x="84.498" y="6.25414" width="245.937" height="313.088" filterUnits="userSpaceOnUse" color-interpolation-filters="sRGB">
<feFlood flood-opacity="0" result="BackgroundImageFix"/>
<feColorMatrix in="SourceAlpha" type="matrix" values="0 0 0 0 0 0 0 0 0 0 0 0 0 0 0 0 0 0 127 0" result="hardAlpha"/>
<feOffset dy="23.3562"/>
<feGaussianBlur stdDeviation="23.3562"/>
<feColorMatrix type="matrix" values="0 0 0 0 0.397708 0 0 0 0 0.47749 0 0 0 0 0.575 0 0 0 0.27 0"/>
<feBlend mode="normal" in2="BackgroundImageFix" result="effect1_dropShadow_13083_3234"/>
<feBlend mode="normal" in="SourceGraphic" in2="effect1_dropShadow_13083_3234" result="shape"/>
</filter>
<filter id="filter1_d_13083_3234" x="205.213" y="7.58421" width="127.186" height="125.333" filterUnits="userSpaceOnUse" color-interpolation-filters="sRGB">
<feFlood flood-opacity="0" result="BackgroundImageFix"/>
<feColorMatrix in="SourceAlpha" type="matrix" values="0 0 0 0 0 0 0 0 0 0 0 0 0 0 0 0 0 0 127 0" result="hardAlpha"/>
<feOffset dy="23.3562"/>
<feGaussianBlur stdDeviation="23.3562"/>
<feColorMatrix type="matrix" values="0 0 0 0 0.397708 0 0 0 0 0.47749 0 0 0 0 0.575 0 0 0 0.27 0"/>
<feBlend mode="normal" in2="BackgroundImageFix" result="effect1_dropShadow_13083_3234"/>
<feBlend mode="normal" in="SourceGraphic" in2="effect1_dropShadow_13083_3234" result="shape"/>
</filter>
<filter id="filter2_d_13083_3234" x="205.935" y="90.6077" width="196.519" height="221.817" filterUnits="userSpaceOnUse" color-interpolation-filters="sRGB">
<feFlood flood-opacity="0" result="BackgroundImageFix"/>
<feColorMatrix in="SourceAlpha" type="matrix" values="0 0 0 0 0 0 0 0 0 0 0 0 0 0 0 0 0 0 127 0" result="hardAlpha"/>
<feOffset dy="23.3562"/>
<feGaussianBlur stdDeviation="23.3562"/>
<feColorMatrix type="matrix" values="0 0 0 0 0.397708 0 0 0 0 0.47749 0 0 0 0 0.575 0 0 0 0.27 0"/>
<feBlend mode="normal" in2="BackgroundImageFix" result="effect1_dropShadow_13083_3234"/>
<feBlend mode="normal" in="SourceGraphic" in2="effect1_dropShadow_13083_3234" result="shape"/>
</filter>
<filter id="filter3_d_13083_3234" x="0.429657" y="106.241" width="151.029" height="149.344" filterUnits="userSpaceOnUse" color-interpolation-filters="sRGB">
<feFlood flood-opacity="0" result="BackgroundImageFix"/>
<feColorMatrix in="SourceAlpha" type="matrix" values="0 0 0 0 0 0 0 0 0 0 0 0 0 0 0 0 0 0 127 0" result="hardAlpha"/>
<feOffset dy="23.3562"/>
<feGaussianBlur stdDeviation="23.3562"/>
<feColorMatrix type="matrix" values="0 0 0 0 0.397708 0 0 0 0 0.47749 0 0 0 0 0.575 0 0 0 0.27 0"/>
<feBlend mode="normal" in2="BackgroundImageFix" result="effect1_dropShadow_13083_3234"/>
<feBlend mode="normal" in="SourceGraphic" in2="effect1_dropShadow_13083_3234" result="shape"/>
</filter>
<filter id="filter4_d_13083_3234" x="34.4995" y="0.399643" width="182.635" height="154.637" filterUnits="userSpaceOnUse" color-interpolation-filters="sRGB">
<feFlood flood-opacity="0" result="BackgroundImageFix"/>
<feColorMatrix in="SourceAlpha" type="matrix" values="0 0 0 0 0 0 0 0 0 0 0 0 0 0 0 0 0 0 127 0" result="hardAlpha"/>
<feOffset dy="23.3562"/>
<feGaussianBlur stdDeviation="23.3562"/>
<feColorMatrix type="matrix" values="0 0 0 0 0.397708 0 0 0 0 0.47749 0 0 0 0 0.575 0 0 0 0.27 0"/>
<feBlend mode="normal" in2="BackgroundImageFix" result="effect1_dropShadow_13083_3234"/>
<feBlend mode="normal" in="SourceGraphic" in2="effect1_dropShadow_13083_3234" result="shape"/>
</filter>
<linearGradient id="paint0_linear_13083_3234" x1="207.417" y1="24.5293" x2="207.417" y2="251.641" gradientUnits="userSpaceOnUse">
<stop stop-color="#FDFEFF"/>
<stop offset="0.9964" stop-color="#ECF0F5"/>
</linearGradient>
<linearGradient id="paint1_linear_13083_3234" x1="125.788" y1="22.34" x2="125.788" y2="85.6278" gradientUnits="userSpaceOnUse">
<stop stop-color="#FDFEFF"/>
<stop offset="0.9964" stop-color="#ECF0F5"/>
</linearGradient>
</defs>
</svg>
