<svg width="16" height="16" viewBox="0 0 16 16" fill="none" xmlns="http://www.w3.org/2000/svg">
<path d="M7.99968 7.33398C7.82287 7.33398 7.6533 7.40422 7.52827 7.52925C7.40325 7.65427 7.33301 7.82384 7.33301 8.00065V10.6673C7.33301 10.8441 7.40325 11.0137 7.52827 11.1387C7.6533 11.2637 7.82287 11.334 7.99968 11.334C8.17649 11.334 8.34606 11.2637 8.47108 11.1387C8.59611 11.0137 8.66634 10.8441 8.66634 10.6673V8.00065C8.66634 7.82384 8.59611 7.65427 8.47108 7.52925C8.34606 7.40422 8.17649 7.33398 7.99968 7.33398ZM8.25301 4.72065C8.0907 4.65397 7.90865 4.65397 7.74634 4.72065C7.66451 4.75238 7.58975 4.79996 7.52634 4.86065C7.46746 4.92545 7.42011 4.99986 7.38634 5.08065C7.34902 5.15977 7.33076 5.24653 7.33301 5.33398C7.3325 5.42172 7.34932 5.5087 7.3825 5.58992C7.41567 5.67115 7.46456 5.74502 7.52634 5.80732C7.59115 5.86621 7.66555 5.91356 7.74634 5.94732C7.84734 5.98881 7.95699 6.00486 8.06564 5.99406C8.1743 5.98326 8.27863 5.94593 8.36949 5.88536C8.46034 5.8248 8.53492 5.74284 8.58668 5.6467C8.63845 5.55056 8.6658 5.44317 8.66634 5.33398C8.66389 5.15747 8.59483 4.98841 8.47301 4.86065C8.40961 4.79996 8.33485 4.75238 8.25301 4.72065ZM7.99968 1.33398C6.68114 1.33398 5.3922 1.72498 4.29588 2.45752C3.19955 3.19006 2.34506 4.23125 1.84048 5.44943C1.3359 6.6676 1.20387 8.00805 1.46111 9.30125C1.71834 10.5945 2.35328 11.7823 3.28563 12.7147C4.21798 13.647 5.40587 14.282 6.69908 14.5392C7.99228 14.7965 9.33273 14.6644 10.5509 14.1598C11.7691 13.6553 12.8103 12.8008 13.5428 11.7045C14.2754 10.6081 14.6663 9.31919 14.6663 8.00065C14.6663 7.12517 14.4939 6.25827 14.1589 5.44943C13.8238 4.64059 13.3328 3.90566 12.7137 3.28661C12.0947 2.66755 11.3597 2.17649 10.5509 1.84145C9.74206 1.50642 8.87516 1.33398 7.99968 1.33398ZM7.99968 13.334C6.94484 13.334 5.9137 13.0212 5.03664 12.4352C4.15957 11.8491 3.47599 11.0162 3.07232 10.0416C2.66865 9.06709 2.56304 7.99474 2.76882 6.96017C2.97461 5.9256 3.48256 4.9753 4.22844 4.22941C4.97432 3.48354 5.92463 2.97558 6.9592 2.7698C7.99376 2.56401 9.06612 2.66963 10.0407 3.07329C11.0152 3.47696 11.8481 4.16055 12.4342 5.03761C13.0202 5.91467 13.333 6.94582 13.333 8.00065C13.333 9.41514 12.7711 10.7717 11.7709 11.7719C10.7707 12.7721 9.41417 13.334 7.99968 13.334Z" fill="#84818A"/>
</svg>
