<svg width="16" height="16" viewBox="0 0 16 16" fill="none" xmlns="http://www.w3.org/2000/svg">
<g clip-path="url(#clip0_13727_5568)">
<path d="M10.5 9.99935C10.5 8.98683 11.3208 8.16602 12.3333 8.16602C12.881 8.16602 13.373 8.40676 13.7082 8.78654L12.9585 9.44827C12.805 9.27444 12.5822 9.16602 12.3333 9.16602C11.8731 9.16602 11.5 9.53911 11.5 9.99935V10.4993H15.1667V15.166H9.5V10.4993H10.5V9.99935Z" fill="#34A853"/>
<path d="M6.66659 0.833008C4.91768 0.833008 3.49992 2.25077 3.49992 3.99967C3.49992 5.74858 4.91768 7.16634 6.66659 7.16634C8.41549 7.16634 9.83325 5.74858 9.83325 3.99967C9.83325 2.25077 8.41549 0.833008 6.66659 0.833008Z" fill="#34A853"/>
<path d="M6.66659 8.16634C3.50973 8.16634 0.833252 10.4189 0.833252 13.333V13.833H8.49992V9.49967H9.5439C9.57937 9.30043 9.63568 9.10839 9.71047 8.92588C8.81745 8.44226 7.77144 8.16634 6.66659 8.16634Z" fill="#34A853"/>
</g>
<defs>
<clipPath id="clip0_13727_5568">
<rect width="16" height="16" fill="white"/>
</clipPath>
</defs>
</svg>
