<svg width="144" height="118" viewBox="0 0 144 118" fill="none" xmlns="http://www.w3.org/2000/svg">
<g filter="url(#filter0_d_16729_23357)">
<rect x="58.0691" y="21.2168" width="34.1181" height="29.7314" transform="rotate(-12.9538 58.0691 21.2168)" fill="url(#paint0_linear_16729_23357)"/>
</g>
<rect x="62.0498" y="23.3018" width="27.2944" height="2.9244" transform="rotate(-12.9538 62.0498 23.3018)" fill="#D6DCE8"/>
<path d="M56.3394 17.6392C55.6339 15.9977 56.3927 14.0951 58.0343 13.3896L83.4354 2.47249C85.0769 1.76699 86.9796 2.52578 87.6851 4.16731L89.2945 7.91198L57.9489 21.3839L56.3394 17.6392Z" fill="#D6DCE8"/>
<path fillRule="evenodd" clipRule="evenodd" d="M55.7451 17.8948C54.8985 15.925 55.809 13.6418 57.7789 12.7952L83.18 1.87814C85.1498 1.03154 87.433 1.94209 88.2796 3.91192L90.1445 8.25104L57.61 22.2339L55.7451 17.8948ZM58.2898 13.9841C56.9766 14.5485 56.3696 16.0706 56.934 17.3838L58.2879 20.5341L88.4446 7.57312L87.0907 4.42289C86.5263 3.10967 85.0042 2.50263 83.691 3.06704L58.2898 13.9841Z" fill="#D6DCE8"/>
<path d="M57.8147 13.484L57.3013 13.7047C56.414 14.086 55.8691 14.9317 55.8284 15.8359L61.2221 19.9772L64.4594 18.5859L57.8147 13.484Z" fill="white"/>
<path d="M70.6716 15.916L67.4343 17.3073L60.7896 12.2055L64.0269 10.8141L70.6716 15.916Z" fill="white"/>
<path d="M76.8838 13.246L73.6465 14.6374L67.0018 9.53553L70.2391 8.14418L76.8838 13.246Z" fill="white"/>
<path d="M83.096 10.5761L79.8587 11.9675L73.214 6.8656L76.4513 5.47425L83.096 10.5761Z" fill="white"/>
<path d="M89.2846 7.8881L89.2948 7.91194L86.0709 9.29755L79.4262 4.19569L82.6635 2.80434L89.2846 7.8881Z" fill="white"/>
<g filter="url(#filter1_d_16729_23357)">
<path d="M103.374 79.6306L73.2276 63.0338L93.6459 25.9455C94.3106 24.7381 95.8252 24.2881 97.038 24.9558L118.714 36.8894L121.527 46.657L103.374 79.6306Z" fill="url(#paint1_linear_16729_23357)"/>
</g>
<path d="M86.4487 62.1351L81.8886 59.6246C81.7184 59.531 81.7503 59.1509 81.9519 58.7847C82.1535 58.4185 82.4577 58.1882 82.6278 58.2819L87.1879 60.7924C87.3581 60.8861 87.3262 61.2662 87.1246 61.6324C86.8894 62.0596 86.6189 62.2288 86.4487 62.1351Z" fill="#D5DDEA"/>
<path d="M107.547 40.3259L96.1937 34.0756C95.9297 33.9302 95.874 33.4958 96.073 33.1343C96.272 32.7728 96.6689 32.5875 96.933 32.7328L108.286 38.9832C108.55 39.1286 108.606 39.563 108.407 39.9245C108.208 40.286 107.811 40.4713 107.547 40.3259Z" fill="#D6DCE8"/>
<path d="M98.3018 39.3184L94.4144 37.1783C94.1799 37.0491 94.1494 36.6286 94.3484 36.2671C94.5474 35.9056 94.9191 35.7064 95.1537 35.8355L99.0075 37.9572C99.2421 38.0863 99.2725 38.5069 99.0735 38.8684C98.8745 39.2299 98.5028 39.4291 98.3018 39.3184Z" fill="#D6DCE8"/>
<path d="M105.784 62.8642L92.1738 55.3715L90.6737 54.5457L86.1371 52.0481C85.9542 51.9474 85.6172 52.1264 85.4016 52.518C85.2168 52.8537 85.1784 53.27 85.3979 53.3908L89.9345 55.8884L91.4345 56.7142L105.044 64.2069C105.227 64.3077 105.564 64.1286 105.78 63.737C105.959 63.3252 105.967 62.9649 105.784 62.8642Z" fill="#D6DCE8"/>
<path d="M107.754 59.2838L102.697 56.4992L100.974 55.5508L88.1092 48.4684C87.9259 48.3675 87.5887 48.5463 87.3731 48.938C87.1883 49.2737 87.1501 49.6901 87.37 49.8111L100.235 56.8936L101.957 57.842L107.015 60.6265C107.198 60.7274 107.536 60.5486 107.751 60.1569C107.93 59.7451 107.938 59.3847 107.754 59.2838Z" fill="#D6DCE8"/>
<path d="M109.512 56.1692L108.198 55.4456L106.883 54.722L89.8324 45.3348C89.6498 45.2343 89.3133 45.4135 89.0977 45.8052C88.9129 46.1408 88.8741 46.5569 89.0932 46.6775L106.144 56.0647L107.605 56.8687L108.737 57.4919C108.919 57.5924 109.256 57.4132 109.471 57.0215C109.693 56.7059 109.695 56.2697 109.512 56.1692Z" fill="#D6DCE8"/>
<path d="M111.455 52.5724L107.22 50.2409L106.17 49.6631L91.8007 41.752C91.6197 41.6524 91.2847 41.8325 91.0691 42.2241C90.8843 42.5598 90.8443 42.9752 91.0615 43.0947L105.431 51.0058L106.481 51.5837L110.68 53.8952C110.933 54.0347 111.232 53.8347 111.447 53.4431C111.632 53.1074 111.672 52.692 111.455 52.5724Z" fill="#D6DCE8"/>
<path d="M118.57 37.1523L117.992 38.2035C116.394 41.1063 117.451 44.7551 120.354 46.3532L121.383 46.9199" fill="#D5DDEA"/>
<g filter="url(#filter2_d_16729_23357)">
<path d="M69.872 66.1987L37.6118 78.1802L22.8714 38.4918C22.3916 37.1998 23.0403 35.7591 24.3381 35.2771L47.5342 26.6621L56.767 30.9134L69.872 66.1987Z" fill="url(#paint2_linear_16729_23357)"/>
</g>
<path d="M47.6387 26.9434L48.0564 28.0682C49.2101 31.1745 52.6636 32.7575 55.77 31.6038L56.8714 31.1947" fill="#D5DDEA"/>
<path d="M55.2293 51.472L52.2397 49.8758C50.1668 48.769 47.5877 49.7509 46.7129 51.9799L44.7956 56.8647L44.3062 56.6053C42.4926 55.6439 40.2425 56.5166 39.4964 58.4708C38.4232 61.2815 41.1015 64.0277 43.8757 62.9613L51.0757 60.1938L54.7387 58.7693C57.9226 57.5312 58.2225 53.0702 55.2293 51.472Z" fill="#D6DCE8"/>
<path d="M39.5112 51.8842C41.1793 51.0066 41.8723 49.0784 41.0863 47.502C40.3004 45.9256 38.3722 45.3766 36.7042 46.2541C35.0362 47.1317 34.3431 49.0599 35.1291 50.6363C35.9151 52.2127 37.8432 52.7618 39.5112 51.8842Z" fill="#D6DCE8"/>
<g filter="url(#filter3_d_16729_23357)">
<path d="M95.5579 84.4195H56.5808V36.4676C56.5808 34.9066 57.8377 33.6328 59.4058 33.6328H87.4314L95.5579 41.7875V84.4195Z" fill="url(#paint3_linear_16729_23357)"/>
</g>
<path d="M87.4314 33.9727V36.1273C87.4314 39.4411 90.1177 42.1273 93.4314 42.1273H95.5578" fill="#D5DDEA"/>
<path d="M70.6603 49.6877C72.3071 48.6174 74.2008 48.041 76.3415 48.041C82.0226 48.041 86.6334 52.6518 86.6334 58.3329C86.6334 64.0141 82.0226 68.6249 76.3415 68.6249C70.6603 68.6249 66.0496 64.0141 66.0496 58.3329C66.0496 54.7102 67.8609 51.5814 70.6603 49.6877Z" fill="#5263FF"/>
<path d="M77.0608 53.1449L80.1457 56.168C80.5626 56.5766 80.5626 57.1485 80.1457 57.557C79.7288 57.9656 79.1452 57.9656 78.7283 57.557L77.3109 56.168V62.7046C77.3109 63.1948 76.894 63.6851 76.3104 63.6851C75.8101 63.6851 75.3098 63.2765 75.3098 62.7046V56.168L73.8924 57.557C73.4755 57.9656 72.8919 57.9656 72.475 57.557C72.3082 57.3936 72.2249 57.1485 72.2249 56.9034C72.2249 56.6583 72.3082 56.4131 72.475 56.2497L75.56 53.2266C75.7267 53.0632 75.9768 52.9814 76.227 52.9814C76.4771 52.9814 76.894 52.9814 77.0608 53.1449Z" fill="white"/>
<defs>
<filter id="filter0_d_16729_23357" x="36.0691" y="2.56885" width="83.9146" height="80.6226" filterUnits="userSpaceOnUse" color-interpolation-filters="sRGB">
<feFlood flood-opacity="0" result="BackgroundImageFix"/>
<feColorMatrix in="SourceAlpha" type="matrix" values="0 0 0 0 0 0 0 0 0 0 0 0 0 0 0 0 0 0 127 0" result="hardAlpha"/>
<feOffset dy="11"/>
<feGaussianBlur stdDeviation="11"/>
<feColorMatrix type="matrix" values="0 0 0 0 0.397708 0 0 0 0 0.47749 0 0 0 0 0.575 0 0 0 0.27 0"/>
<feBlend mode="normal" in2="BackgroundImageFix" result="effect1_dropShadow_16729_23357"/>
<feBlend mode="normal" in="SourceGraphic" in2="effect1_dropShadow_16729_23357" result="shape"/>
</filter>
<filter id="filter1_d_16729_23357" x="51.2275" y="13.6465" width="92.2998" height="98.9839" filterUnits="userSpaceOnUse" color-interpolation-filters="sRGB">
<feFlood flood-opacity="0" result="BackgroundImageFix"/>
<feColorMatrix in="SourceAlpha" type="matrix" values="0 0 0 0 0 0 0 0 0 0 0 0 0 0 0 0 0 0 127 0" result="hardAlpha"/>
<feOffset dy="11"/>
<feGaussianBlur stdDeviation="11"/>
<feColorMatrix type="matrix" values="0 0 0 0 0.397708 0 0 0 0 0.47749 0 0 0 0 0.575 0 0 0 0.27 0"/>
<feBlend mode="normal" in2="BackgroundImageFix" result="effect1_dropShadow_16729_23357"/>
<feBlend mode="normal" in="SourceGraphic" in2="effect1_dropShadow_16729_23357" result="shape"/>
</filter>
<filter id="filter2_d_16729_23357" x="0.713379" y="15.6621" width="91.1587" height="95.5181" filterUnits="userSpaceOnUse" color-interpolation-filters="sRGB">
<feFlood flood-opacity="0" result="BackgroundImageFix"/>
<feColorMatrix in="SourceAlpha" type="matrix" values="0 0 0 0 0 0 0 0 0 0 0 0 0 0 0 0 0 0 127 0" result="hardAlpha"/>
<feOffset dy="11"/>
<feGaussianBlur stdDeviation="11"/>
<feColorMatrix type="matrix" values="0 0 0 0 0.397708 0 0 0 0 0.47749 0 0 0 0 0.575 0 0 0 0.27 0"/>
<feBlend mode="normal" in2="BackgroundImageFix" result="effect1_dropShadow_16729_23357"/>
<feBlend mode="normal" in="SourceGraphic" in2="effect1_dropShadow_16729_23357" result="shape"/>
</filter>
<filter id="filter3_d_16729_23357" x="34.5808" y="22.6328" width="82.9771" height="94.7866" filterUnits="userSpaceOnUse" color-interpolation-filters="sRGB">
<feFlood flood-opacity="0" result="BackgroundImageFix"/>
<feColorMatrix in="SourceAlpha" type="matrix" values="0 0 0 0 0 0 0 0 0 0 0 0 0 0 0 0 0 0 127 0" result="hardAlpha"/>
<feOffset dy="11"/>
<feGaussianBlur stdDeviation="11"/>
<feColorMatrix type="matrix" values="0 0 0 0 0.397708 0 0 0 0 0.47749 0 0 0 0 0.575 0 0 0 0.27 0"/>
<feBlend mode="normal" in2="BackgroundImageFix" result="effect1_dropShadow_16729_23357"/>
<feBlend mode="normal" in="SourceGraphic" in2="effect1_dropShadow_16729_23357" result="shape"/>
</filter>
<linearGradient id="paint0_linear_16729_23357" x1="75.117" y1="20.5291" x2="75.117" y2="51.2688" gradientUnits="userSpaceOnUse">
<stop stop-color="#FDFEFF"/>
<stop offset="0.9964" stop-color="#ECF0F5"/>
</linearGradient>
<linearGradient id="paint1_linear_16729_23357" x1="110.417" y1="31.1373" x2="88.058" y2="71.7502" gradientUnits="userSpaceOnUse">
<stop stop-color="#FDFEFF"/>
<stop offset="0.9964" stop-color="#ECF0F5"/>
</linearGradient>
<linearGradient id="paint2_linear_16729_23357" x1="37.7585" y1="29.1864" x2="53.8997" y2="72.6465" gradientUnits="userSpaceOnUse">
<stop stop-color="#FDFEFF"/>
<stop offset="0.9964" stop-color="#ECF0F5"/>
</linearGradient>
<linearGradient id="paint3_linear_16729_23357" x1="76.0566" y1="32.4581" x2="76.0566" y2="84.967" gradientUnits="userSpaceOnUse">
<stop stop-color="#FDFEFF"/>
<stop offset="0.9964" stop-color="#ECF0F5"/>
</linearGradient>
</defs>
</svg>
