<svg width="20" height="20" viewBox="0 0 20 20" fill="none" xmlns="http://www.w3.org/2000/svg">
<path fillRule="evenodd" clipRule="evenodd" d="M10.4862 0.347116C10.2177 0.0786306 9.78239 0.0786306 9.5139 0.347116L6.96527 2.89575H3.58337C3.20368 2.89575 2.89587 3.20356 2.89587 3.58325V6.96515L0.347238 9.51378C0.0787527 9.78227 0.0787527 10.2176 0.347238 10.4861L2.89587 13.0347V16.4166C2.89587 16.7963 3.20368 17.1041 3.58337 17.1041H6.96527L9.5139 19.6527C9.78239 19.9212 10.2177 19.9212 10.4862 19.6527L13.0348 17.1041H16.4167C16.7964 17.1041 17.1042 16.7963 17.1042 16.4166V13.0347L19.6528 10.4861C19.9213 10.2176 19.9213 9.78227 19.6528 9.51378L17.1042 6.96515V3.58325C17.1042 3.20356 16.7964 2.89575 16.4167 2.89575H13.0348L10.4862 0.347116ZM12.2236 7.26603L8.82338 11.3139L7.24278 9.93944L6.34054 10.977L8.9766 13.2692L13.2764 8.15042L12.2236 7.26603Z" fill="#8C8E9C"/>
</svg>
