<svg width="20" height="20" viewBox="0 0 20 20" fill="none" xmlns="http://www.w3.org/2000/svg">
<g id="Frame" clip-path="url(#clip0_13215_18887)">
<path id="Vector" d="M23.75 12.5H21.25V15H22.125C22.332 15 22.5 15.1406 22.5 15.3125V15.9375C22.5 16.1094 22.332 16.25 22.125 16.25H2.875C2.66797 16.25 2.5 16.1094 2.5 15.9375V15.3125C2.5 15.1406 2.66797 15 2.875 15H3.75V12.5H1.25C0.558594 12.5 0 13.0586 0 13.75V17.5C0 18.1914 0.558594 18.75 1.25 18.75H23.75C24.4414 18.75 25 18.1914 25 17.5V13.75C25 13.0586 24.4414 12.5 23.75 12.5ZM20 15V2.51172C20 1.8125 19.4336 1.25 18.7383 1.25H6.26562C5.56641 1.25 5 1.81641 5 2.51172V15H20ZM8.25 7.89062L9.24609 6.90234C9.41016 6.73828 9.67578 6.73828 9.83984 6.90625L11.4531 8.53125L15.1719 4.84375C15.3359 4.67969 15.6016 4.67969 15.7656 4.84766L16.7539 5.84375C16.918 6.00781 16.918 6.27344 16.75 6.4375L11.7383 11.4062C11.5742 11.5703 11.3086 11.5703 11.1445 11.4023L8.25 8.48438C8.08203 8.32031 8.08594 8.05469 8.25 7.89062Z" fill="#8C47FF"/>
</g>
<defs>
<clipPath id="clip0_13215_18887">
<rect width="20" height="20" fill="white"/>
</clipPath>
</defs>
</svg>
