<svg width="10" height="10" viewBox="0 0 10 10" fill="none" xmlns="http://www.w3.org/2000/svg">
<path fillRule="evenodd" clipRule="evenodd" d="M1.88602 0.793358C2.4208 0.520875 3.12087 0.520875 4.521 0.520875L5.47933 0.520875C6.87946 0.520875 7.57953 0.520875 8.11431 0.793359C8.58471 1.03304 8.96716 1.41549 9.20685 1.8859C9.47933 2.42068 9.47933 3.12074 9.47933 4.52088L9.47933 5.47921C9.47933 6.87934 9.47933 7.57941 9.20685 8.11419C8.96716 8.58459 8.58471 8.96704 8.11431 9.20673C7.57953 9.47921 6.87946 9.47921 5.47933 9.47921L4.521 9.47921C3.12087 9.47921 2.4208 9.47921 1.88602 9.20673C1.41561 8.96704 1.03316 8.58459 0.793479 8.11419C0.520995 7.57941 0.520995 6.87934 0.520995 5.47921L0.520995 4.52088C0.520996 3.12074 0.520996 2.42068 0.793479 1.8859C1.03316 1.41549 1.41561 1.03304 1.88602 0.793358ZM6.16621 3.52806C6.09202 3.41678 5.96713 3.34994 5.83339 3.34994C5.69965 3.34994 5.57476 3.41678 5.50057 3.52806L4.16672 5.52883L3.66621 4.77806C3.59202 4.66678 3.46713 4.59994 3.33339 4.59994L2.50006 4.59994C2.27914 4.59994 2.10006 4.77903 2.10006 4.99994C2.10006 5.22086 2.27914 5.39994 2.50006 5.39994L3.11932 5.39994L3.8339 6.47182C3.90809 6.5831 4.03298 6.64994 4.16672 6.64994C4.30046 6.64994 4.42536 6.5831 4.49954 6.47182L5.83339 4.47105L6.3339 5.22182C6.40809 5.3331 6.53298 5.39994 6.66672 5.39994L7.50006 5.39994C7.72097 5.39994 7.90006 5.22086 7.90006 4.99994C7.90006 4.77903 7.72097 4.59994 7.50006 4.59994L6.8808 4.59994L6.16621 3.52806Z" fill="#5263FF"/>
</svg>
