<svg width="62" height="62" viewBox="0 0 62 62" fill="none" xmlns="http://www.w3.org/2000/svg">
<circle opacity="0.1" cx="31" cy="31" r="31" fill="white"/>
<path d="M21.9844 20.3933C22.4237 20.8327 22.4237 21.545 21.9844 21.9843C17.0052 26.9635 17.0052 35.0364 21.9844 40.0156C22.4237 40.4549 22.4237 41.1672 21.9844 41.6066C21.545 42.0459 20.8327 42.0459 20.3934 41.6066C14.5355 35.7487 14.5355 26.2512 20.3934 20.3933C20.8327 19.954 21.545 19.954 21.9844 20.3933ZM41.6066 20.3933C47.4645 26.2512 47.4645 35.7487 41.6066 41.6066C41.1673 42.0459 40.455 42.0459 40.0156 41.6066C39.5763 41.1672 39.5763 40.4549 40.0156 40.0156C44.9948 35.0364 44.9948 26.9635 40.0156 21.9843C39.5763 21.545 39.5763 20.8327 40.0156 20.3933C40.455 19.954 41.1673 19.954 41.6066 20.3933ZM26.227 24.636C26.6664 25.0753 26.6664 25.7876 26.227 26.227C23.591 28.863 23.591 33.1369 26.227 35.7729C26.6664 36.2123 26.6664 36.9246 26.227 37.3639C25.7877 37.8033 25.0754 37.8033 24.636 37.3639C21.1213 33.8492 21.1213 28.1507 24.636 24.636C25.0754 24.1966 25.7877 24.1966 26.227 24.636ZM37.364 24.636C40.8787 28.1507 40.8787 33.8492 37.364 37.3639C36.9246 37.8033 36.2123 37.8033 35.773 37.3639C35.3336 36.9246 35.3336 36.2123 35.773 35.7729C38.409 33.1369 38.409 28.863 35.773 26.227C35.3336 25.7876 35.3336 25.0753 35.773 24.636C36.2123 24.1966 36.9246 24.1966 37.364 24.636ZM31 28.7499C32.2426 28.7499 33.25 29.7573 33.25 31C33.25 32.2426 32.2426 33.25 31 33.25C29.7574 33.25 28.75 32.2426 28.75 31C28.75 29.7573 29.7574 28.7499 31 28.7499Z" fill="white"/>
</svg>
