<svg width="24" height="24" viewBox="0 0 24 24" fill="none" xmlns="http://www.w3.org/2000/svg">
<path fillRule="evenodd" clipRule="evenodd" d="M12.2812 10.8459L16.1589 6.96814C16.3196 6.8074 16.4099 6.58943 16.4099 6.36214C16.4099 6.13486 16.3196 5.91688 16.1589 5.75614L11.0092 0.606429C10.8485 0.445739 10.6305 0.355469 10.4032 0.355469C10.1759 0.355469 9.95794 0.445739 9.7972 0.606429L5.91949 4.48243C5.83966 4.56205 5.77633 4.65664 5.73312 4.76077C5.68991 4.86491 5.66767 4.97654 5.66767 5.08929C5.66767 5.20203 5.68991 5.31367 5.73312 5.4178C5.77633 5.52193 5.83966 5.61652 5.91949 5.69614L11.0692 10.8459C11.2299 11.0065 11.4479 11.0968 11.6752 11.0968C11.9025 11.0968 12.1205 11.0065 12.2812 10.8459ZM3.89491 9.663H6.85549L9.44749 12.2533H7.35606C7.0719 12.2533 6.79938 12.3662 6.59844 12.5671C6.39751 12.768 6.28463 13.0406 6.28463 13.3247C6.28463 13.6089 6.39751 13.8814 6.59844 14.0823C6.79938 14.2833 7.0719 14.3961 7.35606 14.3961H15.7046C15.9888 14.3961 16.2613 14.2833 16.4622 14.0823C16.6632 13.8814 16.7761 13.6089 16.7761 13.3247C16.7761 13.0406 16.6632 12.768 16.4622 12.5671C16.2613 12.3662 15.9888 12.2533 15.7046 12.2533H13.9029L16.4932 9.66129H19.1623C19.8443 9.66129 20.4984 9.9322 20.9806 10.4144C21.4629 10.8967 21.7338 11.5507 21.7338 12.2327V16.719H1.32349V12.2327C1.32349 11.5507 1.5944 10.8967 2.07664 10.4144C2.55888 9.9322 3.21293 9.663 3.89491 9.663ZM21.7355 18.8619H1.32349V23.0961C1.32349 23.3235 1.41379 23.5415 1.57454 23.7022C1.73528 23.863 1.9533 23.9533 2.18063 23.9533H20.8783C21.1057 23.9533 21.3237 23.863 21.4844 23.7022C21.6452 23.5415 21.7355 23.3235 21.7355 23.0961V18.8619Z" fill="#5263FF"/>
</svg>
