<svg width="37" height="37" viewBox="0 0 37 37" fill="none" xmlns="http://www.w3.org/2000/svg">
<path d="M0 4C0 1.79086 1.79086 0 4 0H33C35.2091 0 37 1.79086 37 4V33C37 35.2091 35.2091 37 33 37H4C1.79086 37 0 35.2091 0 33V4Z" fill="#5263FF"/>
<path d="M23.5 11.9693C23.5 11.4781 23.238 11.0241 22.8125 10.7785L18.5157 8.29771C18.1966 8.11349 17.8035 8.11349 17.4844 8.29771L16.625 8.79387V26.2188L15.25 25.3594V14.5686L13.1463 15.8835C12.7443 16.1347 12.5 16.5754 12.5 17.0495V26.0307C12.5 26.522 12.7621 26.9759 13.1875 27.2215L17.4844 29.7023C17.8035 29.8865 18.1966 29.8865 18.5157 29.7023L19.375 29.2062V11.7813L20.75 12.6406V23.4314L22.8538 22.1166C23.2558 21.8653 23.5 21.4246 23.5 20.9506V11.9693Z" fill="white"/>
<path d="M24.875 11.9693V22.4747L21.3963 24.649C20.9943 24.9002 20.75 25.3409 20.75 25.815V28.4123L27.0107 24.7977C27.3298 24.6135 27.5263 24.273 27.5263 23.9046V14.0954C27.5263 13.727 27.3298 13.3865 27.0107 13.2023L24.875 11.9693Z" fill="white"/>
<path d="M11.125 26.0307V15.5253L14.6038 13.3511C15.0058 13.0998 15.25 12.6592 15.25 12.1851V9.58772L8.98938 13.2023C8.67031 13.3865 8.47375 13.727 8.47375 14.0954V23.9046C8.47375 24.273 8.67031 24.6135 8.98938 24.7977L11.125 26.0307Z" fill="white"/>
<path d="M0 4C0 1.79086 1.79086 0 4 0H33C35.2091 0 37 1.79086 37 4V33C37 35.2091 35.2091 37 33 37H4C1.79086 37 0 35.2091 0 33V4Z" fill="#5263FF"/>
<path d="M23.5 11.9693C23.5 11.4781 23.238 11.0241 22.8125 10.7785L18.5157 8.29771C18.1966 8.11349 17.8035 8.11349 17.4844 8.29771L16.625 8.79387V26.2188L15.25 25.3594V14.5686L13.1463 15.8835C12.7443 16.1347 12.5 16.5754 12.5 17.0495V26.0307C12.5 26.522 12.7621 26.9759 13.1875 27.2215L17.4844 29.7023C17.8035 29.8865 18.1966 29.8865 18.5157 29.7023L19.375 29.2062V11.7813L20.75 12.6406V23.4314L22.8538 22.1166C23.2558 21.8653 23.5 21.4246 23.5 20.9506V11.9693Z" fill="white"/>
<path d="M24.875 11.9693V22.4747L21.3963 24.649C20.9943 24.9002 20.75 25.3409 20.75 25.815V28.4123L27.0107 24.7977C27.3298 24.6135 27.5263 24.273 27.5263 23.9046V14.0954C27.5263 13.727 27.3298 13.3865 27.0107 13.2023L24.875 11.9693Z" fill="white"/>
<path d="M11.125 26.0307V15.5253L14.6038 13.3511C15.0058 13.0998 15.25 12.6592 15.25 12.1851V9.58772L8.98938 13.2023C8.67031 13.3865 8.47375 13.727 8.47375 14.0954V23.9046C8.47375 24.273 8.67031 24.6135 8.98938 24.7977L11.125 26.0307Z" fill="white"/>
<g clip-path="url(#clip0_12_132)">
<path d="M1 4C1 1.79086 2.79086 0 5 0H33C35.2091 0 37 1.79086 37 4V33C37 35.2091 35.2091 37 33 37H5C2.79086 37 1 35.2091 1 33V4Z" fill="#5263FF"/>
<path d="M23.8649 11.9693C23.8649 11.4781 23.6099 11.0241 23.196 10.7785L19.0153 8.29771C18.7048 8.11349 18.3223 8.11349 18.0119 8.29771L17.1757 8.79387V26.2188L15.8379 25.3594V14.5686L13.791 15.8835C13.3998 16.1347 13.1622 16.5754 13.1622 17.0495V26.0307C13.1622 26.522 13.4172 26.9759 13.8311 27.2215L18.0119 29.7023C18.3223 29.8865 18.7048 29.8865 19.0153 29.7023L19.8514 29.2062V11.7813L21.1892 12.6406V23.4314L23.2361 22.1166C23.6273 21.8653 23.8649 21.4246 23.8649 20.9506V11.9693Z" fill="white"/>
<path d="M25.2028 11.9693V22.4747L21.818 24.649C21.4269 24.9002 21.1892 25.3409 21.1892 25.815V28.4123L27.2807 24.7977C27.5911 24.6135 27.7824 24.273 27.7824 23.9046V14.0954C27.7824 13.727 27.5911 13.3865 27.2807 13.2023L25.2028 11.9693Z" fill="white"/>
<path d="M11.8244 26.0307V15.5253L15.2091 13.3511C15.6003 13.0998 15.8379 12.6592 15.8379 12.1851V9.58772L9.74644 13.2023C9.43599 13.3865 9.24475 13.727 9.24475 14.0954V23.9046C9.24475 24.273 9.43599 24.6135 9.74644 24.7977L11.8244 26.0307Z" fill="white"/>
</g>
<defs>
<clipPath id="clip0_12_132">
<rect width="22" height="22" fill="white" transform="translate(7 8)"/>
</clipPath>
</defs>
</svg>
