<svg width="73" height="20" viewBox="0 0 73 20" fill="none" xmlns="http://www.w3.org/2000/svg">
<g clip-path="url(#clip0_17198_632)">
<path d="M15.1022 4.01708C15.1022 3.59248 14.8737 3.20013 14.5028 2.98783L10.7562 0.843541C10.478 0.684315 10.1353 0.684314 9.85706 0.843541L9.10775 1.2724V16.3336L7.90886 15.5908V6.26382L6.07456 7.4003C5.72403 7.61749 5.51108 7.99836 5.51108 8.40814V16.1711C5.51108 16.5957 5.73959 16.9881 6.11053 17.2004L9.85706 19.3446C10.1353 19.5039 10.478 19.5039 10.7562 19.3446L11.5055 18.9158V3.85456L12.7044 4.59736V13.9244L14.5387 12.7879C14.8893 12.5707 15.1022 12.1898 15.1022 11.7801V4.01708Z" fill="#5263FF"/>
<path d="M16.3011 4.01708V13.0975L13.2679 14.9768C12.9174 15.194 12.7044 15.5748 12.7044 15.9846V18.2296L18.1632 15.1053C18.4414 14.9461 18.6128 14.6519 18.6128 14.3334V5.85479C18.6128 5.53634 18.4414 5.24207 18.1632 5.08285L16.3011 4.01708Z" fill="#5263FF"/>
<path d="M4.31219 16.1711V7.09071L7.34538 5.21142C7.69591 4.99424 7.90886 4.61336 7.90886 4.20359V1.95857L2.45007 5.08285C2.17187 5.24207 2.00049 5.53634 2.00049 5.85479V14.3334C2.00049 14.6519 2.17187 14.9461 2.45007 15.1053L4.31219 16.1711Z" fill="#5263FF"/>
</g>
<path d="M29.2759 16.6242L25.835 3.56394H28.464L31.3251 15.0383H31.5957L34.4567 3.56394H37.0858L33.6448 16.6242H29.2759Z" fill="#030712"/>
<path d="M43.7066 16.8854C42.0054 16.8854 40.6523 16.4376 39.647 15.5421C38.6418 14.6341 38.1392 13.3405 38.1392 11.6613V8.52684C38.1392 6.84766 38.6418 5.56029 39.647 4.66473C40.6523 3.75673 42.0054 3.30273 43.7066 3.30273C45.4078 3.30273 46.7609 3.75673 47.7662 4.66473C48.7714 5.56029 49.274 6.84766 49.274 8.52684V11.6613C49.274 13.3405 48.7714 14.6341 47.7662 15.5421C46.7609 16.4376 45.4078 16.8854 43.7066 16.8854ZM43.7066 14.6838C44.6603 14.6838 45.4013 14.4164 45.9297 13.8815C46.4581 13.3467 46.7223 12.6315 46.7223 11.7359V8.45221C46.7223 7.55665 46.4581 6.84144 45.9297 6.30659C45.4013 5.77175 44.6603 5.50432 43.7066 5.50432C42.7658 5.50432 42.0248 5.77175 41.4835 6.30659C40.9551 6.84144 40.6909 7.55665 40.6909 8.45221V11.7359C40.6909 12.6315 40.9551 13.3467 41.4835 13.8815C42.0248 14.4164 42.7658 14.6838 43.7066 14.6838Z" fill="#030712"/>
<path d="M54.0964 16.6242V5.80284H50.1528V3.56394H60.5917V5.80284H56.6482V16.6242H54.0964Z" fill="#030712"/>
<path d="M62.3294 16.6242V3.56394H68.2062C69.0567 3.56394 69.7978 3.70698 70.4293 3.99306C71.0608 4.27914 71.5505 4.68339 71.8984 5.2058C72.2464 5.72821 72.4204 6.34391 72.4204 7.05289V7.27678C72.4204 8.0604 72.2271 8.69476 71.8405 9.17985C71.4538 9.66495 70.977 10.0194 70.4099 10.2433V10.5792C70.9254 10.604 71.3249 10.7782 71.6085 11.1016C71.892 11.4125 72.0338 11.8292 72.0338 12.3516V16.6242H69.482V12.7061C69.482 12.4076 69.3983 12.1651 69.2307 11.9785C69.0761 11.7919 68.8119 11.6986 68.4381 11.6986H64.8812V16.6242H62.3294ZM64.8812 9.45971H67.9355C68.5412 9.45971 69.0116 9.30423 69.3467 8.99328C69.6947 8.66988 69.8687 8.24697 69.8687 7.72456V7.53799C69.8687 7.01558 69.7011 6.59889 69.366 6.28794C69.031 5.96454 68.5541 5.80284 67.9355 5.80284H64.8812V9.45971Z" fill="#030712"/>
<defs>
<clipPath id="clip0_17198_632">
<rect width="19.1822" height="19.0157" fill="white" transform="translate(0.715332 0.586426)"/>
</clipPath>
</defs>
</svg>
