<svg width="94" height="106" viewBox="0 0 94 106" fill="none" xmlns="http://www.w3.org/2000/svg">
<path d="M48.1064 77.9999C66.9946 77.9999 82.3074 62.687 82.3074 43.7314C82.3074 24.7758 66.9271 9.46289 48.1064 9.46289C29.2183 9.46289 13.9054 24.7758 13.9054 43.7314C13.9054 62.687 29.2183 77.9999 48.1064 77.9999Z" fill="#DBDFFF"/>
<path d="M80.0813 21.2688C81.6088 21.2688 82.8471 20.0306 82.8471 18.5031C82.8471 16.9756 81.6088 15.7373 80.0813 15.7373C78.5538 15.7373 77.3156 16.9756 77.3156 18.5031C77.3156 20.0306 78.5538 21.2688 80.0813 21.2688Z" fill="#EAEEF9"/>
<path d="M84.1286 10.4749C85.1718 10.4749 86.0175 9.62924 86.0175 8.58608C86.0175 7.54292 85.1718 6.69727 84.1286 6.69727C83.0855 6.69727 82.2398 7.54292 82.2398 8.58608C82.2398 9.62924 83.0855 10.4749 84.1286 10.4749Z" fill="#EAEEF9"/>
<path d="M15.7266 21.2005C16.7698 21.2005 17.6155 20.3548 17.6155 19.3117C17.6155 18.2685 16.7698 17.4229 15.7266 17.4229C14.6835 17.4229 13.8378 18.2685 13.8378 19.3117C13.8378 20.3548 14.6835 21.2005 15.7266 21.2005Z" fill="#EAEEF9"/>
<path d="M4.19139 57.6279C6.1287 57.6279 7.69919 56.0574 7.69919 54.1201C7.69919 52.1828 6.1287 50.6123 4.19139 50.6123C2.25409 50.6123 0.683594 52.1828 0.683594 54.1201C0.683594 56.0574 2.25409 57.6279 4.19139 57.6279Z" fill="#EAEEF9"/>
<g filter="url(#filter0_d_13258_13111)">
<path d="M71.3791 26.5968L71.9188 70.0395C71.9188 71.5236 70.7046 72.6704 69.2205 72.6704H26.8571C25.373 72.6704 24.1588 71.4561 24.1588 70.0395V14.1846C24.1588 12.7005 25.373 11.5537 26.8571 11.5537H57.5503L71.3791 26.5968Z" fill="url(#paint0_linear_13258_13111)"/>
</g>
<path d="M57.5503 11.5547V23.5622C57.5503 25.2486 59.0343 26.5977 60.7208 26.5977H71.3791" fill="#D5DDEA"/>
<path d="M42.3104 58.5938L42.9484 59.653C43.1225 59.9679 43.2965 60.3115 43.4705 60.5978H43.4995C43.6735 60.2542 43.8185 59.9393 43.9925 59.6244L44.5726 58.5938H46.7478L44.6306 61.6284L46.7768 64.978H44.5146L43.8765 63.8329C43.7025 63.5179 43.5285 63.203 43.3835 62.8595H43.2965C43.1515 63.203 42.9774 63.5179 42.8034 63.8329L42.1944 64.978H39.9902L42.1944 61.7429L40.0482 58.5938H42.3104Z" fill="#5263FF"/>
<path d="M47.6177 55.7021H49.6189V64.9779H47.6177V55.7021Z" fill="#5263FF"/>
<path d="M51.2431 63.2312C51.6201 63.4603 52.3742 63.7179 52.9832 63.7179C53.5923 63.7179 53.8533 63.5175 53.8533 63.174C53.8533 62.8304 53.6503 62.6873 52.8962 62.4583C51.5621 62.0002 51.04 61.2845 51.069 60.5401C51.069 59.3663 52.1131 58.4502 53.7083 58.4502C54.4624 58.4502 55.1294 58.622 55.5355 58.8224L55.1874 60.1966C54.8974 60.0534 54.3463 59.8244 53.7953 59.8244C53.3022 59.8244 53.0412 60.0248 53.0412 60.3397C53.0412 60.6546 53.3022 60.7978 54.0853 61.0841C55.3034 61.5135 55.8255 62.1147 55.8545 63.0595C55.8545 64.2332 54.8974 65.1207 53.0412 65.1207C52.2001 65.1207 51.4461 64.949 50.953 64.6627L51.2431 63.2312Z" fill="#5263FF"/>
<path d="M62.8219 30.3223H52.9881C52.9488 30.3223 52.9488 30.3223 52.9095 30.3223C52.8701 30.3223 52.8701 30.3223 52.8308 30.3223H42.6824C42.643 30.3223 42.643 30.3223 42.6037 30.3223C42.5644 30.3223 42.5644 30.3223 42.525 30.3223H32.9666C31.9046 30.3223 31.0392 31.2153 31.0392 32.2637V49.2704C31.0392 50.3576 31.9046 51.2118 32.9666 51.2118H62.8219C63.8839 51.2118 64.7493 50.3576 64.7493 49.2704V32.2637C64.7493 31.2153 63.8839 30.3223 62.8219 30.3223ZM43.1937 45.3876V41.5824H52.3194V45.3876H43.1937ZM52.3194 46.5524V50.0858H43.1937V46.5524H52.3194ZM52.3194 36.5736V40.4176H43.1937V36.6124H52.3194V36.5736ZM43.1937 35.4088V31.4871H52.3194V35.4088H43.1937ZM63.5693 40.4176H53.4995V36.6124H63.5693V40.4176ZM42.0137 40.4176H32.2193V36.6124H42.0137V40.4176ZM32.2193 41.5824H42.0137V45.3876H32.2193V41.5824ZM53.4995 41.5824H63.5693V45.3876H53.4995V41.5824ZM63.5693 32.2637V35.4088H53.4995V31.4871H62.8219C63.2546 31.4871 63.5693 31.8366 63.5693 32.2637ZM32.9666 31.4871H42.0137V35.4088H32.2193V32.2637C32.2193 31.8366 32.5339 31.4871 32.9666 31.4871ZM32.2193 49.3092V46.5524H42.0137V50.0858H32.9666C32.5733 50.0858 32.2193 49.7364 32.2193 49.3092ZM62.8219 50.0858H53.4995V46.5524H63.5693V49.3092C63.5693 49.7364 63.2152 50.0858 62.8219 50.0858Z" fill="#C6D0DE"/>
<defs>
<filter id="filter0_d_13258_13111" x="2.15877" y="0.553711" width="91.76" height="105.116" filterUnits="userSpaceOnUse" color-interpolation-filters="sRGB">
<feFlood flood-opacity="0" result="BackgroundImageFix"/>
<feColorMatrix in="SourceAlpha" type="matrix" values="0 0 0 0 0 0 0 0 0 0 0 0 0 0 0 0 0 0 127 0" result="hardAlpha"/>
<feOffset dy="11"/>
<feGaussianBlur stdDeviation="11"/>
<feColorMatrix type="matrix" values="0 0 0 0 0.397708 0 0 0 0 0.47749 0 0 0 0 0.575 0 0 0 0.27 0"/>
<feBlend mode="normal" in2="BackgroundImageFix" result="effect1_dropShadow_13258_13111"/>
<feBlend mode="normal" in="SourceGraphic" in2="effect1_dropShadow_13258_13111" result="shape"/>
</filter>
<linearGradient id="paint0_linear_13258_13111" x1="48.0232" y1="10.14" x2="48.0232" y2="73.3292" gradientUnits="userSpaceOnUse">
<stop stop-color="#FDFEFF"/>
<stop offset="0.9964" stop-color="#ECF0F5"/>
</linearGradient>
</defs>
</svg>
