
<svg width="260" height="38" viewBox="0 0 260 38" fill="none" xmlns="http://www.w3.org/2000/svg">
<path d="M31.8322 37.3218H27.6696V17.1126H31.8322V37.3218Z" fill="white"/>
<path d="M47.4998 23.2102C48.4827 24.0232 48.9452 25.3589 48.9452 27.2172V37.3218H44.956V28.2625C44.956 27.4495 44.8404 26.8688 44.667 26.4623C44.2623 25.7073 43.5685 25.3008 42.47 25.3008C41.1403 25.3008 40.2731 25.8815 39.7528 26.9849C39.5216 27.5656 39.3481 28.3206 39.3481 29.2497V37.3799H35.4746V22.3972H39.2325V24.6039C39.7528 23.849 40.2153 23.2683 40.62 22.9198C41.4294 22.3391 42.4122 21.9907 43.6841 21.9907C45.2451 21.9907 46.517 22.3972 47.4998 23.2102Z" fill="white"/>
<path d="M50.853 25.3008V22.5133H52.9343V18.3321H56.8078V22.5133H59.236V25.3008H56.8078V33.1986C56.8078 33.8374 56.8658 34.1859 57.0391 34.3601C57.2126 34.5344 57.675 34.5924 58.4844 34.5924C58.6 34.5924 58.7157 34.5924 58.8891 34.5924C59.0047 34.5924 59.1782 34.5924 59.2938 34.5924V37.496L57.3282 37.5542C55.4781 37.6123 54.2062 37.3219 53.5703 36.5669C53.1078 36.1024 52.9343 35.4055 52.9343 34.4763V25.3009L50.853 25.3008Z" fill="white"/>
<path d="M71.2034 22.6876C72.2441 23.1521 73.1113 23.9071 73.805 24.8943C74.441 25.7654 74.7879 26.8107 75.0191 27.9721C75.1347 28.669 75.1926 29.6562 75.1347 30.9338H64.2657C64.3236 32.4437 64.8439 33.489 65.8267 34.0697C66.4048 34.4182 67.1564 34.6505 67.9658 34.6505C68.833 34.6505 69.5846 34.4182 70.1049 33.9536C70.394 33.7213 70.6831 33.3729 70.9143 32.9083H74.9035C74.7879 33.7794 74.3253 34.7085 73.4581 35.6377C72.1284 37.0895 70.2784 37.8444 67.8502 37.8444C65.8845 37.8444 64.0923 37.2057 62.5891 35.9861C61.086 34.7666 60.3344 32.734 60.3344 30.0047C60.3344 27.3914 61.0282 25.4169 62.4157 24.0232C63.8032 22.6295 65.5376 21.9326 67.7346 21.9326C69.0065 21.9908 70.1628 22.223 71.2034 22.6876ZM65.3642 26.0558C64.7861 26.6365 64.4392 27.3914 64.3236 28.3786H71.03C70.9721 27.3333 70.6253 26.5784 69.9893 25.9977C69.3534 25.475 68.6018 25.1847 67.6768 25.1847C66.6939 25.1847 65.9424 25.475 65.3642 26.0558Z" fill="white"/>
<path d="M85.6568 22.0488C85.7147 22.0488 85.8303 22.0488 86.0037 22.0488V26.0558C85.7725 26.0558 85.5412 25.9976 85.3678 25.9976C85.1943 25.9976 85.0209 25.9976 84.9053 25.9976C83.3443 25.9976 82.3036 26.5203 81.7255 27.5075C81.4364 28.0882 81.263 28.9593 81.263 30.1788V37.3217H77.3317V22.3971H81.0317V25.0104C81.6099 24.0232 82.1302 23.3263 82.5927 22.9778C83.3443 22.339 84.2693 22.0487 85.4256 22.0487C85.5412 21.9905 85.5991 21.9906 85.6568 22.0488Z" fill="white"/>
<path d="M94.1554 28.2625C94.907 28.1464 95.4273 28.0302 95.7164 27.9141C96.2945 27.6818 96.5836 27.3334 96.5836 26.8107C96.5836 26.1719 96.3524 25.7654 95.9477 25.5331C95.543 25.3008 94.907 25.1847 94.0398 25.1847C93.1148 25.1847 92.421 25.4169 92.0741 25.8815C91.7851 26.23 91.6116 26.6946 91.496 27.2753H87.7381C87.796 25.9396 88.2006 24.8943 88.8366 24.0232C89.8772 22.6876 91.6694 22.0488 94.1554 22.0488C95.7742 22.0488 97.2774 22.3972 98.5493 23.036C99.8212 23.6748 100.457 24.8943 100.457 26.6946V33.5471C100.457 34.0117 100.457 34.5924 100.457 35.2893C100.457 35.8119 100.573 36.1604 100.688 36.3346C100.804 36.5089 101.035 36.683 101.267 36.7992V37.3799H97.0461C96.9305 37.0895 96.8726 36.7992 96.8149 36.5088C96.757 36.2184 96.757 35.9281 96.6993 35.5796C96.1789 36.1604 95.543 36.683 94.8492 37.0895C93.982 37.5541 93.057 37.8445 91.9586 37.8445C90.6288 37.8445 89.4726 37.4379 88.6054 36.683C87.7382 35.928 87.2756 34.8247 87.2756 33.3729C87.2756 31.5146 87.9694 30.1789 89.4147 29.3659C90.2241 28.9013 91.3226 28.6109 92.8836 28.3787L94.1554 28.2625ZM96.5258 30.0628C96.2945 30.237 96.0055 30.3531 95.7742 30.4693C95.5429 30.5854 95.1961 30.6435 94.7336 30.7596L93.8664 30.9339C93.057 31.1082 92.421 31.2823 92.0741 31.4565C91.4382 31.805 91.1491 32.3857 91.1491 33.1406C91.1491 33.8375 91.3226 34.3021 91.7272 34.5925C92.0741 34.8828 92.5366 35.057 93.1148 35.057C93.982 35.057 94.7336 34.8247 95.4851 34.3021C96.1789 33.7794 96.5836 32.9083 96.5836 31.5727V30.0628L96.5258 30.0628Z" fill="white"/>
<path d="M112.656 27.7399C112.598 27.1591 112.425 26.6945 112.078 26.23C111.615 25.6492 110.979 25.3008 110.054 25.3008C108.725 25.3008 107.857 25.9396 107.337 27.2753C107.106 27.9721 106.932 28.9013 106.932 30.0628C106.932 31.1661 107.048 32.0372 107.337 32.7341C107.8 33.9536 108.667 34.5924 109.996 34.5924C110.921 34.5924 111.557 34.3601 111.962 33.8375C112.367 33.3148 112.598 32.676 112.656 31.9211H116.645C116.529 33.1406 116.125 34.2439 115.373 35.2893C114.159 36.9733 112.367 37.8444 109.939 37.8444C107.51 37.8444 105.776 37.1476 104.62 35.6958C103.463 34.244 102.943 32.3856 102.943 30.1208C102.943 27.5656 103.579 25.5331 104.793 24.1394C106.065 22.6875 107.742 21.9907 109.996 21.9907C111.846 21.9907 113.407 22.3972 114.564 23.2683C115.72 24.1394 116.472 25.5912 116.703 27.7399H112.656Z" fill="white"/>
<path d="M117.917 25.3008V22.5133H119.998V18.3321H123.872V22.5133H126.3V25.3008H123.872V33.1986C123.872 33.8374 123.929 34.1859 124.103 34.3601C124.276 34.5344 124.739 34.5924 125.548 34.5924C125.664 34.5924 125.779 34.5924 125.953 34.5924C126.069 34.5924 126.242 34.5924 126.358 34.5924V37.496L124.45 37.5542C122.6 37.6123 121.328 37.3219 120.692 36.5669C120.229 36.1024 120.056 35.4055 120.056 34.4763V25.3009L117.917 25.3008Z" fill="white"/>
<path d="M132.833 20.597H128.902V16.9965H132.833V20.597ZM128.844 22.3972H132.775V37.3799H128.844V22.3972Z" fill="white"/>
<path d="M145.494 22.3972H149.657L144.28 37.3799H140.175L134.857 22.3972H139.25L142.372 33.4309L145.494 22.3972Z" fill="white"/>
<path d="M161.046 22.6876C162.087 23.1521 162.954 23.9071 163.648 24.8943C164.284 25.7654 164.631 26.8107 164.862 27.9721C164.977 28.669 165.035 29.6562 164.977 30.9338H154.108C154.166 32.4437 154.687 33.489 155.669 34.0697C156.248 34.4182 156.999 34.6505 157.809 34.6505C158.676 34.6505 159.427 34.4182 159.948 33.9536C160.237 33.7213 160.526 33.3729 160.757 32.9083H164.746C164.631 33.7794 164.168 34.7085 163.301 35.6377C161.971 37.0895 160.121 37.8444 157.693 37.8444C155.727 37.8444 153.935 37.2057 152.432 35.9861C150.929 34.7666 150.177 32.734 150.177 30.0047C150.177 27.3914 150.871 25.4169 152.258 24.0232C153.646 22.6295 155.38 21.9326 157.577 21.9326C158.849 21.9908 160.005 22.223 161.046 22.6876ZM155.207 26.0558C154.629 26.6365 154.282 27.3914 154.166 28.3786H160.873C160.815 27.3333 160.468 26.5784 159.832 25.9977C159.196 25.475 158.445 25.1847 157.52 25.1847C156.537 25.1847 155.785 25.475 155.207 26.0558Z" fill="white"/>
<path d="M167.521 17.1706H176.193C178.563 17.1706 180.24 17.8675 181.223 19.2612C181.801 20.0743 182.09 21.0615 182.09 22.1649C182.09 23.4424 181.743 24.4878 180.992 25.3008C180.645 25.7073 180.067 26.1138 179.373 26.4622C180.413 26.8687 181.165 27.2752 181.685 27.7979C182.61 28.669 183.015 29.8885 183.015 31.4565C183.015 32.734 182.61 33.9536 181.801 34.9989C180.587 36.5668 178.621 37.3798 175.962 37.3798H167.405V17.1706H167.521ZM175.21 25.7073C176.367 25.7073 177.292 25.533 177.927 25.2427C178.968 24.7201 179.431 23.849 179.431 22.5133C179.431 21.1776 178.91 20.3066 177.812 19.842C177.176 19.6097 176.309 19.4355 175.095 19.4355H170.18V25.7073H175.21ZM176.135 34.9989C177.812 34.9989 179.026 34.5343 179.72 33.5471C180.182 32.9083 180.413 32.2114 180.413 31.3403C180.413 29.8885 179.778 28.9012 178.448 28.3205C177.754 28.0302 176.829 27.914 175.673 27.914H170.238V34.9989H176.135Z" fill="white"/>
<path d="M186.021 22.6295H188.334V25.1847C188.508 24.662 188.97 24.0813 189.722 23.3844C190.473 22.6875 191.34 22.3391 192.323 22.3391C192.381 22.3391 192.439 22.3391 192.554 22.3391C192.67 22.3391 192.844 22.3391 193.133 22.3973V25.0105C192.959 25.0105 192.844 24.9524 192.728 24.9524C192.612 24.9524 192.497 24.9524 192.323 24.9524C191.109 24.9524 190.126 25.3589 189.49 26.1719C188.797 26.9849 188.507 27.9141 188.507 28.9594V37.4379H186.021V22.6295Z" fill="white"/>
<path d="M205.736 24.0813C207.008 25.3589 207.702 27.2172 207.702 29.6563C207.702 32.0372 207.123 34.0117 205.967 35.5216C204.811 37.0895 203.076 37.8445 200.648 37.8445C198.625 37.8445 197.064 37.1476 195.908 35.8119C194.751 34.4182 194.115 32.618 194.115 30.295C194.115 27.798 194.751 25.8816 195.965 24.3717C197.179 22.9199 198.856 22.1649 200.937 22.1649C202.845 22.2231 204.406 22.8618 205.736 24.0813ZM204.175 33.8956C204.753 32.676 205.1 31.2823 205.1 29.7724C205.1 28.3787 204.869 27.2753 204.464 26.4042C203.77 25.0686 202.614 24.3717 200.937 24.3717C199.434 24.3717 198.394 24.9524 197.7 26.1138C197.006 27.2753 196.659 28.669 196.659 30.295C196.659 31.863 197.006 33.1406 197.7 34.1859C198.394 35.2312 199.434 35.7539 200.937 35.7539C202.498 35.7539 203.597 35.1151 204.175 33.8956Z" fill="white"/>
<path d="M210.419 17.1706H212.789V28.9013L219.091 22.6294H222.213L216.605 28.0883L222.56 37.3217H219.438L214.813 29.8304L212.789 31.8049V37.3217H210.419V17.1706Z" fill="white"/>
<path d="M232.793 23.036C233.776 23.5006 234.527 24.1394 234.99 24.9524C235.452 25.7073 235.799 26.5784 235.973 27.5657C236.146 28.2625 236.204 29.3078 236.204 30.8177H225.566C225.624 32.3276 225.971 33.489 226.607 34.4182C227.243 35.3474 228.283 35.7539 229.613 35.7539C230.885 35.7539 231.926 35.3473 232.677 34.4762C233.082 33.9536 233.429 33.431 233.602 32.7341H236.03C235.973 33.2567 235.741 33.8955 235.394 34.5343C235.048 35.1731 234.643 35.7539 234.18 36.1604C233.429 36.9153 232.504 37.3799 231.405 37.6702C230.827 37.8445 230.133 37.9025 229.382 37.9025C227.59 37.9025 226.029 37.2637 224.757 35.9281C223.485 34.5924 222.849 32.7341 222.849 30.3531C222.849 27.9722 223.485 26.0558 224.757 24.604C226.029 23.1522 227.705 22.3972 229.729 22.3972C230.827 22.2811 231.81 22.5715 232.793 23.036ZM233.718 28.8432C233.602 27.7979 233.371 26.9268 233.024 26.2881C232.33 25.0685 231.232 24.4878 229.671 24.4878C228.572 24.4878 227.59 24.8943 226.838 25.7074C226.086 26.5204 225.682 27.5656 225.624 28.8432H233.718Z" fill="white"/>
<path d="M239.152 22.6295H241.465V25.1847C241.638 24.662 242.101 24.0813 242.853 23.3844C243.604 22.6875 244.471 22.3391 245.454 22.3391C245.512 22.3391 245.57 22.3391 245.685 22.3391C245.801 22.3391 245.974 22.3391 246.264 22.3973V25.0105C246.09 25.0105 245.974 24.9524 245.859 24.9524C245.743 24.9524 245.628 24.9524 245.454 24.9524C244.24 24.9524 243.257 25.3589 242.621 26.1719C241.928 26.9849 241.638 27.9141 241.638 28.9594V37.4379H239.152V22.6295Z" fill="white"/>
<path d="M249.906 32.734C249.963 33.5471 250.195 34.1859 250.542 34.6505C251.177 35.4635 252.276 35.87 253.837 35.87C254.762 35.87 255.571 35.6957 256.323 35.2892C257.017 34.8827 257.364 34.302 257.364 33.4309C257.364 32.7921 257.074 32.3276 256.496 31.9791C256.149 31.8049 255.398 31.5726 254.357 31.2822L252.392 30.7596C251.12 30.4692 250.195 30.1208 249.559 29.7143C248.46 29.0174 247.94 28.1464 247.94 26.9268C247.94 25.5331 248.46 24.4297 249.443 23.5586C250.426 22.6875 251.813 22.281 253.548 22.281C255.803 22.281 257.421 22.9198 258.404 24.2555C259.04 25.0685 259.329 25.9977 259.329 26.9268H257.017C256.959 26.3461 256.785 25.8815 256.439 25.4169C255.86 24.7781 254.878 24.4297 253.432 24.4297C252.507 24.4297 251.756 24.604 251.293 24.9524C250.831 25.3008 250.542 25.7654 250.542 26.3461C250.542 26.9849 250.888 27.5075 251.524 27.856C251.871 28.0883 252.449 28.2625 253.143 28.4367L254.82 28.8432C256.612 29.2497 257.826 29.7143 258.462 30.1208C259.445 30.7596 259.907 31.7468 259.907 33.0825C259.907 34.4182 259.387 35.5215 258.404 36.4507C257.421 37.3799 255.86 37.9025 253.837 37.9025C251.64 37.9025 250.079 37.3799 249.154 36.3926C248.229 35.4054 247.766 34.1859 247.651 32.676H249.906V32.734Z" fill="white"/>
<path d="M0.0925598 37.3218V19.2032L16.5117 37.3218H0.0925598Z" fill="url(#paint0_linear_21563_26560)"/>
<path d="M14.1992 28.5529C16.9133 28.5529 19.1134 26.3429 19.1134 23.6167C19.1134 20.8906 16.9133 18.6806 14.1992 18.6806C11.4852 18.6806 9.28506 20.8906 9.28506 23.6167C9.28506 26.3429 11.4852 28.5529 14.1992 28.5529Z" fill="#D81222"/>
<path d="M0.0925293 19.2032V37.3218L16.5116 0.0974426L0.0925293 19.2032Z" fill="#D81222"/>
<defs>
<linearGradient id="paint0_linear_21563_26560" x1="16.4902" y1="28.263" x2="0.0670635" y2="28.263" gradientUnits="userSpaceOnUse">
<stop stop-color="#D81222"/>
<stop offset="1" stop-color="#960B1A"/>
</linearGradient>
</defs>
</svg>