<svg width="16" height="16" viewBox="0 0 16 16" fill="none" xmlns="http://www.w3.org/2000/svg">
	<path fillRule="evenodd" clipRule="evenodd" d="M8.99997 6.66665L2.33331 6.66672C1.96511 6.66672 1.66663 6.36828 1.66663 6.00009C1.66662 5.6319 1.96509 5.33341 2.33329 5.33341L8.99997 5.33331C9.36817 5.33331 9.66663 5.63178 9.66663 5.99997C9.66663 6.36816 9.36817 6.66664 8.99997 6.66665Z" fill="white" />
	<path fillRule="evenodd" clipRule="evenodd" d="M1.66663 10C1.66663 9.63181 1.96511 9.33334 2.33329 9.33334H6.33329C6.70149 9.33334 6.99996 9.63181 6.99996 10C6.99996 10.3682 6.70149 10.6667 6.33329 10.6667H2.33329C1.96511 10.6667 1.66663 10.3682 1.66663 10Z" fill="white" />
	<path fillRule="evenodd" clipRule="evenodd" d="M1.66663 2.00001C1.66663 1.63182 1.96511 1.33334 2.33329 1.33334H12.3333C12.7015 1.33334 13 1.63182 13 2.00001C13 2.3682 12.7015 2.66668 12.3333 2.66668H2.33329C1.96511 2.66668 1.66663 2.3682 1.66663 2.00001Z" fill="white" />
	<path fillRule="evenodd" clipRule="evenodd" d="M12 5.66666C12.3682 5.66666 12.6667 5.96514 12.6667 6.33332V11.6667H13.6667C13.9363 11.6667 14.1794 11.8291 14.2826 12.0782C14.3858 12.3273 14.3287 12.6141 14.1381 12.8047L12.4714 14.4714C12.2111 14.7317 11.7889 14.7317 11.5286 14.4714L9.86193 12.8047C9.67126 12.6141 9.61419 12.3273 9.71739 12.0782C9.82059 11.8291 10.0637 11.6667 10.3333 11.6667H11.3333V6.33332C11.3333 5.96514 11.6318 5.66666 12 5.66666Z" fill="white" />
</svg>
