<svg width="66" height="18" viewBox="0 0 66 18" fill="none" xmlns="http://www.w3.org/2000/svg">
	<g clip-path="url(#clip0_25609_3815)">
		<path d="M13.7498 3.39191C13.7498 3.00515 13.5429 2.64777 13.2071 2.4544L9.81564 0.501232C9.5638 0.356197 9.25352 0.356197 9.00168 0.501232L8.32338 0.891865V14.6107L7.23811 13.9341V5.43839L5.57764 6.47358C5.26032 6.67141 5.06756 7.01833 5.06756 7.39159V14.4626C5.06756 14.8494 5.27441 15.2068 5.61019 15.4002L9.00168 17.3533C9.25352 17.4984 9.5638 17.4984 9.81564 17.3533L10.4939 16.9627V3.24387L11.5792 3.92047V12.4162L13.2397 11.381C13.557 11.1831 13.7498 10.8362 13.7498 10.463V3.39191Z" fill="#030712" />
		<path d="M14.835 3.39191V11.663L12.0893 13.3748C11.772 13.5726 11.5792 13.9195 11.5792 14.2928V16.3377L16.5207 13.4919C16.7725 13.3468 16.9277 13.0788 16.9277 12.7887V5.06582C16.9277 4.77575 16.7725 4.50772 16.5207 4.36268L14.835 3.39191Z" fill="#030712" />
		<path d="M3.98228 14.4626V6.19158L6.72803 4.4798C7.04534 4.28197 7.23811 3.93505 7.23811 3.56179V1.51688L2.29663 4.36268C2.04479 4.50772 1.88965 4.77575 1.88965 5.06582V12.7887C1.88965 13.0788 2.04479 13.3468 2.29663 13.4919L3.98228 14.4626Z" fill="#030712" />
	</g>
	<path d="M26.5804 14.8754L23.4655 2.9792H25.8454L28.4353 13.4308H28.6803L31.2702 2.9792H33.6501L30.5353 14.8754H26.5804Z" fill="#030712" />
	<path d="M39.6435 15.1133C38.1036 15.1133 36.8786 14.7054 35.9687 13.8897C35.0587 13.0626 34.6037 11.8843 34.6037 10.3548V7.49975C34.6037 5.97024 35.0587 4.79761 35.9687 3.98187C36.8786 3.15481 38.1036 2.74127 39.6435 2.74127C41.1835 2.74127 42.4084 3.15481 43.3184 3.98187C44.2284 4.79761 44.6833 5.97024 44.6833 7.49975V10.3548C44.6833 11.8843 44.2284 13.0626 43.3184 13.8897C42.4084 14.7054 41.1835 15.1133 39.6435 15.1133ZM39.6435 13.1079C40.5068 13.1079 41.1776 12.8644 41.656 12.3772C42.1343 11.89 42.3734 11.2385 42.3734 10.4228V7.43177C42.3734 6.61603 42.1343 5.96457 41.656 5.47739C41.1776 4.99022 40.5068 4.74663 39.6435 4.74663C38.7919 4.74663 38.1211 4.99022 37.6311 5.47739C37.1528 5.96457 36.9136 6.61603 36.9136 7.43177V10.4228C36.9136 11.2385 37.1528 11.89 37.6311 12.3772C38.1211 12.8644 38.7919 13.1079 39.6435 13.1079Z" fill="#030712" />
	<path d="M49.0487 14.8754V5.01854H45.4789V2.9792H54.9285V5.01854H51.3587V14.8754H49.0487Z" fill="#030712" />
	<path d="M56.5016 14.8754V2.9792H61.8214C62.5913 2.9792 63.2621 3.10949 63.8338 3.37007C64.4054 3.63065 64.8488 3.99887 65.1637 4.47472C65.4787 4.95056 65.6362 5.51138 65.6362 6.15718V6.36111C65.6362 7.07488 65.4612 7.6527 65.1112 8.09456C64.7613 8.53641 64.3296 8.85931 63.8163 9.06324V9.36915C64.2829 9.39181 64.6446 9.55042 64.9012 9.84499C65.1579 10.1282 65.2862 10.5078 65.2862 10.9836V14.8754H62.9763V11.3065C62.9763 11.0346 62.9005 10.8137 62.7488 10.6437C62.6088 10.4738 62.3697 10.3888 62.0314 10.3888H58.8115V14.8754H56.5016ZM58.8115 8.34947H61.5764C62.1247 8.34947 62.5505 8.20785 62.8538 7.92461C63.1688 7.63004 63.3263 7.24483 63.3263 6.76898V6.59903C63.3263 6.12319 63.1746 5.74364 62.8713 5.4604C62.568 5.16583 62.1364 5.01854 61.5764 5.01854H58.8115V8.34947Z" fill="#030712" />
	<defs>
		<clipPath id="clip0_25609_3815">
			<rect width="17.3644" height="17.3208" fill="white" transform="translate(0.72644 0.266846)" />
		</clipPath>
	</defs>
</svg>
