<svg width="53" height="14" viewBox="0 0 53 14" fill="none" xmlns="http://www.w3.org/2000/svg">
	<g clip-path="url(#clip0_25586_3006)">
		<path d="M11.1712 2.46719C11.1712 2.16185 11.0079 1.87971 10.7428 1.72704L8.06532 0.185058C7.8665 0.0705568 7.62154 0.0705567 7.42272 0.185058L6.88722 0.493454V11.3241L6.03042 10.79V4.08284L4.71952 4.9001C4.469 5.05627 4.31682 5.33016 4.31682 5.62484V11.2073C4.31682 11.5126 4.48012 11.7948 4.74522 11.9474L7.42272 13.4894C7.62154 13.6039 7.8665 13.6039 8.06532 13.4894L8.60082 13.181V2.35031L9.45762 2.88447V9.59162L10.7685 8.77436C11.019 8.61819 11.1712 8.3443 11.1712 8.04962V2.46719Z" fill="white" />
		<path d="M12.028 2.46719V8.997L9.86032 10.3484C9.60981 10.5046 9.45762 10.7785 9.45762 11.0732V12.6876L13.3588 10.4409C13.5576 10.3264 13.6801 10.1148 13.6801 9.88576V3.7887C13.6801 3.5597 13.5576 3.34809 13.3588 3.23359L12.028 2.46719Z" fill="white" />
		<path d="M3.46002 11.2073V4.67746L5.62772 3.32605C5.87824 3.16987 6.03042 2.89598 6.03042 2.6013V0.986887L2.12923 3.23359C1.93041 3.34809 1.80793 3.5597 1.80793 3.7887V9.88576C1.80793 10.1148 1.93041 10.3264 2.12923 10.4409L3.46002 11.2073Z" fill="white" />
	</g>
	<path d="M21.3008 11.5331L18.8416 2.14133H20.7205L22.7652 10.3927H22.9586L25.0033 2.14133H26.8822L24.423 11.5331H21.3008Z" fill="white" />
	<path d="M31.6138 11.7209C30.3981 11.7209 29.431 11.3989 28.7126 10.7549C27.9942 10.102 27.635 9.17174 27.635 7.96423V5.7102C27.635 4.50269 27.9942 3.57693 28.7126 2.93292C29.431 2.27997 30.3981 1.95349 31.6138 1.95349C32.8296 1.95349 33.7966 2.27997 34.515 2.93292C35.2334 3.57693 35.5926 4.50269 35.5926 5.7102V7.96423C35.5926 9.17174 35.2334 10.102 34.515 10.7549C33.7966 11.3989 32.8296 11.7209 31.6138 11.7209ZM31.6138 10.1377C32.2954 10.1377 32.825 9.94544 33.2026 9.56083C33.5802 9.17621 33.769 8.6619 33.769 8.01789V5.65653C33.769 5.01253 33.5802 4.49821 33.2026 4.1136C32.825 3.72898 32.2954 3.53668 31.6138 3.53668C30.9415 3.53668 30.4119 3.72898 30.025 4.1136C29.6474 4.49821 29.4586 5.01253 29.4586 5.65653V8.01789C29.4586 8.6619 29.6474 9.17621 30.025 9.56083C30.4119 9.94544 30.9415 10.1377 31.6138 10.1377Z" fill="white" />
	<path d="M39.039 11.5331V3.75134H36.2207V2.14133H43.681V3.75134H40.8626V11.5331H39.039Z" fill="white" />
	<path d="M44.9228 11.5331V2.14133H49.1227C49.7306 2.14133 50.2602 2.24419 50.7115 2.44991C51.1628 2.65564 51.5128 2.94634 51.7614 3.32201C52.0101 3.69768 52.1345 4.14043 52.1345 4.65027V4.81127C52.1345 5.37478 51.9963 5.83095 51.72 6.17979C51.4437 6.52863 51.1029 6.78355 50.6977 6.94455V7.18605C51.0661 7.20394 51.3516 7.32916 51.5542 7.56172C51.7568 7.78533 51.8581 8.08498 51.8581 8.46065V11.5331H50.0345V8.71557C50.0345 8.5009 49.9747 8.32648 49.8549 8.19231C49.7444 8.05814 49.5556 7.99106 49.2885 7.99106H46.7465V11.5331H44.9228ZM46.7465 6.38104H48.9293C49.3622 6.38104 49.6983 6.26923 49.9378 6.04562C50.1865 5.81306 50.3108 5.50895 50.3108 5.13328V4.99911C50.3108 4.62344 50.1911 4.3238 49.9516 4.10018C49.7122 3.86762 49.3714 3.75134 48.9293 3.75134H46.7465V6.38104Z" fill="white" />
	<defs>
		<clipPath id="clip0_25586_3006">
			<rect width="13.7088" height="13.6744" fill="white" transform="translate(0.889614)" />
		</clipPath>
	</defs>
</svg>
