<svg width="125" height="24" viewBox="0 0 125 24" fill="none" xmlns="http://www.w3.org/2000/svg">
	<rect width="125" height="24" rx="3.44615" fill="#F0F1FF" />
	<g clip-path="url(#clip0_21789_34475)">
		<path d="M16.5751 7.64426C16.5751 7.33033 16.4076 7.04025 16.1357 6.88329L13.3898 5.29795C13.1859 5.18023 12.9347 5.18023 12.7308 5.29795L12.1816 5.61502V16.7503L11.3029 16.2011V9.30534L9.95855 10.1456C9.70164 10.3062 9.54557 10.5878 9.54557 10.8907V16.6301C9.54557 16.9441 9.71305 17.2341 9.98491 17.3911L12.7308 18.9765C12.9347 19.0942 13.1859 19.0942 13.3898 18.9765L13.939 18.6594V7.52409L14.8177 8.07327V14.9691L16.1621 14.1288C16.419 13.9682 16.5751 13.6867 16.5751 13.3837V7.64426Z" fill="#5263FF" />
		<path d="M17.4538 7.64426V14.3577L15.2307 15.7471C14.9738 15.9077 14.8177 16.1893 14.8177 16.4923V18.1521L18.8185 15.8422C19.0224 15.7245 19.148 15.5069 19.148 15.2715V9.00294C19.148 8.76749 19.0224 8.54993 18.8185 8.43221L17.4538 7.64426Z" fill="#5263FF" />
		<path d="M8.66688 16.6301V9.91669L10.89 8.52727C11.1469 8.3667 11.3029 8.08511 11.3029 7.78215V6.12233L7.3021 8.43221C7.0982 8.54993 6.9726 8.76749 6.9726 9.00294V15.2715C6.9726 15.5069 7.0982 15.7245 7.3021 15.8422L8.66688 16.6301Z" fill="#5263FF" />
	</g>
	<path d="M26.9633 16.9652L24.4413 7.30927H26.3682L28.4651 15.7927H28.6635L30.7604 7.30927H32.6873L30.1653 16.9652H26.9633Z" fill="#5263FF" />
	<path d="M37.5398 17.1583C36.293 17.1583 35.3012 16.8272 34.5644 16.1651C33.8277 15.4938 33.4593 14.5374 33.4593 13.2959V10.9785C33.4593 9.73704 33.8277 8.78524 34.5644 8.12312C35.3012 7.45181 36.293 7.11615 37.5398 7.11615C38.7866 7.11615 39.7784 7.45181 40.5151 8.12312C41.2519 8.78524 41.6202 9.73704 41.6202 10.9785V13.2959C41.6202 14.5374 41.2519 15.4938 40.5151 16.1651C39.7784 16.8272 38.7866 17.1583 37.5398 17.1583ZM37.5398 15.5306C38.2387 15.5306 38.7819 15.3329 39.1691 14.9374C39.5564 14.542 39.75 14.0132 39.75 13.3511V10.9233C39.75 10.2612 39.5564 9.73244 39.1691 9.33701C38.7819 8.94158 38.2387 8.74386 37.5398 8.74386C36.8503 8.74386 36.3071 8.94158 35.9104 9.33701C35.5232 9.73244 35.3295 10.2612 35.3295 10.9233V13.3511C35.3295 14.0132 35.5232 14.542 35.9104 14.9374C36.3071 15.3329 36.8503 15.5306 37.5398 15.5306Z" fill="#5263FF" />
	<path d="M45.1547 16.9652V8.96457H42.2643V7.30927H49.9152V8.96457H47.0249V16.9652H45.1547Z" fill="#5263FF" />
	<path d="M51.1888 16.9652V7.30927H55.4959C56.1193 7.30927 56.6624 7.41502 57.1253 7.62653C57.5881 7.83804 57.947 8.13692 58.2021 8.52315C58.4571 8.90939 58.5846 9.3646 58.5846 9.88877V10.0543C58.5846 10.6337 58.4429 11.1027 58.1596 11.4613C57.8762 11.82 57.5267 12.082 57.1111 12.2476V12.4959C57.4889 12.5143 57.7817 12.643 57.9895 12.8821C58.1973 13.112 58.3012 13.4201 58.3012 13.8063V16.9652H56.431V14.0684C56.431 13.8477 56.3696 13.6684 56.2468 13.5304C56.1335 13.3925 55.9399 13.3235 55.6659 13.3235H53.059V16.9652H51.1888ZM53.059 11.6682H55.2976C55.7415 11.6682 56.0863 11.5533 56.3319 11.3234C56.5869 11.0843 56.7144 10.7716 56.7144 10.3854V10.2474C56.7144 9.86118 56.5916 9.55312 56.346 9.32321C56.1004 9.08411 55.751 8.96457 55.2976 8.96457H53.059V11.6682Z" fill="#5263FF" />
	<path d="M67.6109 17.2462H65.7936L69.1024 7.84755H71.2043L74.5176 17.2462H72.7003L70.1901 9.775H70.1166L67.6109 17.2462ZM67.6706 13.5611H72.6269V14.9286H67.6706V13.5611ZM83.2294 11.0187H81.5131C81.4641 10.7372 81.3739 10.4878 81.2423 10.2706C81.1108 10.0503 80.9471 9.86372 80.7513 9.71075C80.5555 9.55778 80.3321 9.44305 80.0813 9.36657C79.8334 9.28702 79.5657 9.24725 79.2782 9.24725C78.7672 9.24725 78.3144 9.37574 77.9198 9.63274C77.5251 9.88667 77.2161 10.2599 76.9928 10.7525C76.7694 11.242 76.6577 11.8401 76.6577 12.5469C76.6577 13.2658 76.7694 13.8716 76.9928 14.3642C77.2192 14.8537 77.5282 15.2239 77.9198 15.4747C78.3144 15.7226 78.7657 15.8465 79.2736 15.8465C79.555 15.8465 79.8181 15.8097 80.0629 15.7363C80.3107 15.6598 80.5325 15.5482 80.7283 15.4013C80.9272 15.2545 81.0939 15.074 81.2286 14.8598C81.3662 14.6456 81.4611 14.4009 81.5131 14.1255L83.2294 14.1347C83.1652 14.5814 83.026 15.0005 82.8118 15.3921C82.6007 15.7837 82.3238 16.1295 81.9812 16.4293C81.6385 16.726 81.2377 16.9586 80.7788 17.1268C80.3199 17.292 79.8105 17.3747 79.2506 17.3747C78.4246 17.3747 77.6872 17.1834 77.0386 16.801C76.39 16.4186 75.8791 15.8663 75.5059 15.1443C75.1326 14.4223 74.946 13.5565 74.946 12.5469C74.946 11.5342 75.1341 10.6684 75.5105 9.94939C75.8868 9.22736 76.3992 8.67513 77.0478 8.2927C77.6964 7.91027 78.4307 7.71906 79.2506 7.71906C79.7738 7.71906 80.2602 7.79248 80.71 7.93934C81.1597 8.08619 81.5605 8.30188 81.9123 8.58641C82.2642 8.86788 82.5533 9.21359 82.7797 9.62356C83.0091 10.0305 83.1591 10.4955 83.2294 11.0187ZM92.7042 11.0187H90.9878C90.9389 10.7372 90.8486 10.4878 90.7171 10.2706C90.5855 10.0503 90.4218 9.86372 90.226 9.71075C90.0302 9.55778 89.8069 9.44305 89.556 9.36657C89.3082 9.28702 89.0405 9.24725 88.7529 9.24725C88.242 9.24725 87.7892 9.37574 87.3945 9.63274C86.9998 9.88667 86.6908 10.2599 86.4675 10.7525C86.2442 11.242 86.1325 11.8401 86.1325 12.5469C86.1325 13.2658 86.2442 13.8716 86.4675 14.3642C86.6939 14.8537 87.0029 15.2239 87.3945 15.4747C87.7892 15.7226 88.2404 15.8465 88.7483 15.8465C89.0298 15.8465 89.2929 15.8097 89.5376 15.7363C89.7855 15.6598 90.0073 15.5482 90.2031 15.4013C90.4019 15.2545 90.5687 15.074 90.7033 14.8598C90.841 14.6456 90.9358 14.4009 90.9878 14.1255L92.7042 14.1347C92.6399 14.5814 92.5007 15.0005 92.2865 15.3921C92.0754 15.7837 91.7986 16.1295 91.4559 16.4293C91.1133 16.726 90.7125 16.9586 90.2535 17.1268C89.7946 17.292 89.2852 17.3747 88.7254 17.3747C87.8993 17.3747 87.162 17.1834 86.5134 16.801C85.8648 16.4186 85.3539 15.8663 84.9806 15.1443C84.6074 14.4223 84.4207 13.5565 84.4207 12.5469C84.4207 11.5342 84.6089 10.6684 84.9852 9.94939C85.3615 9.22736 85.874 8.67513 86.5226 8.2927C87.1712 7.91027 87.9054 7.71906 88.7254 7.71906C89.2485 7.71906 89.735 7.79248 90.1847 7.93934C90.6344 8.08619 91.0352 8.30188 91.3871 8.58641C91.7389 8.86788 92.028 9.21359 92.2544 9.62356C92.4839 10.0305 92.6338 10.4955 92.7042 11.0187ZM94.1341 17.2462V7.84755H100.247V9.27478H95.8367V11.8264H99.9302V13.2536H95.8367V15.8189H100.284V17.2462H94.1341ZM106.962 10.4313C106.92 10.0305 106.739 9.7184 106.421 9.49506C106.106 9.27172 105.696 9.16005 105.191 9.16005C104.836 9.16005 104.532 9.21359 104.278 9.32067C104.024 9.42775 103.829 9.57308 103.695 9.75664C103.56 9.94021 103.491 10.1498 103.488 10.3854C103.488 10.5812 103.533 10.751 103.621 10.8948C103.713 11.0385 103.837 11.1609 103.993 11.2619C104.149 11.3598 104.322 11.4424 104.512 11.5097C104.701 11.577 104.893 11.6336 105.085 11.6795L105.967 11.8998C106.321 11.9824 106.663 12.0941 106.99 12.2348C107.32 12.3755 107.616 12.553 107.876 12.7671C108.139 12.9813 108.347 13.2398 108.5 13.5427C108.653 13.8456 108.729 14.2005 108.729 14.6074C108.729 15.1581 108.588 15.643 108.307 16.0622C108.026 16.4782 107.619 16.8041 107.086 17.0396C106.557 17.2722 105.916 17.3884 105.163 17.3884C104.432 17.3884 103.797 17.2752 103.259 17.0488C102.724 16.8224 102.304 16.492 102.001 16.0576C101.702 15.6231 101.54 15.0938 101.515 14.4697H103.19C103.215 14.7971 103.316 15.0694 103.493 15.2866C103.67 15.5038 103.901 15.666 104.186 15.773C104.474 15.8801 104.795 15.9337 105.15 15.9337C105.52 15.9337 105.844 15.8786 106.123 15.7684C106.404 15.6552 106.624 15.4992 106.783 15.3004C106.942 15.0984 107.024 14.8629 107.027 14.5936C107.024 14.3489 106.952 14.1469 106.811 13.9879C106.67 13.8257 106.473 13.6911 106.219 13.584C105.968 13.4739 105.674 13.376 105.338 13.2903L104.269 13.0149C103.494 12.8161 102.883 12.5147 102.433 12.1109C101.986 11.704 101.763 11.164 101.763 10.4909C101.763 9.93715 101.913 9.45223 102.213 9.03615C102.515 8.62006 102.927 8.29729 103.447 8.06783C103.967 7.83531 104.556 7.71906 105.214 7.71906C105.881 7.71906 106.465 7.83531 106.967 8.06783C107.472 8.29729 107.868 8.617 108.156 9.02697C108.443 9.43387 108.592 9.90197 108.601 10.4313H106.962ZM115.226 10.4313C115.183 10.0305 115.002 9.7184 114.684 9.49506C114.369 9.27172 113.959 9.16005 113.454 9.16005C113.099 9.16005 112.795 9.21359 112.541 9.32067C112.287 9.42775 112.093 9.57308 111.958 9.75664C111.823 9.94021 111.755 10.1498 111.752 10.3854C111.752 10.5812 111.796 10.751 111.885 10.8948C111.976 11.0385 112.1 11.1609 112.256 11.2619C112.412 11.3598 112.585 11.4424 112.775 11.5097C112.965 11.577 113.156 11.6336 113.349 11.6795L114.23 11.8998C114.585 11.9824 114.926 12.0941 115.253 12.2348C115.584 12.3755 115.879 12.553 116.139 12.7671C116.402 12.9813 116.61 13.2398 116.763 13.5427C116.916 13.8456 116.992 14.2005 116.992 14.6074C116.992 15.1581 116.852 15.643 116.57 16.0622C116.289 16.4782 115.882 16.8041 115.349 17.0396C114.82 17.2722 114.179 17.3884 113.427 17.3884C112.695 17.3884 112.061 17.2752 111.522 17.0488C110.987 16.8224 110.568 16.492 110.265 16.0576C109.965 15.6231 109.803 15.0938 109.778 14.4697H111.453C111.478 14.7971 111.579 15.0694 111.756 15.2866C111.934 15.5038 112.165 15.666 112.449 15.773C112.737 15.8801 113.058 15.9337 113.413 15.9337C113.783 15.9337 114.107 15.8786 114.386 15.7684C114.667 15.6552 114.887 15.4992 115.047 15.3004C115.206 15.0984 115.287 14.8629 115.29 14.5936C115.287 14.3489 115.215 14.1469 115.074 13.9879C114.933 13.8257 114.736 13.6911 114.482 13.584C114.231 13.4739 113.938 13.376 113.601 13.2903L112.532 13.0149C111.758 12.8161 111.146 12.5147 110.696 12.1109C110.249 11.704 110.026 11.164 110.026 10.4909C110.026 9.93715 110.176 9.45223 110.476 9.03615C110.779 8.62006 111.19 8.29729 111.71 8.06783C112.23 7.83531 112.819 7.71906 113.477 7.71906C114.144 7.71906 114.728 7.83531 115.23 8.06783C115.735 8.29729 116.131 8.617 116.419 9.02697C116.706 9.43387 116.855 9.90197 116.864 10.4313H115.226Z" fill="#5263FF" />
	<defs>
		<clipPath id="clip0_21789_34475">
			<rect width="14.059" height="14.059" fill="white" transform="translate(6.03076 5.10773)" />
		</clipPath>
	</defs>
</svg>
