<svg width="22" height="22" viewBox="0 0 22 22" fill="none" xmlns="http://www.w3.org/2000/svg">
<g id="elements">
<path id="Subtract" fillRule="evenodd" clipRule="evenodd" d="M11.5303 0.46967C11.2374 0.176777 10.7626 0.176777 10.4697 0.46967L7.68934 3.25H4C3.58579 3.25 3.25 3.58579 3.25 4V7.68934L0.46967 10.4697C0.176777 10.7626 0.176777 11.2374 0.46967 11.5303L3.25 14.3107V18C3.25 18.4142 3.58579 18.75 4 18.75H7.68934L10.4697 21.5303C10.7626 21.8232 11.2374 21.8232 11.5303 21.5303L14.3107 18.75H18C18.4142 18.75 18.75 18.4142 18.75 18V14.3107L21.5303 11.5303C21.8232 11.2374 21.8232 10.7626 21.5303 10.4697L18.75 7.68934V4C18.75 3.58579 18.4142 3.25 18 3.25H14.3107L11.5303 0.46967ZM13.4257 8.01758L9.71637 12.4334L7.99208 10.934L7.00781 12.0659L9.88352 14.5665L14.5742 8.98237L13.4257 8.01758Z" fill="#34A853"/>
</g>
</svg>
